<svg width="904" height="902" viewBox="0 0 904 902" fill="none" xmlns="http://www.w3.org/2000/svg">
<path fill-rule="evenodd" clip-rule="evenodd" d="M453.296 902C451.765 902 448.702 902 447.171 902V898.937C453.296 898.937 460.953 898.937 467.079 898.937V902C462.485 902 457.891 902 453.296 902V902ZM425.731 902C419.606 902 411.949 900.468 405.823 900.468V897.406C411.949 897.406 419.606 898.937 425.731 898.937V902V902ZM486.988 900.468V897.406C493.114 897.406 500.771 895.874 506.897 895.874V898.937C500.771 900.468 494.645 900.468 486.988 900.468V900.468ZM385.913 897.406C379.788 895.874 372.131 895.874 366.005 894.343V891.28C372.131 892.812 379.788 894.343 385.913 894.343V897.406V897.406ZM528.336 895.874V892.811C534.462 891.28 542.119 889.749 548.244 888.217V891.28C542.119 894.343 534.462 894.343 528.336 895.874V895.874ZM346.099 889.749C339.973 888.217 332.316 886.686 326.191 885.154L327.722 882.092C333.848 883.623 341.505 885.154 347.63 886.686L346.099 889.749V889.749ZM568.153 888.217L566.621 885.154C572.747 883.623 580.404 882.091 586.53 879.029L588.061 882.091C581.935 883.623 574.278 885.154 568.153 888.217V888.217ZM306.281 877.497C300.155 875.966 294.029 872.903 286.372 869.84L287.904 866.778C294.029 869.84 300.155 871.372 306.281 874.435V877.497V877.497ZM606.438 875.966L604.906 872.903C611.032 871.372 617.158 868.309 623.283 865.246L624.815 868.309C620.22 869.84 614.095 872.903 606.438 875.966V875.966ZM267.997 863.715C261.872 860.652 255.746 857.589 249.62 854.526L251.152 851.463C257.277 854.526 263.403 857.589 269.529 860.652L267.997 863.715V863.715ZM644.723 859.12L643.191 856.057C649.317 852.995 655.443 849.932 661.568 846.869L663.1 849.932C656.974 852.995 650.848 856.057 644.723 859.12V859.12ZM231.243 845.338C225.117 842.275 218.992 839.212 214.397 834.618L215.929 831.555C222.054 834.618 228.18 839.212 232.774 842.275L231.243 845.338V845.338ZM679.946 840.743L678.415 837.681C684.54 834.618 690.666 830.024 695.26 826.961L696.792 830.024C692.197 833.086 686.072 837.681 679.946 840.743V840.743ZM197.552 823.898C191.427 820.835 186.833 816.241 180.707 811.647L182.238 808.584C188.364 813.178 192.958 816.241 199.084 820.835L197.552 823.898V823.898ZM715.169 817.772L713.638 814.709C719.763 810.115 724.358 807.052 730.483 802.458L732.015 805.521C725.889 810.115 719.763 814.709 715.169 817.772V817.772ZM163.86 797.864C159.266 793.27 153.14 788.676 148.546 784.081L150.077 781.019C154.671 785.613 160.797 790.207 165.391 794.801L163.86 797.864V797.864ZM747.327 793.27L745.795 790.207C750.39 785.613 756.515 781.019 761.109 776.424L764.172 779.487C756.515 784.081 751.921 788.676 747.327 793.27V793.27ZM134.762 771.83C130.168 767.236 125.574 762.641 120.979 756.516L124.042 754.984C128.637 759.579 133.231 764.173 137.825 770.298L134.762 771.83V771.83ZM776.424 765.704L773.361 762.641C777.956 758.047 782.55 753.453 787.144 747.327L790.207 748.859C785.613 754.984 781.018 761.11 776.424 765.704V765.704ZM107.198 741.202C102.603 736.607 98.0092 730.482 94.9464 725.888L98.0092 724.356C102.603 728.95 105.666 735.076 110.26 739.67L107.198 741.202V741.202ZM803.99 735.076L800.928 733.545C805.522 728.951 808.585 722.825 813.179 718.231L816.242 719.762C811.647 724.356 808.585 728.951 803.99 735.076V735.076ZM82.6955 709.042C78.1013 702.917 75.0385 698.323 71.9756 692.197L75.0385 690.666C78.1013 696.791 82.6955 701.385 85.7583 707.511L82.6955 709.042V709.042ZM828.491 701.385L825.428 699.854C828.491 693.728 833.085 689.134 836.148 683.008L839.21 684.54C836.148 690.666 831.553 696.791 828.491 701.385V701.385ZM59.7255 673.82C56.6627 667.694 53.5999 661.569 50.537 655.443L53.5999 653.912C56.6627 660.037 59.7255 666.163 62.7883 672.289L59.7255 673.82V673.82ZM849.932 666.163L846.87 664.632C849.932 658.506 852.995 652.38 856.058 646.255L859.121 647.786C856.058 655.443 852.995 661.569 849.932 666.163V666.163ZM41.3471 637.066C38.2843 630.94 35.2215 624.815 33.6901 618.689L36.7529 617.158C39.8157 623.283 41.3471 629.409 44.4099 635.534L41.3471 637.066V637.066ZM866.776 629.409L863.713 627.877C866.776 621.752 868.307 615.626 871.37 609.501L874.433 611.032C872.901 617.158 869.838 623.283 866.776 629.409V629.409ZM26.0344 600.312C24.503 594.186 21.4401 588.061 19.9087 580.404L22.9716 578.872C24.503 584.998 27.5658 591.124 29.0972 598.781L26.0344 600.312V600.312ZM882.09 591.124L879.027 589.593C880.559 583.467 883.622 577.341 885.153 569.684L888.216 571.216C885.153 578.873 883.622 584.998 882.09 591.124V591.124ZM15.313 560.495C13.7816 554.37 12.2502 546.713 10.7188 540.587H13.7816C15.313 546.713 16.8444 554.37 18.3758 560.495H15.313V560.495ZM892.813 552.838H889.75C891.281 546.713 892.813 539.056 894.344 532.93H897.407C895.876 539.056 894.344 545.181 892.813 552.838V552.838ZM6.12485 520.679C4.59344 514.554 4.59344 506.897 3.06204 500.771H6.12485C6.12485 506.897 7.65626 514.554 9.18767 520.679H6.12485V520.679ZM900.47 511.491H897.407C898.938 505.365 898.938 497.708 898.938 491.582H902.001C902.001 499.239 900.47 505.365 900.47 511.491V511.491ZM1.53141 480.862C1.53141 474.737 1.53141 467.08 0 460.954H3.06282C3.06282 467.08 3.06282 474.737 4.59423 480.862H1.53141V480.862ZM903.532 471.674H900.469C900.469 465.548 900.469 457.891 900.469 451.766C900.469 445.64 900.469 441.046 900.469 434.92H903.532C903.532 441.046 903.532 447.171 903.532 451.766C903.532 457.891 903.532 464.017 903.532 471.674V471.674ZM4.5955 439.514H1.53268C1.53268 433.389 1.53268 425.732 3.06409 419.606H6.12691C6.12691 425.732 4.5955 433.389 4.5955 439.514V439.514ZM898.938 413.481C898.938 407.355 897.407 399.698 897.407 393.572H900.47C902.001 399.698 902.001 407.355 902.001 413.481H898.938V413.481ZM7.65754 399.697H4.59472C6.12613 393.572 6.12613 385.915 7.65754 379.789H10.7204C9.18894 385.915 9.18894 392.04 7.65754 399.697V399.697ZM894.344 373.664C892.813 367.538 891.281 359.881 889.75 353.756H892.813C894.344 359.881 895.876 367.538 897.407 373.664H894.344V373.664ZM13.7816 358.35H10.7188C12.2502 352.224 13.7816 344.567 15.313 338.441L18.3758 339.973C16.8444 346.098 15.313 352.224 13.7816 358.35V358.35ZM885.153 333.847C883.622 327.721 882.09 320.064 879.027 313.939L882.09 312.407C883.622 318.533 886.684 326.19 888.216 332.316L885.153 333.847V333.847ZM24.5009 320.064L21.4381 318.533C22.9695 312.407 26.0323 304.75 27.5637 298.625L30.6265 300.156C29.0951 306.282 26.0323 313.939 24.5009 320.064V320.064ZM872.903 295.562C869.84 289.436 868.309 283.311 865.246 277.185L868.309 275.654C871.372 281.779 872.903 287.905 875.966 294.031L872.903 295.562V295.562ZM38.2858 281.779L35.223 280.248C38.2858 274.122 39.8172 267.997 42.8801 261.871L45.9429 263.402C42.8801 269.528 39.8172 275.654 38.2858 281.779V281.779ZM857.587 258.808C854.524 252.683 851.462 246.557 848.399 240.431L851.462 238.9C854.524 245.026 857.587 251.151 860.65 257.277L857.587 258.808V258.808ZM55.1292 245.026L52.0664 243.494C55.1292 237.369 58.192 231.243 61.2548 225.117L64.3177 226.649C61.2548 232.774 58.192 238.9 55.1292 245.026V245.026ZM837.68 222.054C834.618 215.928 830.023 209.803 826.961 205.209L830.023 203.677C833.086 209.803 837.68 214.397 840.743 220.523L837.68 222.054V222.054ZM75.0385 209.803L71.9756 208.272C75.0385 202.146 79.6327 197.552 82.6955 191.426L85.7583 192.958C82.6955 197.552 79.6327 203.677 75.0385 209.803V209.803ZM816.241 188.363C811.647 182.238 808.584 177.644 803.99 171.518L807.052 169.986C811.647 174.581 814.709 180.706 819.304 186.832L816.241 188.363V188.363ZM99.5422 176.112L96.4793 174.581C101.074 169.986 105.668 163.861 108.731 159.266L111.793 160.798C107.199 165.392 102.605 171.518 99.5422 176.112V176.112ZM790.206 157.735C785.612 153.141 781.018 147.015 776.423 142.421L779.486 139.358C784.08 143.953 788.675 150.078 793.269 154.672L790.206 157.735V157.735ZM125.575 145.484L122.513 142.421C127.107 137.827 131.701 133.232 136.295 127.107L139.358 130.17C134.764 136.295 130.17 140.889 125.575 145.484V145.484ZM762.642 127.107C758.048 122.513 753.454 117.919 747.328 113.324L748.859 110.262C753.454 114.856 759.579 119.45 764.173 124.044L762.642 127.107V127.107ZM154.672 117.918L153.141 114.855C157.735 110.261 163.861 105.667 168.455 101.073L169.986 104.135C163.861 108.73 159.266 113.324 154.672 117.918V117.918ZM732.013 101.073C727.418 96.4784 721.293 93.4156 715.167 88.8214L716.698 85.7585C722.824 90.3528 727.418 93.4156 733.544 98.0098L732.013 101.073V101.073ZM185.3 91.8845L183.769 88.8217C189.895 84.2275 194.489 81.1646 200.615 76.5704L202.146 79.6332C196.02 84.2275 191.426 87.2903 185.3 91.8845V91.8845ZM699.855 76.5701C693.73 73.5073 689.136 68.9131 683.01 65.8502L684.541 62.7874C690.667 65.8502 696.793 70.4445 701.387 73.5073L699.855 76.5701V76.5701ZM218.991 68.913L217.459 65.8502C223.585 62.7874 229.711 58.1932 235.836 55.1303L237.368 58.1932C231.242 61.256 225.116 65.8502 218.991 68.913V68.913ZM664.631 56.6625C658.505 53.5997 652.38 50.5369 646.254 47.4741L647.785 44.4112C653.911 47.4741 660.037 50.5369 666.162 53.5997L664.631 56.6625V56.6625ZM254.214 49.0055L252.682 45.9426C258.808 42.8798 264.934 39.817 271.059 36.7542L272.591 39.817C266.465 42.8798 260.339 45.9426 254.214 49.0055V49.0055ZM627.878 38.285C621.753 35.2222 615.627 33.6908 609.502 30.628L611.033 27.5652C617.159 30.628 623.284 32.1594 629.41 35.2222L627.878 38.285V38.285ZM290.966 33.691L289.434 30.6282C295.56 27.5654 301.686 26.034 309.343 22.9712L310.874 26.034C304.749 29.0968 297.092 30.6282 290.966 33.691V33.691ZM589.591 24.5026C583.466 22.9712 577.34 19.9083 569.683 18.3769L571.215 15.3141C577.34 16.8455 584.997 18.3769 591.123 21.4398L589.591 24.5026V24.5026ZM329.251 19.9081L327.72 16.8453C333.846 15.3139 341.503 13.7825 347.628 12.2511L349.16 15.3139C343.034 16.8453 336.908 18.3767 329.251 19.9081V19.9081ZM551.306 13.783C545.181 12.2516 537.524 10.7202 531.398 9.18881V6.12599C537.524 7.6574 545.181 9.18881 551.306 10.7202V13.783V13.783ZM369.071 10.7197V7.6569C375.197 6.12549 382.854 4.59408 388.979 4.59408V7.6569C382.854 9.1883 376.728 9.1883 369.071 10.7197V10.7197ZM509.959 7.65729C503.834 6.12588 496.177 6.12588 490.051 6.12588V3.06306C496.177 3.06306 503.834 4.59447 509.959 4.59447V7.65729V7.65729ZM408.885 4.59423V1.53141C415.011 1.53141 422.668 0 428.794 0V3.06282C422.668 4.59423 416.542 4.59423 408.885 4.59423V4.59423ZM470.141 3.06282C464.015 3.06282 457.89 3.06282 453.296 3.06282H450.233V0H453.296C459.421 0 465.547 0 471.672 0L470.141 3.06282V3.06282Z" fill="#2AC0C4"/>
<path fill-rule="evenodd" clip-rule="evenodd" d="M265.502 658.265C265.502 658.265 262.49 651.237 246.426 652.241C227.35 653.245 213.295 676.337 197.231 678.345C184.179 679.349 178.155 672.321 178.155 672.321L191.207 714.488C191.207 714.488 196.227 721.516 210.283 720.512C228.354 719.508 240.402 696.417 259.478 694.409C273.534 693.405 277.55 697.421 278.554 699.429L265.502 658.265V658.265ZM259.477 692.401C257.469 692.401 255.461 693.405 253.453 693.405C246.425 695.413 239.397 700.433 233.373 705.453C227.349 710.473 221.325 714.489 215.301 716.497V716.497C213.293 717.501 212.289 717.501 210.281 717.501C199.237 718.505 194.217 713.485 193.213 712.481L182.17 677.341C186.186 679.349 190.201 680.353 197.229 680.353C199.237 680.353 200.241 680.353 202.249 679.349C209.277 677.341 215.301 672.321 221.325 667.301C227.349 662.281 234.377 657.261 240.401 655.253C242.409 654.249 244.417 654.249 245.421 654.249C258.473 653.245 261.485 658.265 262.489 659.269L273.533 693.405C271.525 692.401 266.505 691.397 259.477 692.401V692.401Z" fill="#1FC3CC"/>
<path fill-rule="evenodd" clip-rule="evenodd" d="M240.402 679.349C237.39 670.313 229.358 666.297 223.334 671.317C216.306 675.333 213.294 686.377 216.306 695.413C219.318 704.448 227.35 708.464 233.374 703.444C240.402 698.425 242.41 687.381 240.402 679.349V679.349ZM231.366 695.413L232.37 698.425L230.362 699.429L229.358 696.417C227.35 697.421 226.346 698.425 224.338 698.425V696.417C225.342 696.417 227.35 695.413 228.354 694.409C230.362 693.405 231.366 690.393 230.362 689.389C230.362 687.381 228.354 687.381 226.346 688.385C223.334 689.389 221.326 689.389 220.322 686.377C219.318 684.369 220.322 681.357 223.334 678.345V675.333L225.342 674.329L226.346 677.341C228.354 676.337 229.358 675.333 230.362 675.333V677.341C229.358 677.341 228.354 677.341 226.346 679.349C224.338 681.357 223.334 683.365 224.338 684.369C224.338 685.373 226.346 685.373 228.354 685.373C231.366 684.369 233.374 685.373 234.378 687.381C235.382 689.389 234.378 692.401 231.366 695.413V695.413Z" fill="#1FC3CC"/>
<path fill-rule="evenodd" clip-rule="evenodd" d="M248.435 667.301C245.423 669.309 244.419 674.329 245.423 677.341C246.427 681.357 250.443 682.361 252.451 680.353C255.463 678.345 256.467 673.325 255.463 670.313C254.459 667.301 251.447 665.293 248.435 667.301V667.301ZM252.45 678.344H251.446L249.438 671.316V671.316L248.434 672.32V671.316L249.438 670.312H250.442L252.45 678.344V678.344Z" fill="#1FC3CC"/>
<path fill-rule="evenodd" clip-rule="evenodd" d="M201.246 690.393C198.234 692.401 197.23 697.421 198.234 700.433C199.238 704.449 203.254 705.453 205.262 703.445C208.274 701.437 209.278 696.417 208.274 693.405C208.274 689.389 204.258 688.385 201.246 690.393V690.393ZM206.265 700.433V700.433L203.253 694.409V694.409L202.249 695.413V694.409L203.253 693.405H204.257L206.265 700.433V700.433Z" fill="#1FC3CC"/>
<g opacity="0.4">
<path fill-rule="evenodd" clip-rule="evenodd" d="M669.11 567.307C669.11 577.347 661.078 585.379 651.038 585.379H253.457C243.417 585.379 235.385 577.347 235.385 567.307V284.18C235.385 274.14 243.417 266.109 253.457 266.109H651.038C661.078 266.109 669.11 274.14 669.11 284.18V567.307V567.307Z" fill="#4BA3CC"/>
<path fill-rule="evenodd" clip-rule="evenodd" d="M253.457 577.346C247.433 577.346 243.417 572.327 243.417 567.307V284.18C243.417 278.156 248.437 274.14 253.457 274.14H651.038C657.062 274.14 661.078 279.16 661.078 284.18V567.307C661.078 573.331 656.058 577.346 651.038 577.346H253.457V577.346Z" fill="white"/>
<path fill-rule="evenodd" clip-rule="evenodd" d="M669.109 314.3C669.109 315.304 668.105 315.304 667.101 315.304C666.097 315.304 657.061 315.304 647.021 315.304H256.468C246.428 315.304 237.392 315.304 236.388 315.304C235.384 315.304 234.38 314.3 234.38 314.3C234.38 313.296 234.38 305.264 234.38 295.225V283.177C234.38 273.137 242.412 265.105 252.452 265.105H650.033C660.073 265.105 668.105 273.137 668.105 283.177V295.225C669.109 305.264 669.109 314.3 669.109 314.3V314.3Z" fill="#4BA3CC"/>
<path fill-rule="evenodd" clip-rule="evenodd" d="M531.562 290.205C531.562 296.228 526.542 300.244 521.522 300.244H316.707C310.683 300.244 306.667 295.224 306.667 290.205V290.205C306.667 284.181 311.687 280.165 316.707 280.165H521.522C526.542 279.161 531.562 284.181 531.562 290.205V290.205V290.205Z" fill="white"/>
<path fill-rule="evenodd" clip-rule="evenodd" d="M261.487 300.245C267.032 300.245 271.527 295.75 271.527 290.205C271.527 284.66 267.032 280.165 261.487 280.165C255.942 280.165 251.447 284.66 251.447 290.205C251.447 295.75 255.942 300.245 261.487 300.245Z" fill="white"/>
<path fill-rule="evenodd" clip-rule="evenodd" d="M288.594 300.245C294.139 300.245 298.634 295.75 298.634 290.205C298.634 284.66 294.139 280.165 288.594 280.165C283.049 280.165 278.554 284.66 278.554 290.205C278.554 295.75 283.049 300.245 288.594 300.245Z" fill="white"/>
<path fill-rule="evenodd" clip-rule="evenodd" d="M547.625 300.245C553.17 300.245 557.665 295.75 557.665 290.205C557.665 284.66 553.17 280.165 547.625 280.165C542.08 280.165 537.585 284.66 537.585 290.205C537.585 295.75 542.08 300.245 547.625 300.245Z" fill="white"/>
<path fill-rule="evenodd" clip-rule="evenodd" d="M578.75 300.245C584.295 300.245 588.79 295.75 588.79 290.205C588.79 284.66 584.295 280.165 578.75 280.165C573.205 280.165 568.71 284.66 568.71 290.205C568.71 295.75 573.205 300.245 578.75 300.245Z" fill="white"/>
<path fill-rule="evenodd" clip-rule="evenodd" d="M609.872 300.245C615.417 300.245 619.912 295.75 619.912 290.205C619.912 284.66 615.417 280.165 609.872 280.165C604.328 280.165 599.833 284.66 599.833 290.205C599.833 295.75 604.328 300.245 609.872 300.245Z" fill="white"/>
<path fill-rule="evenodd" clip-rule="evenodd" d="M651.037 284.181C653.81 284.181 656.057 281.933 656.057 279.161C656.057 276.388 653.81 274.141 651.037 274.141C648.265 274.141 646.017 276.388 646.017 279.161C646.017 281.933 648.265 284.181 651.037 284.181Z" fill="white"/>
<path fill-rule="evenodd" clip-rule="evenodd" d="M633.97 284.181C636.742 284.181 638.99 281.933 638.99 279.161C638.99 276.388 636.742 274.141 633.97 274.141C631.197 274.141 628.95 276.388 628.95 279.161C628.95 281.933 631.197 284.181 633.97 284.181Z" fill="white"/>
<rect x="397.026" y="396.628" width="115.459" height="115.459" fill="#4BA3CC"/>
<path fill-rule="evenodd" clip-rule="evenodd" d="M614.892 481.967H526.541C525.537 481.967 524.533 480.963 524.533 479.959C524.533 478.955 525.537 477.951 526.541 477.951H614.892C615.896 477.951 616.9 478.955 616.9 479.959C616.9 480.963 615.896 481.967 614.892 481.967V481.967Z" fill="#4BA3CC"/>
<path fill-rule="evenodd" clip-rule="evenodd" d="M614.892 469.919H526.541C525.537 469.919 524.533 468.915 524.533 467.911C524.533 466.907 525.537 465.904 526.541 465.904H614.892C615.896 465.904 616.9 466.907 616.9 467.911C616.9 468.915 615.896 469.919 614.892 469.919V469.919Z" fill="#4BA3CC"/>
<path fill-rule="evenodd" clip-rule="evenodd" d="M614.892 457.871H526.541C525.537 457.871 524.533 456.867 524.533 455.863C524.533 454.859 525.537 453.855 526.541 453.855H614.892C615.896 453.855 616.9 454.859 616.9 455.863C616.9 456.867 615.896 457.871 614.892 457.871V457.871Z" fill="#4BA3CC"/>
<path fill-rule="evenodd" clip-rule="evenodd" d="M614.892 444.82H526.541C525.537 444.82 524.533 443.816 524.533 442.812C524.533 441.808 525.537 440.804 526.541 440.804H614.892C615.896 440.804 616.9 441.808 616.9 442.812C616.9 444.82 615.896 444.82 614.892 444.82V444.82Z" fill="#4BA3CC"/>
<path fill-rule="evenodd" clip-rule="evenodd" d="M614.892 432.772H526.541C525.537 432.772 524.533 431.768 524.533 430.764C524.533 429.76 525.537 428.756 526.541 428.756H614.892C615.896 428.756 616.9 429.76 616.9 430.764C616.9 431.768 615.896 432.772 614.892 432.772V432.772Z" fill="#4BA3CC"/>
<path fill-rule="evenodd" clip-rule="evenodd" d="M614.893 420.724H526.541C525.537 420.724 524.533 419.72 524.533 418.716C524.533 417.712 525.537 416.708 526.541 416.708H614.893C615.897 416.708 616.901 417.712 616.901 418.716C616.901 419.72 615.897 420.724 614.893 420.724V420.724Z" fill="#4BA3CC"/>
<path fill-rule="evenodd" clip-rule="evenodd" d="M600.836 399.64H526.541C525.537 399.64 524.533 398.636 524.533 397.632C524.533 396.628 525.537 395.624 526.541 395.624H600.836C601.84 395.624 602.844 396.628 602.844 397.632C602.844 398.636 601.84 399.64 600.836 399.64V399.64Z" fill="#4BA3CC"/>
</g>
<path fill-rule="evenodd" clip-rule="evenodd" d="M653.911 603.948C653.911 608.486 647.898 612.376 640.883 612.376H633.868C626.853 612.376 618.836 616.266 616.832 620.804L575.744 725.828C573.74 730.366 566.725 734.256 558.708 734.256H344.25C337.235 734.256 329.218 730.366 327.214 725.828L286.126 620.804C284.122 616.266 277.107 612.376 269.09 612.376H262.075C255.06 612.376 249.047 608.486 249.047 603.948V586.444C249.047 581.906 255.06 578.016 262.075 578.016H639.881C646.896 578.016 652.909 581.906 652.909 586.444V603.948H653.911ZM383.549 658.148C383.549 654.504 377.592 651.381 370.642 651.381V651.381C363.692 651.381 357.735 654.504 357.735 658.148V700.316C357.735 703.96 363.692 707.083 370.642 707.083V707.083C377.592 707.083 383.549 703.96 383.549 700.316V658.148V658.148ZM437.893 658.148C437.893 654.504 431.936 651.381 424.986 651.381V651.381C418.037 651.381 412.08 654.504 412.08 658.148V700.316C412.08 703.96 418.037 707.083 424.986 707.083V707.083C431.936 707.083 437.893 703.96 437.893 700.316V658.148V658.148ZM546.581 658.148C546.581 654.504 540.625 651.381 533.675 651.381V651.381C526.725 651.381 520.768 654.504 520.768 658.148V700.316C520.768 703.96 526.725 707.083 533.675 707.083V707.083C540.625 707.083 546.581 703.96 546.581 700.316V658.148V658.148ZM492.237 658.148C492.237 654.504 486.28 651.381 479.331 651.381V651.381C472.381 651.381 466.424 654.504 466.424 658.148V700.316C466.424 703.96 472.381 707.083 479.331 707.083V707.083C486.28 707.083 492.237 703.96 492.237 700.316V658.148V658.148Z" fill="#5ECCFF"/>
<path fill-rule="evenodd" clip-rule="evenodd" d="M576.741 723.92L577.745 720.908H326.746L327.75 723.92C329.758 730.948 336.786 736.972 344.818 736.972H561.681C567.705 736.972 574.733 730.948 576.741 723.92Z" fill="#1FC3CC"/>
<path fill-rule="evenodd" clip-rule="evenodd" d="M660.362 588.375L662.063 576.657H236.819L238.52 588.375C241.922 615.717 253.829 639.153 267.437 639.153H634.847C645.053 639.153 656.96 615.717 660.362 588.375Z" fill="#1FC3CC"/>
<path fill-rule="evenodd" clip-rule="evenodd" d="M451.799 403.186C446.779 403.186 441.759 401.03 437.743 396.719C437.743 396.719 437.743 396.719 437.743 395.642L380.515 313.731C376.499 308.343 375.495 301.876 378.507 295.409C381.519 288.943 386.539 285.71 393.567 285.71H417.663C415.655 209.188 400.595 195.177 398.587 193.022C392.563 191.944 387.543 186.555 387.543 180.089C386.539 172.544 392.563 166.078 399.591 165C400.595 165 402.603 165 405.615 165C413.647 165 435.735 167.156 454.811 187.633C473.887 208.111 484.93 241.521 486.938 286.787H512.038C519.066 286.787 524.086 290.021 527.098 296.487C530.11 301.876 529.106 309.42 525.09 314.809L467.863 396.719C467.863 396.719 467.863 396.719 467.863 397.797C461.839 399.953 456.819 403.186 451.799 403.186V403.186Z" fill="white"/>
<path fill-rule="evenodd" clip-rule="evenodd" d="M454.284 386.788L511.511 304.878C513.519 302.722 512.515 300.567 509.503 300.567H471.352C471.352 168.002 399.064 179.857 399.064 179.857C399.064 179.857 430.188 179.857 430.188 300.567H392.036C389.024 300.567 388.02 302.722 390.028 304.878L447.256 386.788C450.268 390.021 453.28 390.021 454.284 386.788Z" fill="#2AC0C4"/>
<path fill-rule="evenodd" clip-rule="evenodd" d="M195.224 532.455C193.216 532.455 192.212 530.447 192.212 529.443V460.168C192.212 458.16 194.22 457.156 195.224 457.156C197.232 457.156 198.236 459.164 198.236 460.168V529.443C198.236 531.451 197.232 532.455 195.224 532.455V532.455Z" fill="#F25A58"/>
<path fill-rule="evenodd" clip-rule="evenodd" d="M230.362 498.32H161.087C159.079 498.32 158.075 496.312 158.075 495.308C158.075 493.3 160.083 492.296 161.087 492.296H230.362C232.37 492.296 233.374 494.304 233.374 495.308C233.374 496.312 232.37 498.32 230.362 498.32V498.32Z" fill="#F25A58"/>
<path fill-rule="evenodd" clip-rule="evenodd" d="M195.224 550.527C164.1 550.527 139 525.427 139 494.303C139 463.179 164.1 438.08 195.224 438.08C226.347 438.08 251.447 463.179 251.447 494.303C251.447 525.427 226.347 550.527 195.224 550.527V550.527ZM195.223 445.108C168.115 445.108 146.027 467.196 146.027 494.303C146.027 521.411 168.115 543.499 195.223 543.499C222.331 543.499 244.419 521.411 244.419 494.303C244.419 467.196 222.331 445.108 195.223 445.108V445.108Z" fill="#F25A58"/>
<path fill-rule="evenodd" clip-rule="evenodd" d="M706.37 513.394L674.847 485.358C673.933 484.546 674.811 482.639 675.478 481.889C676.813 480.388 678.394 480.451 678.851 480.857L710.373 508.893C711.287 509.705 710.409 511.612 709.742 512.362C709.075 513.112 707.284 514.206 706.37 513.394Z" fill="#F25A58"/>
<path fill-rule="evenodd" clip-rule="evenodd" d="M705.778 507.766L735.823 478.152C736.694 477.294 738.539 478.295 739.244 479.01C740.654 480.44 740.488 482.013 740.052 482.442L710.007 512.056C709.136 512.914 707.291 511.913 706.586 511.198C705.881 510.483 704.907 508.624 705.778 507.766Z" fill="#F25A58"/>
<path fill-rule="evenodd" clip-rule="evenodd" d="M708.776 550.527C677.653 550.527 652.553 525.427 652.553 494.303C652.553 463.179 677.653 438.08 708.776 438.08C739.9 438.08 765 463.179 765 494.303C765 525.427 739.9 550.527 708.776 550.527V550.527ZM708.776 445.108C681.668 445.108 659.58 467.196 659.58 494.303C659.58 521.411 681.668 543.499 708.776 543.499C735.883 543.499 757.971 521.411 757.971 494.303C757.971 467.196 735.883 445.108 708.776 445.108V445.108Z" fill="#F25A58"/>
<path fill-rule="evenodd" clip-rule="evenodd" d="M354.857 404.66V404.66L342.81 393.616C342.81 393.616 342.81 392.612 342.81 391.608C342.81 391.608 343.814 391.608 344.818 391.608L355.861 402.652C355.861 403.656 355.861 403.656 354.857 404.66C355.861 404.66 354.857 404.66 354.857 404.66V404.66Z" fill="#4BA3CC"/>
<path fill-rule="evenodd" clip-rule="evenodd" d="M354.858 404.66V404.66C353.854 403.656 353.854 403.656 353.854 402.652L364.898 391.608C364.898 391.608 365.902 391.608 366.906 391.608C366.906 391.608 366.906 392.612 366.906 393.616L354.858 404.66C355.862 404.66 354.858 404.66 354.858 404.66V404.66Z" fill="#4BA3CC"/>
<path fill-rule="evenodd" clip-rule="evenodd" d="M354.858 404.66C353.854 404.66 353.854 403.656 353.854 403.656V374.54C353.854 373.536 353.854 373.536 354.858 373.536C355.862 373.536 355.862 374.54 355.862 374.54V403.656C355.862 404.66 355.862 404.66 354.858 404.66V404.66Z" fill="#4BA3CC"/>
<path fill-rule="evenodd" clip-rule="evenodd" d="M372.93 418.716H336.786C334.778 418.716 333.774 416.708 333.774 415.704V403.656C333.774 402.652 334.778 402.652 334.778 402.652C335.782 402.652 335.782 402.652 335.782 403.656V414.7C335.782 415.704 336.786 415.704 336.786 415.704H372.93C373.934 415.704 373.934 414.7 373.934 414.7V403.656C373.934 402.652 373.934 402.652 374.938 402.652C375.942 402.652 375.942 402.652 375.942 403.656V414.7C376.946 416.708 374.938 418.716 372.93 418.716V418.716Z" fill="#4BA3CC"/>
<path fill-rule="evenodd" clip-rule="evenodd" d="M423.131 472.932V495.019C423.131 497.027 424.135 498.031 426.143 498.031H448.231V472.932H423.131V472.932Z" fill="white"/>
<path fill-rule="evenodd" clip-rule="evenodd" d="M448.231 438.796H426.143C424.135 438.796 423.131 439.8 423.131 441.808V463.896H448.231V438.796V438.796Z" fill="white"/>
<path fill-rule="evenodd" clip-rule="evenodd" d="M480.359 438.796H458.271V463.895H483.371V441.808C483.371 439.8 481.363 438.796 480.359 438.796V438.796Z" fill="white"/>
<path fill-rule="evenodd" clip-rule="evenodd" d="M458.271 499.035H480.359C482.367 499.035 483.371 498.031 483.371 496.023V473.935H458.271V499.035V499.035Z" fill="white"/>
<path fill-rule="evenodd" clip-rule="evenodd" d="M469.314 413.696C453.25 397.632 450.238 432.772 450.238 432.772H457.266C456.262 432.772 485.378 430.764 469.314 413.696V413.696ZM457.265 428.756H454.253C454.253 428.756 455.257 410.684 464.293 418.716C472.325 427.752 457.265 428.756 457.265 428.756V428.756Z" fill="white"/>
<path fill-rule="evenodd" clip-rule="evenodd" d="M448.23 428.756C445.218 428.756 435.178 425.744 442.206 418.716C446.222 414.7 448.23 416.708 450.238 419.72C451.242 417.712 451.242 416.708 452.246 414.7C449.234 409.68 445.218 406.668 437.186 413.696C423.13 427.752 441.202 431.768 447.226 432.772C447.226 431.768 448.23 430.764 448.23 428.756V428.756Z" fill="white"/>
</svg>
