<svg width="904" height="902" viewBox="0 0 904 902" fill="none" xmlns="http://www.w3.org/2000/svg">
<path fill-rule="evenodd" clip-rule="evenodd" d="M453.296 902C451.765 902 448.702 902 447.171 902V898.937C453.296 898.937 460.953 898.937 467.079 898.937V902C462.485 902 457.891 902 453.296 902V902ZM425.731 902C419.606 902 411.949 900.468 405.823 900.468V897.406C411.949 897.406 419.606 898.937 425.731 898.937V902V902ZM486.988 900.468V897.406C493.114 897.406 500.771 895.874 506.897 895.874V898.937C500.771 900.468 494.645 900.468 486.988 900.468V900.468ZM385.913 897.406C379.788 895.874 372.131 895.874 366.005 894.343V891.28C372.131 892.812 379.788 894.343 385.913 894.343V897.406V897.406ZM528.336 895.874V892.811C534.462 891.28 542.119 889.749 548.244 888.217V891.28C542.119 894.343 534.462 894.343 528.336 895.874V895.874ZM346.099 889.749C339.973 888.217 332.316 886.686 326.191 885.154L327.722 882.092C333.848 883.623 341.505 885.154 347.63 886.686L346.099 889.749V889.749ZM568.153 888.217L566.621 885.154C572.747 883.623 580.404 882.091 586.53 879.029L588.061 882.091C581.935 883.623 574.278 885.154 568.153 888.217V888.217ZM306.281 877.497C300.155 875.966 294.029 872.903 286.372 869.84L287.904 866.778C294.029 869.84 300.155 871.372 306.281 874.435V877.497V877.497ZM606.438 875.966L604.906 872.903C611.032 871.372 617.158 868.309 623.283 865.246L624.815 868.309C620.22 869.84 614.095 872.903 606.438 875.966V875.966ZM267.997 863.715C261.872 860.652 255.746 857.589 249.62 854.526L251.152 851.463C257.277 854.526 263.403 857.589 269.529 860.652L267.997 863.715V863.715ZM644.723 859.12L643.191 856.057C649.317 852.995 655.443 849.932 661.568 846.869L663.1 849.932C656.974 852.995 650.848 856.057 644.723 859.12V859.12ZM231.243 845.338C225.117 842.275 218.992 839.212 214.397 834.618L215.929 831.555C222.054 834.618 228.18 839.212 232.774 842.275L231.243 845.338V845.338ZM679.946 840.743L678.415 837.681C684.54 834.618 690.666 830.024 695.26 826.961L696.792 830.024C692.197 833.086 686.072 837.681 679.946 840.743V840.743ZM197.552 823.898C191.427 820.835 186.833 816.241 180.707 811.647L182.238 808.584C188.364 813.178 192.958 816.241 199.084 820.835L197.552 823.898V823.898ZM715.169 817.772L713.638 814.709C719.763 810.115 724.358 807.052 730.483 802.458L732.015 805.521C725.889 810.115 719.763 814.709 715.169 817.772V817.772ZM163.86 797.864C159.266 793.27 153.14 788.676 148.546 784.081L150.077 781.019C154.671 785.613 160.797 790.207 165.391 794.801L163.86 797.864V797.864ZM747.327 793.27L745.795 790.207C750.39 785.613 756.515 781.019 761.109 776.424L764.172 779.487C756.515 784.081 751.921 788.676 747.327 793.27V793.27ZM134.762 771.83C130.168 767.236 125.574 762.641 120.979 756.516L124.042 754.984C128.637 759.579 133.231 764.173 137.825 770.298L134.762 771.83V771.83ZM776.424 765.704L773.361 762.641C777.956 758.047 782.55 753.453 787.144 747.327L790.207 748.859C785.613 754.984 781.018 761.11 776.424 765.704V765.704ZM107.198 741.202C102.603 736.607 98.0092 730.482 94.9464 725.888L98.0092 724.356C102.603 728.95 105.666 735.076 110.26 739.67L107.198 741.202V741.202ZM803.99 735.076L800.928 733.545C805.522 728.951 808.585 722.825 813.179 718.231L816.242 719.762C811.647 724.356 808.585 728.951 803.99 735.076V735.076ZM82.6955 709.042C78.1013 702.917 75.0385 698.323 71.9756 692.197L75.0385 690.666C78.1013 696.791 82.6955 701.385 85.7583 707.511L82.6955 709.042V709.042ZM828.491 701.385L825.428 699.854C828.491 693.728 833.085 689.134 836.148 683.008L839.21 684.54C836.148 690.666 831.553 696.791 828.491 701.385V701.385ZM59.7255 673.82C56.6627 667.694 53.5999 661.569 50.537 655.443L53.5999 653.912C56.6627 660.037 59.7255 666.163 62.7883 672.289L59.7255 673.82V673.82ZM849.932 666.163L846.87 664.632C849.932 658.506 852.995 652.38 856.058 646.255L859.121 647.786C856.058 655.443 852.995 661.569 849.932 666.163V666.163ZM41.3471 637.066C38.2843 630.94 35.2215 624.815 33.6901 618.689L36.7529 617.158C39.8157 623.283 41.3471 629.409 44.4099 635.534L41.3471 637.066V637.066ZM866.776 629.409L863.713 627.877C866.776 621.752 868.307 615.626 871.37 609.501L874.433 611.032C872.901 617.158 869.838 623.283 866.776 629.409V629.409ZM26.0344 600.312C24.503 594.186 21.4401 588.061 19.9087 580.404L22.9716 578.872C24.503 584.998 27.5658 591.124 29.0972 598.781L26.0344 600.312V600.312ZM882.09 591.124L879.027 589.593C880.559 583.467 883.622 577.341 885.153 569.684L888.216 571.216C885.153 578.873 883.622 584.998 882.09 591.124V591.124ZM15.313 560.495C13.7816 554.37 12.2502 546.713 10.7188 540.587H13.7816C15.313 546.713 16.8444 554.37 18.3758 560.495H15.313V560.495ZM892.813 552.838H889.75C891.281 546.713 892.813 539.056 894.344 532.93H897.407C895.876 539.056 894.344 545.181 892.813 552.838V552.838ZM6.12485 520.679C4.59344 514.554 4.59344 506.897 3.06204 500.771H6.12485C6.12485 506.897 7.65626 514.554 9.18767 520.679H6.12485V520.679ZM900.47 511.491H897.407C898.938 505.365 898.938 497.708 898.938 491.582H902.001C902.001 499.239 900.47 505.365 900.47 511.491V511.491ZM1.53141 480.862C1.53141 474.737 1.53141 467.08 0 460.954H3.06282C3.06282 467.08 3.06282 474.737 4.59423 480.862H1.53141V480.862ZM903.532 471.674H900.469C900.469 465.548 900.469 457.891 900.469 451.766C900.469 445.64 900.469 441.046 900.469 434.92H903.532C903.532 441.046 903.532 447.171 903.532 451.766C903.532 457.891 903.532 464.017 903.532 471.674V471.674ZM4.5955 439.514H1.53268C1.53268 433.389 1.53268 425.732 3.06409 419.606H6.12691C6.12691 425.732 4.5955 433.389 4.5955 439.514V439.514ZM898.938 413.481C898.938 407.355 897.407 399.698 897.407 393.572H900.47C902.001 399.698 902.001 407.355 902.001 413.481H898.938V413.481ZM7.65754 399.697H4.59472C6.12613 393.572 6.12613 385.915 7.65754 379.789H10.7204C9.18894 385.915 9.18894 392.04 7.65754 399.697V399.697ZM894.344 373.664C892.813 367.538 891.281 359.881 889.75 353.756H892.813C894.344 359.881 895.876 367.538 897.407 373.664H894.344V373.664ZM13.7816 358.35H10.7188C12.2502 352.224 13.7816 344.567 15.313 338.441L18.3758 339.973C16.8444 346.098 15.313 352.224 13.7816 358.35V358.35ZM885.153 333.847C883.622 327.721 882.09 320.064 879.027 313.939L882.09 312.407C883.622 318.533 886.684 326.19 888.216 332.316L885.153 333.847V333.847ZM24.5009 320.064L21.4381 318.533C22.9695 312.407 26.0323 304.75 27.5637 298.625L30.6265 300.156C29.0951 306.282 26.0323 313.939 24.5009 320.064V320.064ZM872.903 295.562C869.84 289.436 868.309 283.311 865.246 277.185L868.309 275.654C871.372 281.779 872.903 287.905 875.966 294.031L872.903 295.562V295.562ZM38.2858 281.779L35.223 280.248C38.2858 274.122 39.8172 267.997 42.8801 261.871L45.9429 263.402C42.8801 269.528 39.8172 275.654 38.2858 281.779V281.779ZM857.587 258.808C854.524 252.683 851.462 246.557 848.399 240.431L851.462 238.9C854.524 245.026 857.587 251.151 860.65 257.277L857.587 258.808V258.808ZM55.1292 245.026L52.0664 243.494C55.1292 237.369 58.192 231.243 61.2548 225.117L64.3177 226.649C61.2548 232.774 58.192 238.9 55.1292 245.026V245.026ZM837.68 222.054C834.618 215.928 830.023 209.803 826.961 205.209L830.023 203.677C833.086 209.803 837.68 214.397 840.743 220.523L837.68 222.054V222.054ZM75.0385 209.803L71.9756 208.272C75.0385 202.146 79.6327 197.552 82.6955 191.426L85.7583 192.958C82.6955 197.552 79.6327 203.677 75.0385 209.803V209.803ZM816.241 188.363C811.647 182.238 808.584 177.644 803.99 171.518L807.052 169.986C811.647 174.581 814.709 180.706 819.304 186.832L816.241 188.363V188.363ZM99.5422 176.112L96.4793 174.581C101.074 169.986 105.668 163.861 108.731 159.266L111.793 160.798C107.199 165.392 102.605 171.518 99.5422 176.112V176.112ZM790.206 157.735C785.612 153.141 781.018 147.015 776.423 142.421L779.486 139.358C784.08 143.953 788.675 150.078 793.269 154.672L790.206 157.735V157.735ZM125.575 145.484L122.513 142.421C127.107 137.827 131.701 133.232 136.295 127.107L139.358 130.17C134.764 136.295 130.17 140.889 125.575 145.484V145.484ZM762.642 127.107C758.048 122.513 753.454 117.919 747.328 113.324L748.859 110.262C753.454 114.856 759.579 119.45 764.173 124.044L762.642 127.107V127.107ZM154.672 117.918L153.141 114.855C157.735 110.261 163.861 105.667 168.455 101.073L169.986 104.135C163.861 108.73 159.266 113.324 154.672 117.918V117.918ZM732.013 101.073C727.418 96.4784 721.293 93.4156 715.167 88.8214L716.698 85.7585C722.824 90.3528 727.418 93.4156 733.544 98.0098L732.013 101.073V101.073ZM185.3 91.8845L183.769 88.8217C189.895 84.2275 194.489 81.1646 200.615 76.5704L202.146 79.6332C196.02 84.2275 191.426 87.2903 185.3 91.8845V91.8845ZM699.855 76.5701C693.73 73.5073 689.136 68.9131 683.01 65.8502L684.541 62.7874C690.667 65.8502 696.793 70.4445 701.387 73.5073L699.855 76.5701V76.5701ZM218.991 68.913L217.459 65.8502C223.585 62.7874 229.711 58.1932 235.836 55.1303L237.368 58.1932C231.242 61.256 225.116 65.8502 218.991 68.913V68.913ZM664.631 56.6625C658.505 53.5997 652.38 50.5369 646.254 47.4741L647.785 44.4112C653.911 47.4741 660.037 50.5369 666.162 53.5997L664.631 56.6625V56.6625ZM254.214 49.0055L252.682 45.9426C258.808 42.8798 264.934 39.817 271.059 36.7542L272.591 39.817C266.465 42.8798 260.339 45.9426 254.214 49.0055V49.0055ZM627.878 38.285C621.753 35.2222 615.627 33.6908 609.502 30.628L611.033 27.5652C617.159 30.628 623.284 32.1594 629.41 35.2222L627.878 38.285V38.285ZM290.966 33.691L289.434 30.6282C295.56 27.5654 301.686 26.034 309.343 22.9712L310.874 26.034C304.749 29.0968 297.092 30.6282 290.966 33.691V33.691ZM589.591 24.5026C583.466 22.9712 577.34 19.9083 569.683 18.3769L571.215 15.3141C577.34 16.8455 584.997 18.3769 591.123 21.4398L589.591 24.5026V24.5026ZM329.251 19.9081L327.72 16.8453C333.846 15.3139 341.503 13.7825 347.628 12.2511L349.16 15.3139C343.034 16.8453 336.908 18.3767 329.251 19.9081V19.9081ZM551.306 13.783C545.181 12.2516 537.524 10.7202 531.398 9.18881V6.12599C537.524 7.6574 545.181 9.18881 551.306 10.7202V13.783V13.783ZM369.071 10.7197V7.6569C375.197 6.12549 382.854 4.59408 388.979 4.59408V7.6569C382.854 9.1883 376.728 9.1883 369.071 10.7197V10.7197ZM509.959 7.65729C503.834 6.12588 496.177 6.12588 490.051 6.12588V3.06306C496.177 3.06306 503.834 4.59447 509.959 4.59447V7.65729V7.65729ZM408.885 4.59423V1.53141C415.011 1.53141 422.668 0 428.794 0V3.06282C422.668 4.59423 416.542 4.59423 408.885 4.59423V4.59423ZM470.141 3.06282C464.015 3.06282 457.89 3.06282 453.296 3.06282H450.233V0H453.296C459.421 0 465.547 0 471.672 0L470.141 3.06282V3.06282Z" fill="#2AC0C4"/>
<path fill-rule="evenodd" clip-rule="evenodd" d="M632.148 627.475L631.22 625.619C628.437 621.909 553.295 532.852 553.295 491.107C553.295 448.434 588.547 414.11 632.148 414.11C675.748 414.11 711 448.434 711 491.107C711 532.852 636.786 621.909 633.075 625.619L632.148 627.475V627.475ZM632.147 416.893C590.402 416.893 557.006 450.29 557.006 491.107C557.006 529.142 621.943 609.849 632.147 621.909C642.352 609.849 707.289 528.214 707.289 491.107C707.289 450.29 672.965 416.893 632.147 416.893V416.893Z" fill="#ABE4FF"/>
<path fill-rule="evenodd" clip-rule="evenodd" d="M632.147 530.069C608.955 530.069 591.33 511.515 591.33 489.251C591.33 466.987 609.883 448.434 632.147 448.434C654.411 448.434 672.965 466.987 672.965 489.251C672.965 511.515 654.411 530.069 632.147 530.069V530.069ZM632.147 451.217C610.811 451.217 594.112 467.915 594.112 489.251C594.112 510.588 610.811 527.286 632.147 527.286C653.484 527.286 670.182 510.588 670.182 489.251C670.182 467.915 652.556 451.217 632.147 451.217V451.217Z" fill="#ABE4FF"/>
<path fill-rule="evenodd" clip-rule="evenodd" d="M261.078 348.245L260.151 347.318C258.295 344.535 211.912 288.874 211.912 262.899C211.912 235.997 234.176 214.66 261.078 214.66C287.981 214.66 310.245 235.997 310.245 262.899C310.245 288.874 263.861 344.535 262.006 347.318L261.078 348.245V348.245ZM261.079 216.515C235.104 216.515 213.767 236.924 213.767 262.899C213.767 286.091 254.585 337.113 261.079 344.534C267.572 337.113 308.39 286.091 308.39 262.899C308.39 236.924 287.054 216.515 261.079 216.515V216.515Z" fill="#ABE4FF"/>
<path fill-rule="evenodd" clip-rule="evenodd" d="M261.078 287.018C247.163 287.018 235.104 275.886 235.104 261.043C235.104 247.128 246.236 235.069 261.078 235.069C274.993 235.069 287.053 246.201 287.053 261.043C287.053 275.886 275.921 287.018 261.078 287.018V287.018ZM261.079 237.852C248.091 237.852 236.959 248.057 236.959 261.972C236.959 274.959 247.164 286.091 261.079 286.091C274.066 286.091 285.198 275.887 285.198 261.972C285.198 248.057 274.066 237.852 261.079 237.852V237.852Z" fill="#ABE4FF"/>
<path fill-rule="evenodd" clip-rule="evenodd" d="M154.396 417.82V417.82C152.541 415.965 121 377.93 121 360.304C121 342.679 135.843 327.836 154.396 327.836C172.95 327.836 187.792 342.679 187.792 360.304C187.792 377.93 156.252 415.965 154.396 417.82V417.82V417.82ZM154.396 328.763C136.77 328.763 122.855 342.678 122.855 360.304C122.855 376.075 150.685 410.399 154.396 415.965C159.034 410.399 185.937 377.002 185.937 360.304C185.937 342.678 172.022 328.763 154.396 328.763V328.763Z" fill="#ABE4FF"/>
<path fill-rule="evenodd" clip-rule="evenodd" d="M154.396 377.003C145.12 377.003 136.771 369.581 136.771 359.377C136.771 349.172 144.192 341.751 154.396 341.751C163.673 341.751 172.022 349.172 172.022 359.377C172.022 369.581 163.673 377.003 154.396 377.003V377.003ZM154.396 343.606C145.119 343.606 138.625 351.027 138.625 359.376C138.625 367.725 146.047 375.147 154.396 375.147C162.745 375.147 170.166 367.725 170.166 359.376C170.166 351.027 162.745 343.606 154.396 343.606V343.606Z" fill="#ABE4FF"/>
<path fill-rule="evenodd" clip-rule="evenodd" d="M303.751 681.28C276.849 681.28 254.584 659.016 254.584 632.113V355.667C254.584 328.764 276.849 306.5 303.751 306.5H580.198C607.1 306.5 629.364 328.764 629.364 355.667V632.113C629.364 659.016 607.1 681.28 580.198 681.28H303.751V681.28Z" fill="#005780"/>
<path fill-rule="evenodd" clip-rule="evenodd" d="M607.101 632.113C607.101 646.956 595.041 659.016 580.199 659.016H303.752C288.909 659.016 276.85 646.956 276.85 632.113V355.667C276.85 340.824 288.909 328.764 303.752 328.764H580.199C595.041 328.764 607.101 340.824 607.101 355.667V632.113V632.113Z" fill="#ABE4FF"/>
<mask id="mask0" mask-type="alpha" maskUnits="userSpaceOnUse" x="276" y="328" width="332" height="332">
<path fill-rule="evenodd" clip-rule="evenodd" d="M607.1 632.113C607.1 646.956 595.04 659.016 580.198 659.016H303.751C288.908 659.016 276.849 646.956 276.849 632.113V355.667C276.849 340.824 288.908 328.764 303.751 328.764H580.198C595.04 328.764 607.1 340.824 607.1 355.667V632.113V632.113Z" fill="white"/>
</mask>
<g mask="url(#mask0)">
<path fill-rule="evenodd" clip-rule="evenodd" d="M56.9898 959.582C53.2791 959.582 49.5684 957.727 46.7854 954.944C42.147 949.378 42.147 941.029 47.7131 935.463L74.6156 910.415C71.8325 910.415 69.0495 909.488 66.2665 908.56C59.7728 904.849 57.9175 895.573 62.5558 890.007L130.276 787.035L64.4112 715.604L27.3043 749.928V749.928L-36.7051 809.299C-42.2712 813.937 -50.6202 813.937 -56.1863 808.371C-60.8246 802.805 -60.8246 794.456 -55.2586 788.89L1.32944 736.941L-41.3435 668.293L-78.4504 681.28C-81.2334 684.991 -85.8718 687.774 -90.5101 687.774C-92.3655 687.774 -93.2932 687.774 -95.1485 686.846L-165.652 711.893C-166.579 711.893 -167.507 712.821 -168.435 712.821C-170.29 712.821 -171.218 712.821 -173.073 712.821C-174.928 712.821 -176.784 711.893 -178.639 710.038C-180.494 709.11 -181.422 707.255 -182.35 705.4C-183.277 704.472 -183.277 702.617 -184.205 700.761C-184.205 699.834 -184.205 698.906 -184.205 697.978L-178.639 560.683V560.683V560.683L-173.073 426.17C-173.073 422.46 -171.218 418.749 -168.435 416.894L-78.4504 334.331L-122.051 286.092C-126.689 280.526 -126.689 272.177 -121.123 266.611C-115.557 261.972 -107.208 261.972 -101.642 267.538L-48.7649 325.054V325.054V325.054L-9.80264 367.727L118.216 195.18L11.5338 140.447C5.04013 136.736 2.25711 128.387 5.9678 121.894C9.67849 115.4 18.0275 112.617 24.5213 116.328L135.842 172.916L177.587 116.328L85.7476 72.727C79.2539 69.944 76.4709 61.595 79.2539 54.1736C82.0369 47.6799 90.386 44.8969 97.8074 47.6799L204.49 98.7019C204.49 98.7019 204.49 98.7019 205.417 98.7019L241.597 116.328L251.801 94.9912L148.829 33.7648C142.336 30.0541 140.48 21.7051 144.191 15.2113C147.902 8.71764 156.251 6.86229 162.744 10.573L262.933 70.8717L307.461 -24.6786V-24.6786L328.798 -70.1345V-70.1345L340.858 -95.1817C343.641 -101.675 351.99 -104.458 359.411 -101.675C365.905 -98.8924 368.688 -90.5433 365.905 -83.1219L356.628 -63.6408L425.276 74.5824L444.757 61.595L466.093 13.356C468.876 6.86229 477.225 3.15161 483.719 6.8623C490.213 9.64531 493.924 17.9944 490.213 24.4881L467.021 76.4377C466.093 79.2207 464.238 81.0761 462.383 82.0038L436.408 99.6295L457.744 142.302L546.801 99.6295L548.656 61.595C548.656 54.1736 555.15 48.6076 562.571 48.6076C569.993 48.6076 575.559 55.1013 575.559 62.5226L573.703 107.979C573.703 107.979 573.703 107.979 573.703 108.906L569.065 216.516C569.065 216.516 569.065 216.516 569.065 217.444L564.427 337.114C564.427 340.824 562.571 344.535 559.788 346.39L523.609 379.787V379.787L484.647 415.038L489.285 430.809L635.857 274.96L637.713 106.123C637.713 98.7019 644.207 92.2082 651.628 92.2082C659.049 92.2082 665.543 98.7019 665.543 106.123L663.688 280.526C663.688 284.236 662.76 287.019 659.977 289.802L644.207 305.573L702.65 366.799L709.144 210.023C709.144 202.601 715.637 197.035 723.059 197.035C730.48 197.035 736.046 203.529 736.046 210.95L728.625 400.195C728.625 403.906 726.769 406.689 724.914 409.472C724.914 409.472 724.914 409.472 723.986 410.4L520.826 596.862V596.862V596.862V596.862C518.043 598.717 515.26 599.645 512.477 600.573L477.225 601.5L408.578 698.906L404.867 817.648L480.008 899.283C484.647 904.849 484.647 913.198 479.081 918.764C473.515 923.403 465.166 923.403 459.6 917.837L380.748 832.491V832.491L339.93 788.89V788.89L299.112 744.362L67.1942 957.727C64.4112 957.727 60.7005 959.582 56.9898 959.582V959.582ZM159.034 794.456L93.1693 894.645L280.559 722.098L261.078 700.761L159.034 794.456V794.456ZM364.05 773.12L377.965 787.962L379.82 710.966L366.833 713.749L364.05 773.12V773.12ZM85.7474 697.05L148.829 765.698L241.596 680.352L208.2 644.173C198.923 649.739 187.791 652.522 176.659 651.594C165.527 651.594 154.395 647.884 146.046 641.39L85.7474 697.05V697.05ZM313.955 718.387L338.075 745.289L339.93 707.255L318.593 684.063L313.955 718.387V718.387ZM-14.4413 659.944L21.7379 718.387L79.2536 665.51L52.3511 635.824L-14.4413 659.944V659.944ZM269.427 670.148L289.836 692.412L302.823 607.067L271.283 607.994L269.427 670.148V670.148ZM324.159 649.74L359.411 687.774L386.313 682.208L442.901 602.428L331.581 606.139L324.159 649.74V649.74ZM-150.809 575.525L-155.448 679.425L-102.57 660.871L-98.8598 577.381L-150.809 575.525V575.525ZM-71.0282 579.237L-73.8112 651.595L-38.5597 639.535C-38.5597 639.535 -38.5597 639.535 -37.632 639.535L44.9308 610.778V583.875L-71.0282 579.237V579.237ZM69.9774 615.415L99.663 647.884L127.493 622.837C116.361 603.356 117.289 578.309 130.276 559.755L84.8202 510.588L69.0498 524.504L69.9774 615.415V615.415ZM228.61 626.547L243.452 642.318L245.308 595.006V595.006L247.163 549.55L231.393 564.393C242.525 582.947 241.597 607.066 228.61 626.547V626.547ZM166.455 622.837C170.166 624.692 173.876 624.692 177.587 625.62C181.298 625.62 185.009 625.62 188.719 623.765L177.587 611.705L166.455 622.837V622.837ZM198.924 593.152L210.056 605.211C212.839 597.79 212.839 590.369 210.983 582.947L198.924 593.152V593.152ZM149.757 580.164C146.974 587.585 146.046 595.007 148.829 602.428L160.889 591.296L149.757 580.164V580.164ZM274.993 522.648L272.21 581.092L306.534 580.164L318.594 501.312L309.317 491.108L274.993 522.648V522.648ZM346.424 507.806L335.292 579.236L397.446 577.381L392.808 495.746L346.424 507.806V507.806ZM418.782 487.397L424.348 575.526L468.877 573.67V573.67L494.851 572.743L473.515 472.554L418.782 487.397V487.397ZM169.238 561.611L180.37 573.67L192.43 562.538C185.008 559.755 176.659 559.755 169.238 561.611V561.611ZM498.562 459.566L519.899 559.755L579.27 505.022L519.899 437.302L498.562 459.566V459.566ZM-70.1017 552.334L42.1467 556.972V527.287L-67.3187 476.265L-70.1017 552.334V552.334ZM-149.881 548.623L-97.9314 550.478L-94.2207 454.928C-94.2207 454 -94.2207 453.072 -94.2207 452.145C-94.2207 451.217 -93.293 450.289 -93.293 449.362C-93.293 448.434 -92.3653 447.506 -92.3653 446.579C-91.4376 445.651 -91.4376 444.723 -90.51 444.723L-29.2836 388.135L-60.8244 353.812L-146.17 432.664L-149.881 548.623V548.623ZM179.442 532.853C191.502 532.853 202.634 536.564 212.838 543.057L242.524 515.227L172.021 439.158L108.939 496.674L148.829 540.274C159.033 535.636 169.238 532.853 179.442 532.853V532.853ZM-55.2585 451.217L53.2792 502.239L66.2666 490.18L57.9175 480.903V480.903V480.903L-8.87489 408.544L-55.2585 451.217V451.217ZM183.153 410.399L262.933 496.673L301.896 460.494V460.494V460.494V460.494C302.823 459.566 304.679 458.638 306.534 457.711L376.109 430.808L365.905 322.27L274.993 275.887C273.138 275.887 271.282 274.959 270.355 274.031C269.427 273.104 267.572 272.176 266.644 271.248L248.091 261.972L168.311 394.629L183.153 410.399V410.399V410.399V410.399ZM537.524 417.821L598.751 486.468L626.581 461.421L563.499 391.846L537.524 417.821V417.821ZM334.365 477.192L338.075 481.83L400.229 465.132C400.229 465.132 400.229 465.132 401.157 465.132L467.022 447.506L461.456 428.953L396.519 454C396.519 454 396.519 454 395.591 454L334.365 477.192V477.192ZM87.6025 472.554L91.3132 477.192L154.395 419.676L150.684 415.038L87.6025 472.554V472.554ZM9.67874 388.136L69.0498 452.145L140.481 386.281L223.971 248.985L143.264 208.167L9.67874 388.136V388.136ZM581.125 372.365L646.062 443.796L694.301 399.268L624.726 325.982L581.125 372.365V372.365ZM392.807 321.343L402.084 421.532L461.455 398.34L496.707 365.871L453.106 287.947L430.842 300.006V300.006V300.006L392.807 321.343V321.343ZM477.226 274.96L518.043 347.318L537.524 329.692L541.235 239.708L477.226 274.96V274.96ZM295.402 255.478L377.965 298.151L405.795 282.381L363.122 205.384L331.581 190.541L295.402 255.478V255.478ZM391.879 201.673L429.914 269.394L478.153 242.491L444.757 176.626L391.879 201.673V201.673ZM222.115 218.371L271.282 243.419L307.461 179.409L252.728 153.434L222.115 218.371V218.371ZM469.804 164.567L502.273 229.504L543.09 207.24L546.801 129.315L469.804 164.567V164.567ZM159.034 185.903L197.996 205.385L227.682 141.375L200.779 128.388L159.034 185.903V185.903ZM345.495 167.349L373.326 180.337L432.697 151.579L413.216 112.617L356.627 147.868L345.495 167.349V167.349ZM264.789 128.388L321.377 155.29L328.798 142.303L274.066 109.834L264.789 128.388V128.388ZM332.508 -17.2569L355.7 116.328L400.228 89.4255L339.002 -33.0273L332.508 -17.2569V-17.2569ZM285.197 84.7861L328.798 110.761L313.955 25.4151L285.197 84.7861V84.7861Z" fill="#41B9F0"/>
<path fill-rule="evenodd" clip-rule="evenodd" d="M56.9904 952.161C55.135 952.161 53.2797 951.233 52.352 950.306C49.569 947.523 49.569 942.884 52.352 941.029L288.908 723.026L260.151 691.485L152.541 789.818L79.2545 900.211C77.3991 902.994 72.7608 903.922 69.9778 902.067C67.1947 900.211 66.2671 895.573 68.1224 892.79L138.626 786.108L66.2671 707.255C66.2671 707.255 65.3394 706.328 65.3394 705.4L23.5941 744.362V744.362L-40.4153 803.733C-43.1983 806.516 -47.8366 806.516 -49.692 803.733C-52.475 800.95 -52.475 796.312 -49.692 794.457L10.6067 738.796L-37.6323 660.872L-82.1605 676.642C-83.0882 679.425 -85.8712 682.208 -88.6543 682.208C-90.5096 682.208 -91.4373 681.281 -92.3649 680.353L-166.579 706.328H-167.506C-168.434 706.328 -169.362 706.328 -170.289 706.328C-171.217 706.328 -172.145 705.4 -173.072 705.4C-174 704.472 -174.928 704.472 -174.928 703.545C-174.928 702.617 -175.855 701.689 -175.855 701.689C-175.855 700.762 -175.855 700.762 -175.855 699.834L-170.289 562.539V562.539V562.539L-164.723 428.026C-164.723 426.171 -163.796 424.315 -162.868 423.388L-68.2454 336.186L-116.484 283.309C-119.267 280.526 -119.267 275.888 -116.484 274.032C-113.701 271.249 -109.063 271.249 -107.208 274.032L-54.3304 331.548V331.548V331.548L-9.80208 379.787L127.493 194.252L13.3897 135.809C9.67904 133.954 8.75138 130.243 10.6067 126.532C12.4621 122.822 16.1728 121.894 19.8834 123.749L135.843 183.12L185.937 115.4L86.6759 68.089C82.9652 66.2337 82.0375 62.523 83.8929 58.8123C85.7482 55.1016 89.4589 54.1739 93.1696 56.0293L199.852 107.051V107.051L242.525 127.46L258.295 94.0639L150.685 29.1268C147.902 27.2714 146.047 22.6331 147.902 19.8501C149.758 17.067 154.396 15.2117 157.179 17.067L263.861 81.0765L312.1 -21.8952V-21.8952L333.437 -67.3512V-67.3512L345.497 -92.3983C347.352 -96.109 351.063 -97.0367 354.773 -96.109C358.484 -94.2537 359.412 -90.543 358.484 -86.8323L348.28 -64.5681L422.493 83.8595L450.324 65.306L472.588 15.2117C474.443 11.501 478.154 10.5733 481.864 11.501C485.575 13.3564 486.503 17.067 485.575 20.7777L462.383 72.7274C461.456 73.6551 461.456 74.5827 459.6 75.5104L428.987 95.9192L455.89 149.724L555.151 102.413L557.006 60.6677C557.006 56.957 560.717 54.174 564.427 54.174C568.138 54.174 570.921 57.8846 570.921 61.5953L569.066 107.051V107.051L564.427 215.589V215.589L559.789 335.259C559.789 337.114 558.861 338.969 557.934 339.897L521.754 373.293V373.293L480.009 412.256L490.213 442.869L646.99 276.815L648.845 105.196C648.845 101.485 651.628 98.7022 655.339 98.7022C659.05 98.7022 661.833 101.485 661.833 105.196L659.978 279.598C659.978 281.454 659.05 283.309 658.122 284.237L634.93 305.573L708.217 382.57L715.638 210.023C715.638 206.312 719.349 203.529 723.059 203.529C726.77 203.529 729.553 207.24 729.553 210.951L722.132 400.196V400.196V400.196V400.196V400.196V400.196V400.196V400.196V400.196V400.196V400.196V400.196V400.196V400.196V400.196V400.196V400.196V400.196V400.196V400.196V400.196V400.196V400.196V400.196V400.196C722.132 402.051 721.204 402.979 720.276 403.907V403.907V403.907L517.116 590.369V590.369C516.188 591.296 514.333 592.224 512.478 592.224L473.515 594.079L401.157 696.123L397.446 819.504L474.443 902.994C477.226 905.777 477.226 910.416 474.443 912.271C471.66 915.054 467.022 915.054 465.166 912.271L386.314 826.925V826.925L345.497 783.325V783.325L300.041 733.23L63.484 951.233C60.701 952.161 58.8457 952.161 56.9904 952.161V952.161ZM356.628 774.975L383.531 804.66L386.314 701.689L360.339 707.255L356.628 774.975V774.975ZM75.5438 697.051C76.4715 697.051 76.4715 697.979 76.4715 697.979L147.902 775.904L250.874 681.281L209.129 635.825C199.852 642.319 188.72 646.029 176.66 645.102C164.6 644.174 153.468 640.463 145.119 633.042L75.5438 697.051V697.051ZM306.534 721.17L343.641 761.987L347.352 705.399L313.956 669.22L306.534 721.17V721.17ZM-24.6455 656.234L20.8105 729.52L89.4582 666.438L55.1344 628.403L-24.6455 656.234V656.234ZM262.006 672.932L294.474 708.183L311.173 600.573L264.789 602.429L262.006 672.932V672.932ZM316.738 651.594L356.628 695.195L390.024 687.774L455.889 595.006L325.087 599.645L316.738 651.594V651.594ZM-157.302 569.032L-161.941 689.63L-95.1484 666.438L-91.4377 571.815L-157.302 569.032V569.032ZM-77.5219 571.815L-81.2326 661.799L-36.7043 646.028V646.028L50.4969 615.415V577.381L-77.5219 571.815V571.815ZM219.333 626.548L249.018 659.016L251.801 595.007V595.007L254.584 532.853L222.116 562.538C236.031 582.019 235.103 607.994 219.333 626.548V626.548ZM63.484 618.198L99.6633 657.161L136.77 623.764C122.855 604.283 123.783 577.381 139.553 559.755L86.6759 502.239V502.239V502.239V502.239L63.484 523.576V618.198V618.198ZM155.324 623.765C161.817 628.403 169.239 631.186 177.588 632.114C185.937 632.114 193.358 630.259 200.78 625.62L179.443 602.428L155.324 623.765V623.765ZM188.72 593.151L210.056 616.343C220.26 603.355 221.188 584.802 211.911 571.815L188.72 593.151V593.151ZM147.902 569.032C137.697 582.02 136.77 600.573 146.046 613.56L169.238 592.224L147.902 569.032V569.032ZM268.5 519.866L265.717 588.513L313.028 586.658L326.943 498.529L310.245 480.903L268.5 519.866V519.866ZM339.93 502.24L326.943 586.658L403.94 583.875L398.373 486.469L339.93 502.24V502.24ZM158.107 559.755L179.443 582.947L202.635 561.611C189.647 551.406 172.022 550.479 158.107 559.755V559.755ZM411.361 482.758L416.927 582.946L467.949 581.091V581.091L502.273 580.163L478.153 465.132L411.361 482.758V482.758ZM491.141 457.711L515.26 572.742L587.619 505.95L518.971 428.025L491.141 457.711V457.711ZM-77.523 558.828L49.5682 564.394V523.577L-72.8846 466.061L-77.523 558.828V558.828ZM-156.375 555.117L-90.5103 557.9L-85.872 454.928C-85.872 454 -85.872 454 -85.872 453.073V452.145V452.145V452.145C-85.872 452.145 -85.872 451.217 -84.9443 451.217L-84.0166 450.29L-17.2242 389.063L-58.0418 344.535L-150.809 429.881L-156.375 555.117V555.117ZM179.443 540.274C191.503 540.274 203.562 543.985 213.767 552.334L252.729 516.155L172.949 429.881L100.591 496.674L149.757 549.551C158.106 543.057 168.311 540.274 179.443 540.274V540.274ZM-67.3177 453.073L55.135 510.589L76.4715 490.18L63.4841 476.265V476.265V476.265L-7.9467 398.34L-67.3177 453.073V453.073ZM178.516 415.038L262.934 506.878L306.534 466.06C307.462 465.133 308.39 465.133 308.39 465.133L383.531 436.375L372.399 318.56L276.849 269.394C275.921 269.394 274.066 269.394 273.138 268.466C272.211 267.538 271.283 267.538 271.283 266.611L245.308 253.623L159.962 395.557L178.516 415.038V415.038V415.038V415.038ZM529.175 417.821L598.751 496.673L635.858 462.349L562.571 381.642L529.175 417.821V417.821ZM322.305 474.41L336.22 489.253L403.012 471.627V471.627L475.371 452.146L465.166 419.677L393.736 447.508V447.508L322.305 474.41V474.41ZM90.387 486.47V486.47L163.673 419.677L150.686 405.762L78.3272 472.554L90.387 486.47V486.47V486.47V486.47ZM0.402374 389.063L68.1225 462.349L145.119 391.846L232.321 247.129L140.481 199.818L0.402374 389.063V389.063ZM571.849 372.365L645.135 453.072L703.578 399.267L623.798 315.777L571.849 372.365V372.365ZM386.314 317.633L396.518 430.809L466.094 403.906L505.983 366.799L455.889 278.67L428.059 294.441V294.441V294.441L386.314 317.633V317.633ZM467.949 272.177L516.188 357.523L544.018 331.548L548.657 226.721L467.949 272.177V272.177ZM286.125 258.261L378.892 305.573L415.999 285.164L368.688 200.746L329.726 182.192L286.125 258.261V258.261ZM382.603 198.89L427.131 278.67L486.502 245.274L447.54 167.349L382.603 198.89V198.89ZM213.767 221.155L274.066 251.768L316.739 175.699L249.018 143.23L213.767 221.155V221.155ZM460.528 161.783L498.562 238.78L548.657 210.95L552.367 117.255L460.528 161.783V161.783ZM148.83 188.686L200.779 215.589L236.959 138.592L198.924 120.966L148.83 188.686V188.686ZM336.22 170.132L373.327 187.758L441.974 155.29L415.999 103.34V103.34L351.99 142.302L336.22 170.132V170.132ZM255.512 132.098L324.16 164.567L338.075 140.448L271.282 100.558L255.512 132.098V132.098ZM326.015 -18.1843L351.99 127.46L410.433 91.2811L340.858 -48.7975L326.015 -18.1843V-18.1843ZM275.921 87.5699L337.147 124.677L315.811 3.1517L275.921 87.5699V87.5699Z" fill="white"/>
</g>
<path fill-rule="evenodd" clip-rule="evenodd" d="M159.035 554.188H276.849C281.487 554.188 285.198 550.478 285.198 545.839V492.962C285.198 488.323 281.487 484.613 276.849 484.613H159.035C154.396 484.613 150.686 488.323 150.686 492.962V545.839C150.686 550.478 154.396 554.188 159.035 554.188V554.188Z" fill="#35809B"/>
<path fill-rule="evenodd" clip-rule="evenodd" d="M159.035 550.477H276.849C281.487 550.477 285.198 546.767 285.198 542.128V489.251C285.198 484.613 281.487 480.902 276.849 480.902H159.035C154.396 480.902 150.686 484.613 150.686 489.251V542.128C150.686 546.767 154.396 550.477 159.035 550.477V550.477Z" fill="#05428E"/>
<path fill-rule="evenodd" clip-rule="evenodd" d="M161.819 520.792C164.38 520.792 166.457 518.716 166.457 516.154C166.457 513.592 164.38 511.516 161.819 511.516C159.257 511.516 157.18 513.592 157.18 516.154C157.18 518.716 159.257 520.792 161.819 520.792Z" fill="#069ADA"/>
<rect x="277.777" y="508.732" width="9.27673" height="12.9874" fill="#0779BF"/>
<path fill-rule="evenodd" clip-rule="evenodd" d="M150.686 542.128C150.686 546.766 154.396 550.477 159.035 550.477H276.849C281.487 550.477 285.198 546.766 285.198 542.128V515.225H150.686V542.128V542.128Z" fill="#4A9AFF"/>
<rect x="170.167" y="486.468" width="97.4056" height="57.5157" fill="#7ED3F7"/>
<g opacity="0.5">
<rect x="170.167" y="516.154" width="97.4056" height="28.7578" fill="#069ADA"/>
</g>
<path fill-rule="evenodd" clip-rule="evenodd" d="M255.512 512.443C251.802 512.443 248.091 510.588 246.236 507.805C238.814 499.456 214.695 469.77 214.695 451.217C214.695 428.952 233.248 411.327 255.512 411.327C277.777 411.327 296.33 428.952 296.33 451.217C296.33 469.77 272.211 499.456 265.717 507.805C262.934 510.588 259.223 512.443 255.512 512.443V512.443Z" fill="#ABD9F1"/>
<path fill-rule="evenodd" clip-rule="evenodd" d="M255.513 508.733C252.73 508.733 250.874 507.805 249.019 505.95C244.381 500.383 218.406 468.843 218.406 451.217C218.406 431.736 235.104 415.038 254.585 415.038C274.994 415.038 290.764 430.808 290.764 451.217C290.764 468.843 265.717 499.456 260.151 505.95C261.079 507.805 258.296 508.733 255.513 508.733V508.733V508.733Z" fill="white"/>
<path fill-rule="evenodd" clip-rule="evenodd" d="M284.27 451.217C284.27 466.06 256.44 500.384 256.44 500.384C256.44 500.384 228.61 466.987 228.61 451.217C228.61 436.374 241.597 423.387 256.44 423.387C271.283 423.387 284.27 436.374 284.27 451.217V451.217Z" fill="#F25A58"/>
<path fill-rule="evenodd" clip-rule="evenodd" d="M255.513 466.059C263.71 466.059 270.355 459.414 270.355 451.216C270.355 443.019 263.71 436.374 255.513 436.374C247.315 436.374 240.67 443.019 240.67 451.216C240.67 459.414 247.315 466.059 255.513 466.059Z" fill="white"/>
<g opacity="0.28">
<path fill-rule="evenodd" clip-rule="evenodd" d="M760.167 184.047H454.035C441.975 184.047 431.771 194.251 431.771 206.311V362.16C431.771 374.219 441.975 384.424 454.035 384.424H566.283L565.355 427.097L646.063 384.424H760.167C772.226 384.424 782.431 374.219 782.431 362.16V206.311C782.431 194.251 772.226 184.047 760.167 184.047V184.047Z" fill="#4BA3CC"/>
</g>
<path fill-rule="evenodd" clip-rule="evenodd" d="M718.421 159.927H412.289C400.229 159.927 390.025 170.132 390.025 182.191V338.04C390.025 350.1 400.229 360.305 412.289 360.305H524.537L565.355 428.025L604.317 360.305H718.421C730.481 360.305 740.685 350.1 740.685 338.04V182.191C740.685 170.132 730.481 159.927 718.421 159.927V159.927Z" fill="#F25A58"/>
<path fill-rule="evenodd" clip-rule="evenodd" d="M541.235 349.172C537.525 343.606 531.031 339.895 524.537 339.895H412.289C411.361 339.895 410.434 338.968 410.434 338.04V182.191C410.434 181.263 411.361 180.336 412.289 180.336H718.421C719.349 180.336 720.276 181.263 720.276 182.191V338.04C720.276 338.968 719.349 339.895 718.421 339.895H604.317C596.896 339.895 590.402 343.606 586.691 350.1L564.427 388.134L541.235 349.172V349.172Z" fill="white"/>
<path fill-rule="evenodd" clip-rule="evenodd" d="M480.035 254.962H473.541V216.927L484.673 224.349C484.673 224.349 484.673 224.349 484.673 225.277L480.035 254.962V254.962Z" fill="#421B1B"/>
<path fill-rule="evenodd" clip-rule="evenodd" d="M480.962 248.469V254.035L490.239 260.528L495.805 262.384L498.588 271.66L500.444 284.648L473.541 297.635V251.252L480.962 248.469Z" fill="#D6AF7E"/>
<path fill-rule="evenodd" clip-rule="evenodd" d="M473.541 243.83V258.673V258.673L479.107 254.034L480.035 250.324L481.89 243.83H473.541Z" fill="#E0A763"/>
<path fill-rule="evenodd" clip-rule="evenodd" d="M473.541 248.468V241.975V216.927L480.962 217.855L484.673 224.349V224.349L483.745 236.409V236.409L481.89 243.83L477.252 247.541L473.541 248.468V248.468Z" fill="#F2C48C"/>
<path fill-rule="evenodd" clip-rule="evenodd" d="M475.396 231.77V231.77L480.962 230.842L480.034 222.493L483.745 225.276L485.6 231.77L484.673 236.408V237.336L483.745 242.902L478.179 248.468L480.962 242.902L482.817 239.192L484.673 234.553V232.698H482.817H477.251L475.396 231.77V231.77Z" fill="#F2B76F"/>
<path fill-rule="evenodd" clip-rule="evenodd" d="M476.324 232.697L479.107 231.77L480.962 232.697V233.625H478.179H476.324V232.697Z" fill="#71ACBD"/>
<path fill-rule="evenodd" clip-rule="evenodd" d="M477.252 232.698H479.108V233.626H478.18H477.252V232.698Z" fill="#008BB2"/>
<path fill-rule="evenodd" clip-rule="evenodd" d="M473.541 231.77V240.119L474.469 239.191V232.697L473.541 231.77Z" fill="#F8D6BC"/>
<path fill-rule="evenodd" clip-rule="evenodd" d="M473.541 239.192H474.469L475.396 240.119H473.541V239.192Z" fill="#F2C084"/>
<path fill-rule="evenodd" clip-rule="evenodd" d="M475.396 241.975L477.252 242.903H474.469H473.541V241.975H475.396Z" fill="#D89344"/>
<path fill-rule="evenodd" clip-rule="evenodd" d="M473.541 242.903V243.83H475.396L477.252 242.903H474.469H473.541Z" fill="#FFB273"/>
<path fill-rule="evenodd" clip-rule="evenodd" d="M473.541 244.758V244.758H475.396V243.83L474.469 244.758H473.541Z" fill="#CFB39D"/>
<path fill-rule="evenodd" clip-rule="evenodd" d="M486.529 229.915V229.915V229.915L485.601 236.409V237.336V237.336H484.673V237.336V237.336V231.77C484.673 230.843 486.529 229.915 486.529 229.915V229.915Z" fill="#F2B76F"/>
<path fill-rule="evenodd" clip-rule="evenodd" d="M473.541 251.251V251.251L478.179 250.323L481.89 254.034L491.167 258.673L481.89 265.166L473.541 264.239V251.251Z" fill="#E6B173"/>
<path fill-rule="evenodd" clip-rule="evenodd" d="M481.89 254.034L477.252 257.745L473.541 258.673V297.635H505.082L503.227 268.877L501.371 262.383L491.167 258.673L481.89 254.034Z" fill="#B0E0FF"/>
<path fill-rule="evenodd" clip-rule="evenodd" d="M486.528 254.962L480.962 265.166L473.541 272.587V297.635H505.082L503.227 268.877L501.371 262.383L492.094 257.745L486.528 254.962Z" fill="#005F9E"/>
<path fill-rule="evenodd" clip-rule="evenodd" d="M475.396 229.915H479.107L481.89 230.843V230.843H477.251H475.396V229.915Z" fill="#5C4D4D"/>
<path fill-rule="evenodd" clip-rule="evenodd" d="M473.542 221.566L479.108 220.638L482.818 225.277V231.77L484.674 230.843L485.601 222.494L480.963 216H473.542V221.566Z" fill="#42210B"/>
<path fill-rule="evenodd" clip-rule="evenodd" d="M473.541 255.89L477.252 263.312L483.745 254.962L481.89 252.179L473.541 255.89Z" fill="#BDE5FF"/>
<path fill-rule="evenodd" clip-rule="evenodd" d="M473.541 255.89V255.89V258.673L477.252 263.312L473.541 255.89Z" fill="#65B1E3"/>
<path fill-rule="evenodd" clip-rule="evenodd" d="M467.048 254.962H473.541V216.927L462.409 224.349C462.409 224.349 462.409 224.349 462.409 225.277L467.048 254.962V254.962Z" fill="#421B1B"/>
<path fill-rule="evenodd" clip-rule="evenodd" d="M466.119 248.469V254.035L456.842 260.528L451.276 262.384L448.493 271.66L446.638 284.648L473.54 297.635V251.252L466.119 248.469Z" fill="#D6AF7E"/>
<path fill-rule="evenodd" clip-rule="evenodd" d="M473.541 243.83V258.673V258.673L467.975 254.034L467.048 250.324L465.192 243.83H473.541Z" fill="#E0B076"/>
<path fill-rule="evenodd" clip-rule="evenodd" d="M473.541 248.468V241.975V216.927L466.12 217.855L462.409 224.349V224.349L463.337 236.409V236.409L465.192 243.83L469.831 247.541L473.541 248.468V248.468Z" fill="#F2CDA1"/>
<path fill-rule="evenodd" clip-rule="evenodd" d="M471.685 231.77V231.77L466.119 230.842L467.047 222.493L463.336 225.276L461.48 231.77L462.408 236.408V237.336L463.336 242.902L468.902 248.468L466.119 242.902L464.263 239.192L462.408 234.553V232.698H464.263H469.83L471.685 231.77V231.77Z" fill="#F2C084"/>
<path fill-rule="evenodd" clip-rule="evenodd" d="M470.758 232.697L467.975 231.77L466.12 232.697V233.625H468.903H470.758V232.697Z" fill="#71ACBD"/>
<path fill-rule="evenodd" clip-rule="evenodd" d="M469.83 232.698H467.975V233.626H468.903H469.83V232.698Z" fill="#008BB2"/>
<path fill-rule="evenodd" clip-rule="evenodd" d="M473.54 231.77V240.119L472.613 239.191V232.697L473.54 231.77Z" fill="#F8D6BC"/>
<path fill-rule="evenodd" clip-rule="evenodd" d="M473.54 239.192H472.613L471.685 240.12H473.54V239.192Z" fill="#F2C084"/>
<path fill-rule="evenodd" clip-rule="evenodd" d="M471.685 241.975L469.83 242.903H471.685H473.541V241.975H471.685Z" fill="#D89344"/>
<path fill-rule="evenodd" clip-rule="evenodd" d="M473.541 242.903V243.831H471.685L469.83 242.903H472.613H473.541Z" fill="#FFB273"/>
<path fill-rule="evenodd" clip-rule="evenodd" d="M473.54 244.758V244.758H471.685V243.83L472.613 244.758H473.54Z" fill="#CFB39D"/>
<path fill-rule="evenodd" clip-rule="evenodd" d="M460.553 229.915V229.915V229.915L461.481 236.409V237.336V237.336H462.409V237.336V237.336V231.77C462.409 230.843 460.553 229.915 460.553 229.915V229.915Z" fill="#F2C084"/>
<path fill-rule="evenodd" clip-rule="evenodd" d="M473.541 251.251V251.251L468.903 250.323L465.192 254.034L455.916 258.673L465.192 265.166L473.541 264.239V251.251Z" fill="#E6BA87"/>
<path fill-rule="evenodd" clip-rule="evenodd" d="M465.192 254.034L469.83 257.745L473.541 258.673V297.635H442L443.855 268.877L445.711 262.383L454.987 258.673L465.192 254.034Z" fill="#D9F0FF"/>
<path fill-rule="evenodd" clip-rule="evenodd" d="M460.553 254.962L466.119 265.166L473.541 272.587V297.635H442L443.855 268.877L445.711 262.383L454.987 257.745L460.553 254.962Z" fill="#0071BC"/>
<path fill-rule="evenodd" clip-rule="evenodd" d="M471.686 229.915H467.975L465.192 230.843V230.843H468.903H471.686V229.915Z" fill="#5C4D4D"/>
<path fill-rule="evenodd" clip-rule="evenodd" d="M473.54 221.566L467.974 220.638L464.263 225.277V231.77L462.408 230.843L461.48 222.494L466.119 216H473.54V221.566Z" fill="#42210B"/>
<path fill-rule="evenodd" clip-rule="evenodd" d="M473.541 255.89L469.83 263.312L463.336 254.962L465.192 252.179L473.541 255.89Z" fill="#E8F6FF"/>
<path fill-rule="evenodd" clip-rule="evenodd" d="M473.541 255.89V255.89V258.673L469.83 263.312L473.541 255.89Z" fill="#65B1E3"/>
<g opacity="0.2">
<path fill-rule="evenodd" clip-rule="evenodd" d="M469.83 216.927H480.034L483.745 222.494L482.817 225.277L480.034 219.711H473.541L468.902 217.855L469.83 216.927Z" fill="#DBFAFF"/>
</g>
<g opacity="0.28">
<path fill-rule="evenodd" clip-rule="evenodd" d="M474.469 271.66L473.542 272.588V257.745H474.469V271.66Z" fill="#65B1E3"/>
</g>
<g opacity="0.2">
<path fill-rule="evenodd" clip-rule="evenodd" d="M565.355 427.097L604.318 359.377H718.421C730.481 359.377 740.686 349.173 740.686 337.113V181.264C740.686 169.204 730.481 159 718.421 159H628.437L528.249 365.871L565.355 427.097V427.097Z" fill="#ABE4FF"/>
</g>
<path fill-rule="evenodd" clip-rule="evenodd" d="M686.881 294.44H554.224C553.296 294.44 552.368 293.512 552.368 292.584C552.368 291.657 553.296 290.729 554.224 290.729H686.881C687.808 290.729 688.736 291.657 688.736 292.584C688.736 293.512 687.808 294.44 686.881 294.44V294.44Z" fill="#AEA3C2"/>
<path fill-rule="evenodd" clip-rule="evenodd" d="M686.881 270.321H554.224C553.296 270.321 552.369 269.393 552.369 268.465C552.369 267.538 553.296 266.61 554.224 266.61H686.881C687.809 266.61 688.737 267.538 688.737 268.465C688.737 269.393 687.809 270.321 686.881 270.321V270.321Z" fill="#AEA3C2"/>
<path fill-rule="evenodd" clip-rule="evenodd" d="M676.676 232.286V232.286L670.182 236.925C669.255 237.852 669.255 236.925 669.255 235.997L671.11 228.576V228.576L664.616 223.937C663.688 223.01 663.688 223.01 664.616 223.01H672.038V223.01L674.821 216.516C674.821 215.588 675.748 215.588 675.748 216.516L678.531 223.01V223.01H685.953C686.88 223.01 686.88 223.937 685.953 223.937L679.459 228.576V228.576L681.314 235.997C681.314 236.925 681.314 236.925 680.387 236.925C682.242 236.925 676.676 232.286 676.676 232.286V232.286Z" fill="#FF9305"/>
<path fill-rule="evenodd" clip-rule="evenodd" d="M646.99 232.286V232.286L640.497 236.925C639.569 237.852 639.569 236.925 639.569 235.997L641.424 228.576V228.576L634.931 223.937C634.003 223.01 634.003 223.01 634.931 223.01H642.352V223.01L645.135 216.516C645.135 215.588 646.063 215.588 646.063 216.516L648.846 223.01V223.01H656.267C657.195 223.01 657.195 223.937 656.267 223.937L649.773 228.576V228.576L651.629 235.997C651.629 236.925 651.629 236.925 650.701 236.925C653.484 236.925 646.99 232.286 646.99 232.286V232.286Z" fill="#FF9305"/>
<path fill-rule="evenodd" clip-rule="evenodd" d="M618.232 232.286V232.286L611.738 236.925C610.811 237.852 610.811 236.925 610.811 235.997L612.666 228.576V228.576L606.172 223.937C605.245 223.01 605.245 223.01 606.172 223.01H613.594V223.01L616.377 216.516C616.377 215.588 617.304 215.588 617.304 216.516L620.087 223.01V223.01H627.509C628.436 223.01 628.436 223.937 627.509 223.937L621.015 228.576V228.576L622.87 235.997C622.87 236.925 622.87 236.925 621.943 236.925C624.726 236.925 618.232 232.286 618.232 232.286V232.286Z" fill="#FF9305"/>
<path fill-rule="evenodd" clip-rule="evenodd" d="M589.474 232.286C589.474 232.286 588.547 232.286 589.474 232.286L582.981 236.925C582.053 237.852 582.053 236.925 582.053 235.997L583.908 228.576V228.576L577.415 223.937C576.487 223.01 576.487 223.01 577.415 223.01H584.836V223.01L587.619 216.516C587.619 215.588 588.547 215.588 588.547 216.516L591.33 223.01V223.01H598.751C599.679 223.01 599.679 223.937 598.751 223.937L592.257 228.576V228.576L594.113 235.997C594.113 236.925 594.113 236.925 593.185 236.925C595.04 236.925 589.474 232.286 589.474 232.286V232.286Z" fill="#FF9305"/>
<path fill-rule="evenodd" clip-rule="evenodd" d="M559.789 232.286V232.286L553.295 236.925C552.367 237.852 552.367 236.925 552.367 235.997L554.223 228.576V228.576L547.729 223.937C546.801 223.01 546.801 223.01 547.729 223.01H555.15V223.01L557.933 216.516C557.933 215.588 558.861 215.588 558.861 216.516L561.644 223.01V223.01H569.065C569.993 223.01 569.993 223.937 569.065 223.937L562.572 228.576V228.576L564.427 235.997C564.427 236.925 564.427 236.925 563.499 236.925C566.282 236.925 559.789 232.286 559.789 232.286V232.286Z" fill="#FF9305"/>
<path fill-rule="evenodd" clip-rule="evenodd" d="M441.975 630.257L438.264 627.474L444.758 618.198L448.469 620.981L441.975 630.257V630.257ZM455.89 609.848L452.18 607.065L458.673 597.788L462.384 600.571L455.89 609.848V609.848ZM468.877 589.44V588.513L466.094 586.657L467.022 585.73C467.022 584.802 467.95 584.802 468.877 584.802H479.082V589.44H468.877V589.44ZM492.997 589.44V584.802H504.129V589.44H492.997V589.44ZM507.84 580.163L505.984 569.031L510.623 568.103L512.478 579.235L507.84 580.163V580.163ZM503.201 556.044L501.346 544.911L505.984 543.984L507.84 555.116L503.201 556.044V556.044ZM497.635 531.925L495.78 520.792L500.418 519.865L502.274 530.997L497.635 531.925V531.925ZM492.997 507.804L491.142 496.672L495.78 495.744L497.635 506.876L492.997 507.804V507.804ZM487.431 483.685L485.575 472.553L490.214 471.625L492.069 482.757L487.431 483.685V483.685ZM482.792 459.565L481.865 456.782C481.865 455.854 481.865 454.927 482.792 454.927L488.358 449.361L492.069 452.144L487.431 456.782V458.638L482.792 459.565V459.565ZM538.453 441.939L531.032 433.59L534.742 430.807L542.164 439.156L538.453 441.939V441.939ZM500.418 441.939L496.707 439.156L504.129 430.807L507.839 433.59L500.418 441.939V441.939ZM521.755 423.386L519.899 420.603L518.044 422.459L514.333 419.676L518.044 415.965C518.044 415.965 518.972 415.037 519.899 415.037C520.827 415.037 520.827 415.037 521.755 415.965L525.465 420.603L521.755 423.386V423.386Z" fill="#FF5C75"/>
<path fill-rule="evenodd" clip-rule="evenodd" d="M430.842 743.434C428.059 743.434 426.204 742.507 423.421 741.579L389.097 722.098C385.386 720.242 381.676 714.676 381.676 710.038V670.148C381.676 665.51 384.459 659.944 389.097 658.088L423.421 638.607C427.132 636.752 433.625 636.752 437.336 638.607L471.66 658.088C475.371 659.944 479.081 665.51 479.081 670.148V710.038C479.081 714.676 476.298 720.242 471.66 722.098L437.336 741.579C436.408 742.507 433.625 743.434 430.842 743.434V743.434ZM430.843 644.173C429.915 644.173 428.987 644.173 428.06 645.101L393.736 664.582C392.808 665.51 390.953 667.365 390.953 669.22V709.11C390.953 710.966 392.808 712.821 393.736 713.749L428.06 733.23C428.987 734.157 432.698 734.157 433.626 733.23L467.949 713.749C468.877 712.821 470.733 710.966 470.733 709.11V669.22C470.733 667.365 468.877 665.51 467.949 664.582L433.626 645.101C432.698 645.101 431.77 644.173 430.843 644.173V644.173Z" fill="#F25A58"/>
<path fill-rule="evenodd" clip-rule="evenodd" d="M386.315 670.147C386.315 667.364 388.17 663.654 390.953 661.798L425.277 642.317C428.06 640.462 432.699 640.462 435.482 642.317L469.805 661.798C472.588 663.654 474.444 667.364 474.444 670.147V710.037C474.444 712.82 472.588 716.531 469.805 718.386L435.482 737.867C432.699 739.723 428.06 739.723 425.277 737.867L390.953 718.386C388.17 716.531 386.315 712.82 386.315 710.037V670.147V670.147Z" fill="#DBF5FF"/>
<path fill-rule="evenodd" clip-rule="evenodd" d="M418.332 718.834V718.834C417.156 718.834 414.806 717.658 413.631 716.483L392.477 695.329C390.126 692.979 390.126 688.278 392.477 685.927C394.827 683.577 399.528 683.577 401.879 685.927L418.332 702.38L458.289 662.423C460.64 660.072 465.341 660.072 467.691 662.423C470.042 664.773 470.042 669.474 467.691 671.825L423.033 716.483C421.857 718.834 420.682 718.834 418.332 718.834V718.834Z" fill="#043573"/>
<path fill-rule="evenodd" clip-rule="evenodd" d="M223.044 650.666C220.261 650.666 217.478 647.883 217.478 645.1C217.478 642.317 220.261 639.534 223.044 639.534C225.827 639.534 228.61 642.317 228.61 645.1C228.61 647.883 225.827 650.666 223.044 650.666V650.666ZM223.044 641.389C221.188 641.389 219.333 643.244 219.333 645.099C219.333 646.955 221.188 648.81 223.044 648.81C224.899 648.81 226.755 646.955 226.755 645.099C226.755 643.244 224.899 641.389 223.044 641.389V641.389Z" fill="#ABE4FF"/>
<path fill-rule="evenodd" clip-rule="evenodd" d="M199.853 650.666C197.07 650.666 194.287 647.883 194.287 645.1C194.287 642.317 197.07 639.534 199.853 639.534C202.636 639.534 205.419 642.317 205.419 645.1C206.347 647.883 203.564 650.666 199.853 650.666V650.666ZM199.853 641.389C197.997 641.389 196.142 643.244 196.142 645.099C196.142 646.955 197.997 648.81 199.853 648.81C201.708 648.81 203.563 646.955 203.563 645.099C203.563 643.244 201.708 641.389 199.853 641.389V641.389Z" fill="#ABE4FF"/>
<path fill-rule="evenodd" clip-rule="evenodd" d="M192.431 646.028H191.503C190.576 646.028 190.576 645.1 190.576 645.1V620.053C190.576 619.125 191.503 619.125 191.503 619.125H213.767C214.695 619.125 214.695 620.053 214.695 620.053V634.896C214.695 635.823 213.767 635.823 213.767 635.823C212.84 635.823 212.84 634.896 212.84 634.896V620.981H192.431V643.245C193.359 643.245 193.359 644.173 193.359 644.173C193.359 646.028 193.359 646.028 192.431 646.028V646.028Z" fill="#ABE4FF"/>
<path fill-rule="evenodd" clip-rule="evenodd" d="M231.393 646.028H230.465C229.538 646.028 229.538 645.101 229.538 645.101C229.538 644.173 230.465 644.173 230.465 644.173V633.041L226.755 623.764H219.333V633.969L226.755 635.824C227.682 635.824 227.682 636.752 227.682 636.752C227.682 637.679 226.755 637.679 226.755 637.679L218.406 635.824C217.478 635.824 217.478 634.896 217.478 634.896V622.836C217.478 621.909 218.406 621.909 218.406 621.909H227.682C227.682 621.909 228.61 621.909 228.61 622.836L233.248 633.041V633.041V646.028C233.248 646.028 232.321 646.028 231.393 646.028V646.028Z" fill="#ABE4FF"/>
<path fill-rule="evenodd" clip-rule="evenodd" d="M214.695 646.027H208.201C207.273 646.027 207.273 645.1 207.273 645.1C207.273 644.172 208.201 644.172 208.201 644.172H214.695C215.622 644.172 215.622 645.1 215.622 645.1C215.622 646.027 215.622 646.027 214.695 646.027V646.027Z" fill="#ABE4FF"/>
<path fill-rule="evenodd" clip-rule="evenodd" d="M214.695 639.534H208.201C207.273 639.534 207.273 638.606 207.273 638.606C207.273 637.679 208.201 637.679 208.201 637.679H214.695C215.622 637.679 215.622 638.606 215.622 638.606C215.622 638.606 215.622 639.534 214.695 639.534V639.534Z" fill="#ABE4FF"/>
<path fill-rule="evenodd" clip-rule="evenodd" d="M567.211 640.461C564.428 640.461 561.645 637.678 561.645 634.895C561.645 632.112 564.428 629.329 567.211 629.329C569.994 629.329 572.777 632.112 572.777 634.895C572.777 637.678 569.994 640.461 567.211 640.461V640.461ZM567.211 631.184C565.355 631.184 563.5 633.04 563.5 634.895C563.5 636.75 565.355 638.606 567.211 638.606C569.066 638.606 570.921 636.75 570.921 634.895C569.994 633.04 569.066 631.184 567.211 631.184V631.184Z" fill="white"/>
<path fill-rule="evenodd" clip-rule="evenodd" d="M542.164 640.461C539.381 640.461 536.598 637.678 536.598 634.895C536.598 632.112 539.381 629.329 542.164 629.329C544.947 629.329 547.73 632.112 547.73 634.895C547.73 637.678 545.874 640.461 542.164 640.461V640.461ZM542.163 631.184C540.308 631.184 538.453 633.04 538.453 634.895C538.453 636.75 540.308 638.606 542.163 638.606C544.019 638.606 545.874 636.75 545.874 634.895C545.874 633.04 544.019 631.184 542.163 631.184V631.184Z" fill="white"/>
<path fill-rule="evenodd" clip-rule="evenodd" d="M576.487 635.824H575.559C574.631 635.824 574.631 634.896 574.631 634.896C574.631 633.968 575.559 633.968 575.559 633.968V623.764L571.848 611.704H535.669V633.968C536.597 633.968 536.597 634.896 536.597 634.896C536.597 635.824 535.669 635.824 535.669 635.824H532.886C531.958 635.824 531.958 634.896 531.958 634.896V609.849C531.958 608.921 532.886 608.921 532.886 608.921H570.921C571.848 608.921 571.848 608.921 571.848 609.849L576.487 622.836V622.836V633.968C577.414 635.824 576.487 635.824 576.487 635.824V635.824Z" fill="white"/>
<path fill-rule="evenodd" clip-rule="evenodd" d="M558.862 635.823H549.585C548.657 635.823 548.657 634.896 548.657 634.896C548.657 633.968 549.585 633.968 549.585 633.968H558.862C559.789 633.968 559.789 634.896 559.789 634.896C560.717 635.823 559.789 635.823 558.862 635.823V635.823Z" fill="white"/>
<path fill-rule="evenodd" clip-rule="evenodd" d="M569.993 624.692H538.453C537.525 624.692 537.525 623.764 537.525 623.764C537.525 622.836 538.453 622.836 538.453 622.836H569.993C570.921 622.836 570.921 623.764 570.921 623.764C571.849 624.692 570.921 624.692 569.993 624.692V624.692Z" fill="white"/>
<path fill-rule="evenodd" clip-rule="evenodd" d="M747.18 457.71C730.481 457.71 716.566 443.795 716.566 427.097C716.566 410.399 730.481 396.484 747.18 396.484C763.878 396.484 777.793 410.399 777.793 427.097C777.793 443.795 763.878 457.71 747.18 457.71V457.71ZM747.179 398.339C731.409 398.339 718.421 411.326 718.421 427.097C718.421 442.867 731.409 455.855 747.179 455.855C762.95 455.855 775.937 442.867 775.937 427.097C775.937 411.326 762.95 398.339 747.179 398.339V398.339Z" fill="#ABE4FF"/>
<path fill-rule="evenodd" clip-rule="evenodd" d="M747.18 415.037C738.831 415.037 731.409 412.254 725.843 406.688V405.76H726.771C732.337 411.327 739.758 414.11 747.18 414.11C754.601 414.11 762.022 411.327 767.589 405.76H768.516V406.688C762.95 412.254 754.601 415.037 747.18 415.037V415.037Z" fill="#ABE4FF"/>
<path fill-rule="evenodd" clip-rule="evenodd" d="M767.589 449.36V449.36C762.022 443.794 754.601 441.011 747.18 441.011C739.758 441.011 732.337 443.794 726.771 449.36H725.843V448.433C731.409 442.867 738.831 440.084 747.18 440.084C755.529 440.084 762.95 442.867 768.516 448.433C768.516 448.433 768.516 449.36 767.589 449.36C768.516 449.36 767.589 449.36 767.589 449.36V449.36Z" fill="#ABE4FF"/>
<path fill-rule="evenodd" clip-rule="evenodd" d="M775.009 428.024H718.421C718.421 428.024 717.494 428.024 717.494 427.096C717.494 427.096 717.494 426.169 718.421 426.169H775.009C775.937 426.169 775.937 427.096 775.009 428.024C775.937 428.024 775.937 428.024 775.009 428.024V428.024Z" fill="#ABE4FF"/>
<path fill-rule="evenodd" clip-rule="evenodd" d="M747.179 455.855C746.251 455.855 746.251 455.855 747.179 455.855L746.251 399.267C746.251 399.267 746.251 398.339 747.179 398.339C747.179 398.339 748.107 398.339 748.107 399.267L747.179 455.855C748.107 455.855 747.179 455.855 747.179 455.855V455.855Z" fill="#ABE4FF"/>
<path fill-rule="evenodd" clip-rule="evenodd" d="M310.245 415.966C307.462 415.966 305.607 414.111 305.607 411.328C305.607 408.545 307.462 406.689 310.245 406.689C313.028 406.689 314.884 408.545 314.884 411.328C313.956 414.111 312.101 415.966 310.245 415.966V415.966ZM310.245 409.473C309.318 409.473 308.39 410.401 308.39 411.328C308.39 412.256 309.318 413.184 310.245 413.184C311.173 413.184 312.101 412.256 312.101 411.328C312.101 410.401 311.173 409.473 310.245 409.473V409.473Z" fill="white"/>
<path fill-rule="evenodd" clip-rule="evenodd" d="M339.003 415.966C336.22 415.966 334.365 414.111 334.365 411.328C334.365 408.545 336.22 406.689 339.003 406.689C341.786 406.689 343.641 408.545 343.641 411.328C343.641 414.111 341.786 415.966 339.003 415.966V415.966ZM339.003 409.473C338.075 409.473 337.147 410.401 337.147 411.328C337.147 412.256 338.075 413.184 339.003 413.184C339.93 413.184 340.858 412.256 340.858 411.328C341.786 410.401 339.93 409.473 339.003 409.473V409.473Z" fill="white"/>
<path fill-rule="evenodd" clip-rule="evenodd" d="M334.364 412.255H314.883C313.956 412.255 313.956 411.327 313.956 411.327C313.956 410.399 314.883 410.399 314.883 410.399H334.364C335.292 410.399 335.292 411.327 335.292 411.327C336.22 411.327 335.292 412.255 334.364 412.255V412.255Z" fill="white"/>
<path fill-rule="evenodd" clip-rule="evenodd" d="M311.173 408.544C310.246 408.544 310.246 407.617 310.246 407.617V380.714C310.246 379.787 311.173 379.787 311.173 379.787C312.101 379.787 312.101 380.714 312.101 380.714V407.617C312.101 408.544 311.173 408.544 311.173 408.544V408.544Z" fill="white"/>
<path fill-rule="evenodd" clip-rule="evenodd" d="M311.173 402.05C310.246 402.05 310.246 402.05 310.246 401.123C310.246 400.195 310.246 400.195 311.173 400.195L341.786 393.701V383.497H311.173C310.246 383.497 310.246 382.569 310.246 382.569C310.246 381.642 311.173 381.642 311.173 381.642H342.714C343.642 381.642 343.642 382.569 343.642 382.569V394.629C343.642 395.557 343.642 395.557 342.714 395.557L311.173 402.05V402.05V402.05Z" fill="white"/>
<path fill-rule="evenodd" clip-rule="evenodd" d="M311.173 382.57C311.173 382.57 310.245 382.57 310.245 381.642L306.535 373.293H300.041C299.113 373.293 299.113 372.365 299.113 372.365C299.113 371.438 300.041 371.438 300.041 371.438H307.462C307.462 371.438 308.39 371.438 308.39 372.365L312.101 381.642C312.101 381.642 312.101 382.57 311.173 382.57V382.57V382.57Z" fill="white"/>
<path fill-rule="evenodd" clip-rule="evenodd" d="M212.84 516.154L193.358 495.746V535.636L212.84 516.154Z" fill="white"/>
<path fill-rule="evenodd" clip-rule="evenodd" d="M377.966 483.685H319.522C317.667 483.685 314.884 485.541 314.884 488.324V518.009C314.884 519.865 316.739 521.72 319.522 521.72H340.859L348.28 534.707L355.701 521.72H377.038C378.893 521.72 380.749 519.865 380.749 518.009V488.324C382.604 485.541 380.749 483.685 377.966 483.685V483.685Z" fill="#58A5F2"/>
<path fill-rule="evenodd" clip-rule="evenodd" d="M344.57 519.865C343.642 518.937 342.714 518.009 340.859 518.009H319.522V518.009V488.324V488.324H377.966V488.324V518.009V518.009H356.629C355.702 518.009 353.846 518.937 352.919 519.865L348.28 527.286L344.57 519.865V519.865Z" fill="white"/>
<path fill-rule="evenodd" clip-rule="evenodd" d="M632.148 558.827H573.704C571.849 558.827 569.994 560.682 569.994 563.465V593.151C569.994 595.006 571.849 597.789 573.704 597.789H595.041L602.462 610.776L609.884 597.789H631.22C633.075 597.789 635.858 595.934 635.858 593.151V563.465C636.786 560.682 634.931 558.827 632.148 558.827V558.827Z" fill="#58A5F2"/>
<path fill-rule="evenodd" clip-rule="evenodd" d="M598.752 595.006C597.825 594.079 596.897 593.151 595.042 593.151H573.705V593.151V563.466V563.466H632.148V563.466V593.151V593.151H610.812C609.884 593.151 608.029 594.079 607.101 595.006L602.463 602.428L598.752 595.006V595.006Z" fill="white"/>
<path fill-rule="evenodd" clip-rule="evenodd" d="M603.389 583.874V583.874L596.896 588.513C595.968 589.44 595.968 588.513 595.968 587.585L597.823 580.163V580.163L591.33 575.525C590.402 574.597 590.402 574.597 591.33 574.597H598.751V574.597L601.534 568.104C601.534 567.176 602.462 567.176 602.462 568.104L605.245 574.597V574.597H612.666C613.594 574.597 613.594 575.525 612.666 575.525L606.172 580.163V580.163L608.028 587.585C608.028 588.513 608.028 588.513 607.1 588.513C609.883 588.513 603.389 583.874 603.389 583.874V583.874Z" fill="#F25A58"/>
<path fill-rule="evenodd" clip-rule="evenodd" d="M349.207 506.877V506.877L344.569 510.588C343.641 510.588 343.641 510.588 343.641 509.66L345.496 504.094V504.094L340.858 500.383C339.93 500.383 339.93 499.456 340.858 499.456H346.424V499.456L348.279 494.817C348.279 493.89 349.207 493.89 349.207 494.817L351.062 499.456V499.456H356.628C357.556 499.456 357.556 499.456 356.628 500.383L351.99 504.094V504.094L353.845 509.66C353.845 510.588 353.845 510.588 352.918 510.588C353.845 509.66 349.207 506.877 349.207 506.877V506.877Z" fill="#F25A58"/>
</svg>
