<svg width="60" height="59" viewBox="0 0 60 59" fill="none" xmlns="http://www.w3.org/2000/svg">
<path fill-rule="evenodd" clip-rule="evenodd" d="M30.4999 58.9C30.3999 58.9 30.1999 58.9 30.0999 58.9V58.7C30.4999 58.7 30.9999 58.7 31.3999 58.7V58.9C31.0999 58.9 30.7999 58.9 30.4999 58.9ZM28.6999 58.9C28.2999 58.9 27.7999 58.8 27.3999 58.8V58.6C27.7999 58.6 28.2999 58.7 28.6999 58.7V58.9ZM32.6999 58.8V58.6C33.0999 58.6 33.5999 58.5 33.9999 58.5V58.7C33.5999 58.8 33.1999 58.8 32.6999 58.8ZM26.0999 58.6C25.6999 58.5 25.1999 58.5 24.7999 58.4V58.2C25.1999 58.3 25.6999 58.4 26.0999 58.4V58.6ZM35.3999 58.5V58.3C35.7999 58.2 36.2999 58.1 36.6999 58V58.2C36.2999 58.4 35.7999 58.4 35.3999 58.5ZM23.4999 58.1C23.0999 58 22.5999 57.9 22.1999 57.8L22.2999 57.6C22.6999 57.7 23.1999 57.8 23.5999 57.9L23.4999 58.1ZM37.9999 58L37.8999 57.8C38.2999 57.7 38.7999 57.6 39.1999 57.4L39.2999 57.6C38.8999 57.7 38.3999 57.8 37.9999 58ZM20.8999 57.3C20.4999 57.2 20.0999 57 19.5999 56.8L19.6999 56.6C20.0999 56.8 20.4999 56.9 20.8999 57.1V57.3ZM40.4999 57.2L40.3999 57C40.7999 56.9 41.1999 56.7 41.5999 56.5L41.6999 56.7C41.3999 56.8 40.9999 57 40.4999 57.2ZM18.3999 56.4C17.9999 56.2 17.5999 56 17.1999 55.8L17.2999 55.6C17.6999 55.8 18.0999 56 18.4999 56.2L18.3999 56.4ZM42.9999 56.1L42.8999 55.9C43.2999 55.7 43.6999 55.5 44.0999 55.3L44.1999 55.5C43.7999 55.7 43.3999 55.9 42.9999 56.1ZM15.9999 55.2C15.5999 55 15.1999 54.8 14.8999 54.5L14.9999 54.3C15.3999 54.5 15.7999 54.8 16.0999 55L15.9999 55.2ZM45.2999 54.9L45.1999 54.7C45.5999 54.5 45.9999 54.2 46.2999 54L46.3999 54.2C46.0999 54.4 45.6999 54.7 45.2999 54.9ZM13.7999 53.8C13.3999 53.6 13.0999 53.3 12.6999 53L12.7999 52.8C13.1999 53.1 13.4999 53.3 13.8999 53.6L13.7999 53.8ZM47.5999 53.4L47.4999 53.2C47.8999 52.9 48.1999 52.7 48.5999 52.4L48.6999 52.6C48.2999 52.9 47.8999 53.2 47.5999 53.4ZM11.5999 52.1C11.2999 51.8 10.8999 51.5 10.5999 51.2L10.6999 51C10.9999 51.3 11.3999 51.6 11.6999 51.9L11.5999 52.1ZM49.6999 51.8L49.5999 51.6C49.8999 51.3 50.2999 51 50.5999 50.7L50.7999 50.9C50.2999 51.2 49.9999 51.5 49.6999 51.8ZM9.6999 50.4C9.3999 50.1 9.0999 49.8 8.7999 49.4L8.9999 49.3C9.2999 49.6 9.5999 49.9 9.8999 50.3L9.6999 50.4ZM51.5999 50L51.3999 49.8C51.6999 49.5 51.9999 49.2 52.2999 48.8L52.4999 48.9C52.1999 49.3 51.8999 49.7 51.5999 50ZM7.8999 48.4C7.5999 48.1 7.2999 47.7 7.0999 47.4L7.2999 47.3C7.5999 47.6 7.7999 48 8.0999 48.3L7.8999 48.4ZM53.3999 48L53.1999 47.9C53.4999 47.6 53.6999 47.2 53.9999 46.9L54.1999 47C53.8999 47.3 53.6999 47.6 53.3999 48ZM6.2999 46.3C5.9999 45.9 5.7999 45.6 5.5999 45.2L5.7999 45.1C5.9999 45.5 6.2999 45.8 6.4999 46.2L6.2999 46.3ZM54.9999 45.8L54.7999 45.7C54.9999 45.3 55.2999 45 55.4999 44.6L55.6999 44.7C55.4999 45.1 55.1999 45.5 54.9999 45.8ZM4.7999 44C4.5999 43.6 4.3999 43.2 4.1999 42.8L4.3999 42.7C4.5999 43.1 4.7999 43.5 4.9999 43.9L4.7999 44ZM56.3999 43.5L56.1999 43.4C56.3999 43 56.5999 42.6 56.7999 42.2L56.9999 42.3C56.7999 42.8 56.5999 43.2 56.3999 43.5ZM3.5999 41.6C3.3999 41.2 3.1999 40.8 3.0999 40.4L3.2999 40.3C3.4999 40.7 3.5999 41.1 3.7999 41.5L3.5999 41.6ZM57.4999 41.1L57.2999 41C57.4999 40.6 57.5999 40.2 57.7999 39.8L57.9999 39.9C57.8999 40.3 57.6999 40.7 57.4999 41.1ZM2.5999 39.2C2.4999 38.8 2.2999 38.4 2.1999 37.9L2.3999 37.8C2.4999 38.2 2.6999 38.6 2.7999 39.1L2.5999 39.2ZM58.4999 38.6L58.2999 38.5C58.3999 38.1 58.5999 37.7 58.6999 37.2L58.8999 37.3C58.6999 37.8 58.5999 38.2 58.4999 38.6ZM1.8999 36.6C1.7999 36.2 1.6999 35.7 1.5999 35.3H1.7999C1.8999 35.7 1.9999 36.2 2.0999 36.6H1.8999ZM59.1999 36.1H58.9999C59.0999 35.7 59.1999 35.2 59.2999 34.8H59.4999C59.3999 35.2 59.2999 35.6 59.1999 36.1ZM1.2999 34C1.1999 33.6 1.1999 33.1 1.0999 32.7H1.2999C1.2999 33.1 1.3999 33.6 1.4999 34H1.2999ZM59.6999 33.4H59.4999C59.5999 33 59.5999 32.5 59.5999 32.1H59.7999C59.7999 32.6 59.6999 33 59.6999 33.4ZM0.999902 31.4C0.999902 31 0.999902 30.5 0.899902 30.1H1.0999C1.0999 30.5 1.0999 31 1.1999 31.4H0.999902ZM59.8999 30.8H59.6999C59.6999 30.4 59.6999 29.9 59.6999 29.5C59.6999 29.1 59.6999 28.8 59.6999 28.4H59.8999C59.8999 28.8 59.8999 29.2 59.8999 29.5C59.8999 29.9 59.8999 30.3 59.8999 30.8ZM1.1999 28.7H0.999902C0.999902 28.3 0.999902 27.8 1.0999 27.4H1.2999C1.2999 27.8 1.1999 28.3 1.1999 28.7ZM59.5999 27C59.5999 26.6 59.4999 26.1 59.4999 25.7H59.6999C59.7999 26.1 59.7999 26.6 59.7999 27H59.5999ZM1.3999 26.1H1.1999C1.2999 25.7 1.2999 25.2 1.3999 24.8H1.5999C1.4999 25.2 1.4999 25.6 1.3999 26.1ZM59.2999 24.4C59.1999 24 59.0999 23.5 58.9999 23.1H59.1999C59.2999 23.5 59.3999 24 59.4999 24.4H59.2999ZM1.7999 23.4H1.5999C1.6999 23 1.7999 22.5 1.8999 22.1L2.0999 22.2C1.9999 22.6 1.8999 23 1.7999 23.4ZM58.6999 21.8C58.5999 21.4 58.4999 20.9 58.2999 20.5L58.4999 20.4C58.5999 20.8 58.7999 21.3 58.8999 21.7L58.6999 21.8ZM2.4999 20.9L2.2999 20.8C2.3999 20.4 2.5999 19.9 2.6999 19.5L2.8999 19.6C2.7999 20 2.5999 20.5 2.4999 20.9ZM57.8999 19.3C57.6999 18.9 57.5999 18.5 57.3999 18.1L57.5999 18C57.7999 18.4 57.8999 18.8 58.0999 19.2L57.8999 19.3ZM3.3999 18.4L3.1999 18.3C3.3999 17.9 3.4999 17.5 3.6999 17.1L3.8999 17.2C3.6999 17.6 3.4999 18 3.3999 18.4ZM56.8999 16.9C56.6999 16.5 56.4999 16.1 56.2999 15.7L56.4999 15.6C56.6999 16 56.8999 16.4 57.0999 16.8L56.8999 16.9ZM4.4999 16L4.2999 15.9C4.4999 15.5 4.6999 15.1 4.8999 14.7L5.0999 14.8C4.8999 15.2 4.6999 15.6 4.4999 16ZM55.5999 14.5C55.3999 14.1 55.0999 13.7 54.8999 13.4L55.0999 13.3C55.2999 13.7 55.5999 14 55.7999 14.4L55.5999 14.5ZM5.7999 13.7L5.5999 13.6C5.7999 13.2 6.0999 12.9 6.2999 12.5L6.4999 12.6C6.2999 12.9 6.0999 13.3 5.7999 13.7ZM54.1999 12.3C53.8999 11.9 53.6999 11.6 53.3999 11.2L53.5999 11.1C53.8999 11.4 54.0999 11.8 54.3999 12.2L54.1999 12.3ZM7.3999 11.5L7.1999 11.4C7.4999 11.1 7.7999 10.7 7.9999 10.4L8.1999 10.5C7.8999 10.8 7.5999 11.2 7.3999 11.5ZM52.4999 10.3C52.1999 10 51.8999 9.6 51.5999 9.3L51.7999 9.1C52.0999 9.4 52.3999 9.8 52.6999 10.1L52.4999 10.3ZM9.0999 9.5L8.8999 9.3C9.1999 9 9.4999 8.7 9.7999 8.3L9.9999 8.5C9.6999 8.9 9.3999 9.2 9.0999 9.5ZM50.6999 8.3C50.3999 8 50.0999 7.7 49.6999 7.4L49.7999 7.2C50.0999 7.5 50.4999 7.8 50.7999 8.1L50.6999 8.3ZM10.9999 7.7L10.8999 7.5C11.1999 7.2 11.5999 6.9 11.8999 6.6L11.9999 6.8C11.5999 7.1 11.2999 7.4 10.9999 7.7ZM48.6999 6.6C48.3999 6.3 47.9999 6.1 47.5999 5.8L47.6999 5.6C48.0999 5.9 48.3999 6.1 48.7999 6.4L48.6999 6.6ZM12.9999 6L12.8999 5.8C13.2999 5.5 13.5999 5.3 13.9999 5L14.0999 5.2C13.6999 5.5 13.3999 5.7 12.9999 6ZM46.5999 5C46.1999 4.8 45.8999 4.5 45.4999 4.3L45.5999 4.1C45.9999 4.3 46.3999 4.6 46.6999 4.8L46.5999 5ZM15.1999 4.5L15.0999 4.3C15.4999 4.1 15.8999 3.8 16.2999 3.6L16.3999 3.8C15.9999 4 15.5999 4.3 15.1999 4.5ZM44.2999 3.7C43.8999 3.5 43.4999 3.3 43.0999 3.1L43.1999 2.9C43.5999 3.1 43.9999 3.3 44.3999 3.5L44.2999 3.7ZM17.4999 3.2L17.3999 3C17.7999 2.8 18.1999 2.6 18.5999 2.4L18.6999 2.6C18.2999 2.8 17.8999 3 17.4999 3.2ZM41.8999 2.5C41.4999 2.3 41.0999 2.2 40.6999 2L40.7999 1.8C41.1999 2 41.5999 2.1 41.9999 2.3L41.8999 2.5ZM19.8999 2.2L19.7999 2C20.1999 1.8 20.5999 1.7 21.0999 1.5L21.1999 1.7C20.7999 1.9 20.2999 2 19.8999 2.2ZM39.3999 1.6C38.9999 1.5 38.5999 1.3 38.0999 1.2L38.1999 1C38.5999 1.1 39.0999 1.2 39.4999 1.4L39.3999 1.6ZM22.3999 1.3L22.2999 1.1C22.6999 1 23.1999 0.9 23.5999 0.8L23.6999 1C23.2999 1.1 22.8999 1.2 22.3999 1.3ZM36.8999 0.9C36.4999 0.8 35.9999 0.7 35.5999 0.6V0.4C35.9999 0.5 36.4999 0.6 36.8999 0.7V0.9ZM24.9999 0.7V0.5C25.3999 0.4 25.8999 0.3 26.2999 0.3V0.5C25.8999 0.6 25.4999 0.6 24.9999 0.7ZM34.1999 0.5C33.7999 0.4 33.2999 0.4 32.8999 0.4V0.2C33.2999 0.2 33.7999 0.3 34.1999 0.3V0.5ZM27.5999 0.3V0.1C27.9999 0.1 28.4999 0 28.8999 0V0.2C28.4999 0.3 28.0999 0.3 27.5999 0.3ZM31.5999 0.2C31.1999 0.2 30.7999 0.2 30.4999 0.2H30.2999V0H30.4999C30.8999 0 31.2999 0 31.6999 0L31.5999 0.2Z" fill="#ABE4FF"/>
<path fill-rule="evenodd" clip-rule="evenodd" d="M49.5999 24.3H11.5999C10.0999 24.3 8.8999 25.5 8.8999 27V52.5C8.8999 54 10.0999 55.2 11.5999 55.2H49.5999C51.0999 55.2 52.2999 54 52.2999 52.5V27C52.2999 25.6 51.0999 24.3 49.5999 24.3Z" fill="#2C6980"/>
<path fill-rule="evenodd" clip-rule="evenodd" d="M49.5999 23.5H11.5999C10.0999 23.5 8.8999 24.7 8.8999 26.2V51.7C8.8999 53.2 10.0999 54.4 11.5999 54.4H49.5999C51.0999 54.4 52.2999 53.2 52.2999 51.7V26.2C52.2999 24.8 51.0999 23.5 49.5999 23.5Z" fill="#043573"/>
<rect x="11.5" y="26.3" width="38.1" height="24.1" fill="#FFA30E"/>
<path fill-rule="evenodd" clip-rule="evenodd" d="M3.7998 51.7V53.7C3.7998 54.7 4.5998 55.6 5.6998 55.6H55.4998C56.4998 55.6 57.3998 54.8 57.3998 53.7V51.7H3.7998Z" fill="#7CB4DA"/>
<rect x="3.7998" y="51.7" width="53.5" height="2" fill="#C1E6E3"/>
<path fill-rule="evenodd" clip-rule="evenodd" d="M25.0996 51.7V51.9C25.0996 52.1 25.2996 52.3 25.4996 52.3H35.6996C35.8996 52.3 36.0996 52.1 36.0996 51.9V51.7H25.0996Z" fill="#1FC3CC"/>
<path fill-rule="evenodd" clip-rule="evenodd" d="M16.0997 47.4C15.5997 47.4 15.1997 47 15.1997 46.5V10.4C15.1997 9.9 15.5997 9.5 16.0997 9.5H35.3997C35.5997 9.5 35.8997 9.6 36.0997 9.8L45.3997 19.1C45.5997 19.3 45.6997 19.5 45.6997 19.8V46.5C45.6997 47 45.2997 47.4 44.7997 47.4H16.0997Z" fill="#043573"/>
<path fill-rule="evenodd" clip-rule="evenodd" d="M44.7996 46.5H16.0996V10.5H35.4996L44.7996 19.8V46.5Z" fill="white"/>
<path fill-rule="evenodd" clip-rule="evenodd" d="M35.4995 19.8V10.5L44.7995 19.8H35.4995Z" fill="#0587BF"/>
<path fill-rule="evenodd" clip-rule="evenodd" d="M44.7995 19.8V29.1L35.4995 19.8H44.7995Z" fill="#C8EFF2"/>
<path fill-rule="evenodd" clip-rule="evenodd" d="M40.3999 25.4H27.3999C27.0999 25.4 26.8999 25.2 26.8999 24.9C26.8999 24.6 27.0999 24.4 27.3999 24.4H40.3999C40.6999 24.4 40.8999 24.6 40.8999 24.9C40.8999 25.2 40.6999 25.4 40.3999 25.4Z" fill="#04B1D9"/>
<path fill-rule="evenodd" clip-rule="evenodd" d="M32.7998 16H19.7998C19.4998 16 19.2998 15.8 19.2998 15.5C19.2998 15.2 19.4998 15 19.7998 15H32.7998C33.0998 15 33.2998 15.2 33.2998 15.5C33.2998 15.8 33.0998 16 32.7998 16Z" fill="#04B1D9"/>
<path fill-rule="evenodd" clip-rule="evenodd" d="M28.8998 18.7H19.7998C19.4998 18.7 19.2998 18.5 19.2998 18.2C19.2998 17.9 19.4998 17.7 19.7998 17.7H28.8998C29.1998 17.7 29.3998 17.9 29.3998 18.2C29.3998 18.5 29.1998 18.7 28.8998 18.7Z" fill="#04B1D9"/>
<path fill-rule="evenodd" clip-rule="evenodd" d="M40.3999 27.9H27.3999C27.0999 27.9 26.8999 27.7 26.8999 27.4C26.8999 27.1 27.0999 26.9 27.3999 26.9H40.3999C40.6999 26.9 40.8999 27.1 40.8999 27.4C40.8999 27.7 40.6999 27.9 40.3999 27.9Z" fill="#ABD0D9"/>
<path fill-rule="evenodd" clip-rule="evenodd" d="M40.3999 35.1H27.3999C27.0999 35.1 26.8999 34.9 26.8999 34.6C26.8999 34.3 27.0999 34.1 27.3999 34.1H40.3999C40.6999 34.1 40.8999 34.3 40.8999 34.6C40.8999 34.9 40.6999 35.1 40.3999 35.1Z" fill="#04B1D9"/>
<path fill-rule="evenodd" clip-rule="evenodd" d="M40.3999 37.8H27.3999C27.0999 37.8 26.8999 37.6 26.8999 37.3C26.8999 37 27.0999 36.8 27.3999 36.8H40.3999C40.6999 36.8 40.8999 37 40.8999 37.3C40.8999 37.6 40.6999 37.8 40.3999 37.8Z" fill="#ABD0D9"/>
<path fill-rule="evenodd" clip-rule="evenodd" d="M40.3999 30.3H27.3999C27.0999 30.3 26.8999 30.1 26.8999 29.8C26.8999 29.5 27.0999 29.3 27.3999 29.3H40.3999C40.6999 29.3 40.8999 29.5 40.8999 29.8C40.8999 30.1 40.6999 30.3 40.3999 30.3Z" fill="#ABD0D9"/>
<path fill-rule="evenodd" clip-rule="evenodd" d="M40.3999 40.1H27.3999C27.0999 40.1 26.8999 39.9 26.8999 39.6C26.8999 39.3 27.0999 39.1 27.3999 39.1H40.3999C40.6999 39.1 40.8999 39.3 40.8999 39.6C40.8999 39.9 40.6999 40.1 40.3999 40.1Z" fill="#ABD0D9"/>
<rect x="19.7998" y="34.7" width="5" height="5" fill="white"/>
<path fill-rule="evenodd" clip-rule="evenodd" d="M24.7998 40.1H19.7998C19.4998 40.1 19.2998 39.9 19.2998 39.6V34.6C19.2998 34.3 19.4998 34.1 19.7998 34.1H24.7998C25.0998 34.1 25.2998 34.3 25.2998 34.6V39.6C25.1998 39.9 24.9998 40.1 24.7998 40.1ZM20.2998 39.2H24.2998V35.2H20.2998V39.2Z" fill="#BA9BC9"/>
<rect x="19.7998" y="25" width="5" height="5" fill="white"/>
<path fill-rule="evenodd" clip-rule="evenodd" d="M24.7998 30.4H19.7998C19.4998 30.4 19.2998 30.2 19.2998 29.9V24.9C19.2998 24.6 19.4998 24.4 19.7998 24.4H24.7998C25.0998 24.4 25.2998 24.6 25.2998 24.9V29.9C25.1998 30.2 24.9998 30.4 24.7998 30.4ZM20.2998 29.5H24.2998V25.5H20.2998V29.5Z" fill="#838BC5"/>
<path fill-rule="evenodd" clip-rule="evenodd" d="M22.2997 29.7C22.1997 29.7 21.9997 29.6 21.8997 29.5L20.0997 27.7C19.8997 27.5 19.8997 27.1 20.0997 26.9C20.2997 26.7 20.6997 26.7 20.8997 26.9L22.2997 28.3L25.6997 24.9C25.8997 24.7 26.2997 24.7 26.4997 24.9C26.6997 25.1 26.6997 25.5 26.4997 25.7L22.6997 29.5C22.5997 29.7 22.4997 29.7 22.2997 29.7Z" fill="#043573"/>
</svg>
