<svg width="66" height="67" viewBox="0 0 66 67" fill="none" xmlns="http://www.w3.org/2000/svg">
<path fill-rule="evenodd" clip-rule="evenodd" d="M33.4999 66.2C33.3999 66.2 33.1999 66.2 33.0999 66.2V66C33.4999 66 33.9999 66 34.3999 66V66.2C34.0999 66.2 33.7999 66.2 33.4999 66.2ZM31.6999 66.2C31.2999 66.2 30.7999 66.1 30.3999 66.1V65.9C30.7999 65.9 31.2999 66 31.6999 66V66.2ZM35.6999 66.1V65.9C36.0999 65.9 36.5999 65.8 36.9999 65.8V66C36.5999 66.1 36.1999 66.1 35.6999 66.1ZM29.0999 65.9C28.6999 65.8 28.1999 65.8 27.7999 65.7V65.5C28.1999 65.6 28.6999 65.7 29.0999 65.7V65.9ZM38.3999 65.8V65.6C38.7999 65.5 39.2999 65.4 39.6999 65.3V65.5C39.2999 65.7 38.7999 65.7 38.3999 65.8ZM26.4999 65.4C26.0999 65.3 25.5999 65.2 25.1999 65.1L25.2999 64.9C25.6999 65 26.1999 65.1 26.5999 65.2L26.4999 65.4ZM40.9999 65.3L40.8999 65.1C41.2999 65 41.7999 64.9 42.1999 64.7L42.2999 64.9C41.8999 65 41.3999 65.1 40.9999 65.3ZM23.8999 64.6C23.4999 64.5 23.0999 64.3 22.5999 64.1L22.6999 63.9C23.0999 64.1 23.4999 64.2 23.8999 64.4V64.6ZM43.4999 64.5L43.3999 64.3C43.7999 64.2 44.1999 64 44.5999 63.8L44.6999 64C44.3999 64.1 43.9999 64.3 43.4999 64.5ZM21.3999 63.7C20.9999 63.5 20.5999 63.3 20.1999 63.1L20.2999 62.9C20.6999 63.1 21.0999 63.3 21.4999 63.5L21.3999 63.7ZM45.9999 63.4L45.8999 63.2C46.2999 63 46.6999 62.8 47.0999 62.6L47.1999 62.8C46.7999 63 46.3999 63.2 45.9999 63.4ZM18.9999 62.5C18.5999 62.3 18.1999 62.1 17.8999 61.8L17.9999 61.6C18.3999 61.8 18.7999 62.1 19.0999 62.3L18.9999 62.5ZM48.2999 62.2L48.1999 62C48.5999 61.8 48.9999 61.5 49.2999 61.3L49.3999 61.5C49.0999 61.7 48.6999 62 48.2999 62.2ZM16.7999 61.1C16.3999 60.9 16.0999 60.6 15.6999 60.3L15.7999 60.1C16.1999 60.4 16.4999 60.6 16.8999 60.9L16.7999 61.1ZM50.5999 60.7L50.4999 60.5C50.8999 60.2 51.1999 60 51.5999 59.7L51.6999 59.9C51.2999 60.2 50.8999 60.5 50.5999 60.7ZM14.5999 59.4C14.2999 59.1 13.8999 58.8 13.5999 58.5L13.6999 58.3C13.9999 58.6 14.3999 58.9 14.6999 59.2L14.5999 59.4ZM52.6999 59.1L52.5999 58.9C52.8999 58.6 53.2999 58.3 53.5999 58L53.7999 58.2C53.2999 58.5 52.9999 58.8 52.6999 59.1ZM12.6999 57.7C12.3999 57.4 12.0999 57.1 11.7999 56.7L11.9999 56.6C12.2999 56.9 12.5999 57.2 12.8999 57.6L12.6999 57.7ZM54.5999 57.3L54.3999 57.1C54.6999 56.8 54.9999 56.5 55.2999 56.1L55.4999 56.2C55.1999 56.6 54.8999 57 54.5999 57.3ZM10.8999 55.7C10.5999 55.4 10.2999 55 10.0999 54.7L10.2999 54.6C10.5999 54.9 10.7999 55.3 11.0999 55.6L10.8999 55.7ZM56.3999 55.3L56.1999 55.2C56.4999 54.9 56.6999 54.5 56.9999 54.2L57.1999 54.3C56.8999 54.6 56.6999 54.9 56.3999 55.3ZM9.2999 53.6C8.9999 53.2 8.7999 52.9 8.5999 52.5L8.7999 52.4C8.9999 52.8 9.2999 53.1 9.4999 53.5L9.2999 53.6ZM57.9999 53.1L57.7999 53C57.9999 52.6 58.2999 52.3 58.4999 51.9L58.6999 52C58.4999 52.4 58.1999 52.8 57.9999 53.1ZM7.7999 51.3C7.5999 50.9 7.3999 50.5 7.1999 50.1L7.3999 50C7.5999 50.4 7.7999 50.8 7.9999 51.2L7.7999 51.3ZM59.3999 50.8L59.1999 50.7C59.3999 50.3 59.5999 49.9 59.7999 49.5L59.9999 49.6C59.7999 50.1 59.5999 50.5 59.3999 50.8ZM6.5999 48.9C6.3999 48.5 6.1999 48.1 6.0999 47.7L6.2999 47.6C6.4999 48 6.5999 48.4 6.7999 48.8L6.5999 48.9ZM60.4999 48.4L60.2999 48.3C60.4999 47.9 60.5999 47.5 60.7999 47.1L60.9999 47.2C60.8999 47.6 60.6999 48 60.4999 48.4ZM5.5999 46.5C5.4999 46.1 5.2999 45.7 5.1999 45.2L5.3999 45.1C5.4999 45.5 5.6999 45.9 5.7999 46.4L5.5999 46.5ZM61.4999 45.9L61.2999 45.8C61.3999 45.4 61.5999 45 61.6999 44.5L61.8999 44.6C61.6999 45.1 61.5999 45.5 61.4999 45.9ZM4.8999 43.9C4.7999 43.5 4.6999 43 4.5999 42.6H4.7999C4.8999 43 4.9999 43.5 5.0999 43.9H4.8999ZM62.1999 43.4H61.9999C62.0999 43 62.1999 42.5 62.2999 42.1H62.4999C62.3999 42.5 62.2999 42.9 62.1999 43.4ZM4.2999 41.3C4.1999 40.9 4.1999 40.4 4.0999 40H4.2999C4.2999 40.4 4.3999 40.9 4.4999 41.3H4.2999ZM62.6999 40.7H62.4999C62.5999 40.3 62.5999 39.8 62.5999 39.4H62.7999C62.7999 39.9 62.6999 40.3 62.6999 40.7ZM3.9999 38.7C3.9999 38.3 3.9999 37.8 3.8999 37.4H4.0999C4.0999 37.8 4.0999 38.3 4.1999 38.7H3.9999ZM62.8999 38.1H62.6999C62.6999 37.7 62.6999 37.2 62.6999 36.8C62.6999 36.4 62.6999 36.1 62.6999 35.7H62.8999C62.8999 36.1 62.8999 36.5 62.8999 36.8C62.8999 37.2 62.8999 37.6 62.8999 38.1ZM4.1999 36H3.9999C3.9999 35.6 3.9999 35.1 4.0999 34.7H4.2999C4.2999 35.1 4.1999 35.6 4.1999 36ZM62.5999 34.3C62.5999 33.9 62.4999 33.4 62.4999 33H62.6999C62.7999 33.4 62.7999 33.9 62.7999 34.3H62.5999ZM4.3999 33.4H4.1999C4.2999 33 4.2999 32.5 4.3999 32.1H4.5999C4.4999 32.5 4.4999 32.9 4.3999 33.4ZM62.2999 31.7C62.1999 31.3 62.0999 30.8 61.9999 30.4H62.1999C62.2999 30.8 62.3999 31.3 62.4999 31.7H62.2999ZM4.7999 30.7H4.5999C4.6999 30.3 4.7999 29.8 4.8999 29.4L5.0999 29.5C4.9999 29.9 4.8999 30.3 4.7999 30.7ZM61.6999 29.1C61.5999 28.7 61.4999 28.2 61.2999 27.8L61.4999 27.7C61.5999 28.1 61.7999 28.6 61.8999 29L61.6999 29.1ZM5.4999 28.2L5.2999 28.1C5.3999 27.7 5.5999 27.2 5.6999 26.8L5.8999 26.9C5.7999 27.3 5.5999 27.8 5.4999 28.2ZM60.8999 26.6C60.6999 26.2 60.5999 25.8 60.3999 25.4L60.5999 25.3C60.7999 25.7 60.8999 26.1 61.0999 26.5L60.8999 26.6ZM6.3999 25.7L6.1999 25.6C6.3999 25.2 6.4999 24.8 6.6999 24.4L6.8999 24.5C6.6999 24.9 6.4999 25.3 6.3999 25.7ZM59.8999 24.2C59.6999 23.8 59.4999 23.4 59.2999 23L59.4999 22.9C59.6999 23.3 59.8999 23.7 60.0999 24.1L59.8999 24.2ZM7.4999 23.3L7.2999 23.2C7.4999 22.8 7.6999 22.4 7.8999 22L8.0999 22.1C7.8999 22.5 7.6999 22.9 7.4999 23.3ZM58.5999 21.8C58.3999 21.4 58.0999 21 57.8999 20.7L58.0999 20.6C58.2999 21 58.5999 21.3 58.7999 21.7L58.5999 21.8ZM8.7999 21L8.5999 20.9C8.7999 20.5 9.0999 20.2 9.2999 19.8L9.4999 19.9C9.2999 20.2 9.0999 20.6 8.7999 21ZM57.1999 19.6C56.8999 19.2 56.6999 18.9 56.3999 18.5L56.5999 18.4C56.8999 18.7 57.0999 19.1 57.3999 19.5L57.1999 19.6ZM10.3999 18.8L10.1999 18.7C10.4999 18.4 10.7999 18 10.9999 17.7L11.1999 17.8C10.8999 18.1 10.5999 18.5 10.3999 18.8ZM55.4999 17.6C55.1999 17.3 54.8999 16.9 54.5999 16.6L54.7999 16.4C55.0999 16.7 55.3999 17.1 55.6999 17.4L55.4999 17.6ZM12.0999 16.8L11.8999 16.6C12.1999 16.3 12.4999 16 12.7999 15.6L12.9999 15.8C12.6999 16.2 12.3999 16.5 12.0999 16.8ZM53.6999 15.6C53.3999 15.3 53.0999 15 52.6999 14.7L52.7999 14.5C53.0999 14.8 53.4999 15.1 53.7999 15.4L53.6999 15.6ZM13.9999 15L13.8999 14.8C14.1999 14.5 14.5999 14.2 14.8999 13.9L14.9999 14.1C14.5999 14.4 14.2999 14.7 13.9999 15ZM51.6999 13.9C51.3999 13.6 50.9999 13.4 50.5999 13.1L50.6999 12.9C51.0999 13.2 51.3999 13.4 51.7999 13.7L51.6999 13.9ZM15.9999 13.3L15.8999 13.1C16.2999 12.8 16.5999 12.6 16.9999 12.3L17.0999 12.5C16.6999 12.8 16.3999 13 15.9999 13.3ZM49.5999 12.3C49.1999 12.1 48.8999 11.8 48.4999 11.6L48.5999 11.4C48.9999 11.6 49.3999 11.9 49.6999 12.1L49.5999 12.3ZM18.1999 11.8L18.0999 11.6C18.4999 11.4 18.8999 11.1 19.2999 10.9L19.3999 11.1C18.9999 11.3 18.5999 11.6 18.1999 11.8ZM47.2999 11C46.8999 10.8 46.4999 10.6 46.0999 10.4L46.1999 10.2C46.5999 10.4 46.9999 10.6 47.3999 10.8L47.2999 11ZM20.4999 10.5L20.3999 10.3C20.7999 10.1 21.1999 9.9 21.5999 9.7L21.6999 9.9C21.2999 10.1 20.8999 10.3 20.4999 10.5ZM44.8999 9.8C44.4999 9.6 44.0999 9.5 43.6999 9.3L43.7999 9.1C44.1999 9.3 44.5999 9.4 44.9999 9.6L44.8999 9.8ZM22.8999 9.5L22.7999 9.3C23.1999 9.1 23.5999 9 24.0999 8.8L24.1999 9C23.7999 9.2 23.2999 9.3 22.8999 9.5ZM42.3999 8.9C41.9999 8.8 41.5999 8.6 41.0999 8.5L41.1999 8.3C41.5999 8.4 42.0999 8.5 42.4999 8.7L42.3999 8.9ZM25.3999 8.6L25.2999 8.4C25.6999 8.3 26.1999 8.2 26.5999 8.1L26.6999 8.3C26.2999 8.4 25.8999 8.5 25.3999 8.6ZM39.8999 8.2C39.4999 8.1 38.9999 8 38.5999 7.9V7.7C38.9999 7.8 39.4999 7.9 39.8999 8V8.2ZM27.9999 8V7.8C28.3999 7.7 28.8999 7.6 29.2999 7.6V7.8C28.8999 7.9 28.4999 7.9 27.9999 8ZM37.1999 7.8C36.7999 7.7 36.2999 7.7 35.8999 7.7V7.5C36.2999 7.5 36.7999 7.6 37.1999 7.6V7.8ZM30.5999 7.6V7.4C30.9999 7.4 31.4999 7.3 31.8999 7.3V7.5C31.4999 7.6 31.0999 7.6 30.5999 7.6ZM34.5999 7.5C34.1999 7.5 33.7999 7.5 33.4999 7.5H33.2999V7.3H33.4999C33.8999 7.3 34.2999 7.3 34.6999 7.3L34.5999 7.5Z" fill="#ABE4FF"/>
<path fill-rule="evenodd" clip-rule="evenodd" d="M52.5999 31.6H14.5999C13.0999 31.6 11.8999 32.8 11.8999 34.3V59.8C11.8999 61.3 13.0999 62.5 14.5999 62.5H52.5999C54.0999 62.5 55.2999 61.3 55.2999 59.8V34.3C55.2999 32.9 54.0999 31.6 52.5999 31.6Z" fill="#2C6980"/>
<path fill-rule="evenodd" clip-rule="evenodd" d="M52.5999 30.8H14.5999C13.0999 30.8 11.8999 32 11.8999 33.5V59C11.8999 60.5 13.0999 61.7 14.5999 61.7H52.5999C54.0999 61.7 55.2999 60.5 55.2999 59V33.5C55.2999 32.1 54.0999 30.8 52.5999 30.8Z" fill="#043573"/>
<rect x="14.5" y="33.6" width="38.1" height="24.1" fill="#FFA30E"/>
<path fill-rule="evenodd" clip-rule="evenodd" d="M6.7998 59V61C6.7998 62 7.5998 62.9 8.6998 62.9H58.4998C59.4998 62.9 60.3998 62.1 60.3998 61V59H6.7998Z" fill="#7CB4DA"/>
<rect x="6.7998" y="59" width="53.5" height="2" fill="#C1E6E3"/>
<path fill-rule="evenodd" clip-rule="evenodd" d="M28.0996 59V59.2C28.0996 59.4 28.2996 59.6 28.4996 59.6H38.6996C38.8996 59.6 39.0996 59.4 39.0996 59.2V59H28.0996Z" fill="#1FC3CC"/>
<path fill-rule="evenodd" clip-rule="evenodd" d="M19.1002 54.7C18.6002 54.7 18.2002 54.3 18.2002 53.8V17.7C18.2002 17.2 18.6002 16.8 19.1002 16.8H38.4002C38.6002 16.8 38.9002 16.9 39.1002 17.1L48.4002 26.4C48.6002 26.6 48.7002 26.8 48.7002 27.1V53.8C48.7002 54.3 48.3002 54.7 47.8002 54.7H19.1002Z" fill="#043573"/>
<path fill-rule="evenodd" clip-rule="evenodd" d="M47.8001 53.8H19.1001V17.8H38.5001L47.8001 27.1V53.8Z" fill="white"/>
<path fill-rule="evenodd" clip-rule="evenodd" d="M38.5 27.1V17.8L47.8 27.1H38.5Z" fill="#0587BF"/>
<path fill-rule="evenodd" clip-rule="evenodd" d="M47.8 27.1V36.4L38.5 27.1H47.8Z" fill="#C8EFF2"/>
<path fill-rule="evenodd" clip-rule="evenodd" d="M43.4004 32.7H30.4004C30.1004 32.7 29.9004 32.5 29.9004 32.2C29.9004 31.9 30.1004 31.7 30.4004 31.7H43.4004C43.7004 31.7 43.9004 31.9 43.9004 32.2C43.9004 32.5 43.7004 32.7 43.4004 32.7Z" fill="#04B1D9"/>
<path fill-rule="evenodd" clip-rule="evenodd" d="M35.8003 23.3H22.8003C22.5003 23.3 22.3003 23.1 22.3003 22.8C22.3003 22.5 22.5003 22.3 22.8003 22.3H35.8003C36.1003 22.3 36.3003 22.5 36.3003 22.8C36.3003 23.1 36.1003 23.3 35.8003 23.3Z" fill="#04B1D9"/>
<path fill-rule="evenodd" clip-rule="evenodd" d="M31.9003 26H22.8003C22.5003 26 22.3003 25.8 22.3003 25.5C22.3003 25.2 22.5003 25 22.8003 25H31.9003C32.2003 25 32.4003 25.2 32.4003 25.5C32.4003 25.8 32.2003 26 31.9003 26Z" fill="#04B1D9"/>
<path fill-rule="evenodd" clip-rule="evenodd" d="M43.4004 35.2H30.4004C30.1004 35.2 29.9004 35 29.9004 34.7C29.9004 34.4 30.1004 34.2 30.4004 34.2H43.4004C43.7004 34.2 43.9004 34.4 43.9004 34.7C43.9004 35 43.7004 35.2 43.4004 35.2Z" fill="#ABD0D9"/>
<path fill-rule="evenodd" clip-rule="evenodd" d="M43.4004 42.4H30.4004C30.1004 42.4 29.9004 42.2 29.9004 41.9C29.9004 41.6 30.1004 41.4 30.4004 41.4H43.4004C43.7004 41.4 43.9004 41.6 43.9004 41.9C43.9004 42.2 43.7004 42.4 43.4004 42.4Z" fill="#04B1D9"/>
<path fill-rule="evenodd" clip-rule="evenodd" d="M43.4004 45.1H30.4004C30.1004 45.1 29.9004 44.9 29.9004 44.6C29.9004 44.3 30.1004 44.1 30.4004 44.1H43.4004C43.7004 44.1 43.9004 44.3 43.9004 44.6C43.9004 44.9 43.7004 45.1 43.4004 45.1Z" fill="#ABD0D9"/>
<path fill-rule="evenodd" clip-rule="evenodd" d="M43.4004 37.6H30.4004C30.1004 37.6 29.9004 37.4 29.9004 37.1C29.9004 36.8 30.1004 36.6 30.4004 36.6H43.4004C43.7004 36.6 43.9004 36.8 43.9004 37.1C43.9004 37.4 43.7004 37.6 43.4004 37.6Z" fill="#ABD0D9"/>
<path fill-rule="evenodd" clip-rule="evenodd" d="M43.4004 47.4H30.4004C30.1004 47.4 29.9004 47.2 29.9004 46.9C29.9004 46.6 30.1004 46.4 30.4004 46.4H43.4004C43.7004 46.4 43.9004 46.6 43.9004 46.9C43.9004 47.2 43.7004 47.4 43.4004 47.4Z" fill="#ABD0D9"/>
<rect x="22.8003" y="42" width="5" height="5" fill="white"/>
<path fill-rule="evenodd" clip-rule="evenodd" d="M27.8003 47.4H22.8003C22.5003 47.4 22.3003 47.2 22.3003 46.9V41.9C22.3003 41.6 22.5003 41.4 22.8003 41.4H27.8003C28.1003 41.4 28.3003 41.6 28.3003 41.9V46.9C28.2003 47.2 28.0003 47.4 27.8003 47.4ZM23.3003 46.5H27.3003V42.5H23.3003V46.5Z" fill="#BA9BC9"/>
<rect x="22.8003" y="32.3" width="5" height="5" fill="white"/>
<path fill-rule="evenodd" clip-rule="evenodd" d="M27.8003 37.7H22.8003C22.5003 37.7 22.3003 37.5 22.3003 37.2V32.2C22.3003 31.9 22.5003 31.7 22.8003 31.7H27.8003C28.1003 31.7 28.3003 31.9 28.3003 32.2V37.2C28.2003 37.5 28.0003 37.7 27.8003 37.7ZM23.3003 36.8H27.3003V32.8H23.3003V36.8Z" fill="#838BC5"/>
<path fill-rule="evenodd" clip-rule="evenodd" d="M25.3002 37C25.2002 37 25.0002 36.9 24.9002 36.8L23.1002 35C22.9002 34.8 22.9002 34.4 23.1002 34.2C23.3002 34 23.7002 34 23.9002 34.2L25.3002 35.6L28.7002 32.2C28.9002 32 29.3002 32 29.5002 32.2C29.7002 32.4 29.7002 32.8 29.5002 33L25.7002 36.8C25.6002 37 25.5002 37 25.3002 37Z" fill="#043573"/>
<path fill-rule="evenodd" clip-rule="evenodd" d="M58.6003 57.1C57.8003 57.1 57.0003 56.8 56.4003 56.2L49.5003 49.3C48.8003 48.6 48.7003 47.8 49.2003 47L46.3003 44.1L48.7003 41.7L51.6003 44.6C51.9003 44.4 52.2003 44.3 52.6003 44.3C53.1003 44.3 53.5003 44.5 53.9003 44.9L60.8003 51.8C62.0003 53 62.0003 55 60.8003 56.2C60.2003 56.8 59.5003 57.1 58.6003 57.1ZM48.6003 44.2L51.4003 47L50.9003 47.5C50.4003 48 50.5003 48 50.7003 48.3L57.6003 55.2C57.9003 55.5 58.3003 55.7 58.7003 55.7C59.1003 55.7 59.5003 55.5 59.8003 55.2C60.4003 54.6 60.4003 53.6 59.8003 53L52.9003 46.1C52.8003 46 52.7003 45.9 52.6003 45.9C52.6003 45.9 52.4003 45.9 52.1003 46.2L51.6003 46.7L48.8003 43.9L48.6003 44.2Z" fill="white"/>
<path fill-rule="evenodd" clip-rule="evenodd" d="M60.3005 52.4L53.4005 45.5C52.7005 44.8 52.2005 45.1 51.6005 45.6L48.8005 42.8L47.5005 44.1L50.3005 46.9C49.7005 47.5 49.5005 48.1 50.2005 48.7L57.1005 55.6C57.6005 56.1 58.2005 56.3 58.7005 56.3C59.3005 56.3 59.9005 56.1 60.4005 55.6C61.2005 54.8 61.2005 53.3 60.3005 52.4Z" fill="#005780"/>
<path fill-rule="evenodd" clip-rule="evenodd" d="M47.5 44.2L50.3 47C49.7 47.6 49.5 48.2 50.2 48.8L57.1 55.7C57.6 56.2 58.2 56.4 58.7 56.4C59.3 56.4 59.9 56.2 60.4 55.7L48.2 43.5L47.5 44.2Z" fill="#043573"/>
<g opacity="0.4">
<path fill-rule="evenodd" clip-rule="evenodd" d="M41.1001 46.5C46.6229 46.5 51.1001 42.0228 51.1001 36.5C51.1001 30.9772 46.6229 26.5 41.1001 26.5C35.5773 26.5 31.1001 30.9772 31.1001 36.5C31.1001 42.0228 35.5773 46.5 41.1001 46.5Z" fill="#54D6FF"/>
</g>
<path fill-rule="evenodd" clip-rule="evenodd" d="M41.1002 47.9C34.8002 47.9 29.7002 42.8 29.7002 36.5C29.7002 30.2 34.8002 25.1 41.1002 25.1C47.4002 25.1 52.5002 30.2 52.5002 36.5C52.5002 42.8 47.4002 47.9 41.1002 47.9ZM41.1002 27.9C36.4002 27.9 32.5002 31.8 32.5002 36.5C32.5002 41.2 36.4002 45.1 41.1002 45.1C45.8002 45.1 49.7002 41.2 49.7002 36.5C49.7002 31.8 45.9002 27.9 41.1002 27.9Z" fill="white"/>
<path fill-rule="evenodd" clip-rule="evenodd" d="M41.1004 47.3C35.2004 47.3 30.4004 42.5 30.4004 36.6C30.4004 30.7 35.2004 25.9 41.1004 25.9C47.0004 25.9 51.8004 30.7 51.8004 36.6C51.9004 42.5 47.1004 47.3 41.1004 47.3ZM41.1004 27.3C36.0004 27.3 31.8004 31.5 31.8004 36.6C31.8004 41.7 35.9004 45.9 41.1004 45.9C46.2004 45.9 50.4004 41.7 50.4004 36.6C50.4004 31.4 46.2004 27.3 41.1004 27.3Z" fill="#005780"/>
<path fill-rule="evenodd" clip-rule="evenodd" d="M41.1004 47.3C35.2004 47.3 30.4004 42.5 30.4004 36.6H31.9004C31.9004 41.7 36.0004 45.9 41.2004 45.9C46.3004 45.9 50.5004 41.7 50.5004 36.6H52.0004C51.9004 42.5 47.1004 47.3 41.1004 47.3Z" fill="#043573"/>
<path fill-rule="evenodd" clip-rule="evenodd" d="M63.3002 22.3C63.2002 22.2 63.1002 22.1 63.1002 21.9C63.1002 21.9 63.1002 21.9 63.1002 21.7C63.1002 21.6 63.1002 21.5 63.1002 21.5C63.1002 21.4 63.2002 21.2 63.3002 21.1L64.2002 20.5C64.3002 20.4 64.4002 20.3 64.3002 20.1L64.0002 19.3C63.9002 19.2 63.8002 19.1 63.6002 19.1L62.6002 19.3C62.5002 19.3 62.3002 19.3 62.2002 19.2L62.0002 19C61.9002 18.9 61.8002 18.7 61.9002 18.6L62.1002 17.6C62.1002 17.5 62.1002 17.3 61.9002 17.2L61.1002 16.9C61.0002 16.9 60.8002 16.9 60.7002 17L60.1002 17.9C60.0002 18 59.9002 18.1 59.7002 18.1C59.7002 18.1 59.7002 18.1 59.5002 18.1C59.4002 18.1 59.3002 18.1 59.3002 18.1C59.2002 18.1 59.0002 18 58.9002 17.9L58.3002 17C58.2002 16.9 58.1002 16.8 57.9002 16.9L57.1002 17.2C57.0002 17.3 56.9002 17.4 56.9002 17.6L57.1002 18.6C57.1002 18.7 57.1002 18.9 57.0002 19L56.8002 19.2C56.7002 19.3 56.5002 19.4 56.4002 19.3L55.4002 19.1C55.3002 19.1 55.1002 19.1 55.0002 19.3L54.7002 20.1C54.7002 20.2 54.7002 20.4 54.8002 20.5L55.7002 21.1C55.8002 21.2 55.9002 21.3 55.9002 21.5C55.9002 21.5 55.9002 21.5 55.9002 21.7C55.9002 21.8 55.9002 21.9 55.9002 21.9C55.9002 22 55.8002 22.2 55.7002 22.3L54.8002 22.9C54.7002 23 54.6002 23.1 54.7002 23.3L55.0002 24.1C55.1002 24.2 55.2002 24.3 55.4002 24.3L56.4002 24.1C56.5002 24.1 56.7002 24.1 56.8002 24.2L57.0002 24.4C57.1002 24.5 57.2002 24.7 57.1002 24.8L56.9002 25.8C56.9002 25.9 56.9002 26.1 57.1002 26.2L57.9002 26.5C58.0002 26.5 58.2002 26.5 58.3002 26.4L58.9002 25.5C59.0002 25.4 59.1002 25.3 59.3002 25.3C59.3002 25.3 59.3002 25.3 59.5002 25.3C59.6002 25.3 59.7002 25.3 59.7002 25.3C59.8002 25.3 60.0002 25.4 60.1002 25.5L60.7002 26.4C60.8002 26.5 60.9002 26.6 61.1002 26.5L61.9002 26.2C62.0002 26.1 62.1002 26 62.1002 25.8L61.9002 24.8C61.9002 24.7 61.9002 24.5 62.0002 24.4L62.2002 24.2C62.3002 24.1 62.5002 24 62.6002 24.1L63.6002 24.3C63.7002 24.3 63.9002 24.3 64.0002 24.1L64.3002 23.3C64.3002 23.2 64.3002 23 64.2002 22.9L63.3002 22.3ZM59.6002 24.1C58.3002 24.1 57.2002 23 57.2002 21.7C57.2002 20.4 58.3002 19.3 59.6002 19.3C60.9002 19.3 62.0002 20.4 62.0002 21.7C61.9002 23.1 60.9002 24.1 59.6002 24.1ZM56.5002 15.5C56.4002 15.5 56.3002 15.4 56.3002 15.3C56.3002 15.3 56.3002 15.3 56.3002 15.2C56.3002 15.1 56.3002 15.1 56.3002 15.1C56.3002 15 56.3002 14.9 56.3002 14.8L56.7002 14.2C56.8002 14.1 56.8002 14 56.7002 13.9L56.3002 13.5C56.2002 13.4 56.1002 13.4 56.0002 13.5L55.4002 13.9C55.3002 14 55.2002 14 55.1002 13.9L54.9002 13.8C54.8002 13.8 54.7002 13.7 54.7002 13.6L54.6002 12.9C54.6002 12.8 54.5002 12.7 54.4002 12.7H53.8002C53.7002 12.7 53.6002 12.8 53.6002 12.9L53.5002 13.6C53.5002 13.7 53.4002 13.8 53.3002 13.8C53.3002 13.8 53.3002 13.8 53.2002 13.8C53.1002 13.8 53.1002 13.8 53.1002 13.8C53.0002 13.8 52.9002 13.8 52.8002 13.8L52.2002 13.4C52.1002 13.3 52.0002 13.4 51.9002 13.4L51.5002 13.8C51.4002 13.9 51.4002 14 51.5002 14.1L51.9002 14.7C52.0002 14.8 52.0002 14.9 51.9002 15L51.8002 15.2C51.8002 15.3 51.7002 15.4 51.6002 15.4L50.9002 15.5C50.8002 15.5 50.7002 15.6 50.7002 15.7V16.3C50.7002 16.4 50.8002 16.5 50.9002 16.5L51.6002 16.6C51.7002 16.6 51.8002 16.7 51.8002 16.8C51.8002 16.8 51.8002 16.8 51.8002 16.9C51.8002 17 51.8002 17 51.8002 17C51.8002 17.1 51.8002 17.2 51.8002 17.3L51.4002 17.9C51.3002 18 51.4002 18.1 51.4002 18.2L51.8002 18.6C51.9002 18.7 52.0002 18.7 52.1002 18.6L52.7002 18.2C52.8002 18.1 52.9002 18.1 53.0002 18.2L53.2002 18.3C53.3002 18.3 53.4002 18.4 53.4002 18.5L53.5002 19.2C53.5002 19.3 53.6002 19.4 53.7002 19.4H54.3002C54.4002 19.4 54.5002 19.3 54.5002 19.2L54.6002 18.5C54.6002 18.4 54.7002 18.3 54.8002 18.3C54.8002 18.3 54.8002 18.3 54.9002 18.3C55.0002 18.3 55.0002 18.3 55.0002 18.3C55.1002 18.3 55.2002 18.3 55.3002 18.3L55.9002 18.7C56.0002 18.8 56.1002 18.8 56.2002 18.7L56.6002 18.3C56.7002 18.2 56.7002 18.1 56.6002 18L56.2002 17.4C56.1002 17.3 56.1002 17.2 56.2002 17.1L56.3002 16.9C56.3002 16.8 56.4002 16.7 56.5002 16.7L57.2002 16.6C57.3002 16.6 57.4002 16.5 57.4002 16.4V15.8C57.4002 15.7 57.3002 15.6 57.2002 15.6L56.5002 15.5ZM54.4002 17.3C53.7002 17.6 53.0002 17.3 52.7002 16.6C52.4002 15.9 52.7002 15.2 53.4002 14.9C54.1002 14.6 54.8002 14.9 55.1002 15.6C55.4002 16.3 55.1002 17 54.4002 17.3ZM60.9002 21.8C60.9002 22.5 60.3002 23.1 59.6002 23.1C58.9002 23.1 58.3002 22.5 58.3002 21.8C58.3002 21.1 58.9002 20.5 59.6002 20.5C60.3002 20.5 60.9002 21.1 60.9002 21.8Z" fill="#F25A58"/>
<path fill-rule="evenodd" clip-rule="evenodd" d="M65.3003 33C65.3003 32.7 65.1003 32.5 64.8003 32.5H61.3003C61.0003 32.5 60.8003 32.7 60.8003 33V40C60.8003 40.3 61.0003 40.5 61.3003 40.5H64.8003C65.1003 40.5 65.3003 40.3 65.3003 40V33Z" fill="white"/>
<path fill-rule="evenodd" clip-rule="evenodd" d="M64.8001 40.7H61.3001C60.9001 40.7 60.6001 40.4 60.6001 40V33C60.6001 32.6 60.9001 32.3 61.3001 32.3H64.8001C65.2001 32.3 65.5001 32.6 65.5001 33V40C65.5001 40.4 65.2001 40.7 64.8001 40.7ZM61.3001 32.8C61.2001 32.8 61.1001 32.9 61.1001 33V40C61.1001 40.1 61.2001 40.2 61.3001 40.2H64.8001C64.9001 40.2 65.0001 40.1 65.0001 40V33C65.0001 32.9 64.9001 32.8 64.8001 32.8H61.3001Z" fill="#4BA3CC"/>
<path fill-rule="evenodd" clip-rule="evenodd" d="M65.0999 39.9H61.0999C60.9999 39.9 60.8999 39.8 60.8999 39.7C60.8999 39.6 60.9999 39.5 61.0999 39.5H65.0999C65.1999 39.5 65.2999 39.6 65.2999 39.7C65.2999 39.8 65.1999 39.9 65.0999 39.9Z" fill="#4BA3CC"/>
<path fill-rule="evenodd" clip-rule="evenodd" d="M65.0999 33.7H61.0999C60.9999 33.7 60.8999 33.6 60.8999 33.5C60.8999 33.4 60.9999 33.3 61.0999 33.3H65.0999C65.1999 33.3 65.2999 33.4 65.2999 33.5C65.2999 33.6 65.1999 33.7 65.0999 33.7Z" fill="#4BA3CC"/>
<path fill-rule="evenodd" clip-rule="evenodd" d="M11.7002 22.3H12.9002C13.0002 22.3 13.1002 22.2 13.1002 22.1V16.7C13.1002 16.6 13.0002 16.5 12.9002 16.5H5.9002C5.8002 16.5 5.7002 16.6 5.7002 16.7V22.1C5.7002 22.2 5.8002 22.3 5.9002 22.3H7.0002" fill="white"/>
<path fill-rule="evenodd" clip-rule="evenodd" d="M12.9 22.5H11.7C11.6 22.5 11.5 22.4 11.5 22.3C11.5 22.2 11.6 22.1 11.7 22.1H12.9V16.7H5.9V22.1H7C7.1 22.1 7.2 22.2 7.2 22.3C7.2 22.4 7.1 22.5 7 22.5H5.9C5.7 22.5 5.5 22.3 5.5 22.1V16.7C5.5 16.5 5.7 16.3 5.9 16.3H12.9C13.1 16.3 13.2 16.5 13.2 16.7V22.1C13.2 22.4 13.1 22.5 12.9 22.5Z" fill="#4BA3CC"/>
<path fill-rule="evenodd" clip-rule="evenodd" d="M7.9998 21C6.9998 21 6.2998 20.9 6.2998 20.4C6.2998 20 6.7998 19.6 7.4998 19.5V19.4C7.4998 19.4 7.3998 19.4 7.3998 19.3C7.2998 19.2 7.2998 19.1 7.2998 19C7.1998 18.8 7.0998 18.7 7.0998 18.4C7.0998 17.9 7.4998 17.5 7.9998 17.5C8.4998 17.5 8.8998 17.9 8.8998 18.4C8.8998 18.8 8.7998 19.1 8.4998 19.3V19.4C9.1998 19.5 9.6998 19.9 9.6998 20.3C9.6998 20.9 8.7998 21 7.9998 21ZM7.7998 19.1C7.8998 19.1 7.8998 19.2 7.8998 19.3C7.8998 19.5 7.7998 19.8 7.5998 19.8C6.9998 19.9 6.5998 20.2 6.5998 20.4C6.5998 20.4 6.5998 20.6 7.9998 20.6C9.2998 20.6 9.3998 20.4 9.3998 20.4C9.3998 20.3 9.0998 20 8.3998 19.8C8.2998 19.8 8.0998 19.7 8.0998 19.5C8.0998 19.4 8.0998 19.2 8.1998 19.1C8.3998 18.9 8.4998 18.7 8.4998 18.4C8.4998 18 8.2998 17.8 7.9998 17.8C7.6998 17.8 7.4998 18 7.4998 18.4C7.4998 18.6 7.4998 18.7 7.5998 18.8C7.6998 18.9 7.6998 19 7.7998 19.1Z" fill="#4BA3CC"/>
<path fill-rule="evenodd" clip-rule="evenodd" d="M12.1 18.2H10.2C10.1 18.2 10 18.1 10 18C10 17.9 10.1 17.8 10.2 17.8H12.1C12.2 17.8 12.3 17.9 12.3 18C12.2 18.2 12.2 18.2 12.1 18.2Z" fill="#4BA3CC"/>
<path fill-rule="evenodd" clip-rule="evenodd" d="M12.1 19H10.2C10.1 19 10 18.9 10 18.8C10 18.7 10.1 18.6 10.2 18.6H12.1C12.2 18.6 12.3 18.7 12.3 18.8C12.2 18.9 12.2 19 12.1 19Z" fill="#4BA3CC"/>
<path fill-rule="evenodd" clip-rule="evenodd" d="M10.5 22.5H8.2C8.1 22.5 8 22.4 8 22.3C8 22.2 8.1 22.1 8.2 22.1H10.5C10.6 22.1 10.7 22.2 10.7 22.3C10.7 22.4 10.6 22.5 10.5 22.5Z" fill="#4BA3CC"/>
<path fill-rule="evenodd" clip-rule="evenodd" d="M11.0999 23.1C10.9999 23.1 10.8999 23 10.8999 22.9V21.7C10.8999 21.6 10.9999 21.5 11.0999 21.5C11.1999 21.5 11.2999 21.6 11.2999 21.7V22.9C11.2999 23 11.1999 23.1 11.0999 23.1Z" fill="#4BA3CC"/>
<path fill-rule="evenodd" clip-rule="evenodd" d="M7.5999 23.1C7.4999 23.1 7.3999 23 7.3999 22.9V21.7C7.3999 21.6 7.4999 21.5 7.5999 21.5C7.6999 21.5 7.7999 21.6 7.7999 21.7V22.9C7.7999 23 7.6999 23.1 7.5999 23.1Z" fill="#4BA3CC"/>
<path fill-rule="evenodd" clip-rule="evenodd" d="M7.6 31.1C7.6 30.9 7.4 30.7 7.2 30.7H0.4C0.2 30.7 0 30.9 0 31.1V37.9C0 38.1 0.2 38.3 0.4 38.3H7.2C7.4 38.3 7.6 38.1 7.6 37.9V31.1Z" fill="#ABE4FF"/>
<path fill-rule="evenodd" clip-rule="evenodd" d="M6.3998 33.3C6.0998 33.3 5.7998 33 5.7998 32.7C5.7998 32.4 6.0998 32.1 6.3998 32.1C6.6998 32.1 6.9998 32.4 6.9998 32.7C6.9998 33 6.7998 33.3 6.3998 33.3ZM6.3998 32.5C6.2998 32.5 6.1998 32.6 6.1998 32.7C6.1998 32.8 6.2998 32.9 6.3998 32.9C6.4998 32.9 6.5998 32.8 6.5998 32.7C6.5998 32.6 6.4998 32.5 6.3998 32.5Z" fill="#F25A58"/>
<path fill-rule="evenodd" clip-rule="evenodd" d="M4.8002 35.7C4.5002 35.7 4.2002 35.4 4.2002 35.1C4.2002 34.8 4.5002 34.5 4.8002 34.5C5.1002 34.5 5.4002 34.8 5.4002 35.1C5.4002 35.4 5.2002 35.7 4.8002 35.7ZM4.8002 34.9C4.7002 34.9 4.6002 35 4.6002 35.1C4.6002 35.2 4.7002 35.3 4.8002 35.3C4.9002 35.3 5.0002 35.2 5.0002 35.1C5.0002 35 4.9002 34.9 4.8002 34.9Z" fill="#F25A58"/>
<path fill-rule="evenodd" clip-rule="evenodd" d="M3.2001 34.1C2.9001 34.1 2.6001 33.8 2.6001 33.5C2.6001 33.2 2.9001 32.9 3.2001 32.9C3.5001 32.9 3.8001 33.2 3.8001 33.5C3.8001 33.8 3.6001 34.1 3.2001 34.1ZM3.2001 33.3C3.1001 33.3 3.0001 33.4 3.0001 33.5C3.0001 33.6 3.1001 33.7 3.2001 33.7C3.3001 33.7 3.4001 33.6 3.4001 33.5C3.4001 33.4 3.3001 33.3 3.2001 33.3Z" fill="#F25A58"/>
<path fill-rule="evenodd" clip-rule="evenodd" d="M1.2001 36.1C0.900098 36.1 0.600098 35.8 0.600098 35.5C0.600098 35.2 0.900098 34.9 1.2001 34.9C1.5001 34.9 1.8001 35.2 1.8001 35.5C1.8001 35.8 1.6001 36.1 1.2001 36.1ZM1.2001 35.3C1.1001 35.3 1.0001 35.4 1.0001 35.5C1.0001 35.6 1.1001 35.7 1.2001 35.7C1.3001 35.7 1.4001 35.6 1.4001 35.5C1.4001 35.4 1.3001 35.3 1.2001 35.3Z" fill="#F25A58"/>
<path fill-rule="evenodd" clip-rule="evenodd" d="M1.5002 35.4C1.5002 35.4 1.4002 35.4 1.4002 35.3C1.3002 35.2 1.3002 35.1 1.4002 35L2.8002 33.5C2.9002 33.4 3.0002 33.4 3.1002 33.5C3.2002 33.6 3.2002 33.7 3.1002 33.8L1.7002 35.3C1.6002 35.4 1.6002 35.4 1.5002 35.4Z" fill="#F25A58"/>
<path fill-rule="evenodd" clip-rule="evenodd" d="M4.5998 35.1C4.4998 35.1 4.4998 35.1 4.4998 35L3.4998 33.9C3.3998 33.8 3.3998 33.7 3.4998 33.6C3.5998 33.5 3.6998 33.5 3.7998 33.6L4.7998 34.7C4.8998 34.8 4.8998 34.9 4.7998 35C4.5998 35.1 4.5998 35.1 4.5998 35.1Z" fill="#F25A58"/>
<path fill-rule="evenodd" clip-rule="evenodd" d="M5.0999 35.1C4.8999 35 4.8999 34.9 4.8999 34.8L5.9999 33C6.0999 32.9 6.1999 32.9 6.2999 32.9C6.3999 33 6.3999 33.1 6.3999 33.2L5.2999 35C5.2999 35 5.1999 35.1 5.0999 35.1Z" fill="#F25A58"/>
<path fill-rule="evenodd" clip-rule="evenodd" d="M30.8999 11.8V1.99999L33.5999 1.89999V11.8H30.8999Z" fill="#4BA3CC"/>
<path fill-rule="evenodd" clip-rule="evenodd" d="M31.8999 0C31.3999 0 30.8999 0.4 30.8999 1C30.8999 1.5 30.8999 2 30.8999 2C30.8999 2 30.8999 2 30.9999 2C30.9999 2 31.4999 2 31.9999 2H32.5999C33.0999 2 33.5999 2 33.5999 2C33.5999 2 33.5999 2 33.5999 1.9C33.5999 1.9 33.5999 1.4 33.5999 0.9C33.5999 0.4 33.1999 0 32.5999 0H31.8999Z" fill="#A61300"/>
<path fill-rule="evenodd" clip-rule="evenodd" d="M30.8999 11.8L32.1999 15.2L33.5999 11.8H30.8999Z" fill="#ABE4FF"/>
<path fill-rule="evenodd" clip-rule="evenodd" d="M32.1998 15.5L31.7998 14.4C31.7998 14.4 31.8998 14 32.1998 14C32.4998 14 32.5998 14.4 32.5998 14.4L32.1998 15.5Z" fill="#011C40"/>
<g opacity="0.5">
<path fill-rule="evenodd" clip-rule="evenodd" d="M32.2998 0.900003V15L33.5998 11.8V0.800003L32.2998 0.900003Z" fill="#005780"/>
</g>
<path fill-rule="evenodd" clip-rule="evenodd" d="M62.7999 37.5L61.8999 36.7C61.8999 36.7 61.8999 36.6 61.8999 36.5C61.8999 36.5 61.9999 36.5 62.0999 36.5L62.7999 37.2L63.8999 36.1C63.8999 36.1 63.9999 36.1 64.0999 36.1C64.0999 36.1 64.0999 36.2 64.0999 36.3L62.7999 37.5C62.8999 37.5 62.8999 37.5 62.7999 37.5Z" fill="#F25A58"/>
</svg>
