<svg width="66" height="60" viewBox="0 0 66 60" fill="none" xmlns="http://www.w3.org/2000/svg">
<path fill-rule="evenodd" clip-rule="evenodd" d="M33.4999 59.2001C33.3999 59.2001 33.1999 59.2001 33.0999 59.2001V59C33.4999 59 33.9999 59 34.3999 59V59.2001C34.0999 59.2001 33.7999 59.2001 33.4999 59.2001ZM31.6999 59.2C31.2999 59.2 30.7999 59.1 30.3999 59.1V58.9C30.7999 58.9 31.2999 59 31.6999 59V59.2ZM35.6999 59.1V58.9C36.0999 58.9 36.5999 58.8 36.9999 58.8V59C36.5999 59.1 36.1999 59.1 35.6999 59.1ZM29.0999 58.9001C28.6999 58.8 28.1999 58.8 27.7999 58.7001V58.5C28.1999 58.6 28.6999 58.7001 29.0999 58.7001V58.9001ZM38.3999 58.8V58.6C38.7999 58.5 39.2999 58.4 39.6999 58.3V58.5C39.2999 58.7001 38.7999 58.7001 38.3999 58.8ZM26.4999 58.4C26.0999 58.3 25.5999 58.2 25.1999 58.1L25.2999 57.9C25.6999 58 26.1999 58.1 26.5999 58.2L26.4999 58.4ZM40.9999 58.3L40.8999 58.1001C41.2999 58 41.7999 57.9001 42.1999 57.7001L42.2999 57.9001C41.8999 58 41.3999 58.1001 40.9999 58.3ZM23.8999 57.6C23.4999 57.5 23.0999 57.3 22.5999 57.1L22.6999 56.9C23.0999 57.1 23.4999 57.2 23.8999 57.4V57.6ZM43.4999 57.5L43.3999 57.3C43.7999 57.2001 44.1999 57 44.5999 56.8L44.6999 57C44.3999 57.1 43.9999 57.3 43.4999 57.5ZM21.3999 56.7C20.9999 56.5 20.5999 56.3 20.1999 56.1L20.2999 55.9C20.6999 56.1 21.0999 56.3 21.4999 56.5L21.3999 56.7ZM45.9999 56.4L45.8999 56.2C46.2999 56 46.6999 55.8 47.0999 55.6L47.1999 55.8C46.7999 56 46.3999 56.2 45.9999 56.4ZM18.9999 55.5C18.5999 55.3 18.1999 55.1 17.8999 54.8L17.9999 54.6C18.3999 54.8 18.7999 55.1 19.0999 55.3L18.9999 55.5ZM48.2999 55.2001L48.1999 55C48.5999 54.8 48.9999 54.5 49.2999 54.3L49.3999 54.5C49.0999 54.7001 48.6999 55 48.2999 55.2001ZM16.7999 54.1C16.3999 53.9 16.0999 53.6 15.6999 53.3L15.7999 53.1C16.1999 53.4 16.4999 53.6 16.8999 53.9L16.7999 54.1ZM50.5999 53.7001L50.4999 53.5C50.8999 53.2001 51.1999 53 51.5999 52.7001L51.6999 52.9001C51.2999 53.2001 50.8999 53.5 50.5999 53.7001ZM14.5999 52.4C14.2999 52.1 13.8999 51.8 13.5999 51.5L13.6999 51.3C13.9999 51.6 14.3999 51.9 14.6999 52.2001L14.5999 52.4ZM52.6999 52.1L52.5999 51.9001C52.8999 51.6 53.2999 51.3 53.5999 51L53.7999 51.2001C53.2999 51.5 52.9999 51.8 52.6999 52.1ZM12.6999 50.7C12.3999 50.4 12.0999 50.1 11.7999 49.7L11.9999 49.6C12.2999 49.9 12.5999 50.2 12.8999 50.6L12.6999 50.7ZM54.5999 50.3L54.3999 50.1C54.6999 49.8 54.9999 49.5 55.2999 49.1L55.4999 49.2C55.1999 49.6 54.8999 50 54.5999 50.3ZM10.8999 48.7C10.5999 48.4 10.2999 48 10.0999 47.7L10.2999 47.6C10.5999 47.9 10.7999 48.3 11.0999 48.6L10.8999 48.7ZM56.3999 48.3L56.1999 48.2001C56.4999 47.9001 56.6999 47.5 56.9999 47.2001L57.1999 47.3C56.8999 47.6001 56.6999 47.9001 56.3999 48.3ZM9.2999 46.6C8.9999 46.2 8.7999 45.9 8.5999 45.5L8.7999 45.4C8.9999 45.8 9.2999 46.1 9.4999 46.5L9.2999 46.6ZM57.9999 46.1L57.7999 46C57.9999 45.6 58.2999 45.3 58.4999 44.9L58.6999 45C58.4999 45.4 58.1999 45.8 57.9999 46.1ZM7.7999 44.3C7.5999 43.9001 7.3999 43.5 7.1999 43.1L7.3999 43C7.5999 43.4001 7.7999 43.8 7.9999 44.2001L7.7999 44.3ZM59.3999 43.8L59.1999 43.7001C59.3999 43.3 59.5999 42.9001 59.7999 42.5L59.9999 42.6C59.7999 43.1 59.5999 43.5 59.3999 43.8ZM6.5999 41.9C6.3999 41.5 6.1999 41.1 6.0999 40.7L6.2999 40.6C6.4999 41 6.5999 41.4 6.7999 41.8L6.5999 41.9ZM60.4999 41.4L60.2999 41.3C60.4999 40.9 60.5999 40.5 60.7999 40.1L60.9999 40.2C60.8999 40.6 60.6999 41 60.4999 41.4ZM5.5999 39.5C5.4999 39.1 5.2999 38.7 5.1999 38.2L5.3999 38.1C5.4999 38.5 5.6999 38.9 5.7999 39.4L5.5999 39.5ZM61.4999 38.9001L61.2999 38.8C61.3999 38.4001 61.5999 38 61.6999 37.5L61.8999 37.6C61.6999 38.1 61.5999 38.5 61.4999 38.9001ZM4.8999 36.9C4.7999 36.5 4.6999 36 4.5999 35.6H4.7999C4.8999 36 4.9999 36.5 5.0999 36.9H4.8999ZM62.1999 36.4H61.9999C62.0999 36 62.1999 35.5 62.2999 35.1H62.4999C62.3999 35.5 62.2999 35.9 62.1999 36.4ZM4.2999 34.3C4.1999 33.9001 4.1999 33.4001 4.0999 33H4.2999C4.2999 33.4001 4.3999 33.9001 4.4999 34.3H4.2999ZM62.6999 33.7H62.4999C62.5999 33.3 62.5999 32.8 62.5999 32.4H62.7999C62.7999 32.9 62.6999 33.3 62.6999 33.7ZM3.9999 31.7C3.9999 31.3 3.9999 30.8 3.8999 30.4H4.0999C4.0999 30.8 4.0999 31.3 4.1999 31.7H3.9999ZM62.8999 31.1H62.6999C62.6999 30.7 62.6999 30.2 62.6999 29.8C62.6999 29.4 62.6999 29.1 62.6999 28.7H62.8999C62.8999 29.1 62.8999 29.5 62.8999 29.8C62.8999 30.2 62.8999 30.6 62.8999 31.1ZM4.1999 29H3.9999C3.9999 28.6 3.9999 28.1 4.0999 27.7H4.2999C4.2999 28.1 4.1999 28.6 4.1999 29ZM62.5999 27.3C62.5999 26.9 62.4999 26.4 62.4999 26H62.6999C62.7999 26.4 62.7999 26.9 62.7999 27.3H62.5999ZM4.3999 26.4H4.1999C4.2999 26 4.2999 25.5 4.3999 25.1H4.5999C4.4999 25.5 4.4999 25.9 4.3999 26.4ZM62.2999 24.7C62.1999 24.3 62.0999 23.8 61.9999 23.4H62.1999C62.2999 23.8 62.3999 24.3 62.4999 24.7H62.2999ZM4.7999 23.7H4.5999C4.6999 23.3 4.7999 22.8 4.8999 22.4L5.0999 22.5C4.9999 22.9 4.8999 23.3 4.7999 23.7ZM61.6999 22.1C61.5999 21.7 61.4999 21.2 61.2999 20.8L61.4999 20.7C61.5999 21.1 61.7999 21.6 61.8999 22L61.6999 22.1ZM5.4999 21.2L5.2999 21.1C5.3999 20.7 5.5999 20.2 5.6999 19.8L5.8999 19.9C5.7999 20.3 5.5999 20.8 5.4999 21.2ZM60.8999 19.6C60.6999 19.2 60.5999 18.8 60.3999 18.4L60.5999 18.3C60.7999 18.7 60.8999 19.1 61.0999 19.5L60.8999 19.6ZM6.3999 18.7L6.1999 18.6C6.3999 18.2 6.4999 17.8 6.6999 17.4L6.8999 17.5C6.6999 17.9 6.4999 18.3 6.3999 18.7ZM59.8999 17.2C59.6999 16.8 59.4999 16.4 59.2999 16L59.4999 15.9C59.6999 16.3 59.8999 16.7 60.0999 17.1L59.8999 17.2ZM7.4999 16.3L7.2999 16.2C7.4999 15.8 7.6999 15.4 7.8999 15L8.0999 15.1C7.8999 15.5 7.6999 15.9 7.4999 16.3ZM58.5999 14.8C58.3999 14.4 58.0999 14 57.8999 13.7L58.0999 13.6C58.2999 14 58.5999 14.3 58.7999 14.7L58.5999 14.8ZM8.7999 14L8.5999 13.9C8.7999 13.5 9.0999 13.2 9.2999 12.8L9.4999 12.9C9.2999 13.2 9.0999 13.6 8.7999 14ZM57.1999 12.6C56.8999 12.2 56.6999 11.9 56.3999 11.5L56.5999 11.4C56.8999 11.7 57.0999 12.1 57.3999 12.5L57.1999 12.6ZM10.3999 11.8L10.1999 11.7C10.4999 11.4 10.7999 11 10.9999 10.7L11.1999 10.8C10.8999 11.1 10.5999 11.5 10.3999 11.8ZM55.4999 10.6C55.1999 10.3 54.8999 9.90005 54.5999 9.60005L54.7999 9.40005C55.0999 9.70005 55.3999 10.1 55.6999 10.4L55.4999 10.6ZM12.0999 9.80005L11.8999 9.60005C12.1999 9.30005 12.4999 9.00005 12.7999 8.60005L12.9999 8.80005C12.6999 9.20005 12.3999 9.50005 12.0999 9.80005ZM53.6999 8.60005C53.3999 8.30005 53.0999 8.00005 52.6999 7.70005L52.7999 7.50005C53.0999 7.80005 53.4999 8.10005 53.7999 8.40005L53.6999 8.60005ZM13.9999 8.00005L13.8999 7.80005C14.1999 7.50005 14.5999 7.20005 14.8999 6.90005L14.9999 7.10005C14.5999 7.40005 14.2999 7.70005 13.9999 8.00005ZM51.6999 6.90005C51.3999 6.60005 50.9999 6.40005 50.5999 6.10005L50.6999 5.90005C51.0999 6.20005 51.3999 6.40005 51.7999 6.70005L51.6999 6.90005ZM15.9999 6.30005L15.8999 6.10005C16.2999 5.80005 16.5999 5.60005 16.9999 5.30005L17.0999 5.50005C16.6999 5.80005 16.3999 6.00005 15.9999 6.30005ZM49.5999 5.30005C49.1999 5.10005 48.8999 4.80005 48.4999 4.60005L48.5999 4.40005C48.9999 4.60005 49.3999 4.90005 49.6999 5.10005L49.5999 5.30005ZM18.1999 4.80005L18.0999 4.60005C18.4999 4.40005 18.8999 4.10005 19.2999 3.90005L19.3999 4.10005C18.9999 4.30005 18.5999 4.60005 18.1999 4.80005ZM47.2999 4.00005C46.8999 3.80005 46.4999 3.60005 46.0999 3.40005L46.1999 3.20005C46.5999 3.40005 46.9999 3.60005 47.3999 3.80005L47.2999 4.00005ZM20.4999 3.50005L20.3999 3.30005C20.7999 3.10005 21.1999 2.90005 21.5999 2.70005L21.6999 2.90005C21.2999 3.10005 20.8999 3.30005 20.4999 3.50005ZM44.8999 2.80005C44.4999 2.60005 44.0999 2.50005 43.6999 2.30005L43.7999 2.10005C44.1999 2.30005 44.5999 2.40005 44.9999 2.60005L44.8999 2.80005ZM22.8999 2.50005L22.7999 2.30005C23.1999 2.10005 23.5999 2.00005 24.0999 1.80005L24.1999 2.00005C23.7999 2.20005 23.2999 2.30005 22.8999 2.50005ZM42.3999 1.90005C41.9999 1.80005 41.5999 1.60005 41.0999 1.50005L41.1999 1.30005C41.5999 1.40005 42.0999 1.50005 42.4999 1.70005L42.3999 1.90005ZM25.3999 1.60005L25.2999 1.40005C25.6999 1.30005 26.1999 1.20005 26.5999 1.10005L26.6999 1.30005C26.2999 1.40005 25.8999 1.50005 25.3999 1.60005ZM39.8999 1.20005C39.4999 1.10005 38.9999 1.00005 38.5999 0.900049V0.700049C38.9999 0.800049 39.4999 0.900049 39.8999 1.00005V1.20005ZM27.9999 1.00005V0.800049C28.3999 0.700049 28.8999 0.600049 29.2999 0.600049V0.800049C28.8999 0.900049 28.4999 0.900049 27.9999 1.00005ZM37.1999 0.800049C36.7999 0.700049 36.2999 0.700049 35.8999 0.700049V0.500049C36.2999 0.500049 36.7999 0.600049 37.1999 0.600049V0.800049ZM30.5999 0.600049V0.400049C30.9999 0.400049 31.4999 0.300049 31.8999 0.300049V0.500049C31.4999 0.600049 31.0999 0.600049 30.5999 0.600049ZM34.5999 0.500049C34.1999 0.500049 33.7999 0.500049 33.4999 0.500049H33.2999V0.300049H33.4999C33.8999 0.300049 34.2999 0.300049 34.6999 0.300049L34.5999 0.500049Z" fill="#ABE4FF"/>
<path fill-rule="evenodd" clip-rule="evenodd" d="M19.1002 47.7001C18.6002 47.7001 18.2002 47.3 18.2002 46.8V10.7C18.2002 10.2 18.6002 9.80005 19.1002 9.80005H38.4002C38.6002 9.80005 38.9002 9.90005 39.1002 10.1L48.4002 19.4C48.6002 19.6 48.7002 19.8 48.7002 20.1V46.8C48.7002 47.3 48.3002 47.7001 47.8002 47.7001H19.1002Z" fill="#043573"/>
<path fill-rule="evenodd" clip-rule="evenodd" d="M47.8001 46.8H19.1001V10.8H38.5001L47.8001 20.1V46.8Z" fill="white"/>
<path fill-rule="evenodd" clip-rule="evenodd" d="M38.5 20.1V10.8L47.8 20.1H38.5Z" fill="#0587BF"/>
<path fill-rule="evenodd" clip-rule="evenodd" d="M47.8 20.1001V29.4001L38.5 20.1001H47.8Z" fill="#C8EFF2"/>
<path fill-rule="evenodd" clip-rule="evenodd" d="M43.4004 25.7H30.4004C30.1004 25.7 29.9004 25.5 29.9004 25.2C29.9004 24.9 30.1004 24.7 30.4004 24.7H43.4004C43.7004 24.7 43.9004 24.9 43.9004 25.2C43.9004 25.5 43.7004 25.7 43.4004 25.7Z" fill="#04B1D9"/>
<path fill-rule="evenodd" clip-rule="evenodd" d="M35.8003 16.3H22.8003C22.5003 16.3 22.3003 16.1 22.3003 15.8C22.3003 15.5 22.5003 15.3 22.8003 15.3H35.8003C36.1003 15.3 36.3003 15.5 36.3003 15.8C36.3003 16.1 36.1003 16.3 35.8003 16.3Z" fill="#04B1D9"/>
<path fill-rule="evenodd" clip-rule="evenodd" d="M31.9003 19H22.8003C22.5003 19 22.3003 18.8 22.3003 18.5C22.3003 18.2 22.5003 18 22.8003 18H31.9003C32.2003 18 32.4003 18.2 32.4003 18.5C32.4003 18.8 32.2003 19 31.9003 19Z" fill="#04B1D9"/>
<path fill-rule="evenodd" clip-rule="evenodd" d="M43.4004 28.2H30.4004C30.1004 28.2 29.9004 28 29.9004 27.7C29.9004 27.4 30.1004 27.2 30.4004 27.2H43.4004C43.7004 27.2 43.9004 27.4 43.9004 27.7C43.9004 28 43.7004 28.2 43.4004 28.2Z" fill="#ABD0D9"/>
<path fill-rule="evenodd" clip-rule="evenodd" d="M43.4004 35.4001H30.4004C30.1004 35.4001 29.9004 35.2001 29.9004 34.9001C29.9004 34.6001 30.1004 34.4001 30.4004 34.4001H43.4004C43.7004 34.4001 43.9004 34.6001 43.9004 34.9001C43.9004 35.2001 43.7004 35.4001 43.4004 35.4001Z" fill="#04B1D9"/>
<path fill-rule="evenodd" clip-rule="evenodd" d="M43.4004 38.1001H30.4004C30.1004 38.1001 29.9004 37.9001 29.9004 37.6001C29.9004 37.3001 30.1004 37.1001 30.4004 37.1001H43.4004C43.7004 37.1001 43.9004 37.3001 43.9004 37.6001C43.9004 37.9001 43.7004 38.1001 43.4004 38.1001Z" fill="#ABD0D9"/>
<path fill-rule="evenodd" clip-rule="evenodd" d="M43.4004 30.6001H30.4004C30.1004 30.6001 29.9004 30.4001 29.9004 30.1001C29.9004 29.8001 30.1004 29.6001 30.4004 29.6001H43.4004C43.7004 29.6001 43.9004 29.8001 43.9004 30.1001C43.9004 30.4001 43.7004 30.6001 43.4004 30.6001Z" fill="#ABD0D9"/>
<path fill-rule="evenodd" clip-rule="evenodd" d="M43.4004 40.4001H30.4004C30.1004 40.4001 29.9004 40.2001 29.9004 39.9001C29.9004 39.6001 30.1004 39.4001 30.4004 39.4001H43.4004C43.7004 39.4001 43.9004 39.6001 43.9004 39.9001C43.9004 40.2001 43.7004 40.4001 43.4004 40.4001Z" fill="#ABD0D9"/>
<rect x="22.8003" y="35.0001" width="5" height="5" fill="white"/>
<path fill-rule="evenodd" clip-rule="evenodd" d="M27.8003 40.4001H22.8003C22.5003 40.4001 22.3003 40.2001 22.3003 39.9001V34.9001C22.3003 34.6001 22.5003 34.4001 22.8003 34.4001H27.8003C28.1003 34.4001 28.3003 34.6001 28.3003 34.9001V39.9001C28.2003 40.2001 28.0003 40.4001 27.8003 40.4001ZM23.3003 39.5001H27.3003V35.5001H23.3003V39.5001Z" fill="#BA9BC9"/>
<rect x="22.8003" y="25.3" width="5" height="5" fill="white"/>
<path fill-rule="evenodd" clip-rule="evenodd" d="M27.8003 30.7H22.8003C22.5003 30.7 22.3003 30.5 22.3003 30.2V25.2C22.3003 24.9 22.5003 24.7 22.8003 24.7H27.8003C28.1003 24.7 28.3003 24.9 28.3003 25.2V30.2C28.2003 30.5 28.0003 30.7 27.8003 30.7ZM23.3003 29.8H27.3003V25.8H23.3003V29.8Z" fill="#838BC5"/>
<path fill-rule="evenodd" clip-rule="evenodd" d="M25.3002 30C25.2002 30 25.0002 29.9 24.9002 29.8L23.1002 28C22.9002 27.8 22.9002 27.4 23.1002 27.2C23.3002 27 23.7002 27 23.9002 27.2L25.3002 28.6L28.7002 25.2C28.9002 25 29.3002 25 29.5002 25.2C29.7002 25.4 29.7002 25.8 29.5002 26L25.7002 29.8C25.6002 30 25.5002 30 25.3002 30Z" fill="#043573"/>
<path fill-rule="evenodd" clip-rule="evenodd" d="M63.3002 15.3C63.2002 15.2 63.1002 15.1 63.1002 14.9C63.1002 14.9 63.1002 14.9 63.1002 14.7C63.1002 14.6 63.1002 14.5 63.1002 14.5C63.1002 14.4 63.2002 14.2 63.3002 14.1L64.2002 13.5C64.3002 13.4 64.4002 13.3 64.3002 13.1L64.0002 12.3C63.9002 12.2 63.8002 12.1 63.6002 12.1L62.6002 12.3C62.5002 12.3 62.3002 12.3 62.2002 12.2L62.0002 12C61.9002 11.9 61.8002 11.7 61.9002 11.6L62.1002 10.6C62.1002 10.5 62.1002 10.3 61.9002 10.2L61.1002 9.90004C61.0002 9.90004 60.8002 9.90004 60.7002 10L60.1002 10.9C60.0002 11 59.9002 11.1 59.7002 11.1C59.7002 11.1 59.7002 11.1 59.5002 11.1C59.4002 11.1 59.3002 11.1 59.3002 11.1C59.2002 11.1 59.0002 11 58.9002 10.9L58.3002 10C58.2002 9.90004 58.1002 9.80004 57.9002 9.90004L57.1002 10.2C57.0002 10.3 56.9002 10.4 56.9002 10.6L57.1002 11.6C57.1002 11.7 57.1002 11.9 57.0002 12L56.8002 12.2C56.7002 12.3 56.5002 12.4 56.4002 12.3L55.4002 12.1C55.3002 12.1 55.1002 12.1 55.0002 12.3L54.7002 13.1C54.7002 13.2 54.7002 13.4 54.8002 13.5L55.7002 14.1C55.8002 14.2 55.9002 14.3 55.9002 14.5C55.9002 14.5 55.9002 14.5 55.9002 14.7C55.9002 14.8 55.9002 14.9 55.9002 14.9C55.9002 15 55.8002 15.2 55.7002 15.3L54.8002 15.9C54.7002 16 54.6002 16.1 54.7002 16.3L55.0002 17.1C55.1002 17.2 55.2002 17.3 55.4002 17.3L56.4002 17.1C56.5002 17.1 56.7002 17.1 56.8002 17.2L57.0002 17.4C57.1002 17.5 57.2002 17.7 57.1002 17.8L56.9002 18.8C56.9002 18.9 56.9002 19.1 57.1002 19.2L57.9002 19.5C58.0002 19.5 58.2002 19.5 58.3002 19.4L58.9002 18.5C59.0002 18.4 59.1002 18.3 59.3002 18.3C59.3002 18.3 59.3002 18.3 59.5002 18.3C59.6002 18.3 59.7002 18.3 59.7002 18.3C59.8002 18.3 60.0002 18.4 60.1002 18.5L60.7002 19.4C60.8002 19.5 60.9002 19.6 61.1002 19.5L61.9002 19.2C62.0002 19.1 62.1002 19 62.1002 18.8L61.9002 17.8C61.9002 17.7 61.9002 17.5 62.0002 17.4L62.2002 17.2C62.3002 17.1 62.5002 17 62.6002 17.1L63.6002 17.3C63.7002 17.3 63.9002 17.3 64.0002 17.1L64.3002 16.3C64.3002 16.2 64.3002 16 64.2002 15.9L63.3002 15.3ZM59.6002 17.1C58.3002 17.1 57.2002 16 57.2002 14.7C57.2002 13.4 58.3002 12.3 59.6002 12.3C60.9002 12.3 62.0002 13.4 62.0002 14.7C61.9002 16.1 60.9002 17.1 59.6002 17.1ZM56.5002 8.50004C56.4002 8.50004 56.3002 8.40004 56.3002 8.30004C56.3002 8.30004 56.3002 8.30004 56.3002 8.20004C56.3002 8.10004 56.3002 8.10004 56.3002 8.10004C56.3002 8.00004 56.3002 7.90004 56.3002 7.80004L56.7002 7.20004C56.8002 7.10004 56.8002 7.00004 56.7002 6.90004L56.3002 6.50004C56.2002 6.40004 56.1002 6.40004 56.0002 6.50004L55.4002 6.90004C55.3002 7.00004 55.2002 7.00004 55.1002 6.90004L54.9002 6.80004C54.8002 6.80004 54.7002 6.70004 54.7002 6.60004L54.6002 5.90004C54.6002 5.80004 54.5002 5.70004 54.4002 5.70004H53.8002C53.7002 5.70004 53.6002 5.80004 53.6002 5.90004L53.5002 6.60004C53.5002 6.70004 53.4002 6.80004 53.3002 6.80004C53.3002 6.80004 53.3002 6.80004 53.2002 6.80004C53.1002 6.80004 53.1002 6.80004 53.1002 6.80004C53.0002 6.80004 52.9002 6.80004 52.8002 6.80004L52.2002 6.40004C52.1002 6.30004 52.0002 6.40004 51.9002 6.40004L51.5002 6.80004C51.4002 6.90004 51.4002 7.00004 51.5002 7.10004L51.9002 7.70004C52.0002 7.80004 52.0002 7.90004 51.9002 8.00004L51.8002 8.20004C51.8002 8.30004 51.7002 8.40004 51.6002 8.40004L50.9002 8.50004C50.8002 8.50004 50.7002 8.60004 50.7002 8.70004V9.30004C50.7002 9.40004 50.8002 9.50004 50.9002 9.50004L51.6002 9.60004C51.7002 9.60004 51.8002 9.70004 51.8002 9.80004C51.8002 9.80004 51.8002 9.80004 51.8002 9.90004C51.8002 10 51.8002 10 51.8002 10C51.8002 10.1 51.8002 10.2 51.8002 10.3L51.4002 10.9C51.3002 11 51.4002 11.1 51.4002 11.2L51.8002 11.6C51.9002 11.7 52.0002 11.7 52.1002 11.6L52.7002 11.2C52.8002 11.1 52.9002 11.1 53.0002 11.2L53.2002 11.3C53.3002 11.3 53.4002 11.4 53.4002 11.5L53.5002 12.2C53.5002 12.3 53.6002 12.4 53.7002 12.4H54.3002C54.4002 12.4 54.5002 12.3 54.5002 12.2L54.6002 11.5C54.6002 11.4 54.7002 11.3 54.8002 11.3C54.8002 11.3 54.8002 11.3 54.9002 11.3C55.0002 11.3 55.0002 11.3 55.0002 11.3C55.1002 11.3 55.2002 11.3 55.3002 11.3L55.9002 11.7C56.0002 11.8 56.1002 11.8 56.2002 11.7L56.6002 11.3C56.7002 11.2 56.7002 11.1 56.6002 11L56.2002 10.4C56.1002 10.3 56.1002 10.2 56.2002 10.1L56.3002 9.90004C56.3002 9.80004 56.4002 9.70004 56.5002 9.70004L57.2002 9.60004C57.3002 9.60004 57.4002 9.50004 57.4002 9.40004V8.80004C57.4002 8.70004 57.3002 8.60004 57.2002 8.60004L56.5002 8.50004ZM54.4002 10.3C53.7002 10.6 53.0002 10.3 52.7002 9.60004C52.4002 8.90004 52.7002 8.20004 53.4002 7.90004C54.1002 7.60004 54.8002 7.90004 55.1002 8.60004C55.4002 9.30004 55.1002 10 54.4002 10.3ZM60.9002 14.8C60.9002 15.5 60.3002 16.1 59.6002 16.1C58.9002 16.1 58.3002 15.5 58.3002 14.8C58.3002 14.1 58.9002 13.5 59.6002 13.5C60.3002 13.5 60.9002 14.1 60.9002 14.8Z" fill="#F25A58"/>
<path fill-rule="evenodd" clip-rule="evenodd" d="M65.3003 26C65.3003 25.7 65.1003 25.5 64.8003 25.5H61.3003C61.0003 25.5 60.8003 25.7 60.8003 26V33C60.8003 33.3 61.0003 33.5 61.3003 33.5H64.8003C65.1003 33.5 65.3003 33.3 65.3003 33V26Z" fill="white"/>
<path fill-rule="evenodd" clip-rule="evenodd" d="M64.8001 33.7H61.3001C60.9001 33.7 60.6001 33.4 60.6001 33V26C60.6001 25.6 60.9001 25.3 61.3001 25.3H64.8001C65.2001 25.3 65.5001 25.6 65.5001 26V33C65.5001 33.4 65.2001 33.7 64.8001 33.7ZM61.3001 25.8C61.2001 25.8 61.1001 25.9 61.1001 26V33C61.1001 33.1 61.2001 33.2 61.3001 33.2H64.8001C64.9001 33.2 65.0001 33.1 65.0001 33V26C65.0001 25.9 64.9001 25.8 64.8001 25.8H61.3001Z" fill="#4BA3CC"/>
<path fill-rule="evenodd" clip-rule="evenodd" d="M65.0999 32.9H61.0999C60.9999 32.9 60.8999 32.8 60.8999 32.7C60.8999 32.6 60.9999 32.5 61.0999 32.5H65.0999C65.1999 32.5 65.2999 32.6 65.2999 32.7C65.2999 32.8 65.1999 32.9 65.0999 32.9Z" fill="#4BA3CC"/>
<path fill-rule="evenodd" clip-rule="evenodd" d="M65.0999 26.7H61.0999C60.9999 26.7 60.8999 26.6 60.8999 26.5C60.8999 26.4 60.9999 26.3 61.0999 26.3H65.0999C65.1999 26.3 65.2999 26.4 65.2999 26.5C65.2999 26.6 65.1999 26.7 65.0999 26.7Z" fill="#4BA3CC"/>
<path fill-rule="evenodd" clip-rule="evenodd" d="M11.7002 15.3H12.9002C13.0002 15.3 13.1002 15.2 13.1002 15.1V9.70005C13.1002 9.60005 13.0002 9.50005 12.9002 9.50005H5.9002C5.8002 9.50005 5.7002 9.60005 5.7002 9.70005V15.1C5.7002 15.2 5.8002 15.3 5.9002 15.3H7.0002" fill="white"/>
<path fill-rule="evenodd" clip-rule="evenodd" d="M12.9 15.5H11.7C11.6 15.5 11.5 15.4 11.5 15.3C11.5 15.2 11.6 15.1 11.7 15.1H12.9V9.70005H5.9V15.1H7C7.1 15.1 7.2 15.2 7.2 15.3C7.2 15.4 7.1 15.5 7 15.5H5.9C5.7 15.5 5.5 15.3 5.5 15.1V9.70005C5.5 9.50005 5.7 9.30005 5.9 9.30005H12.9C13.1 9.30005 13.2 9.50005 13.2 9.70005V15.1C13.2 15.4 13.1 15.5 12.9 15.5Z" fill="#4BA3CC"/>
<path fill-rule="evenodd" clip-rule="evenodd" d="M7.9998 14C6.9998 14 6.2998 13.9 6.2998 13.4C6.2998 13 6.7998 12.6 7.4998 12.5V12.4C7.4998 12.4 7.3998 12.4 7.3998 12.3C7.2998 12.2 7.2998 12.1 7.2998 12C7.1998 11.8 7.0998 11.7 7.0998 11.4C7.0998 10.9 7.4998 10.5 7.9998 10.5C8.4998 10.5 8.8998 10.9 8.8998 11.4C8.8998 11.8 8.7998 12.1 8.4998 12.3V12.4C9.1998 12.5 9.6998 12.9 9.6998 13.3C9.6998 13.9 8.7998 14 7.9998 14ZM7.7998 12.1C7.8998 12.1 7.8998 12.2 7.8998 12.3C7.8998 12.5 7.7998 12.8 7.5998 12.8C6.9998 12.9 6.5998 13.2 6.5998 13.4C6.5998 13.4 6.5998 13.6 7.9998 13.6C9.2998 13.6 9.3998 13.4 9.3998 13.4C9.3998 13.3 9.0998 13 8.3998 12.8C8.2998 12.8 8.0998 12.7 8.0998 12.5C8.0998 12.4 8.0998 12.2 8.1998 12.1C8.3998 11.9 8.4998 11.7 8.4998 11.4C8.4998 11 8.2998 10.8 7.9998 10.8C7.6998 10.8 7.4998 11 7.4998 11.4C7.4998 11.6 7.4998 11.7 7.5998 11.8C7.6998 11.9 7.6998 12 7.7998 12.1Z" fill="#4BA3CC"/>
<path fill-rule="evenodd" clip-rule="evenodd" d="M12.1 11.2H10.2C10.1 11.2 10 11.1 10 11C10 10.9 10.1 10.8 10.2 10.8H12.1C12.2 10.8 12.3 10.9 12.3 11C12.2 11.2 12.2 11.2 12.1 11.2Z" fill="#4BA3CC"/>
<path fill-rule="evenodd" clip-rule="evenodd" d="M12.1 12.0001H10.2C10.1 12.0001 10 11.9001 10 11.8001C10 11.7001 10.1 11.6001 10.2 11.6001H12.1C12.2 11.6001 12.3 11.7001 12.3 11.8001C12.2 11.9001 12.2 12.0001 12.1 12.0001Z" fill="#4BA3CC"/>
<path fill-rule="evenodd" clip-rule="evenodd" d="M10.5 15.5001H8.2C8.1 15.5001 8 15.4001 8 15.3001C8 15.2001 8.1 15.1001 8.2 15.1001H10.5C10.6 15.1001 10.7 15.2001 10.7 15.3001C10.7 15.4001 10.6 15.5001 10.5 15.5001Z" fill="#4BA3CC"/>
<path fill-rule="evenodd" clip-rule="evenodd" d="M11.0999 16.1C10.9999 16.1 10.8999 16 10.8999 15.9V14.7C10.8999 14.6 10.9999 14.5 11.0999 14.5C11.1999 14.5 11.2999 14.6 11.2999 14.7V15.9C11.2999 16 11.1999 16.1 11.0999 16.1Z" fill="#4BA3CC"/>
<path fill-rule="evenodd" clip-rule="evenodd" d="M7.5999 16.1C7.4999 16.1 7.3999 16 7.3999 15.9V14.7C7.3999 14.6 7.4999 14.5 7.5999 14.5C7.6999 14.5 7.7999 14.6 7.7999 14.7V15.9C7.7999 16 7.6999 16.1 7.5999 16.1Z" fill="#4BA3CC"/>
<path fill-rule="evenodd" clip-rule="evenodd" d="M7.6 24.1C7.6 23.9 7.4 23.7 7.2 23.7H0.4C0.2 23.7 0 23.9 0 24.1V30.9C0 31.1 0.2 31.3 0.4 31.3H7.2C7.4 31.3 7.6 31.1 7.6 30.9V24.1Z" fill="#ABE4FF"/>
<path fill-rule="evenodd" clip-rule="evenodd" d="M6.3998 26.3C6.0998 26.3 5.7998 26 5.7998 25.7C5.7998 25.4 6.0998 25.1 6.3998 25.1C6.6998 25.1 6.9998 25.4 6.9998 25.7C6.9998 26 6.7998 26.3 6.3998 26.3ZM6.3998 25.5C6.2998 25.5 6.1998 25.6 6.1998 25.7C6.1998 25.8 6.2998 25.9 6.3998 25.9C6.4998 25.9 6.5998 25.8 6.5998 25.7C6.5998 25.6 6.4998 25.5 6.3998 25.5Z" fill="#F25A58"/>
<path fill-rule="evenodd" clip-rule="evenodd" d="M4.8002 28.7C4.5002 28.7 4.2002 28.4 4.2002 28.1C4.2002 27.8 4.5002 27.5 4.8002 27.5C5.1002 27.5 5.4002 27.8 5.4002 28.1C5.4002 28.4 5.2002 28.7 4.8002 28.7ZM4.8002 27.9C4.7002 27.9 4.6002 28 4.6002 28.1C4.6002 28.2 4.7002 28.3 4.8002 28.3C4.9002 28.3 5.0002 28.2 5.0002 28.1C5.0002 28 4.9002 27.9 4.8002 27.9Z" fill="#F25A58"/>
<path fill-rule="evenodd" clip-rule="evenodd" d="M3.2001 27.1C2.9001 27.1 2.6001 26.8 2.6001 26.5C2.6001 26.2 2.9001 25.9 3.2001 25.9C3.5001 25.9 3.8001 26.2 3.8001 26.5C3.8001 26.8 3.6001 27.1 3.2001 27.1ZM3.2001 26.3C3.1001 26.3 3.0001 26.4 3.0001 26.5C3.0001 26.6 3.1001 26.7 3.2001 26.7C3.3001 26.7 3.4001 26.6 3.4001 26.5C3.4001 26.4 3.3001 26.3 3.2001 26.3Z" fill="#F25A58"/>
<path fill-rule="evenodd" clip-rule="evenodd" d="M1.2001 29.1C0.900098 29.1 0.600098 28.8 0.600098 28.5C0.600098 28.2 0.900098 27.9 1.2001 27.9C1.5001 27.9 1.8001 28.2 1.8001 28.5C1.8001 28.8 1.6001 29.1 1.2001 29.1ZM1.2001 28.3C1.1001 28.3 1.0001 28.4 1.0001 28.5C1.0001 28.6 1.1001 28.7 1.2001 28.7C1.3001 28.7 1.4001 28.6 1.4001 28.5C1.4001 28.4 1.3001 28.3 1.2001 28.3Z" fill="#F25A58"/>
<path fill-rule="evenodd" clip-rule="evenodd" d="M1.5002 28.4C1.5002 28.4 1.4002 28.4 1.4002 28.3C1.3002 28.2 1.3002 28.1 1.4002 28L2.8002 26.5C2.9002 26.4 3.0002 26.4 3.1002 26.5C3.2002 26.6 3.2002 26.7 3.1002 26.8L1.7002 28.3C1.6002 28.4 1.6002 28.4 1.5002 28.4Z" fill="#F25A58"/>
<path fill-rule="evenodd" clip-rule="evenodd" d="M4.5998 28.1C4.4998 28.1 4.4998 28.1 4.4998 28L3.4998 26.9C3.3998 26.8 3.3998 26.7 3.4998 26.6C3.5998 26.5 3.6998 26.5 3.7998 26.6L4.7998 27.7C4.8998 27.8 4.8998 27.9 4.7998 28C4.5998 28.1 4.5998 28.1 4.5998 28.1Z" fill="#F25A58"/>
<path fill-rule="evenodd" clip-rule="evenodd" d="M5.0999 28.1C4.8999 28 4.8999 27.9 4.8999 27.8L5.9999 26C6.0999 25.9 6.1999 25.9 6.2999 25.9C6.3999 26 6.3999 26.1 6.3999 26.2L5.2999 28C5.2999 28 5.1999 28.1 5.0999 28.1Z" fill="#F25A58"/>
<path fill-rule="evenodd" clip-rule="evenodd" d="M62.7999 30.5001L61.8999 29.7001C61.8999 29.7001 61.8999 29.6001 61.8999 29.5001C61.8999 29.5001 61.9999 29.5001 62.0999 29.5001L62.7999 30.2001L63.8999 29.1001C63.8999 29.1001 63.9999 29.1001 64.0999 29.1001C64.0999 29.1001 64.0999 29.2001 64.0999 29.3001L62.7999 30.5001C62.8999 30.5001 62.8999 30.5001 62.7999 30.5001Z" fill="#F25A58"/>
</svg>
