<svg width="904" height="902" viewBox="0 0 904 902" fill="none" xmlns="http://www.w3.org/2000/svg">
<path fill-rule="evenodd" clip-rule="evenodd" d="M459.557 775C458.457 775 456.257 775 455.157 775V772.8C459.557 772.8 465.058 772.8 469.459 772.8V775C466.159 775 462.858 775 459.557 775V775ZM439.754 775C435.353 775 429.852 773.9 425.452 773.9V771.699C429.852 771.699 435.353 772.8 439.754 772.8V775V775ZM483.76 773.9V771.699C488.161 771.699 493.662 770.599 498.062 770.599V772.8C493.662 773.9 489.261 773.9 483.76 773.9V773.9ZM411.149 771.699C406.748 770.599 401.247 770.599 396.847 769.499V767.299C401.247 768.399 406.748 769.499 411.149 769.499V771.699V771.699ZM513.465 770.599V768.399C517.865 767.299 523.366 766.198 527.767 765.098V767.299C523.366 769.499 517.865 769.499 513.465 770.599V770.599ZM382.545 766.199C378.144 765.098 372.643 763.998 368.243 762.898L369.343 760.698C373.744 761.798 379.244 762.898 383.645 763.998L382.545 766.199V766.199ZM542.07 765.098L540.97 762.898C545.37 761.798 550.871 760.698 555.272 758.497L556.372 760.698C551.971 761.798 546.471 762.898 542.07 765.098V765.098ZM353.941 757.397C349.54 756.297 345.139 754.097 339.638 751.896L340.738 749.696C345.139 751.896 349.54 752.996 353.941 755.197V757.397V757.397ZM569.574 756.297L568.474 754.097C572.874 752.996 577.275 750.796 581.676 748.596L582.776 750.796C579.475 751.896 575.075 754.097 569.574 756.297V756.297ZM326.436 747.496C322.035 745.295 317.635 743.095 313.234 740.895L314.334 738.694C318.735 740.895 323.135 743.095 327.536 745.295L326.436 747.496V747.496ZM597.078 744.195L595.978 741.995C600.379 739.794 604.779 737.594 609.18 735.394L610.28 737.594C605.88 739.794 601.479 741.995 597.078 744.195V744.195ZM300.033 734.294C295.632 732.093 291.231 729.893 287.931 726.592L289.031 724.392C293.432 726.592 297.832 729.893 301.133 732.093L300.033 734.294V734.294ZM622.382 730.993L621.282 728.793C625.682 726.592 630.083 723.292 633.384 721.091L634.484 723.292C631.183 725.492 626.783 728.793 622.382 730.993V730.993ZM275.828 718.891C271.428 716.691 268.127 713.39 263.726 710.09L264.827 707.889C269.227 711.19 272.528 713.39 276.928 716.691L275.828 718.891V718.891ZM647.686 714.491L646.586 712.29C650.987 708.99 654.287 706.789 658.688 703.489L659.788 705.689C655.388 708.99 650.987 712.29 647.686 714.491V714.491ZM251.625 700.188C248.324 696.888 243.924 693.587 240.623 690.287L241.723 688.086C245.024 691.387 249.425 694.687 252.725 697.988L251.625 700.188V700.188ZM670.79 696.888L669.69 694.688C672.99 691.387 677.391 688.087 680.692 684.786L682.892 686.986C677.391 690.287 674.091 693.587 670.79 696.888V696.888ZM230.722 681.485C227.421 678.185 224.121 674.884 220.82 670.484L223.021 669.383C226.321 672.684 229.622 675.984 232.922 680.385L230.722 681.485V681.485ZM691.693 677.085L689.492 674.884C692.793 671.584 696.093 668.283 699.394 663.883L701.594 664.983C698.294 669.383 694.993 673.784 691.693 677.085V677.085ZM210.919 659.482C207.619 656.181 204.318 651.781 202.118 648.48L204.318 647.38C207.619 650.681 209.819 655.081 213.119 658.382L210.919 659.482V659.482ZM711.496 655.081L709.295 653.981C712.596 650.681 714.796 646.28 718.097 642.979L720.297 644.08C716.997 647.38 714.796 650.681 711.496 655.081V655.081ZM193.316 636.378C190.015 631.978 187.815 628.677 185.614 624.277L187.815 623.176C190.015 627.577 193.316 630.878 195.516 635.278L193.316 636.378V636.378ZM729.099 630.878L726.898 629.778C729.099 625.377 732.399 622.076 734.599 617.676L736.8 618.776C734.599 623.177 731.299 627.577 729.099 630.878V630.878ZM176.813 611.075C174.613 606.674 172.412 602.273 170.212 597.873L172.412 596.773C174.613 601.173 176.813 605.574 179.013 609.975L176.813 611.075V611.075ZM744.5 605.574L742.3 604.474C744.5 600.073 746.701 595.672 748.901 591.272L751.101 592.372C748.901 597.873 746.701 602.273 744.5 605.574V605.574ZM163.611 584.67C161.411 580.27 159.211 575.869 158.11 571.468L160.311 570.368C162.511 574.769 163.611 579.17 165.812 583.57L163.611 584.67V584.67ZM756.603 579.17L754.402 578.069C756.603 573.669 757.703 569.268 759.903 564.867L762.103 565.968C761.003 570.368 758.803 574.769 756.603 579.17V579.17ZM152.61 558.266C151.509 553.866 149.309 549.465 148.209 543.964L150.409 542.864C151.509 547.265 153.71 551.665 154.81 557.166L152.61 558.266V558.266ZM767.605 551.666L765.404 550.565C766.504 546.165 768.705 541.764 769.805 536.263L772.005 537.363C769.805 542.864 768.705 547.265 767.605 551.666V551.666ZM144.909 529.662C143.808 525.261 142.708 519.76 141.608 515.36H143.808C144.909 519.76 146.009 525.261 147.109 529.662H144.909V529.662ZM775.305 524.161H773.105C774.205 519.76 775.305 514.26 776.406 509.859H778.606C777.506 514.26 776.406 518.66 775.305 524.161V524.161ZM138.307 501.058C137.207 496.657 137.207 491.156 136.107 486.756H138.307C138.307 491.156 139.407 496.657 140.508 501.058H138.307V501.058ZM780.806 494.457H778.606C779.706 490.056 779.706 484.555 779.706 480.154H781.906C781.906 485.655 780.806 490.056 780.806 494.457V494.457ZM135.007 472.453C135.007 468.053 135.007 462.552 133.907 458.151H136.107C136.107 462.552 136.107 468.053 137.207 472.453H135.007V472.453ZM783.006 465.852H780.806C780.806 461.451 780.806 455.951 780.806 451.55C780.806 447.149 780.806 443.849 780.806 439.448H783.006C783.006 443.849 783.006 448.249 783.006 451.55C783.006 455.951 783.006 460.351 783.006 465.852V465.852ZM137.208 442.749H135.007C135.007 438.348 135.007 432.847 136.108 428.446H138.308C138.308 432.847 137.208 438.348 137.208 442.749V442.749ZM779.706 424.046C779.706 419.645 778.606 414.144 778.606 409.744H780.806C781.906 414.144 781.906 419.645 781.906 424.046H779.706V424.046ZM139.408 414.144H137.207C138.308 409.743 138.308 404.243 139.408 399.842H141.608C140.508 404.243 140.508 408.643 139.408 414.144V414.144ZM776.406 395.441C775.305 391.041 774.205 385.54 773.105 381.139H775.305C776.406 385.54 777.506 391.041 778.606 395.441H776.406V395.441ZM143.808 384.44H141.608C142.708 380.039 143.808 374.538 144.909 370.138L147.109 371.238C146.009 375.638 144.909 380.039 143.808 384.44V384.44ZM769.805 366.837C768.705 362.436 767.605 356.935 765.404 352.535L767.605 351.434C768.705 355.835 770.905 361.336 772.005 365.737L769.805 366.837V366.837ZM151.51 356.935L149.31 355.835C150.41 351.435 152.61 345.934 153.71 341.533L155.911 342.633C154.81 347.034 152.61 352.535 151.51 356.935V356.935ZM761.003 339.333C758.803 334.932 757.703 330.531 755.502 326.131L757.703 325.031C759.903 329.431 761.003 333.832 763.203 338.233L761.003 339.333V339.333ZM161.411 329.431L159.211 328.331C161.411 323.93 162.511 319.53 164.711 315.129L166.912 316.229C164.711 320.63 162.511 325.031 161.411 329.431V329.431ZM750.002 312.929C747.801 308.528 745.601 304.127 743.401 299.727L745.601 298.626C747.801 303.027 750.002 307.428 752.202 311.829L750.002 312.929V312.929ZM173.513 303.027L171.313 301.927C173.513 297.526 175.713 293.126 177.914 288.725L180.114 289.825C177.914 294.226 175.713 298.627 173.513 303.027V303.027ZM735.7 286.524C733.5 282.124 730.199 277.723 727.999 274.423L730.199 273.322C732.4 277.723 735.7 281.024 737.9 285.424L735.7 286.524V286.524ZM187.815 277.723L185.614 276.623C187.815 272.222 191.115 268.922 193.316 264.521L195.516 265.621C193.316 268.922 191.115 273.323 187.815 277.723V277.723ZM720.297 262.321C716.996 257.92 714.796 254.62 711.495 250.219L713.696 249.119C716.996 252.419 719.197 256.82 722.497 261.221L720.297 262.321V262.321ZM205.418 253.519L203.217 252.419C206.518 249.119 209.818 244.718 212.019 241.418L214.219 242.518C210.918 245.818 207.618 250.219 205.418 253.519V253.519ZM701.594 240.318C698.293 237.017 694.993 232.616 691.692 229.316L693.893 227.116C697.193 230.416 700.494 234.817 703.794 238.117L701.594 240.318V240.318ZM224.121 231.516L221.92 229.316C225.221 226.015 228.521 222.715 231.822 218.314L234.022 220.514C230.722 224.915 227.421 228.216 224.121 231.516V231.516ZM681.791 218.314C678.491 215.014 675.19 211.713 670.789 208.413L671.89 206.212C675.19 209.513 679.591 212.813 682.891 216.114L681.791 218.314V218.314ZM245.024 211.713L243.923 209.513C247.224 206.212 251.625 202.912 254.925 199.611L256.025 201.812C251.625 205.112 248.324 208.413 245.024 211.713V211.713ZM659.788 199.611C656.487 196.311 652.086 194.111 647.686 190.81L648.786 188.61C653.187 191.91 656.487 194.111 660.888 197.411L659.788 199.611V199.611ZM267.028 193.01L265.928 190.81C270.328 187.509 273.629 185.309 278.029 182.008L279.13 184.209C274.729 187.509 271.428 189.71 267.028 193.01V193.01ZM636.684 182.008C632.284 179.808 628.983 176.508 624.583 174.307L625.683 172.107C630.083 174.307 634.484 177.608 637.785 179.808L636.684 182.008V182.008ZM291.231 176.508L290.131 174.307C294.531 172.107 298.932 168.807 303.333 166.606L304.433 168.807C300.032 171.007 295.632 174.307 291.231 176.508V176.508ZM611.38 167.706C606.979 165.506 602.579 163.306 598.178 161.105L599.278 158.905C603.679 161.105 608.08 163.306 612.48 165.506L611.38 167.706V167.706ZM316.535 162.205L315.435 160.005C319.836 157.805 324.236 155.604 328.637 153.404L329.737 155.604C325.337 157.805 320.936 160.005 316.535 162.205V162.205ZM584.976 154.504C580.575 152.304 576.174 151.204 571.774 149.003L572.874 146.803C577.275 149.003 581.675 150.103 586.076 152.304L584.976 154.504V154.504ZM342.939 151.204L341.838 149.003C346.239 146.803 350.64 145.703 356.141 143.502L357.241 145.703C352.84 147.903 347.339 149.003 342.939 151.204V151.204ZM557.472 144.603C553.071 143.503 548.671 141.302 543.17 140.202L544.27 138.002C548.671 139.102 554.172 140.202 558.572 142.402L557.472 144.603V144.603ZM370.443 141.302L369.343 139.102C373.744 138.002 379.244 136.901 383.645 135.801L384.745 138.002C380.345 139.102 375.944 140.202 370.443 141.302V141.302ZM529.968 136.902C525.567 135.801 520.067 134.701 515.666 133.601V131.401C520.067 132.501 525.567 133.601 529.968 134.701V136.902V136.902ZM399.048 134.701V132.501C403.449 131.401 408.949 130.3 413.35 130.3V132.501C408.949 133.601 404.549 133.601 399.048 134.701V134.701ZM500.264 132.501C495.863 131.401 490.362 131.401 485.961 131.401V129.201C490.362 129.201 495.863 130.301 500.264 130.301V132.501V132.501ZM427.652 130.301V128.1C432.053 128.1 437.553 127 441.954 127V129.2C437.553 130.301 433.153 130.301 427.652 130.301V130.301ZM471.659 129.2C467.258 129.2 462.858 129.2 459.557 129.2H457.357V127H459.557C463.958 127 468.359 127 472.759 127L471.659 129.2V129.2Z" fill="#FF9305"/>
<path fill-rule="evenodd" clip-rule="evenodd" d="M301.132 648.48C295.632 648.48 291.231 644.08 291.231 638.579V241.418C291.231 235.917 295.632 231.516 301.132 231.516H513.465C515.666 231.516 518.966 232.616 521.166 234.817L623.482 337.132C625.683 339.333 626.783 341.533 626.783 344.834V638.579C626.783 644.08 622.382 648.48 616.881 648.48H301.132V648.48Z" fill="#043573"/>
<path fill-rule="evenodd" clip-rule="evenodd" d="M616.881 638.579H301.133V242.518H514.566L616.881 344.834V638.579Z" fill="white"/>
<path fill-rule="evenodd" clip-rule="evenodd" d="M514.565 344.834V242.518L616.881 344.834H514.565Z" fill="#0587BF"/>
<path fill-rule="evenodd" clip-rule="evenodd" d="M616.881 344.833V447.149L514.565 344.833H616.881Z" fill="#C8EFF2"/>
<path fill-rule="evenodd" clip-rule="evenodd" d="M568.474 406.443H425.452C422.152 406.443 419.951 404.243 419.951 400.942C419.951 397.642 422.152 395.441 425.452 395.441H568.474C571.775 395.441 573.975 397.642 573.975 400.942C573.975 404.243 571.775 406.443 568.474 406.443V406.443Z" fill="#04B1D9"/>
<path fill-rule="evenodd" clip-rule="evenodd" d="M484.861 303.027H341.839C338.539 303.027 336.338 300.827 336.338 297.526C336.338 294.226 338.539 292.026 341.839 292.026H484.861C488.162 292.026 490.362 294.226 490.362 297.526C490.362 300.827 488.162 303.027 484.861 303.027V303.027Z" fill="#04B1D9"/>
<path fill-rule="evenodd" clip-rule="evenodd" d="M441.955 332.732H341.839C338.539 332.732 336.338 330.532 336.338 327.231C336.338 323.931 338.539 321.73 341.839 321.73H441.955C445.255 321.73 447.456 323.931 447.456 327.231C447.456 330.532 445.255 332.732 441.955 332.732V332.732Z" fill="#04B1D9"/>
<path fill-rule="evenodd" clip-rule="evenodd" d="M568.474 433.947H425.452C422.152 433.947 419.951 431.747 419.951 428.446C419.951 425.146 422.152 422.946 425.452 422.946H568.474C571.775 422.946 573.975 425.146 573.975 428.446C573.975 431.747 571.775 433.947 568.474 433.947V433.947Z" fill="#ABD0D9"/>
<path fill-rule="evenodd" clip-rule="evenodd" d="M568.474 513.16H425.452C422.152 513.16 419.951 510.959 419.951 507.659C419.951 504.358 422.152 502.158 425.452 502.158H568.474C571.775 502.158 573.975 504.358 573.975 507.659C573.975 510.959 571.775 513.16 568.474 513.16V513.16Z" fill="#04B1D9"/>
<path fill-rule="evenodd" clip-rule="evenodd" d="M568.474 542.864H425.452C422.152 542.864 419.951 540.664 419.951 537.363C419.951 534.063 422.152 531.862 425.452 531.862H568.474C571.775 531.862 573.975 534.063 573.975 537.363C573.975 540.664 571.775 542.864 568.474 542.864V542.864Z" fill="#ABD0D9"/>
<path fill-rule="evenodd" clip-rule="evenodd" d="M568.474 460.351H425.452C422.152 460.351 419.951 458.151 419.951 454.85C419.951 451.55 422.152 449.35 425.452 449.35H568.474C571.775 449.35 573.975 451.55 573.975 454.85C573.975 458.151 571.775 460.351 568.474 460.351V460.351Z" fill="#ABD0D9"/>
<path fill-rule="evenodd" clip-rule="evenodd" d="M568.474 568.168H425.452C422.152 568.168 419.951 565.968 419.951 562.667C419.951 559.367 422.152 557.166 425.452 557.166H568.474C571.775 557.166 573.975 559.367 573.975 562.667C573.975 565.968 571.775 568.168 568.474 568.168V568.168Z" fill="#ABD0D9"/>
<rect x="341.839" y="508.759" width="55.0085" height="55.0085" fill="white"/>
<path fill-rule="evenodd" clip-rule="evenodd" d="M396.848 568.168H341.839C338.539 568.168 336.338 565.968 336.338 562.667V507.659C336.338 504.358 338.539 502.158 341.839 502.158H396.848C400.148 502.158 402.349 504.358 402.349 507.659V562.667C401.248 565.968 399.048 568.168 396.848 568.168V568.168ZM347.34 558.267H391.346V514.26H347.34V558.267V558.267Z" fill="#BA9BC9"/>
<rect x="341.839" y="402.043" width="55.0085" height="55.0085" fill="white"/>
<path fill-rule="evenodd" clip-rule="evenodd" d="M396.848 461.452H341.839C338.539 461.452 336.338 459.251 336.338 455.951V400.942C336.338 397.642 338.539 395.441 341.839 395.441H396.848C400.148 395.441 402.349 397.642 402.349 400.942V455.951C401.248 459.251 399.048 461.452 396.848 461.452V461.452ZM347.34 451.55H391.346V407.543H347.34V451.55V451.55Z" fill="#838BC5"/>
<path fill-rule="evenodd" clip-rule="evenodd" d="M369.343 453.75V453.75C368.243 453.75 366.043 452.65 364.943 451.55L345.14 431.747C342.939 429.547 342.939 425.146 345.14 422.946C347.34 420.745 351.741 420.745 353.941 422.946L369.343 438.348L406.749 400.942C408.949 398.742 413.35 398.742 415.55 400.942C417.751 403.143 417.751 407.543 415.55 409.744L373.744 451.55C372.644 453.75 371.544 453.75 369.343 453.75V453.75Z" fill="#043573"/>
<path fill-rule="evenodd" clip-rule="evenodd" d="M787.407 292.025C786.307 290.925 785.207 289.825 785.207 287.625C785.207 287.625 785.207 287.625 785.207 285.424C785.207 284.324 785.207 283.224 785.207 283.224C785.207 282.124 786.307 279.924 787.407 278.823L797.309 272.222C798.409 271.122 799.509 270.022 798.409 267.822L795.108 259.02C794.008 257.92 792.908 256.82 790.708 256.82L779.706 259.02C778.606 259.02 776.405 259.02 775.305 257.92L773.105 255.72C772.005 254.62 770.905 252.419 772.005 251.319L774.205 240.317C774.205 239.217 774.205 237.017 772.005 235.917L763.203 232.616C762.103 232.616 759.903 232.616 758.803 233.716L752.202 243.618C751.102 244.718 750.001 245.818 747.801 245.818C747.801 245.818 747.801 245.818 745.601 245.818C744.501 245.818 743.4 245.818 743.4 245.818C742.3 245.818 740.1 244.718 739 243.618L732.399 233.716C731.298 232.616 730.198 231.516 727.998 232.616L719.197 235.917C718.096 237.017 716.996 238.117 716.996 240.317L719.197 251.319C719.197 252.419 719.197 254.62 718.096 255.72L715.896 257.92C714.796 259.02 712.596 260.121 711.495 259.02L700.494 256.82C699.394 256.82 697.193 256.82 696.093 259.02L692.793 267.822C692.793 268.922 692.793 271.122 693.893 272.222L703.794 278.823C704.894 279.924 705.995 281.024 705.995 283.224C705.995 283.224 705.995 283.224 705.995 285.424C705.995 286.525 705.995 287.625 705.995 287.625C705.995 288.725 704.894 290.925 703.794 292.025L693.893 298.626C692.793 299.727 691.692 300.827 692.793 303.027L696.093 311.828C697.193 312.929 698.293 314.029 700.494 314.029L711.495 311.828C712.596 311.828 714.796 311.828 715.896 312.929L718.096 315.129C719.197 316.229 720.297 318.43 719.197 319.53L716.996 330.531C716.996 331.632 716.996 333.832 719.197 334.932L727.998 338.233C729.098 338.233 731.298 338.233 732.399 337.132L739 327.231C740.1 326.131 741.2 325.031 743.4 325.031C743.4 325.031 743.4 325.031 745.601 325.031C746.701 325.031 747.801 325.031 747.801 325.031C748.901 325.031 751.102 326.131 752.202 327.231L758.803 337.132C759.903 338.233 761.003 339.333 763.203 338.233L772.005 334.932C773.105 333.832 774.205 332.732 774.205 330.531L772.005 319.53C772.005 318.43 772.005 316.229 773.105 315.129L775.305 312.929C776.405 311.828 778.606 310.728 779.706 311.828L790.708 314.029C791.808 314.029 794.008 314.029 795.108 311.828L798.409 303.027C798.409 301.927 798.409 299.727 797.309 298.626L787.407 292.025V292.025ZM746.701 311.829C732.399 311.829 720.297 299.727 720.297 285.425C720.297 271.122 732.399 259.02 746.701 259.02C761.003 259.02 773.105 271.122 773.105 285.425C772.005 300.827 761.003 311.829 746.701 311.829V311.829ZM712.595 217.214C711.495 217.214 710.395 216.114 710.395 215.014C710.395 215.014 710.395 215.014 710.395 213.913C710.395 212.813 710.395 212.813 710.395 212.813C710.395 211.713 710.395 210.613 710.395 209.513L714.796 202.912C715.896 201.812 715.896 200.711 714.796 199.611L710.395 195.211C709.295 194.11 708.195 194.11 707.095 195.211L700.494 199.611C699.393 200.711 698.293 200.711 697.193 199.611L694.993 198.511C693.893 198.511 692.792 197.411 692.792 196.311L691.692 188.61C691.692 187.509 690.592 186.409 689.492 186.409H682.891C681.791 186.409 680.691 187.509 680.691 188.61L679.59 196.311C679.59 197.411 678.49 198.511 677.39 198.511C677.39 198.511 677.39 198.511 676.29 198.511C675.19 198.511 675.19 198.511 675.19 198.511C674.09 198.511 672.989 198.511 671.889 198.511L665.288 194.11C664.188 193.01 663.088 194.11 661.988 194.11L657.587 198.511C656.487 199.611 656.487 200.711 657.587 201.812L661.988 208.413C663.088 209.513 663.088 210.613 661.988 211.713L660.888 213.913C660.888 215.014 659.787 216.114 658.687 216.114L650.986 217.214C649.886 217.214 648.786 218.314 648.786 219.414V226.015C648.786 227.115 649.886 228.216 650.986 228.216L658.687 229.316C659.787 229.316 660.888 230.416 660.888 231.516C660.888 231.516 660.888 231.516 660.888 232.616C660.888 233.716 660.888 233.716 660.888 233.716C660.888 234.817 660.888 235.917 660.888 237.017L656.487 243.618C655.387 244.718 656.487 245.818 656.487 246.919L660.888 251.319C661.988 252.419 663.088 252.419 664.188 251.319L670.789 246.919C671.889 245.818 672.989 245.818 674.09 246.919L676.29 248.019C677.39 248.019 678.49 249.119 678.49 250.219L679.59 257.92C679.59 259.02 680.691 260.121 681.791 260.121H688.392C689.492 260.121 690.592 259.02 690.592 257.92L691.692 250.219C691.692 249.119 692.792 248.019 693.893 248.019C693.893 248.019 693.893 248.019 694.993 248.019C696.093 248.019 696.093 248.019 696.093 248.019C697.193 248.019 698.293 248.019 699.393 248.019L705.994 252.419C707.095 253.52 708.195 253.52 709.295 252.419L713.696 248.019C714.796 246.919 714.796 245.818 713.696 244.718L709.295 238.117C708.195 237.017 708.195 235.917 709.295 234.817L710.395 232.616C710.395 231.516 711.495 230.416 712.595 230.416L720.297 229.316C721.397 229.316 722.497 228.216 722.497 227.115V220.514C722.497 219.414 721.397 218.314 720.297 218.314L712.595 217.214V217.214ZM689.492 237.017C681.791 240.318 674.09 237.017 670.789 229.316C667.489 221.615 670.789 213.914 678.49 210.613C686.192 207.313 693.893 210.613 697.193 218.314C700.494 226.015 697.193 233.717 689.492 237.017V237.017ZM761.003 286.524C761.003 294.226 754.402 300.827 746.701 300.827C739 300.827 732.398 294.226 732.398 286.524C732.398 278.823 739 272.222 746.701 272.222C754.402 272.222 761.003 278.823 761.003 286.524V286.524Z" fill="#F25A58"/>
<path fill-rule="evenodd" clip-rule="evenodd" d="M809.411 409.744C809.411 406.443 807.211 404.243 803.91 404.243H765.404C762.104 404.243 759.903 406.443 759.903 409.744V486.756C759.903 490.056 762.104 492.256 765.404 492.256H803.91C807.211 492.256 809.411 490.056 809.411 486.756V409.744V409.744Z" fill="white"/>
<path fill-rule="evenodd" clip-rule="evenodd" d="M803.91 494.457H765.404C761.004 494.457 757.703 491.156 757.703 486.756V409.744C757.703 405.343 761.004 402.042 765.404 402.042H803.91C808.311 402.042 811.611 405.343 811.611 409.744V486.756C811.611 491.156 808.311 494.457 803.91 494.457V494.457ZM765.404 407.543C764.304 407.543 763.204 408.643 763.204 409.744V486.756C763.204 487.856 764.304 488.956 765.404 488.956H803.91C805.01 488.956 806.11 487.856 806.11 486.756V409.744C806.11 408.643 805.01 407.543 803.91 407.543H765.404V407.543Z" fill="#4BA3CC"/>
<path fill-rule="evenodd" clip-rule="evenodd" d="M807.211 485.655H763.204C762.104 485.655 761.003 484.555 761.003 483.455C761.003 482.355 762.104 481.255 763.204 481.255H807.211C808.311 481.255 809.411 482.355 809.411 483.455C809.411 484.555 808.311 485.655 807.211 485.655V485.655Z" fill="#4BA3CC"/>
<path fill-rule="evenodd" clip-rule="evenodd" d="M807.211 417.445H763.204C762.104 417.445 761.003 416.345 761.003 415.244C761.003 414.144 762.104 413.044 763.204 413.044H807.211C808.311 413.044 809.411 414.144 809.411 415.244C809.411 416.345 808.311 417.445 807.211 417.445V417.445Z" fill="#4BA3CC"/>
<path fill-rule="evenodd" clip-rule="evenodd" d="M219.719 292.026H232.921C234.021 292.026 235.122 290.926 235.122 289.825V230.416C235.122 229.316 234.021 228.216 232.921 228.216H155.909C154.809 228.216 153.709 229.316 153.709 230.416V289.825C153.709 290.926 154.809 292.026 155.909 292.026H168.011" fill="white"/>
<path fill-rule="evenodd" clip-rule="evenodd" d="M232.922 294.226H219.72C218.62 294.226 217.519 293.126 217.519 292.026C217.519 290.925 218.62 289.825 219.72 289.825H232.922V289.825V230.416V230.416H155.91V230.416V289.825V289.825H168.012C169.112 289.825 170.212 290.925 170.212 292.026C170.212 293.126 169.112 294.226 168.012 294.226H155.91C153.71 294.226 151.509 292.026 151.509 289.825V230.416C151.509 228.216 153.71 226.015 155.91 226.015H232.922C235.122 226.015 236.222 228.216 236.222 230.416V289.825C236.222 293.126 235.122 294.226 232.922 294.226V294.226Z" fill="#4BA3CC"/>
<path fill-rule="evenodd" clip-rule="evenodd" d="M179.013 277.723C168.012 277.723 160.311 276.623 160.311 271.122C160.311 266.722 165.811 262.321 173.513 261.221V260.121C173.513 260.121 172.412 260.121 172.412 259.02C171.312 257.92 171.312 256.82 171.312 255.72C170.212 253.52 169.112 252.419 169.112 249.119C169.112 243.618 173.513 239.217 179.013 239.217C184.514 239.217 188.915 243.618 188.915 249.119C188.915 253.52 187.815 256.82 184.514 259.02V260.121V260.121C192.215 261.221 197.716 265.621 197.716 270.022C197.716 276.623 187.815 277.723 179.013 277.723V277.723ZM176.813 256.82C177.913 256.82 177.913 257.92 177.913 259.021C177.913 261.221 176.813 264.521 174.613 264.521C168.012 265.622 163.611 268.922 163.611 271.122C163.611 271.122 163.611 273.323 179.014 273.323C193.316 273.323 194.416 271.122 194.416 271.122C194.416 270.022 191.115 266.722 183.414 264.521C182.314 264.521 180.114 263.421 180.114 261.221C180.114 260.121 180.114 257.92 181.214 256.82C183.414 254.62 184.514 252.419 184.514 249.119C184.514 244.718 182.314 242.518 179.014 242.518C175.713 242.518 173.513 244.718 173.513 249.119C173.513 251.319 173.513 252.419 174.613 253.52C175.713 254.62 175.713 255.72 176.813 256.82V256.82Z" fill="#4BA3CC"/>
<path fill-rule="evenodd" clip-rule="evenodd" d="M224.12 246.919H203.217C202.117 246.919 201.017 245.818 201.017 244.718C201.017 243.618 202.117 242.518 203.217 242.518H224.12C225.22 242.518 226.32 243.618 226.32 244.718C225.22 246.919 225.22 246.919 224.12 246.919V246.919Z" fill="#4BA3CC"/>
<path fill-rule="evenodd" clip-rule="evenodd" d="M224.12 255.72H203.217C202.117 255.72 201.017 254.62 201.017 253.519C201.017 252.419 202.117 251.319 203.217 251.319H224.12C225.22 251.319 226.32 252.419 226.32 253.519C225.22 254.62 225.22 255.72 224.12 255.72V255.72Z" fill="#4BA3CC"/>
<path fill-rule="evenodd" clip-rule="evenodd" d="M206.518 294.226H181.214C180.114 294.226 179.014 293.126 179.014 292.026C179.014 290.926 180.114 289.825 181.214 289.825H206.518C207.618 289.825 208.718 290.926 208.718 292.026C208.718 293.126 207.618 294.226 206.518 294.226V294.226Z" fill="#4BA3CC"/>
<path fill-rule="evenodd" clip-rule="evenodd" d="M213.119 300.827C212.019 300.827 210.918 299.727 210.918 298.627V285.425C210.918 284.325 212.019 283.224 213.119 283.224C214.219 283.224 215.319 284.325 215.319 285.425V298.627C215.319 299.727 214.219 300.827 213.119 300.827V300.827Z" fill="#4BA3CC"/>
<path fill-rule="evenodd" clip-rule="evenodd" d="M174.613 300.827C173.513 300.827 172.413 299.727 172.413 298.627V285.425C172.413 284.325 173.513 283.224 174.613 283.224C175.713 283.224 176.813 284.325 176.813 285.425V298.627C176.813 299.727 175.713 300.827 174.613 300.827V300.827Z" fill="#4BA3CC"/>
<path fill-rule="evenodd" clip-rule="evenodd" d="M174.613 388.84C174.613 386.64 172.413 384.44 170.212 384.44H95.4007C93.2003 384.44 91 386.64 91 388.84V463.652C91 465.852 93.2003 468.053 95.4007 468.053H170.212C172.413 468.053 174.613 465.852 174.613 463.652V388.84V388.84Z" fill="#ABE4FF"/>
<path fill-rule="evenodd" clip-rule="evenodd" d="M161.411 413.044C158.11 413.044 154.81 409.744 154.81 406.443C154.81 403.142 158.11 399.842 161.411 399.842C164.711 399.842 168.012 403.142 168.012 406.443C168.012 409.744 165.811 413.044 161.411 413.044V413.044ZM161.41 404.243C160.31 404.243 159.21 405.343 159.21 406.443C159.21 407.543 160.31 408.643 161.41 408.643C162.51 408.643 163.611 407.543 163.611 406.443C163.611 405.343 162.51 404.243 161.41 404.243V404.243Z" fill="#F25A58"/>
<path fill-rule="evenodd" clip-rule="evenodd" d="M143.808 439.448C140.508 439.448 137.207 436.148 137.207 432.847C137.207 429.547 140.508 426.246 143.808 426.246C147.109 426.246 150.409 429.547 150.409 432.847C150.409 436.148 148.209 439.448 143.808 439.448V439.448ZM143.808 430.647C142.708 430.647 141.608 431.747 141.608 432.847C141.608 433.947 142.708 435.047 143.808 435.047C144.908 435.047 146.008 433.947 146.008 432.847C146.008 431.747 144.908 430.647 143.808 430.647V430.647Z" fill="#F25A58"/>
<path fill-rule="evenodd" clip-rule="evenodd" d="M126.206 421.846C122.905 421.846 119.604 418.545 119.604 415.245C119.604 411.944 122.905 408.643 126.206 408.643C129.506 408.643 132.807 411.944 132.807 415.245C132.807 418.545 130.606 421.846 126.206 421.846V421.846ZM126.205 413.044C125.105 413.044 124.005 414.144 124.005 415.244C124.005 416.345 125.105 417.445 126.205 417.445C127.305 417.445 128.405 416.345 128.405 415.244C128.405 414.144 127.305 413.044 126.205 413.044V413.044Z" fill="#F25A58"/>
<path fill-rule="evenodd" clip-rule="evenodd" d="M104.203 443.849C100.902 443.849 97.6016 440.548 97.6016 437.248C97.6016 433.947 100.902 430.647 104.203 430.647C107.503 430.647 110.804 433.947 110.804 437.248C110.804 440.548 108.603 443.849 104.203 443.849V443.849ZM104.202 435.048C103.102 435.048 102.002 436.148 102.002 437.248C102.002 438.348 103.102 439.448 104.202 439.448C105.302 439.448 106.402 438.348 106.402 437.248C106.402 436.148 105.302 435.048 104.202 435.048V435.048Z" fill="#F25A58"/>
<path fill-rule="evenodd" clip-rule="evenodd" d="M107.502 436.148C107.502 436.148 106.402 436.148 106.402 435.048C105.302 433.947 105.302 432.847 106.402 431.747L121.805 415.245C122.905 414.144 124.005 414.144 125.105 415.245C126.205 416.345 126.205 417.445 125.105 418.545L109.703 435.048C108.603 436.148 108.603 436.148 107.502 436.148V436.148Z" fill="#F25A58"/>
<path fill-rule="evenodd" clip-rule="evenodd" d="M141.608 432.847C140.508 432.847 140.508 432.847 140.508 431.747L129.506 419.645C128.406 418.545 128.406 417.445 129.506 416.345C130.606 415.245 131.707 415.245 132.807 416.345L143.808 428.447C144.909 429.547 144.909 430.647 143.808 431.747C141.608 432.847 141.608 432.847 141.608 432.847V432.847Z" fill="#F25A58"/>
<path fill-rule="evenodd" clip-rule="evenodd" d="M147.108 432.847V432.847C144.908 431.747 144.908 430.647 144.908 429.547L157.01 409.744C158.11 408.643 159.21 408.643 160.31 408.643C161.41 409.744 161.41 410.844 161.41 411.944L149.308 431.747C149.308 431.747 148.208 432.847 147.108 432.847V432.847Z" fill="#F25A58"/>
<path fill-rule="evenodd" clip-rule="evenodd" d="M781.906 459.251V459.251L772.004 450.45C772.004 450.45 772.004 449.35 772.004 448.249C772.004 448.249 773.105 448.249 774.205 448.249L781.906 455.951L794.008 443.849C794.008 443.849 795.108 443.849 796.208 443.849C796.208 443.849 796.208 444.949 796.208 446.049L781.906 459.251C783.006 459.251 783.006 459.251 781.906 459.251V459.251Z" fill="#F25A58"/>
<path fill-rule="evenodd" clip-rule="evenodd" d="M453.296 902C451.765 902 448.702 902 447.171 902V898.937C453.296 898.937 460.953 898.937 467.079 898.937V902C462.485 902 457.891 902 453.296 902V902ZM425.731 902C419.606 902 411.949 900.468 405.823 900.468V897.406C411.949 897.406 419.606 898.937 425.731 898.937V902V902ZM486.988 900.468V897.406C493.114 897.406 500.771 895.874 506.897 895.874V898.937C500.771 900.468 494.645 900.468 486.988 900.468V900.468ZM385.913 897.406C379.788 895.874 372.131 895.874 366.005 894.343V891.28C372.131 892.812 379.788 894.343 385.913 894.343V897.406V897.406ZM528.336 895.874V892.811C534.462 891.28 542.119 889.749 548.244 888.217V891.28C542.119 894.343 534.462 894.343 528.336 895.874V895.874ZM346.099 889.749C339.973 888.217 332.316 886.686 326.191 885.154L327.722 882.092C333.848 883.623 341.505 885.154 347.63 886.686L346.099 889.749V889.749ZM568.153 888.217L566.621 885.154C572.747 883.623 580.404 882.091 586.53 879.029L588.061 882.091C581.935 883.623 574.278 885.154 568.153 888.217V888.217ZM306.281 877.497C300.155 875.966 294.029 872.903 286.372 869.84L287.904 866.778C294.029 869.84 300.155 871.372 306.281 874.435V877.497V877.497ZM606.438 875.966L604.906 872.903C611.032 871.372 617.158 868.309 623.283 865.246L624.815 868.309C620.22 869.84 614.095 872.903 606.438 875.966V875.966ZM267.997 863.715C261.872 860.652 255.746 857.589 249.62 854.526L251.152 851.463C257.277 854.526 263.403 857.589 269.529 860.652L267.997 863.715V863.715ZM644.723 859.12L643.191 856.057C649.317 852.995 655.443 849.932 661.568 846.869L663.1 849.932C656.974 852.995 650.848 856.057 644.723 859.12V859.12ZM231.243 845.338C225.117 842.275 218.992 839.212 214.397 834.618L215.929 831.555C222.054 834.618 228.18 839.212 232.774 842.275L231.243 845.338V845.338ZM679.946 840.743L678.415 837.681C684.54 834.618 690.666 830.024 695.26 826.961L696.792 830.024C692.197 833.086 686.072 837.681 679.946 840.743V840.743ZM197.552 823.898C191.427 820.835 186.833 816.241 180.707 811.647L182.238 808.584C188.364 813.178 192.958 816.241 199.084 820.835L197.552 823.898V823.898ZM715.169 817.772L713.638 814.709C719.763 810.115 724.358 807.052 730.483 802.458L732.015 805.521C725.889 810.115 719.763 814.709 715.169 817.772V817.772ZM163.86 797.864C159.266 793.27 153.14 788.676 148.546 784.081L150.077 781.019C154.671 785.613 160.797 790.207 165.391 794.801L163.86 797.864V797.864ZM747.327 793.27L745.795 790.207C750.39 785.613 756.515 781.019 761.109 776.424L764.172 779.487C756.515 784.081 751.921 788.676 747.327 793.27V793.27ZM134.762 771.83C130.168 767.236 125.574 762.641 120.979 756.516L124.042 754.984C128.637 759.579 133.231 764.173 137.825 770.298L134.762 771.83V771.83ZM776.424 765.704L773.361 762.641C777.956 758.047 782.55 753.453 787.144 747.327L790.207 748.859C785.613 754.984 781.018 761.11 776.424 765.704V765.704ZM107.198 741.202C102.603 736.607 98.0092 730.482 94.9464 725.888L98.0092 724.356C102.603 728.95 105.666 735.076 110.26 739.67L107.198 741.202V741.202ZM803.99 735.076L800.928 733.545C805.522 728.951 808.585 722.825 813.179 718.231L816.242 719.762C811.647 724.356 808.585 728.951 803.99 735.076V735.076ZM82.6955 709.042C78.1013 702.917 75.0385 698.323 71.9756 692.197L75.0385 690.666C78.1013 696.791 82.6955 701.385 85.7583 707.511L82.6955 709.042V709.042ZM828.491 701.385L825.428 699.854C828.491 693.728 833.085 689.134 836.148 683.008L839.21 684.54C836.148 690.666 831.553 696.791 828.491 701.385V701.385ZM59.7255 673.82C56.6627 667.694 53.5999 661.569 50.537 655.443L53.5999 653.912C56.6627 660.037 59.7255 666.163 62.7883 672.289L59.7255 673.82V673.82ZM849.932 666.163L846.87 664.632C849.932 658.506 852.995 652.38 856.058 646.255L859.121 647.786C856.058 655.443 852.995 661.569 849.932 666.163V666.163ZM41.3471 637.066C38.2843 630.94 35.2215 624.815 33.6901 618.689L36.7529 617.158C39.8157 623.283 41.3471 629.409 44.4099 635.534L41.3471 637.066V637.066ZM866.776 629.409L863.713 627.877C866.776 621.752 868.307 615.626 871.37 609.501L874.433 611.032C872.901 617.158 869.838 623.283 866.776 629.409V629.409ZM26.0344 600.312C24.503 594.186 21.4401 588.061 19.9087 580.404L22.9716 578.872C24.503 584.998 27.5658 591.124 29.0972 598.781L26.0344 600.312V600.312ZM882.09 591.124L879.027 589.593C880.559 583.467 883.622 577.341 885.153 569.684L888.216 571.216C885.153 578.873 883.622 584.998 882.09 591.124V591.124ZM15.313 560.495C13.7816 554.37 12.2502 546.713 10.7188 540.587H13.7816C15.313 546.713 16.8444 554.37 18.3758 560.495H15.313V560.495ZM892.813 552.838H889.75C891.281 546.713 892.813 539.056 894.344 532.93H897.407C895.876 539.056 894.344 545.181 892.813 552.838V552.838ZM6.12485 520.679C4.59344 514.554 4.59344 506.897 3.06204 500.771H6.12485C6.12485 506.897 7.65626 514.554 9.18767 520.679H6.12485V520.679ZM900.47 511.491H897.407C898.938 505.365 898.938 497.708 898.938 491.582H902.001C902.001 499.239 900.47 505.365 900.47 511.491V511.491ZM1.53141 480.862C1.53141 474.737 1.53141 467.08 0 460.954H3.06282C3.06282 467.08 3.06282 474.737 4.59423 480.862H1.53141V480.862ZM903.532 471.674H900.469C900.469 465.548 900.469 457.891 900.469 451.766C900.469 445.64 900.469 441.046 900.469 434.92H903.532C903.532 441.046 903.532 447.171 903.532 451.766C903.532 457.891 903.532 464.017 903.532 471.674V471.674ZM4.5955 439.514H1.53268C1.53268 433.389 1.53268 425.732 3.06409 419.606H6.12691C6.12691 425.732 4.5955 433.389 4.5955 439.514V439.514ZM898.938 413.481C898.938 407.355 897.407 399.698 897.407 393.572H900.47C902.001 399.698 902.001 407.355 902.001 413.481H898.938V413.481ZM7.65754 399.697H4.59472C6.12613 393.572 6.12613 385.915 7.65754 379.789H10.7204C9.18894 385.915 9.18894 392.04 7.65754 399.697V399.697ZM894.344 373.664C892.813 367.538 891.281 359.881 889.75 353.756H892.813C894.344 359.881 895.876 367.538 897.407 373.664H894.344V373.664ZM13.7816 358.35H10.7188C12.2502 352.224 13.7816 344.567 15.313 338.441L18.3758 339.973C16.8444 346.098 15.313 352.224 13.7816 358.35V358.35ZM885.153 333.847C883.622 327.721 882.09 320.064 879.027 313.939L882.09 312.407C883.622 318.533 886.684 326.19 888.216 332.316L885.153 333.847V333.847ZM24.5009 320.064L21.4381 318.533C22.9695 312.407 26.0323 304.75 27.5637 298.625L30.6265 300.156C29.0951 306.282 26.0323 313.939 24.5009 320.064V320.064ZM872.903 295.562C869.84 289.436 868.309 283.311 865.246 277.185L868.309 275.654C871.372 281.779 872.903 287.905 875.966 294.031L872.903 295.562V295.562ZM38.2858 281.779L35.223 280.248C38.2858 274.122 39.8172 267.997 42.8801 261.871L45.9429 263.402C42.8801 269.528 39.8172 275.654 38.2858 281.779V281.779ZM857.587 258.808C854.524 252.683 851.462 246.557 848.399 240.431L851.462 238.9C854.524 245.026 857.587 251.151 860.65 257.277L857.587 258.808V258.808ZM55.1292 245.026L52.0664 243.494C55.1292 237.369 58.192 231.243 61.2548 225.117L64.3177 226.649C61.2548 232.774 58.192 238.9 55.1292 245.026V245.026ZM837.68 222.054C834.618 215.928 830.023 209.803 826.961 205.209L830.023 203.677C833.086 209.803 837.68 214.397 840.743 220.523L837.68 222.054V222.054ZM75.0385 209.803L71.9756 208.272C75.0385 202.146 79.6327 197.552 82.6955 191.426L85.7583 192.958C82.6955 197.552 79.6327 203.677 75.0385 209.803V209.803ZM816.241 188.363C811.647 182.238 808.584 177.644 803.99 171.518L807.052 169.986C811.647 174.581 814.709 180.706 819.304 186.832L816.241 188.363V188.363ZM99.5422 176.112L96.4793 174.581C101.074 169.986 105.668 163.861 108.731 159.266L111.793 160.798C107.199 165.392 102.605 171.518 99.5422 176.112V176.112ZM790.206 157.735C785.612 153.141 781.018 147.015 776.423 142.421L779.486 139.358C784.08 143.953 788.675 150.078 793.269 154.672L790.206 157.735V157.735ZM125.575 145.484L122.513 142.421C127.107 137.827 131.701 133.232 136.295 127.107L139.358 130.17C134.764 136.295 130.17 140.889 125.575 145.484V145.484ZM762.642 127.107C758.048 122.513 753.454 117.919 747.328 113.324L748.859 110.262C753.454 114.856 759.579 119.45 764.173 124.044L762.642 127.107V127.107ZM154.672 117.918L153.141 114.855C157.735 110.261 163.861 105.667 168.455 101.073L169.986 104.135C163.861 108.73 159.266 113.324 154.672 117.918V117.918ZM732.013 101.073C727.418 96.4784 721.293 93.4156 715.167 88.8214L716.698 85.7585C722.824 90.3528 727.418 93.4156 733.544 98.0098L732.013 101.073V101.073ZM185.3 91.8845L183.769 88.8217C189.895 84.2275 194.489 81.1646 200.615 76.5704L202.146 79.6332C196.02 84.2275 191.426 87.2903 185.3 91.8845V91.8845ZM699.855 76.5701C693.73 73.5073 689.136 68.9131 683.01 65.8502L684.541 62.7874C690.667 65.8502 696.793 70.4445 701.387 73.5073L699.855 76.5701V76.5701ZM218.991 68.913L217.459 65.8502C223.585 62.7874 229.711 58.1932 235.836 55.1303L237.368 58.1932C231.242 61.256 225.116 65.8502 218.991 68.913V68.913ZM664.631 56.6625C658.505 53.5997 652.38 50.5369 646.254 47.4741L647.785 44.4112C653.911 47.4741 660.037 50.5369 666.162 53.5997L664.631 56.6625V56.6625ZM254.214 49.0055L252.682 45.9426C258.808 42.8798 264.934 39.817 271.059 36.7542L272.591 39.817C266.465 42.8798 260.339 45.9426 254.214 49.0055V49.0055ZM627.878 38.285C621.753 35.2222 615.627 33.6908 609.502 30.628L611.033 27.5652C617.159 30.628 623.284 32.1594 629.41 35.2222L627.878 38.285V38.285ZM290.966 33.691L289.434 30.6282C295.56 27.5654 301.686 26.034 309.343 22.9712L310.874 26.034C304.749 29.0968 297.092 30.6282 290.966 33.691V33.691ZM589.591 24.5026C583.466 22.9712 577.34 19.9083 569.683 18.3769L571.215 15.3141C577.34 16.8455 584.997 18.3769 591.123 21.4398L589.591 24.5026V24.5026ZM329.251 19.9081L327.72 16.8453C333.846 15.3139 341.503 13.7825 347.628 12.2511L349.16 15.3139C343.034 16.8453 336.908 18.3767 329.251 19.9081V19.9081ZM551.306 13.783C545.181 12.2516 537.524 10.7202 531.398 9.18881V6.12599C537.524 7.6574 545.181 9.18881 551.306 10.7202V13.783V13.783ZM369.071 10.7197V7.6569C375.197 6.12549 382.854 4.59408 388.979 4.59408V7.6569C382.854 9.1883 376.728 9.1883 369.071 10.7197V10.7197ZM509.959 7.65729C503.834 6.12588 496.177 6.12588 490.051 6.12588V3.06306C496.177 3.06306 503.834 4.59447 509.959 4.59447V7.65729V7.65729ZM408.885 4.59423V1.53141C415.011 1.53141 422.668 0 428.794 0V3.06282C422.668 4.59423 416.542 4.59423 408.885 4.59423V4.59423ZM470.141 3.06282C464.015 3.06282 457.89 3.06282 453.296 3.06282H450.233V0H453.296C459.421 0 465.547 0 471.672 0L470.141 3.06282V3.06282Z" fill="#2AC0C4"/>
</svg>
