<svg width="904" height="902" viewBox="0 0 904 902" fill="none" xmlns="http://www.w3.org/2000/svg">
<path fill-rule="evenodd" clip-rule="evenodd" d="M453.296 902C451.765 902 448.702 902 447.171 902V898.937C453.296 898.937 460.953 898.937 467.079 898.937V902C462.485 902 457.891 902 453.296 902V902ZM425.731 902C419.606 902 411.949 900.468 405.823 900.468V897.406C411.949 897.406 419.606 898.937 425.731 898.937V902V902ZM486.988 900.468V897.406C493.114 897.406 500.771 895.874 506.897 895.874V898.937C500.771 900.468 494.645 900.468 486.988 900.468V900.468ZM385.913 897.406C379.788 895.874 372.131 895.874 366.005 894.343V891.28C372.131 892.812 379.788 894.343 385.913 894.343V897.406V897.406ZM528.336 895.874V892.811C534.462 891.28 542.119 889.749 548.244 888.217V891.28C542.119 894.343 534.462 894.343 528.336 895.874V895.874ZM346.099 889.749C339.973 888.217 332.316 886.686 326.191 885.154L327.722 882.092C333.848 883.623 341.505 885.154 347.63 886.686L346.099 889.749V889.749ZM568.153 888.217L566.621 885.154C572.747 883.623 580.404 882.091 586.53 879.029L588.061 882.091C581.935 883.623 574.278 885.154 568.153 888.217V888.217ZM306.281 877.497C300.155 875.966 294.029 872.903 286.372 869.84L287.904 866.778C294.029 869.84 300.155 871.372 306.281 874.435V877.497V877.497ZM606.438 875.966L604.906 872.903C611.032 871.372 617.158 868.309 623.283 865.246L624.815 868.309C620.22 869.84 614.095 872.903 606.438 875.966V875.966ZM267.997 863.715C261.872 860.652 255.746 857.589 249.62 854.526L251.152 851.463C257.277 854.526 263.403 857.589 269.529 860.652L267.997 863.715V863.715ZM644.723 859.12L643.191 856.057C649.317 852.995 655.443 849.932 661.568 846.869L663.1 849.932C656.974 852.995 650.848 856.057 644.723 859.12V859.12ZM231.243 845.338C225.117 842.275 218.992 839.212 214.397 834.618L215.929 831.555C222.054 834.618 228.18 839.212 232.774 842.275L231.243 845.338V845.338ZM679.946 840.743L678.415 837.681C684.54 834.618 690.666 830.024 695.26 826.961L696.792 830.024C692.197 833.086 686.072 837.681 679.946 840.743V840.743ZM197.552 823.898C191.427 820.835 186.833 816.241 180.707 811.647L182.238 808.584C188.364 813.178 192.958 816.241 199.084 820.835L197.552 823.898V823.898ZM715.169 817.772L713.638 814.709C719.763 810.115 724.358 807.052 730.483 802.458L732.015 805.521C725.889 810.115 719.763 814.709 715.169 817.772V817.772ZM163.86 797.864C159.266 793.27 153.14 788.676 148.546 784.081L150.077 781.019C154.671 785.613 160.797 790.207 165.391 794.801L163.86 797.864V797.864ZM747.327 793.27L745.795 790.207C750.39 785.613 756.515 781.019 761.109 776.424L764.172 779.487C756.515 784.081 751.921 788.676 747.327 793.27V793.27ZM134.762 771.83C130.168 767.236 125.574 762.641 120.979 756.516L124.042 754.984C128.637 759.579 133.231 764.173 137.825 770.298L134.762 771.83V771.83ZM776.424 765.704L773.361 762.641C777.956 758.047 782.55 753.453 787.144 747.327L790.207 748.859C785.613 754.984 781.018 761.11 776.424 765.704V765.704ZM107.198 741.202C102.603 736.607 98.0092 730.482 94.9464 725.888L98.0092 724.356C102.603 728.95 105.666 735.076 110.26 739.67L107.198 741.202V741.202ZM803.99 735.076L800.928 733.545C805.522 728.951 808.585 722.825 813.179 718.231L816.242 719.762C811.647 724.356 808.585 728.951 803.99 735.076V735.076ZM82.6955 709.042C78.1013 702.917 75.0385 698.323 71.9756 692.197L75.0385 690.666C78.1013 696.791 82.6955 701.385 85.7583 707.511L82.6955 709.042V709.042ZM828.491 701.385L825.428 699.854C828.491 693.728 833.085 689.134 836.148 683.008L839.21 684.54C836.148 690.666 831.553 696.791 828.491 701.385V701.385ZM59.7255 673.82C56.6627 667.694 53.5999 661.569 50.537 655.443L53.5999 653.912C56.6627 660.037 59.7255 666.163 62.7883 672.289L59.7255 673.82V673.82ZM849.932 666.163L846.87 664.632C849.932 658.506 852.995 652.38 856.058 646.255L859.121 647.786C856.058 655.443 852.995 661.569 849.932 666.163V666.163ZM41.3471 637.066C38.2843 630.94 35.2215 624.815 33.6901 618.689L36.7529 617.158C39.8157 623.283 41.3471 629.409 44.4099 635.534L41.3471 637.066V637.066ZM866.776 629.409L863.713 627.877C866.776 621.752 868.307 615.626 871.37 609.501L874.433 611.032C872.901 617.158 869.838 623.283 866.776 629.409V629.409ZM26.0344 600.312C24.503 594.186 21.4401 588.061 19.9087 580.404L22.9716 578.872C24.503 584.998 27.5658 591.124 29.0972 598.781L26.0344 600.312V600.312ZM882.09 591.124L879.027 589.593C880.559 583.467 883.622 577.341 885.153 569.684L888.216 571.216C885.153 578.873 883.622 584.998 882.09 591.124V591.124ZM15.313 560.495C13.7816 554.37 12.2502 546.713 10.7188 540.587H13.7816C15.313 546.713 16.8444 554.37 18.3758 560.495H15.313V560.495ZM892.813 552.838H889.75C891.281 546.713 892.813 539.056 894.344 532.93H897.407C895.876 539.056 894.344 545.181 892.813 552.838V552.838ZM6.12485 520.679C4.59344 514.554 4.59344 506.897 3.06204 500.771H6.12485C6.12485 506.897 7.65626 514.554 9.18767 520.679H6.12485V520.679ZM900.47 511.491H897.407C898.938 505.365 898.938 497.708 898.938 491.582H902.001C902.001 499.239 900.47 505.365 900.47 511.491V511.491ZM1.53141 480.862C1.53141 474.737 1.53141 467.08 0 460.954H3.06282C3.06282 467.08 3.06282 474.737 4.59423 480.862H1.53141V480.862ZM903.532 471.674H900.469C900.469 465.548 900.469 457.891 900.469 451.766C900.469 445.64 900.469 441.046 900.469 434.92H903.532C903.532 441.046 903.532 447.171 903.532 451.766C903.532 457.891 903.532 464.017 903.532 471.674V471.674ZM4.5955 439.514H1.53268C1.53268 433.389 1.53268 425.732 3.06409 419.606H6.12691C6.12691 425.732 4.5955 433.389 4.5955 439.514V439.514ZM898.938 413.481C898.938 407.355 897.407 399.698 897.407 393.572H900.47C902.001 399.698 902.001 407.355 902.001 413.481H898.938V413.481ZM7.65754 399.697H4.59472C6.12613 393.572 6.12613 385.915 7.65754 379.789H10.7204C9.18894 385.915 9.18894 392.04 7.65754 399.697V399.697ZM894.344 373.664C892.813 367.538 891.281 359.881 889.75 353.756H892.813C894.344 359.881 895.876 367.538 897.407 373.664H894.344V373.664ZM13.7816 358.35H10.7188C12.2502 352.224 13.7816 344.567 15.313 338.441L18.3758 339.973C16.8444 346.098 15.313 352.224 13.7816 358.35V358.35ZM885.153 333.847C883.622 327.721 882.09 320.064 879.027 313.939L882.09 312.407C883.622 318.533 886.684 326.19 888.216 332.316L885.153 333.847V333.847ZM24.5009 320.064L21.4381 318.533C22.9695 312.407 26.0323 304.75 27.5637 298.625L30.6265 300.156C29.0951 306.282 26.0323 313.939 24.5009 320.064V320.064ZM872.903 295.562C869.84 289.436 868.309 283.311 865.246 277.185L868.309 275.654C871.372 281.779 872.903 287.905 875.966 294.031L872.903 295.562V295.562ZM38.2858 281.779L35.223 280.248C38.2858 274.122 39.8172 267.997 42.8801 261.871L45.9429 263.402C42.8801 269.528 39.8172 275.654 38.2858 281.779V281.779ZM857.587 258.808C854.524 252.683 851.462 246.557 848.399 240.431L851.462 238.9C854.524 245.026 857.587 251.151 860.65 257.277L857.587 258.808V258.808ZM55.1292 245.026L52.0664 243.494C55.1292 237.369 58.192 231.243 61.2548 225.117L64.3177 226.649C61.2548 232.774 58.192 238.9 55.1292 245.026V245.026ZM837.68 222.054C834.618 215.928 830.023 209.803 826.961 205.209L830.023 203.677C833.086 209.803 837.68 214.397 840.743 220.523L837.68 222.054V222.054ZM75.0385 209.803L71.9756 208.272C75.0385 202.146 79.6327 197.552 82.6955 191.426L85.7583 192.958C82.6955 197.552 79.6327 203.677 75.0385 209.803V209.803ZM816.241 188.363C811.647 182.238 808.584 177.644 803.99 171.518L807.052 169.986C811.647 174.581 814.709 180.706 819.304 186.832L816.241 188.363V188.363ZM99.5422 176.112L96.4793 174.581C101.074 169.986 105.668 163.861 108.731 159.266L111.793 160.798C107.199 165.392 102.605 171.518 99.5422 176.112V176.112ZM790.206 157.735C785.612 153.141 781.018 147.015 776.423 142.421L779.486 139.358C784.08 143.953 788.675 150.078 793.269 154.672L790.206 157.735V157.735ZM125.575 145.484L122.513 142.421C127.107 137.827 131.701 133.232 136.295 127.107L139.358 130.17C134.764 136.295 130.17 140.889 125.575 145.484V145.484ZM762.642 127.107C758.048 122.513 753.454 117.919 747.328 113.324L748.859 110.262C753.454 114.856 759.579 119.45 764.173 124.044L762.642 127.107V127.107ZM154.672 117.918L153.141 114.855C157.735 110.261 163.861 105.667 168.455 101.073L169.986 104.135C163.861 108.73 159.266 113.324 154.672 117.918V117.918ZM732.013 101.073C727.418 96.4784 721.293 93.4156 715.167 88.8214L716.698 85.7585C722.824 90.3528 727.418 93.4156 733.544 98.0098L732.013 101.073V101.073ZM185.3 91.8845L183.769 88.8217C189.895 84.2275 194.489 81.1646 200.615 76.5704L202.146 79.6332C196.02 84.2275 191.426 87.2903 185.3 91.8845V91.8845ZM699.855 76.5701C693.73 73.5073 689.136 68.9131 683.01 65.8502L684.541 62.7874C690.667 65.8502 696.793 70.4445 701.387 73.5073L699.855 76.5701V76.5701ZM218.991 68.913L217.459 65.8502C223.585 62.7874 229.711 58.1932 235.836 55.1303L237.368 58.1932C231.242 61.256 225.116 65.8502 218.991 68.913V68.913ZM664.631 56.6625C658.505 53.5997 652.38 50.5369 646.254 47.4741L647.785 44.4112C653.911 47.4741 660.037 50.5369 666.162 53.5997L664.631 56.6625V56.6625ZM254.214 49.0055L252.682 45.9426C258.808 42.8798 264.934 39.817 271.059 36.7542L272.591 39.817C266.465 42.8798 260.339 45.9426 254.214 49.0055V49.0055ZM627.878 38.285C621.753 35.2222 615.627 33.6908 609.502 30.628L611.033 27.5652C617.159 30.628 623.284 32.1594 629.41 35.2222L627.878 38.285V38.285ZM290.966 33.691L289.434 30.6282C295.56 27.5654 301.686 26.034 309.343 22.9712L310.874 26.034C304.749 29.0968 297.092 30.6282 290.966 33.691V33.691ZM589.591 24.5026C583.466 22.9712 577.34 19.9083 569.683 18.3769L571.215 15.3141C577.34 16.8455 584.997 18.3769 591.123 21.4398L589.591 24.5026V24.5026ZM329.251 19.9081L327.72 16.8453C333.846 15.3139 341.503 13.7825 347.628 12.2511L349.16 15.3139C343.034 16.8453 336.908 18.3767 329.251 19.9081V19.9081ZM551.306 13.783C545.181 12.2516 537.524 10.7202 531.398 9.18881V6.12599C537.524 7.6574 545.181 9.18881 551.306 10.7202V13.783V13.783ZM369.071 10.7197V7.6569C375.197 6.12549 382.854 4.59408 388.979 4.59408V7.6569C382.854 9.1883 376.728 9.1883 369.071 10.7197V10.7197ZM509.959 7.65729C503.834 6.12588 496.177 6.12588 490.051 6.12588V3.06306C496.177 3.06306 503.834 4.59447 509.959 4.59447V7.65729V7.65729ZM408.885 4.59423V1.53141C415.011 1.53141 422.668 0 428.794 0V3.06282C422.668 4.59423 416.542 4.59423 408.885 4.59423V4.59423ZM470.141 3.06282C464.015 3.06282 457.89 3.06282 453.296 3.06282H450.233V0H453.296C459.421 0 465.547 0 471.672 0L470.141 3.06282V3.06282Z" fill="#2AC0C4"/>
<path fill-rule="evenodd" clip-rule="evenodd" d="M686.518 325.624H216.48C197.926 325.624 183.083 340.467 183.083 359.021V674.441C183.083 692.995 197.926 707.838 216.48 707.838H686.518C705.072 707.838 719.915 692.995 719.915 674.441V359.021C719.915 341.704 705.072 325.624 686.518 325.624V325.624Z" fill="#2C6980"/>
<path fill-rule="evenodd" clip-rule="evenodd" d="M686.518 315.728H216.48C197.926 315.728 183.083 330.571 183.083 349.125V664.545C183.083 683.099 197.926 697.942 216.48 697.942H686.518C705.072 697.942 719.915 683.099 719.915 664.545V349.125C719.915 331.808 705.072 315.728 686.518 315.728V315.728Z" fill="#043573"/>
<rect x="215.244" y="350.363" width="471.274" height="298.103" fill="#FFA30E"/>
<path fill-rule="evenodd" clip-rule="evenodd" d="M120 664.545V689.284C120 701.653 129.896 712.786 143.502 712.786H759.498C771.868 712.786 783 702.89 783 689.284V664.545H120V664.545Z" fill="#7CB4DA"/>
<rect x="120" y="664.545" width="661.763" height="24.7388" fill="#C1E6E3"/>
<path fill-rule="evenodd" clip-rule="evenodd" d="M383.468 664.544V667.018C383.468 669.492 385.942 671.966 388.416 671.966H514.584C517.058 671.966 519.532 669.492 519.532 667.018V664.544H383.468V664.544Z" fill="#1FC3CC"/>
<path fill-rule="evenodd" clip-rule="evenodd" d="M272.143 611.356C265.959 611.356 261.011 606.409 261.011 600.224V153.688C261.011 147.504 265.959 142.556 272.143 142.556H510.873C513.347 142.556 517.057 143.793 519.531 146.267L634.567 261.302C637.041 263.776 638.278 266.25 638.278 269.961V600.224C638.278 606.409 633.33 611.356 627.145 611.356H272.143V611.356Z" fill="#043573"/>
<path fill-rule="evenodd" clip-rule="evenodd" d="M627.145 600.224H272.143V154.925H512.109L627.145 269.961V600.224Z" fill="white"/>
<path fill-rule="evenodd" clip-rule="evenodd" d="M512.109 269.961V154.925L627.145 269.961H512.109Z" fill="#0587BF"/>
<path fill-rule="evenodd" clip-rule="evenodd" d="M627.145 269.961V384.997L512.109 269.961H627.145Z" fill="#C8EFF2"/>
<path fill-rule="evenodd" clip-rule="evenodd" d="M572.72 339.23H411.918C408.207 339.23 405.733 336.756 405.733 333.045C405.733 329.334 408.207 326.86 411.918 326.86H572.72C576.431 326.86 578.905 329.334 578.905 333.045C578.905 336.756 576.431 339.23 572.72 339.23V339.23Z" fill="#04B1D9"/>
<path fill-rule="evenodd" clip-rule="evenodd" d="M478.712 222.957H317.91C314.199 222.957 311.725 220.483 311.725 216.772C311.725 213.061 314.199 210.588 317.91 210.588H478.712C482.423 210.588 484.897 213.061 484.897 216.772C484.897 220.483 482.423 222.957 478.712 222.957V222.957Z" fill="#04B1D9"/>
<path fill-rule="evenodd" clip-rule="evenodd" d="M430.471 256.354H317.91C314.199 256.354 311.725 253.88 311.725 250.169C311.725 246.458 314.199 243.984 317.91 243.984H430.471C434.182 243.984 436.656 246.458 436.656 250.169C436.656 253.88 434.182 256.354 430.471 256.354V256.354Z" fill="#04B1D9"/>
<path fill-rule="evenodd" clip-rule="evenodd" d="M572.72 370.153H411.918C408.207 370.153 405.733 367.679 405.733 363.968C405.733 360.258 408.207 357.784 411.918 357.784H572.72C576.431 357.784 578.905 360.258 578.905 363.968C578.905 367.679 576.431 370.153 572.72 370.153V370.153Z" fill="#ABD0D9"/>
<path fill-rule="evenodd" clip-rule="evenodd" d="M572.72 459.212H411.918C408.207 459.212 405.733 456.738 405.733 453.028C405.733 449.317 408.207 446.843 411.918 446.843H572.72C576.431 446.843 578.905 449.317 578.905 453.028C578.905 456.738 576.431 459.212 572.72 459.212V459.212Z" fill="#04B1D9"/>
<path fill-rule="evenodd" clip-rule="evenodd" d="M572.72 492.611H411.918C408.207 492.611 405.733 490.137 405.733 486.426C405.733 482.715 408.207 480.241 411.918 480.241H572.72C576.431 480.241 578.905 482.715 578.905 486.426C578.905 490.137 576.431 492.611 572.72 492.611V492.611Z" fill="#ABD0D9"/>
<path fill-rule="evenodd" clip-rule="evenodd" d="M572.72 399.84H411.918C408.207 399.84 405.733 397.366 405.733 393.655C405.733 389.945 408.207 387.471 411.918 387.471H572.72C576.431 387.471 578.905 389.945 578.905 393.655C578.905 397.366 576.431 399.84 572.72 399.84V399.84Z" fill="#ABD0D9"/>
<path fill-rule="evenodd" clip-rule="evenodd" d="M572.72 521.059H411.918C408.207 521.059 405.733 518.585 405.733 514.875C405.733 511.164 408.207 508.69 411.918 508.69H572.72C576.431 508.69 578.905 511.164 578.905 514.875C578.905 518.585 576.431 521.059 572.72 521.059V521.059Z" fill="#ABD0D9"/>
<rect x="317.911" y="454.264" width="61.847" height="61.847" fill="white"/>
<path fill-rule="evenodd" clip-rule="evenodd" d="M379.757 521.059H317.91C314.199 521.059 311.725 518.585 311.725 514.875V453.028C311.725 449.317 314.199 446.843 317.91 446.843H379.757C383.468 446.843 385.942 449.317 385.942 453.028V514.875C384.705 518.585 382.231 521.059 379.757 521.059V521.059ZM324.095 509.927H373.572V460.449H324.095V509.927V509.927Z" fill="#BA9BC9"/>
<rect x="317.911" y="334.282" width="61.847" height="61.847" fill="white"/>
<path fill-rule="evenodd" clip-rule="evenodd" d="M379.757 401.077H317.91C314.199 401.077 311.725 398.603 311.725 394.892V333.045C311.725 329.334 314.199 326.86 317.91 326.86H379.757C383.468 326.86 385.942 329.334 385.942 333.045V394.892C384.705 398.603 382.231 401.077 379.757 401.077V401.077ZM324.095 389.944H373.572V340.466H324.095V389.944V389.944Z" fill="#838BC5"/>
<path fill-rule="evenodd" clip-rule="evenodd" d="M348.833 392.418V392.418C347.596 392.418 345.122 391.181 343.885 389.944L321.621 367.679C319.147 365.205 319.147 360.258 321.621 357.784C324.094 355.31 329.042 355.31 331.516 357.784L348.833 375.101L390.889 333.045C393.363 330.571 398.311 330.571 400.785 333.045C403.259 335.519 403.259 340.467 400.785 342.94L353.781 389.944C352.544 392.418 351.307 392.418 348.833 392.418V392.418Z" fill="#043573"/>
</svg>
