<svg width="904" height="902" viewBox="0 0 904 902" fill="none" xmlns="http://www.w3.org/2000/svg">
<path fill-rule="evenodd" clip-rule="evenodd" d="M453.296 902C451.765 902 448.702 902 447.171 902V898.937C453.296 898.937 460.953 898.937 467.079 898.937V902C462.485 902 457.891 902 453.296 902V902ZM425.731 902C419.606 902 411.949 900.468 405.823 900.468V897.406C411.949 897.406 419.606 898.937 425.731 898.937V902V902ZM486.988 900.468V897.406C493.114 897.406 500.771 895.874 506.897 895.874V898.937C500.771 900.468 494.645 900.468 486.988 900.468V900.468ZM385.913 897.406C379.788 895.874 372.131 895.874 366.005 894.343V891.28C372.131 892.812 379.788 894.343 385.913 894.343V897.406V897.406ZM528.336 895.874V892.811C534.462 891.28 542.119 889.749 548.244 888.217V891.28C542.119 894.343 534.462 894.343 528.336 895.874V895.874ZM346.099 889.749C339.973 888.217 332.316 886.686 326.191 885.154L327.722 882.092C333.848 883.623 341.505 885.154 347.63 886.686L346.099 889.749V889.749ZM568.153 888.217L566.621 885.154C572.747 883.623 580.404 882.091 586.53 879.029L588.061 882.091C581.935 883.623 574.278 885.154 568.153 888.217V888.217ZM306.281 877.497C300.155 875.966 294.029 872.903 286.372 869.84L287.904 866.778C294.029 869.84 300.155 871.372 306.281 874.435V877.497V877.497ZM606.438 875.966L604.906 872.903C611.032 871.372 617.158 868.309 623.283 865.246L624.815 868.309C620.22 869.84 614.095 872.903 606.438 875.966V875.966ZM267.997 863.715C261.872 860.652 255.746 857.589 249.62 854.526L251.152 851.463C257.277 854.526 263.403 857.589 269.529 860.652L267.997 863.715V863.715ZM644.723 859.12L643.191 856.057C649.317 852.995 655.443 849.932 661.568 846.869L663.1 849.932C656.974 852.995 650.848 856.057 644.723 859.12V859.12ZM231.243 845.338C225.117 842.275 218.992 839.212 214.397 834.618L215.929 831.555C222.054 834.618 228.18 839.212 232.774 842.275L231.243 845.338V845.338ZM679.946 840.743L678.415 837.681C684.54 834.618 690.666 830.024 695.26 826.961L696.792 830.024C692.197 833.086 686.072 837.681 679.946 840.743V840.743ZM197.552 823.898C191.427 820.835 186.833 816.241 180.707 811.647L182.238 808.584C188.364 813.178 192.958 816.241 199.084 820.835L197.552 823.898V823.898ZM715.169 817.772L713.638 814.709C719.763 810.115 724.358 807.052 730.483 802.458L732.015 805.521C725.889 810.115 719.763 814.709 715.169 817.772V817.772ZM163.86 797.864C159.266 793.27 153.14 788.676 148.546 784.081L150.077 781.019C154.671 785.613 160.797 790.207 165.391 794.801L163.86 797.864V797.864ZM747.327 793.27L745.795 790.207C750.39 785.613 756.515 781.019 761.109 776.424L764.172 779.487C756.515 784.081 751.921 788.676 747.327 793.27V793.27ZM134.762 771.83C130.168 767.236 125.574 762.641 120.979 756.516L124.042 754.984C128.637 759.579 133.231 764.173 137.825 770.298L134.762 771.83V771.83ZM776.424 765.704L773.361 762.641C777.956 758.047 782.55 753.453 787.144 747.327L790.207 748.859C785.613 754.984 781.018 761.11 776.424 765.704V765.704ZM107.198 741.202C102.603 736.607 98.0092 730.482 94.9464 725.888L98.0092 724.356C102.603 728.95 105.666 735.076 110.26 739.67L107.198 741.202V741.202ZM803.99 735.076L800.928 733.545C805.522 728.951 808.585 722.825 813.179 718.231L816.242 719.762C811.647 724.356 808.585 728.951 803.99 735.076V735.076ZM82.6955 709.042C78.1013 702.917 75.0385 698.323 71.9756 692.197L75.0385 690.666C78.1013 696.791 82.6955 701.385 85.7583 707.511L82.6955 709.042V709.042ZM828.491 701.385L825.428 699.854C828.491 693.728 833.085 689.134 836.148 683.008L839.21 684.54C836.148 690.666 831.553 696.791 828.491 701.385V701.385ZM59.7255 673.82C56.6627 667.694 53.5999 661.569 50.537 655.443L53.5999 653.912C56.6627 660.037 59.7255 666.163 62.7883 672.289L59.7255 673.82V673.82ZM849.932 666.163L846.87 664.632C849.932 658.506 852.995 652.38 856.058 646.255L859.121 647.786C856.058 655.443 852.995 661.569 849.932 666.163V666.163ZM41.3471 637.066C38.2843 630.94 35.2215 624.815 33.6901 618.689L36.7529 617.158C39.8157 623.283 41.3471 629.409 44.4099 635.534L41.3471 637.066V637.066ZM866.776 629.409L863.713 627.877C866.776 621.752 868.307 615.626 871.37 609.501L874.433 611.032C872.901 617.158 869.838 623.283 866.776 629.409V629.409ZM26.0344 600.312C24.503 594.186 21.4401 588.061 19.9087 580.404L22.9716 578.872C24.503 584.998 27.5658 591.124 29.0972 598.781L26.0344 600.312V600.312ZM882.09 591.124L879.027 589.593C880.559 583.467 883.622 577.341 885.153 569.684L888.216 571.216C885.153 578.873 883.622 584.998 882.09 591.124V591.124ZM15.313 560.495C13.7816 554.37 12.2502 546.713 10.7188 540.587H13.7816C15.313 546.713 16.8444 554.37 18.3758 560.495H15.313V560.495ZM892.813 552.838H889.75C891.281 546.713 892.813 539.056 894.344 532.93H897.407C895.876 539.056 894.344 545.181 892.813 552.838V552.838ZM6.12485 520.679C4.59344 514.554 4.59344 506.897 3.06204 500.771H6.12485C6.12485 506.897 7.65626 514.554 9.18767 520.679H6.12485V520.679ZM900.47 511.491H897.407C898.938 505.365 898.938 497.708 898.938 491.582H902.001C902.001 499.239 900.47 505.365 900.47 511.491V511.491ZM1.53141 480.862C1.53141 474.737 1.53141 467.08 0 460.954H3.06282C3.06282 467.08 3.06282 474.737 4.59423 480.862H1.53141V480.862ZM903.532 471.674H900.469C900.469 465.548 900.469 457.891 900.469 451.766C900.469 445.64 900.469 441.046 900.469 434.92H903.532C903.532 441.046 903.532 447.171 903.532 451.766C903.532 457.891 903.532 464.017 903.532 471.674V471.674ZM4.5955 439.514H1.53268C1.53268 433.389 1.53268 425.732 3.06409 419.606H6.12691C6.12691 425.732 4.5955 433.389 4.5955 439.514V439.514ZM898.938 413.481C898.938 407.355 897.407 399.698 897.407 393.572H900.47C902.001 399.698 902.001 407.355 902.001 413.481H898.938V413.481ZM7.65754 399.697H4.59472C6.12613 393.572 6.12613 385.915 7.65754 379.789H10.7204C9.18894 385.915 9.18894 392.04 7.65754 399.697V399.697ZM894.344 373.664C892.813 367.538 891.281 359.881 889.75 353.756H892.813C894.344 359.881 895.876 367.538 897.407 373.664H894.344V373.664ZM13.7816 358.35H10.7188C12.2502 352.224 13.7816 344.567 15.313 338.441L18.3758 339.973C16.8444 346.098 15.313 352.224 13.7816 358.35V358.35ZM885.153 333.847C883.622 327.721 882.09 320.064 879.027 313.939L882.09 312.407C883.622 318.533 886.684 326.19 888.216 332.316L885.153 333.847V333.847ZM24.5009 320.064L21.4381 318.533C22.9695 312.407 26.0323 304.75 27.5637 298.625L30.6265 300.156C29.0951 306.282 26.0323 313.939 24.5009 320.064V320.064ZM872.903 295.562C869.84 289.436 868.309 283.311 865.246 277.185L868.309 275.654C871.372 281.779 872.903 287.905 875.966 294.031L872.903 295.562V295.562ZM38.2858 281.779L35.223 280.248C38.2858 274.122 39.8172 267.997 42.8801 261.871L45.9429 263.402C42.8801 269.528 39.8172 275.654 38.2858 281.779V281.779ZM857.587 258.808C854.524 252.683 851.462 246.557 848.399 240.431L851.462 238.9C854.524 245.026 857.587 251.151 860.65 257.277L857.587 258.808V258.808ZM55.1292 245.026L52.0664 243.494C55.1292 237.369 58.192 231.243 61.2548 225.117L64.3177 226.649C61.2548 232.774 58.192 238.9 55.1292 245.026V245.026ZM837.68 222.054C834.618 215.928 830.023 209.803 826.961 205.209L830.023 203.677C833.086 209.803 837.68 214.397 840.743 220.523L837.68 222.054V222.054ZM75.0385 209.803L71.9756 208.272C75.0385 202.146 79.6327 197.552 82.6955 191.426L85.7583 192.958C82.6955 197.552 79.6327 203.677 75.0385 209.803V209.803ZM816.241 188.363C811.647 182.238 808.584 177.644 803.99 171.518L807.052 169.986C811.647 174.581 814.709 180.706 819.304 186.832L816.241 188.363V188.363ZM99.5422 176.112L96.4793 174.581C101.074 169.986 105.668 163.861 108.731 159.266L111.793 160.798C107.199 165.392 102.605 171.518 99.5422 176.112V176.112ZM790.206 157.735C785.612 153.141 781.018 147.015 776.423 142.421L779.486 139.358C784.08 143.953 788.675 150.078 793.269 154.672L790.206 157.735V157.735ZM125.575 145.484L122.513 142.421C127.107 137.827 131.701 133.232 136.295 127.107L139.358 130.17C134.764 136.295 130.17 140.889 125.575 145.484V145.484ZM762.642 127.107C758.048 122.513 753.454 117.919 747.328 113.324L748.859 110.262C753.454 114.856 759.579 119.45 764.173 124.044L762.642 127.107V127.107ZM154.672 117.918L153.141 114.855C157.735 110.261 163.861 105.667 168.455 101.073L169.986 104.135C163.861 108.73 159.266 113.324 154.672 117.918V117.918ZM732.013 101.073C727.418 96.4784 721.293 93.4156 715.167 88.8214L716.698 85.7585C722.824 90.3528 727.418 93.4156 733.544 98.0098L732.013 101.073V101.073ZM185.3 91.8845L183.769 88.8217C189.895 84.2275 194.489 81.1646 200.615 76.5704L202.146 79.6332C196.02 84.2275 191.426 87.2903 185.3 91.8845V91.8845ZM699.855 76.5701C693.73 73.5073 689.136 68.9131 683.01 65.8502L684.541 62.7874C690.667 65.8502 696.793 70.4445 701.387 73.5073L699.855 76.5701V76.5701ZM218.991 68.913L217.459 65.8502C223.585 62.7874 229.711 58.1932 235.836 55.1303L237.368 58.1932C231.242 61.256 225.116 65.8502 218.991 68.913V68.913ZM664.631 56.6625C658.505 53.5997 652.38 50.5369 646.254 47.4741L647.785 44.4112C653.911 47.4741 660.037 50.5369 666.162 53.5997L664.631 56.6625V56.6625ZM254.214 49.0055L252.682 45.9426C258.808 42.8798 264.934 39.817 271.059 36.7542L272.591 39.817C266.465 42.8798 260.339 45.9426 254.214 49.0055V49.0055ZM627.878 38.285C621.753 35.2222 615.627 33.6908 609.502 30.628L611.033 27.5652C617.159 30.628 623.284 32.1594 629.41 35.2222L627.878 38.285V38.285ZM290.966 33.691L289.434 30.6282C295.56 27.5654 301.686 26.034 309.343 22.9712L310.874 26.034C304.749 29.0968 297.092 30.6282 290.966 33.691V33.691ZM589.591 24.5026C583.466 22.9712 577.34 19.9083 569.683 18.3769L571.215 15.3141C577.34 16.8455 584.997 18.3769 591.123 21.4398L589.591 24.5026V24.5026ZM329.251 19.9081L327.72 16.8453C333.846 15.3139 341.503 13.7825 347.628 12.2511L349.16 15.3139C343.034 16.8453 336.908 18.3767 329.251 19.9081V19.9081ZM551.306 13.783C545.181 12.2516 537.524 10.7202 531.398 9.18881V6.12599C537.524 7.6574 545.181 9.18881 551.306 10.7202V13.783V13.783ZM369.071 10.7197V7.6569C375.197 6.12549 382.854 4.59408 388.979 4.59408V7.6569C382.854 9.1883 376.728 9.1883 369.071 10.7197V10.7197ZM509.959 7.65729C503.834 6.12588 496.177 6.12588 490.051 6.12588V3.06306C496.177 3.06306 503.834 4.59447 509.959 4.59447V7.65729V7.65729ZM408.885 4.59423V1.53141C415.011 1.53141 422.668 0 428.794 0V3.06282C422.668 4.59423 416.542 4.59423 408.885 4.59423V4.59423ZM470.141 3.06282C464.015 3.06282 457.89 3.06282 453.296 3.06282H450.233V0H453.296C459.421 0 465.547 0 471.672 0L470.141 3.06282V3.06282Z" fill="#2AC0C4"/>
<path fill-rule="evenodd" clip-rule="evenodd" d="M690.171 398.371H243.585C225.956 398.371 211.854 412.474 211.854 430.102V729.785C211.854 747.414 225.956 761.516 243.585 761.516H690.171C707.799 761.516 721.902 747.414 721.902 729.785V430.102C721.902 413.649 707.799 398.371 690.171 398.371V398.371Z" fill="#2C6980"/>
<path fill-rule="evenodd" clip-rule="evenodd" d="M690.171 388.97H243.585C225.956 388.97 211.854 403.072 211.854 420.701V720.384C211.854 738.012 225.956 752.115 243.585 752.115H690.171C707.799 752.115 721.902 738.012 721.902 720.384V420.701C721.902 404.248 707.799 388.97 690.171 388.97V388.97Z" fill="#043573"/>
<rect x="242.411" y="421.876" width="447.761" height="283.23" fill="#1FC3CC"/>
<path fill-rule="evenodd" clip-rule="evenodd" d="M151.916 720.384V743.888C151.916 755.64 161.318 766.217 174.245 766.217H759.508C771.26 766.217 781.837 756.816 781.837 743.888V720.384H151.916V720.384Z" fill="#7CB4DA"/>
<rect x="151.916" y="720.384" width="628.746" height="23.5045" fill="#C1E6E3"/>
<path fill-rule="evenodd" clip-rule="evenodd" d="M402.24 720.384V722.734C402.24 725.085 404.59 727.435 406.941 727.435H526.814C529.164 727.435 531.515 725.085 531.515 722.734V720.384H402.24V720.384Z" fill="#1FC3CC"/>
<path fill-rule="evenodd" clip-rule="evenodd" d="M296.468 669.849C290.592 669.849 285.891 665.148 285.891 659.272V235.015C285.891 229.139 290.592 224.438 296.468 224.438H523.286C525.637 224.438 529.163 225.613 531.513 227.964L640.809 337.26C643.159 339.61 644.335 341.961 644.335 345.486V659.272C644.335 665.148 639.634 669.849 633.758 669.849H296.468V669.849Z" fill="#043573"/>
<path fill-rule="evenodd" clip-rule="evenodd" d="M633.757 659.272H296.467V236.19H524.46L633.757 345.486V659.272Z" fill="white"/>
<path fill-rule="evenodd" clip-rule="evenodd" d="M524.462 345.486V236.19L633.758 345.486H524.462Z" fill="#0587BF"/>
<path fill-rule="evenodd" clip-rule="evenodd" d="M633.758 345.486V454.782L524.462 345.486H633.758Z" fill="#C8EFF2"/>
<path fill-rule="evenodd" clip-rule="evenodd" d="M582.047 411.299H429.268C425.742 411.299 423.392 408.948 423.392 405.423C423.392 401.897 425.742 399.547 429.268 399.547H582.047C585.573 399.547 587.923 401.897 587.923 405.423C587.923 408.948 585.573 411.299 582.047 411.299V411.299Z" fill="#04B1D9"/>
<path fill-rule="evenodd" clip-rule="evenodd" d="M492.732 300.828H339.952C336.427 300.828 334.076 298.477 334.076 294.952C334.076 291.426 336.427 289.075 339.952 289.075H492.732C496.257 289.075 498.608 291.426 498.608 294.952C498.608 298.477 496.257 300.828 492.732 300.828V300.828Z" fill="#04B1D9"/>
<path fill-rule="evenodd" clip-rule="evenodd" d="M446.898 332.559H339.952C336.427 332.559 334.076 330.208 334.076 326.683C334.076 323.157 336.427 320.807 339.952 320.807H446.898C450.424 320.807 452.774 323.157 452.774 326.683C452.774 330.208 450.424 332.559 446.898 332.559V332.559Z" fill="#04B1D9"/>
<path fill-rule="evenodd" clip-rule="evenodd" d="M582.047 440.68H429.268C425.742 440.68 423.392 438.329 423.392 434.803C423.392 431.278 425.742 428.927 429.268 428.927H582.047C585.573 428.927 587.923 431.278 587.923 434.803C587.923 438.329 585.573 440.68 582.047 440.68V440.68Z" fill="#ABD0D9"/>
<path fill-rule="evenodd" clip-rule="evenodd" d="M582.047 525.296H429.268C425.742 525.296 423.392 522.946 423.392 519.42C423.392 515.894 425.742 513.544 429.268 513.544H582.047C585.573 513.544 587.923 515.894 587.923 519.42C587.923 522.946 585.573 525.296 582.047 525.296V525.296Z" fill="#04B1D9"/>
<path fill-rule="evenodd" clip-rule="evenodd" d="M582.047 557.027H429.268C425.742 557.027 423.392 554.676 423.392 551.151C423.392 547.625 425.742 545.275 429.268 545.275H582.047C585.573 545.275 587.923 547.625 587.923 551.151C587.923 554.676 585.573 557.027 582.047 557.027V557.027Z" fill="#ABD0D9"/>
<path fill-rule="evenodd" clip-rule="evenodd" d="M582.047 468.885H429.268C425.742 468.885 423.392 466.534 423.392 463.009C423.392 459.483 425.742 457.133 429.268 457.133H582.047C585.573 457.133 587.923 459.483 587.923 463.009C587.923 466.534 585.573 468.885 582.047 468.885V468.885Z" fill="#ABD0D9"/>
<path fill-rule="evenodd" clip-rule="evenodd" d="M582.047 584.057H429.268C425.742 584.057 423.392 581.707 423.392 578.181C423.392 574.655 425.742 572.305 429.268 572.305H582.047C585.573 572.305 587.923 574.655 587.923 578.181C587.923 581.707 585.573 584.057 582.047 584.057V584.057Z" fill="#ABD0D9"/>
<rect x="339.952" y="520.595" width="58.7613" height="58.7613" fill="white"/>
<path fill-rule="evenodd" clip-rule="evenodd" d="M398.714 584.057H339.952C336.427 584.057 334.076 581.707 334.076 578.181V519.42C334.076 515.894 336.427 513.544 339.952 513.544H398.714C402.239 513.544 404.59 515.894 404.59 519.42V578.181C403.415 581.707 401.064 584.057 398.714 584.057V584.057ZM345.828 573.48H392.837V526.471H345.828V573.48V573.48Z" fill="#13F1FC"/>
<rect x="339.952" y="406.598" width="58.7613" height="58.7613" fill="white"/>
<path fill-rule="evenodd" clip-rule="evenodd" d="M398.714 470.06H339.952C336.427 470.06 334.076 467.71 334.076 464.184V405.423C334.076 401.897 336.427 399.547 339.952 399.547H398.714C402.239 399.547 404.59 401.897 404.59 405.423V464.184C403.415 467.71 401.064 470.06 398.714 470.06V470.06ZM345.828 459.483H392.837V412.474H345.828V459.483V459.483Z" fill="#838BC5"/>
<path fill-rule="evenodd" clip-rule="evenodd" d="M369.332 461.834V461.834C368.156 461.834 365.806 460.658 364.631 459.483L343.477 438.329C341.126 435.979 341.126 431.278 343.477 428.927C345.827 426.577 350.528 426.577 352.879 428.927L369.332 445.38L409.289 405.423C411.64 403.072 416.341 403.072 418.691 405.423C421.042 407.773 421.042 412.474 418.691 414.825L374.033 459.483C372.857 461.834 371.682 461.834 369.332 461.834V461.834Z" fill="#043573"/>
<path fill-rule="evenodd" clip-rule="evenodd" d="M760.683 698.054C751.281 698.054 741.88 694.529 734.828 687.477L653.738 606.387C645.511 598.16 644.336 588.758 650.212 579.357L616.13 545.275L644.336 517.07L678.417 551.151C681.943 548.801 685.469 547.625 690.17 547.625C696.046 547.625 700.747 549.976 705.448 554.677L786.538 635.767C800.641 649.87 800.641 673.375 786.538 687.477C779.487 694.529 771.26 698.054 760.683 698.054V698.054ZM643.161 546.45L676.068 579.357L670.191 585.233C664.315 591.109 665.491 591.109 667.841 594.635L748.932 675.725C752.457 679.251 757.158 681.601 761.859 681.601C766.56 681.601 771.261 679.251 774.787 675.725C781.838 668.674 781.838 656.922 774.787 649.87L693.696 568.78C692.521 567.604 691.346 566.429 690.17 566.429C690.17 566.429 687.82 566.429 684.294 569.955L678.418 575.831L645.512 542.925L643.161 546.45V546.45Z" fill="white"/>
<path fill-rule="evenodd" clip-rule="evenodd" d="M780.662 642.819L699.571 561.728C691.344 553.502 685.468 557.027 678.417 562.903L645.511 529.997L630.233 545.275L663.139 578.181C656.088 585.233 653.737 592.284 661.964 599.336L743.054 680.426C748.931 686.302 755.982 688.653 761.858 688.653C768.909 688.653 775.961 686.302 781.837 680.426C791.239 671.024 791.239 653.396 780.662 642.819V642.819Z" fill="#005780"/>
<path fill-rule="evenodd" clip-rule="evenodd" d="M630.233 546.45L663.139 579.356C656.088 586.408 653.737 593.459 661.964 600.511L743.054 681.601C748.931 687.477 755.982 689.828 761.858 689.828C768.909 689.828 775.961 687.477 781.837 681.601L638.459 538.224L630.233 546.45V546.45Z" fill="#043573"/>
<g opacity="0.4">
<path fill-rule="evenodd" clip-rule="evenodd" d="M555.016 573.48C619.922 573.48 672.539 520.864 672.539 455.958C672.539 391.052 619.922 338.435 555.016 338.435C490.11 338.435 437.494 391.052 437.494 455.958C437.494 520.864 490.11 573.48 555.016 573.48Z" fill="#54D6FF"/>
</g>
<path fill-rule="evenodd" clip-rule="evenodd" d="M555.018 589.934C480.978 589.934 421.042 529.997 421.042 455.958C421.042 381.918 480.978 321.982 555.018 321.982C629.057 321.982 688.993 381.918 688.993 455.958C688.993 529.997 629.057 589.934 555.018 589.934V589.934ZM555.018 354.888C499.782 354.888 453.949 400.722 453.949 455.958C453.949 511.193 499.782 557.027 555.018 557.027C610.254 557.027 656.088 511.193 656.088 455.958C656.088 400.722 611.429 354.888 555.018 354.888V354.888Z" fill="white"/>
<path fill-rule="evenodd" clip-rule="evenodd" d="M555.017 582.882C485.679 582.882 429.268 526.471 429.268 457.133C429.268 387.794 485.679 331.384 555.017 331.384C624.355 331.384 680.766 387.794 680.766 457.133C681.942 526.471 625.531 582.882 555.017 582.882V582.882ZM555.016 347.837C495.079 347.837 445.72 397.196 445.72 457.133C445.72 517.069 493.904 566.429 555.016 566.429C614.952 566.429 664.312 517.069 664.312 457.133C664.312 396.021 614.952 347.837 555.016 347.837V347.837Z" fill="#005780"/>
<path fill-rule="evenodd" clip-rule="evenodd" d="M555.017 582.882C485.679 582.882 429.268 526.471 429.268 457.133H446.896C446.896 517.07 495.081 566.429 556.192 566.429C616.129 566.429 665.488 517.07 665.488 457.133H683.117C681.942 526.471 625.531 582.882 555.017 582.882V582.882Z" fill="#043573"/>
<path fill-rule="evenodd" clip-rule="evenodd" d="M815.917 289.076C814.742 287.9 813.566 286.725 813.566 284.375C813.566 284.375 813.566 284.375 813.566 282.024C813.566 280.849 813.566 279.674 813.566 279.674C813.566 278.499 814.742 276.148 815.917 274.973L826.494 267.921C827.669 266.746 828.844 265.571 827.669 263.221L824.143 253.819C822.968 252.644 821.793 251.468 819.443 251.468L807.69 253.819C806.515 253.819 804.165 253.819 802.989 252.644L800.639 250.293C799.464 249.118 798.288 246.767 799.464 245.592L801.814 233.84C801.814 232.665 801.814 230.314 799.464 229.139L790.062 225.613C788.887 225.613 786.536 225.613 785.361 226.789L778.31 237.366C777.134 238.541 775.959 239.716 773.609 239.716C773.609 239.716 773.609 239.716 771.258 239.716C770.083 239.716 768.908 239.716 768.908 239.716C767.733 239.716 765.382 238.541 764.207 237.366L757.156 226.789C755.98 225.613 754.805 224.438 752.455 225.613L743.053 229.139C741.878 230.314 740.702 231.489 740.702 233.84L743.053 245.592C743.053 246.767 743.053 249.118 741.878 250.293L739.527 252.644C738.352 253.819 736.001 254.994 734.826 253.819L723.074 251.468C721.899 251.468 719.548 251.468 718.373 253.819L714.847 263.221C714.847 264.396 714.847 266.746 716.023 267.921L726.6 274.973C727.775 276.148 728.95 277.323 728.95 279.674C728.95 279.674 728.95 279.674 728.95 282.024C728.95 283.199 728.95 284.375 728.95 284.375C728.95 285.55 727.775 287.9 726.6 289.076L716.023 296.127C714.847 297.302 713.672 298.477 714.847 300.828L718.373 310.23C719.548 311.405 720.723 312.58 723.074 312.58L734.826 310.23C736.001 310.23 738.352 310.23 739.527 311.405L741.878 313.755C743.053 314.931 744.228 317.281 743.053 318.456L740.702 330.208C740.702 331.384 740.702 333.734 743.053 334.909L752.455 338.435C753.63 338.435 755.98 338.435 757.156 337.26L764.207 326.683C765.382 325.508 766.557 324.332 768.908 324.332C768.908 324.332 768.908 324.332 771.258 324.332C772.433 324.332 773.609 324.332 773.609 324.332C774.784 324.332 777.134 325.508 778.31 326.683L785.361 337.26C786.536 338.435 787.711 339.61 790.062 338.435L799.464 334.909C800.639 333.734 801.814 332.559 801.814 330.208L799.464 318.456C799.464 317.281 799.464 314.931 800.639 313.755L802.989 311.405C804.165 310.23 806.515 309.054 807.69 310.23L819.443 312.58C820.618 312.58 822.968 312.58 824.143 310.23L827.669 300.828C827.669 299.653 827.669 297.302 826.494 296.127L815.917 289.076V289.076ZM772.434 310.23C757.156 310.23 744.229 297.302 744.229 282.024C744.229 266.746 757.156 253.819 772.434 253.819C787.712 253.819 800.64 266.746 800.64 282.024C799.465 298.478 787.712 310.23 772.434 310.23V310.23ZM736.002 209.16C734.827 209.16 733.652 207.985 733.652 206.81C733.652 206.81 733.652 206.81 733.652 205.635C733.652 204.459 733.652 204.459 733.652 204.459C733.652 203.284 733.652 202.109 733.652 200.934L738.353 193.882C739.528 192.707 739.528 191.532 738.353 190.357L733.652 185.656C732.477 184.48 731.302 184.48 730.126 185.656L723.075 190.357C721.9 191.532 720.725 191.532 719.549 190.357L717.199 189.181C716.024 189.181 714.848 188.006 714.848 186.831L713.673 178.604C713.673 177.429 712.498 176.254 711.323 176.254H704.271C703.096 176.254 701.921 177.429 701.921 178.604L700.746 186.831C700.746 188.006 699.57 189.181 698.395 189.181C698.395 189.181 698.395 189.181 697.22 189.181C696.045 189.181 696.045 189.181 696.045 189.181C694.87 189.181 693.694 189.181 692.519 189.181L685.468 184.48C684.293 183.305 683.117 184.48 681.942 184.48L677.241 189.181C676.066 190.357 676.066 191.532 677.241 192.707L681.942 199.758C683.117 200.934 683.117 202.109 681.942 203.284L680.767 205.635C680.767 206.81 679.592 207.985 678.416 207.985L670.19 209.16C669.015 209.16 667.839 210.335 667.839 211.511V218.562C667.839 219.737 669.015 220.913 670.19 220.913L678.416 222.088C679.592 222.088 680.767 223.263 680.767 224.438C680.767 224.438 680.767 224.438 680.767 225.613C680.767 226.789 680.767 226.789 680.767 226.789C680.767 227.964 680.767 229.139 680.767 230.314L676.066 237.366C674.891 238.541 676.066 239.716 676.066 240.891L680.767 245.592C681.942 246.767 683.117 246.767 684.293 245.592L691.344 240.891C692.519 239.716 693.694 239.716 694.87 240.891L697.22 242.067C698.395 242.067 699.57 243.242 699.57 244.417L700.746 252.644C700.746 253.819 701.921 254.994 703.096 254.994H710.148C711.323 254.994 712.498 253.819 712.498 252.644L713.673 244.417C713.673 243.242 714.848 242.067 716.024 242.067C716.024 242.067 716.024 242.067 717.199 242.067C718.374 242.067 718.374 242.067 718.374 242.067C719.549 242.067 720.725 242.067 721.9 242.067L728.951 246.767C730.126 247.943 731.302 247.943 732.477 246.767L737.178 242.067C738.353 240.891 738.353 239.716 737.178 238.541L732.477 231.49C731.302 230.314 731.302 229.139 732.477 227.964L733.652 225.613C733.652 224.438 734.827 223.263 736.002 223.263L744.229 222.088C745.404 222.088 746.58 220.913 746.58 219.737V212.686C746.58 211.511 745.404 210.335 744.229 210.335L736.002 209.16V209.16ZM711.324 230.314C703.097 233.84 694.871 230.314 691.345 222.088C687.819 213.861 691.345 205.635 699.572 202.109C707.798 198.583 716.025 202.109 719.551 210.336C723.076 218.562 719.551 226.789 711.324 230.314V230.314ZM787.714 283.199C787.714 291.426 780.662 298.477 772.436 298.477C764.209 298.477 757.158 291.426 757.158 283.199C757.158 274.973 764.209 267.921 772.436 267.921C780.662 267.921 787.714 274.973 787.714 283.199V283.199Z" fill="#F25A58"/>
<path fill-rule="evenodd" clip-rule="evenodd" d="M839.424 414.825C839.424 411.299 837.073 408.949 833.547 408.949H792.414C788.889 408.949 786.538 411.299 786.538 414.825V497.091C786.538 500.616 788.889 502.967 792.414 502.967H833.547C837.073 502.967 839.424 500.616 839.424 497.091V414.825V414.825Z" fill="white"/>
<path fill-rule="evenodd" clip-rule="evenodd" d="M833.548 505.317H792.415C787.714 505.317 784.188 501.791 784.188 497.09V414.825C784.188 410.124 787.714 406.598 792.415 406.598H833.548C838.249 406.598 841.775 410.124 841.775 414.825V497.09C841.775 501.791 838.249 505.317 833.548 505.317V505.317ZM792.415 412.474C791.24 412.474 790.065 413.649 790.065 414.825V497.09C790.065 498.266 791.24 499.441 792.415 499.441H833.548C834.723 499.441 835.898 498.266 835.898 497.09V414.825C835.898 413.649 834.723 412.474 833.548 412.474H792.415V412.474Z" fill="#4BA3CC"/>
<path fill-rule="evenodd" clip-rule="evenodd" d="M837.074 495.915H790.065C788.89 495.915 787.715 494.74 787.715 493.565C787.715 492.39 788.89 491.214 790.065 491.214H837.074C838.249 491.214 839.425 492.39 839.425 493.565C839.425 494.74 838.249 495.915 837.074 495.915V495.915Z" fill="#4BA3CC"/>
<path fill-rule="evenodd" clip-rule="evenodd" d="M837.074 423.051H790.065C788.89 423.051 787.715 421.876 787.715 420.701C787.715 419.526 788.89 418.35 790.065 418.35H837.074C838.249 418.35 839.425 419.526 839.425 420.701C839.425 421.876 838.249 423.051 837.074 423.051V423.051Z" fill="#4BA3CC"/>
<path fill-rule="evenodd" clip-rule="evenodd" d="M209.501 289.076H223.604C224.779 289.076 225.954 287.9 225.954 286.725V223.263C225.954 222.088 224.779 220.912 223.604 220.912H141.338C140.163 220.912 138.987 222.088 138.987 223.263V286.725C138.987 287.9 140.163 289.076 141.338 289.076H154.265" fill="white"/>
<path fill-rule="evenodd" clip-rule="evenodd" d="M223.604 291.426H209.501C208.326 291.426 207.151 290.251 207.151 289.075C207.151 287.9 208.326 286.725 209.501 286.725H223.604V286.725V223.263V223.263H141.338V223.263V286.725V286.725H154.266C155.441 286.725 156.616 287.9 156.616 289.075C156.616 290.251 155.441 291.426 154.266 291.426H141.338C138.988 291.426 136.637 289.075 136.637 286.725V223.263C136.637 220.912 138.988 218.562 141.338 218.562H223.604C225.955 218.562 227.13 220.912 227.13 223.263V286.725C227.13 290.251 225.955 291.426 223.604 291.426V291.426Z" fill="#4BA3CC"/>
<path fill-rule="evenodd" clip-rule="evenodd" d="M166.019 273.798C154.266 273.798 146.04 272.622 146.04 266.746C146.04 262.045 151.916 257.344 160.143 256.169V254.994C160.143 254.994 158.967 254.994 158.967 253.819C157.792 252.643 157.792 251.468 157.792 250.293C156.617 247.943 155.442 246.767 155.442 243.242C155.442 237.366 160.143 232.665 166.019 232.665C171.895 232.665 176.596 237.366 176.596 243.242C176.596 247.943 175.42 251.468 171.895 253.819V254.994V254.994C180.121 256.169 185.997 260.87 185.997 265.571C185.997 272.622 175.42 273.798 166.019 273.798V273.798ZM163.669 251.468C164.844 251.468 164.844 252.643 164.844 253.819C164.844 256.169 163.669 259.695 161.318 259.695C154.267 260.87 149.566 264.396 149.566 266.746C149.566 266.746 149.566 269.097 166.019 269.097C181.297 269.097 182.472 266.746 182.472 266.746C182.472 265.571 178.947 262.045 170.72 259.695C169.545 259.695 167.194 258.519 167.194 256.169C167.194 254.994 167.194 252.643 168.37 251.468C170.72 249.118 171.895 246.767 171.895 243.242C171.895 238.541 169.545 236.19 166.019 236.19C162.494 236.19 160.143 238.541 160.143 243.242C160.143 245.592 160.143 246.767 161.318 247.942C162.494 249.118 162.494 250.293 163.669 251.468V251.468Z" fill="#4BA3CC"/>
<path fill-rule="evenodd" clip-rule="evenodd" d="M214.202 240.891H191.873C190.698 240.891 189.523 239.716 189.523 238.541C189.523 237.365 190.698 236.19 191.873 236.19H214.202C215.378 236.19 216.553 237.365 216.553 238.541C215.378 240.891 215.378 240.891 214.202 240.891V240.891Z" fill="#4BA3CC"/>
<path fill-rule="evenodd" clip-rule="evenodd" d="M214.202 250.293H191.873C190.698 250.293 189.523 249.118 189.523 247.942C189.523 246.767 190.698 245.592 191.873 245.592H214.202C215.378 245.592 216.553 246.767 216.553 247.942C215.378 249.118 215.378 250.293 214.202 250.293V250.293Z" fill="#4BA3CC"/>
<path fill-rule="evenodd" clip-rule="evenodd" d="M195.399 291.426H168.369C167.193 291.426 166.018 290.251 166.018 289.076C166.018 287.9 167.193 286.725 168.369 286.725H195.399C196.574 286.725 197.749 287.9 197.749 289.076C197.749 290.251 196.574 291.426 195.399 291.426V291.426Z" fill="#4BA3CC"/>
<path fill-rule="evenodd" clip-rule="evenodd" d="M202.449 298.477C201.274 298.477 200.099 297.302 200.099 296.127V282.024C200.099 280.849 201.274 279.674 202.449 279.674C203.624 279.674 204.8 280.849 204.8 282.024V296.127C204.8 297.302 203.624 298.477 202.449 298.477V298.477Z" fill="#4BA3CC"/>
<path fill-rule="evenodd" clip-rule="evenodd" d="M161.316 298.477C160.141 298.477 158.966 297.302 158.966 296.127V282.024C158.966 280.849 160.141 279.674 161.316 279.674C162.491 279.674 163.666 280.849 163.666 282.024V296.127C163.666 297.302 162.491 298.477 161.316 298.477V298.477Z" fill="#4BA3CC"/>
<path fill-rule="evenodd" clip-rule="evenodd" d="M161.317 392.496C161.317 390.145 158.967 387.795 156.616 387.795H76.7009C74.3505 387.795 72 390.145 72 392.496V472.411C72 474.761 74.3505 477.112 76.7009 477.112H156.616C158.967 477.112 161.317 474.761 161.317 472.411V392.496V392.496Z" fill="#ABE4FF"/>
<path fill-rule="evenodd" clip-rule="evenodd" d="M147.215 418.35C143.689 418.35 140.164 414.825 140.164 411.299C140.164 407.773 143.689 404.248 147.215 404.248C150.741 404.248 154.267 407.773 154.267 411.299C154.267 414.825 151.916 418.35 147.215 418.35V418.35ZM147.214 408.949C146.039 408.949 144.863 410.124 144.863 411.299C144.863 412.474 146.039 413.65 147.214 413.65C148.389 413.65 149.564 412.474 149.564 411.299C149.564 410.124 148.389 408.949 147.214 408.949V408.949Z" fill="#F25A58"/>
<path fill-rule="evenodd" clip-rule="evenodd" d="M128.41 446.556C124.885 446.556 121.359 443.03 121.359 439.504C121.359 435.979 124.885 432.453 128.41 432.453C131.936 432.453 135.462 435.979 135.462 439.504C135.462 443.03 133.111 446.556 128.41 446.556V446.556ZM128.409 437.154C127.234 437.154 126.059 438.329 126.059 439.504C126.059 440.68 127.234 441.855 128.409 441.855C129.584 441.855 130.76 440.68 130.76 439.504C130.76 438.329 129.584 437.154 128.409 437.154V437.154Z" fill="#F25A58"/>
<path fill-rule="evenodd" clip-rule="evenodd" d="M109.608 427.753C106.083 427.753 102.557 424.227 102.557 420.701C102.557 417.175 106.083 413.65 109.608 413.65C113.134 413.65 116.66 417.175 116.66 420.701C116.66 424.227 114.309 427.753 109.608 427.753V427.753ZM109.607 418.351C108.432 418.351 107.257 419.526 107.257 420.701C107.257 421.876 108.432 423.052 109.607 423.052C110.782 423.052 111.958 421.876 111.958 420.701C111.958 419.526 110.782 418.351 109.607 418.351V418.351Z" fill="#F25A58"/>
<path fill-rule="evenodd" clip-rule="evenodd" d="M86.1038 451.257C82.5782 451.257 79.0525 447.731 79.0525 444.206C79.0525 440.68 82.5782 437.154 86.1038 437.154C89.6295 437.154 93.1552 440.68 93.1552 444.206C93.1552 447.731 90.8048 451.257 86.1038 451.257V451.257ZM86.1027 441.855C84.9275 441.855 83.7523 443.03 83.7523 444.206C83.7523 445.381 84.9275 446.556 86.1027 446.556C87.2779 446.556 88.4532 445.381 88.4532 444.206C88.4532 443.03 87.2779 441.855 86.1027 441.855V441.855Z" fill="#F25A58"/>
<path fill-rule="evenodd" clip-rule="evenodd" d="M89.6279 443.03C89.6279 443.03 88.4527 443.03 88.4527 441.855C87.2775 440.68 87.2775 439.505 88.4527 438.329L104.906 420.701C106.081 419.526 107.256 419.526 108.432 420.701C109.607 421.876 109.607 423.052 108.432 424.227L91.9784 441.855C90.8032 443.03 90.8032 443.03 89.6279 443.03V443.03Z" fill="#F25A58"/>
<path fill-rule="evenodd" clip-rule="evenodd" d="M126.061 439.505C124.886 439.505 124.886 439.505 124.886 438.33L113.134 425.402C111.958 424.227 111.958 423.052 113.134 421.876C114.309 420.701 115.484 420.701 116.659 421.876L128.412 434.804C129.587 435.979 129.587 437.154 128.412 438.33C126.061 439.505 126.061 439.505 126.061 439.505V439.505Z" fill="#F25A58"/>
<path fill-rule="evenodd" clip-rule="evenodd" d="M131.935 439.505V439.505C129.585 438.33 129.585 437.154 129.585 435.979L142.512 414.825C143.688 413.65 144.863 413.65 146.038 413.65C147.213 414.825 147.213 416 147.213 417.175L134.286 438.33C134.286 438.33 133.111 439.505 131.935 439.505V439.505Z" fill="#F25A58"/>
<path fill-rule="evenodd" clip-rule="evenodd" d="M435.144 165.677V50.5048L466.875 49.3296V165.677H435.144Z" fill="#4BA3CC"/>
<path fill-rule="evenodd" clip-rule="evenodd" d="M446.896 27C441.02 27 435.144 31.7009 435.144 38.7523C435.144 44.6284 435.144 50.5045 435.144 50.5045C435.144 50.5045 435.144 50.5045 436.319 50.5045C436.319 50.5045 442.195 50.5045 448.071 50.5045H455.123C460.999 50.5045 466.875 50.5045 466.875 50.5045C466.875 50.5045 466.875 50.5045 466.875 49.3293C466.875 49.3293 466.875 43.4532 466.875 37.577C466.875 31.7009 462.174 27 455.123 27H446.896V27Z" fill="#A61300"/>
<path fill-rule="evenodd" clip-rule="evenodd" d="M435.144 165.677L450.422 205.634V205.634L466.875 165.677H435.144Z" fill="#ABE4FF"/>
<path fill-rule="evenodd" clip-rule="evenodd" d="M450.421 209.16L445.72 196.233C445.72 196.233 446.895 191.532 450.421 191.532C453.946 191.532 455.122 196.233 455.122 196.233L450.421 209.16V209.16Z" fill="#011C40"/>
<g opacity="0.5">
<path fill-rule="evenodd" clip-rule="evenodd" d="M451.596 37.5769V203.284L466.874 165.677V36.4017L451.596 37.5769Z" fill="#005780"/>
</g>
<path fill-rule="evenodd" clip-rule="evenodd" d="M810.041 467.71V467.71L799.464 458.308C799.464 458.308 799.464 457.133 799.464 455.958C799.464 455.958 800.639 455.958 801.815 455.958L810.041 464.184L822.969 451.257C822.969 451.257 824.144 451.257 825.319 451.257C825.319 451.257 825.319 452.432 825.319 453.607L810.041 467.71C811.216 467.71 811.216 467.71 810.041 467.71V467.71Z" fill="#F25A58"/>
</svg>
