<svg width="54" height="62" viewBox="0 0 54 62" fill="none" xmlns="http://www.w3.org/2000/svg">
<path fill-rule="evenodd" clip-rule="evenodd" d="M13.2 45.3C13.2 45.3 12.9 44.6 11.3 44.7C9.4 44.8 8 47.1 6.4 47.3C5.1 47.4 4.5 46.7 4.5 46.7L5.8 50.9C5.8 50.9 6.3 51.6 7.7 51.5C9.5 51.4 10.7 49.1 12.6 48.9C14 48.8 14.4 49.2 14.5 49.4L13.2 45.3ZM12.6 48.7C12.4 48.7 12.2 48.8 12 48.8C11.3 49 10.6 49.5 10 50C9.4 50.5 8.8 50.9 8.2 51.1C8 51.2 7.9 51.2 7.7 51.2C6.6 51.3 6.1 50.8 6 50.7L4.9 47.2C5.3 47.4 5.7 47.5 6.4 47.5C6.6 47.5 6.7 47.5 6.9 47.4C7.6 47.2 8.2 46.7 8.8 46.2C9.4 45.7 10.1 45.2 10.7 45C10.9 44.9 11.1 44.9 11.2 44.9C12.5 44.8 12.8 45.3 12.9 45.4L14 48.8C13.8 48.7 13.3 48.6 12.6 48.7Z" fill="#4BA3CC"/>
<path fill-rule="evenodd" clip-rule="evenodd" d="M10.6999 47.4C10.3999 46.5 9.59992 46.1 8.99992 46.6C8.29992 47 7.99992 48.1 8.29992 49C8.59992 49.9 9.39992 50.3 9.99992 49.8C10.6999 49.3 10.8999 48.2 10.6999 47.4ZM9.79992 49L9.89992 49.3L9.69992 49.4L9.59992 49.1C9.39992 49.2 9.29992 49.3 9.09992 49.3V49.1C9.19992 49.1 9.39992 49 9.49992 48.9C9.69992 48.8 9.79992 48.5 9.69992 48.4C9.69992 48.2 9.49992 48.2 9.29992 48.3C8.99992 48.4 8.79992 48.4 8.69992 48.1C8.59992 47.9 8.69992 47.6 8.99992 47.3V47L9.19992 46.9L9.29992 47.2C9.49992 47.1 9.59992 47 9.69992 47V47.2C9.59992 47.2 9.49992 47.2 9.29992 47.4C9.09992 47.6 8.99992 47.8 9.09992 47.9C9.09992 48 9.29992 48 9.49992 48C9.79992 47.9 9.99992 48 10.0999 48.2C10.1999 48.4 10.0999 48.7 9.79992 49Z" fill="#4BA3CC"/>
<path fill-rule="evenodd" clip-rule="evenodd" d="M11.5001 46.2C11.2001 46.4 11.1001 46.9 11.2001 47.2C11.3001 47.6 11.7001 47.7 11.9001 47.5C12.2001 47.3 12.3001 46.8 12.2001 46.5C12.1001 46.2 11.8001 46 11.5001 46.2ZM11.9001 47.3H11.8001L11.6001 46.6L11.5001 46.7V46.6L11.6001 46.5H11.7001L11.9001 47.3Z" fill="#4BA3CC"/>
<path fill-rule="evenodd" clip-rule="evenodd" d="M6.7999 48.5C6.4999 48.7 6.3999 49.2 6.4999 49.5C6.5999 49.9 6.9999 50 7.1999 49.8C7.4999 49.6 7.5999 49.1 7.4999 48.8C7.4999 48.4 7.0999 48.3 6.7999 48.5ZM7.2999 49.5L6.9999 48.9L6.8999 49V48.9L6.9999 48.8H7.0999L7.2999 49.5Z" fill="#4BA3CC"/>
<g opacity="0.4">
<path fill-rule="evenodd" clip-rule="evenodd" d="M53.4002 40.3C53.4002 41.3 52.6002 42.1 51.6002 42.1H12.0002C11.0002 42.1 10.2002 41.3 10.2002 40.3V12.1C10.2002 11.1 11.0002 10.3 12.0002 10.3H51.6002C52.6002 10.3 53.4002 11.1 53.4002 12.1V40.3Z" fill="#4BA3CC"/>
<path fill-rule="evenodd" clip-rule="evenodd" d="M12 41.3C11.4 41.3 11 40.8 11 40.3V12.1C11 11.5 11.5 11.1 12 11.1H51.6C52.2 11.1 52.6 11.6 52.6 12.1V40.3C52.6 40.9 52.1 41.3 51.6 41.3H12Z" fill="white"/>
<path fill-rule="evenodd" clip-rule="evenodd" d="M53.4001 15.1C53.4001 15.2 53.3001 15.2 53.2001 15.2C53.1001 15.2 52.2001 15.2 51.2001 15.2H12.3001C11.3001 15.2 10.4001 15.2 10.3001 15.2C10.2001 15.2 10.1001 15.1 10.1001 15.1C10.1001 15 10.1001 14.2 10.1001 13.2V12C10.1001 11 10.9001 10.2 11.9001 10.2H51.5001C52.5001 10.2 53.3001 11 53.3001 12V13.2C53.4001 14.2 53.4001 15.1 53.4001 15.1Z" fill="#4BA3CC"/>
<path fill-rule="evenodd" clip-rule="evenodd" d="M39.7003 12.7C39.7003 13.3 39.2003 13.7 38.7003 13.7H18.3003C17.7003 13.7 17.3003 13.2 17.3003 12.7C17.3003 12.1 17.8003 11.7 18.3003 11.7H38.7003C39.2003 11.6 39.7003 12.1 39.7003 12.7Z" fill="white"/>
<path fill-rule="evenodd" clip-rule="evenodd" d="M12.8003 13.7C13.3526 13.7 13.8003 13.2523 13.8003 12.7C13.8003 12.1477 13.3526 11.7 12.8003 11.7C12.248 11.7 11.8003 12.1477 11.8003 12.7C11.8003 13.2523 12.248 13.7 12.8003 13.7Z" fill="white"/>
<path fill-rule="evenodd" clip-rule="evenodd" d="M15.5 13.7C16.0523 13.7 16.5 13.2523 16.5 12.7C16.5 12.1477 16.0523 11.7 15.5 11.7C14.9477 11.7 14.5 12.1477 14.5 12.7C14.5 13.2523 14.9477 13.7 15.5 13.7Z" fill="white"/>
<path fill-rule="evenodd" clip-rule="evenodd" d="M41.3003 13.7C41.8526 13.7 42.3003 13.2523 42.3003 12.7C42.3003 12.1477 41.8526 11.7 41.3003 11.7C40.748 11.7 40.3003 12.1477 40.3003 12.7C40.3003 13.2523 40.748 13.7 41.3003 13.7Z" fill="white"/>
<path fill-rule="evenodd" clip-rule="evenodd" d="M44.3999 13.7C44.9522 13.7 45.3999 13.2523 45.3999 12.7C45.3999 12.1477 44.9522 11.7 44.3999 11.7C43.8476 11.7 43.3999 12.1477 43.3999 12.7C43.3999 13.2523 43.8476 13.7 44.3999 13.7Z" fill="white"/>
<path fill-rule="evenodd" clip-rule="evenodd" d="M47.5 13.7C48.0523 13.7 48.5 13.2523 48.5 12.7C48.5 12.1477 48.0523 11.7 47.5 11.7C46.9477 11.7 46.5 12.1477 46.5 12.7C46.5 13.2523 46.9477 13.7 47.5 13.7Z" fill="white"/>
<path fill-rule="evenodd" clip-rule="evenodd" d="M51.6001 12.1C51.8762 12.1 52.1001 11.8761 52.1001 11.6C52.1001 11.3238 51.8762 11.1 51.6001 11.1C51.324 11.1 51.1001 11.3238 51.1001 11.6C51.1001 11.8761 51.324 12.1 51.6001 12.1Z" fill="white"/>
<path fill-rule="evenodd" clip-rule="evenodd" d="M49.8999 12.1C50.176 12.1 50.3999 11.8761 50.3999 11.6C50.3999 11.3238 50.176 11.1 49.8999 11.1C49.6238 11.1 49.3999 11.3238 49.3999 11.6C49.3999 11.8761 49.6238 12.1 49.8999 12.1Z" fill="white"/>
<rect x="26.3003" y="23.3" width="11.5" height="11.5" fill="#4BA3CC"/>
<path fill-rule="evenodd" clip-rule="evenodd" d="M48 31.8H39.2C39.1 31.8 39 31.7 39 31.6C39 31.5 39.1 31.4 39.2 31.4H48C48.1 31.4 48.2 31.5 48.2 31.6C48.2 31.7 48.1 31.8 48 31.8Z" fill="#4BA3CC"/>
<path fill-rule="evenodd" clip-rule="evenodd" d="M48 30.6H39.2C39.1 30.6 39 30.5 39 30.4C39 30.3 39.1 30.2 39.2 30.2H48C48.1 30.2 48.2 30.3 48.2 30.4C48.2 30.5 48.1 30.6 48 30.6Z" fill="#4BA3CC"/>
<path fill-rule="evenodd" clip-rule="evenodd" d="M48 29.4H39.2C39.1 29.4 39 29.3 39 29.2C39 29.1 39.1 29 39.2 29H48C48.1 29 48.2 29.1 48.2 29.2C48.2 29.3 48.1 29.4 48 29.4Z" fill="#4BA3CC"/>
<path fill-rule="evenodd" clip-rule="evenodd" d="M48 28.1H39.2C39.1 28.1 39 28 39 27.9C39 27.8 39.1 27.7 39.2 27.7H48C48.1 27.7 48.2 27.8 48.2 27.9C48.2 28.1 48.1 28.1 48 28.1Z" fill="#4BA3CC"/>
<path fill-rule="evenodd" clip-rule="evenodd" d="M48 26.9H39.2C39.1 26.9 39 26.8 39 26.7C39 26.6 39.1 26.5 39.2 26.5H48C48.1 26.5 48.2 26.6 48.2 26.7C48.2 26.8 48.1 26.9 48 26.9Z" fill="#4BA3CC"/>
<path fill-rule="evenodd" clip-rule="evenodd" d="M48 25.7H39.2C39.1 25.7 39 25.6 39 25.5C39 25.4 39.1 25.3 39.2 25.3H48C48.1 25.3 48.2 25.4 48.2 25.5C48.2 25.6 48.1 25.7 48 25.7Z" fill="#4BA3CC"/>
<path fill-rule="evenodd" clip-rule="evenodd" d="M46.6 23.6H39.2C39.1 23.6 39 23.5 39 23.4C39 23.3 39.1 23.2 39.2 23.2H46.6C46.7 23.2 46.8 23.3 46.8 23.4C46.8 23.5 46.7 23.6 46.6 23.6Z" fill="#4BA3CC"/>
</g>
<path fill-rule="evenodd" clip-rule="evenodd" d="M51.9 41.6C51.9 42.3 51.3 42.9 50.6 42.9H49.9C49.2 42.9 48.4 43.5 48.2 44.2L44.1 60.4C43.9 61.1 43.2 61.7 42.4 61.7H21C20.3 61.7 19.5 61.1 19.3 60.4L15.2 44.2C15 43.5 14.3 42.9 13.5 42.9H12.8C12.1 42.9 11.5 42.3 11.5 41.6V38.9C11.5 38.2 12.1 37.6 12.8 37.6H50.5C51.2 37.6 51.8 38.2 51.8 38.9V41.6H51.9ZM25 47C25 46.3 24.4 45.7 23.7 45.7C23 45.7 22.4 46.3 22.4 47V55.1C22.4 55.8 23 56.4 23.7 56.4C24.4 56.4 25 55.8 25 55.1V47ZM30.4 47C30.4 46.3 29.8 45.7 29.1 45.7C28.4 45.7 27.8 46.3 27.8 47V55.1C27.8 55.8 28.4 56.4 29.1 56.4C29.8 56.4 30.4 55.8 30.4 55.1V47ZM41.2 47C41.2 46.3 40.6 45.7 39.9 45.7C39.2 45.7 38.6 46.3 38.6 47V55.1C38.6 55.8 39.2 56.4 39.9 56.4C40.6 56.4 41.2 55.8 41.2 55.1V47ZM35.8 47C35.8 46.3 35.2 45.7 34.5 45.7C33.8 45.7 33.2 46.3 33.2 47V55.1C33.2 55.8 33.8 56.4 34.5 56.4C35.2 56.4 35.8 55.8 35.8 55.1V47Z" fill="#5ECCFF"/>
<path fill-rule="evenodd" clip-rule="evenodd" d="M15.2002 44.3L19.3002 60.5C19.5002 61.2 20.2002 61.8 21.0002 61.8H42.6002C43.3002 61.8 44.1002 61.2 44.3002 60.5L48.4002 44.3C48.6002 43.6 49.3002 43 50.1002 43H13.7002C14.3002 43 15.1002 43.5 15.2002 44.3ZM38.5002 47C38.5002 46.3 39.1002 45.7 39.8002 45.7C40.5002 45.7 41.1002 46.3 41.1002 47V55.1C41.1002 55.8 40.5002 56.4 39.8002 56.4C39.1002 56.4 38.5002 55.8 38.5002 55.1V47ZM33.1002 47C33.1002 46.3 33.7002 45.7 34.4002 45.7C35.1002 45.7 35.7002 46.3 35.7002 47V55.1C35.7002 55.8 35.1002 56.4 34.4002 56.4C33.7002 56.4 33.1002 55.8 33.1002 55.1V47ZM27.7002 47C27.7002 46.3 28.3002 45.7 29.0002 45.7C29.7002 45.7 30.3002 46.3 30.3002 47V55.1C30.3002 55.8 29.7002 56.4 29.0002 56.4C28.3002 56.4 27.7002 55.8 27.7002 55.1V47ZM22.3002 47C22.3002 46.3 22.9002 45.7 23.6002 45.7C24.3002 45.7 24.9002 46.3 24.9002 47V55.1C24.9002 55.8 24.3002 56.4 23.6002 56.4C22.9002 56.4 22.3002 55.8 22.3002 55.1V47Z" fill="#4BA3CC"/>
<path fill-rule="evenodd" clip-rule="evenodd" d="M44.1998 60.5L44.2998 60.2H19.2998L19.3998 60.5C19.5998 61.2 20.2998 61.8 21.0998 61.8H42.6998C43.2998 61.8 43.9998 61.2 44.1998 60.5Z" fill="#043573"/>
<path fill-rule="evenodd" clip-rule="evenodd" d="M31.7 22.6C31.2 22.6 30.7 22.4 30.3 22C30.3 22 30.3 22 30.3 21.9L24.6 14.3C24.2 13.8 24.1 13.2 24.4 12.6C24.7 12 25.2 11.7 25.9 11.7H28.3C28.1 4.6 26.6 3.3 26.4 3.1C25.8 3 25.3 2.5 25.3 1.9C25.2 1.2 25.8 0.6 26.5 0.5C26.6 0.5 26.8 0.5 27.1 0.5C27.9 0.5 30.1 0.7 32 2.6C33.9 4.5 35 7.6 35.2 11.8H37.7C38.4 11.8 38.9 12.1 39.2 12.7C39.5 13.2 39.4 13.9 39 14.4L33.3 22C33.3 22 33.3 22 33.3 22.1C32.7 22.3 32.2 22.6 31.7 22.6Z" fill="white"/>
<path fill-rule="evenodd" clip-rule="evenodd" d="M32.0001 21L37.7001 13.4C37.9001 13.2 37.8001 13 37.5001 13H33.7001C33.7001 0.699995 26.5001 1.8 26.5001 1.8C26.5001 1.8 29.6001 1.8 29.6001 13H25.8001C25.5001 13 25.4001 13.2 25.6001 13.4L31.3001 21C31.6001 21.3 31.9001 21.3 32.0001 21Z" fill="#4BA3CC"/>
<path fill-rule="evenodd" clip-rule="evenodd" d="M6.1999 32.8C5.9999 32.8 5.8999 32.6 5.8999 32.5V25.6C5.8999 25.4 6.0999 25.3 6.1999 25.3C6.3999 25.3 6.4999 25.5 6.4999 25.6V32.5C6.4999 32.7 6.3999 32.8 6.1999 32.8Z" fill="#F25A58"/>
<path fill-rule="evenodd" clip-rule="evenodd" d="M9.7 29.4H2.8C2.6 29.4 2.5 29.2 2.5 29.1C2.5 28.9 2.7 28.8 2.8 28.8H9.7C9.9 28.8 10 29 10 29.1C10 29.2 9.9 29.4 9.7 29.4Z" fill="#F25A58"/>
<path fill-rule="evenodd" clip-rule="evenodd" d="M6.2001 34.6C3.1001 34.6 0.600098 32.1 0.600098 29C0.600098 25.9 3.1001 23.4 6.2001 23.4C9.3001 23.4 11.8001 25.9 11.8001 29C11.8001 32.1 9.3001 34.6 6.2001 34.6ZM6.2001 24.1C3.5001 24.1 1.3001 26.3 1.3001 29C1.3001 31.7 3.5001 33.9 6.2001 33.9C8.9001 33.9 11.1001 31.7 11.1001 29C11.1001 26.3 8.9001 24.1 6.2001 24.1Z" fill="#F25A58"/>
<path fill-rule="evenodd" clip-rule="evenodd" d="M22.0999 24.1L20.8999 23C20.8999 23 20.8999 22.9 20.8999 22.8C20.8999 22.8 20.9999 22.8 21.0999 22.8L22.1999 23.9C22.1999 24 22.1999 24 22.0999 24.1C22.0999 24.1 22.1999 24.1 22.0999 24.1Z" fill="#4BA3CC"/>
<path fill-rule="evenodd" clip-rule="evenodd" d="M22.1 24.1C22 24 22 24 22 23.9L23.1 22.8C23.1 22.8 23.2 22.8 23.3 22.8C23.3 22.8 23.3 22.9 23.3 23L22.1 24.1C22.1 24.1 22.2 24.1 22.1 24.1Z" fill="#4BA3CC"/>
<path fill-rule="evenodd" clip-rule="evenodd" d="M22.1 24.1C22 24.1 22 24 22 24V21.1C22 21 22 21 22.1 21C22.2 21 22.2 21.1 22.2 21.1V24C22.2 24.1 22.2 24.1 22.1 24.1Z" fill="#4BA3CC"/>
<path fill-rule="evenodd" clip-rule="evenodd" d="M23.9 25.5H20.3C20.1 25.5 20 25.3 20 25.2V24C20 23.9 20.1 23.9 20.1 23.9C20.2 23.9 20.2 23.9 20.2 24V25.1C20.2 25.2 20.3 25.2 20.3 25.2H23.9C24 25.2 24 25.1 24 25.1V24C24 23.9 24 23.9 24.1 23.9C24.2 23.9 24.2 23.9 24.2 24V25.1C24.3 25.3 24.1 25.5 23.9 25.5Z" fill="#4BA3CC"/>
<path fill-rule="evenodd" clip-rule="evenodd" d="M28.8999 30.9V33.1C28.8999 33.3 28.9999 33.4 29.1999 33.4H31.3999V30.9H28.8999Z" fill="white"/>
<path fill-rule="evenodd" clip-rule="evenodd" d="M31.3999 27.5H29.1999C28.9999 27.5 28.8999 27.6 28.8999 27.8V30H31.3999V27.5Z" fill="white"/>
<path fill-rule="evenodd" clip-rule="evenodd" d="M34.5999 27.5H32.3999V30H34.8999V27.8C34.8999 27.6 34.6999 27.5 34.5999 27.5Z" fill="white"/>
<path fill-rule="evenodd" clip-rule="evenodd" d="M32.3999 33.5H34.5999C34.7999 33.5 34.8999 33.4 34.8999 33.2V31H32.3999V33.5Z" fill="white"/>
<path fill-rule="evenodd" clip-rule="evenodd" d="M33.5001 25C31.9001 23.4 31.6001 26.9 31.6001 26.9H32.3001C32.2001 26.9 35.1001 26.7 33.5001 25ZM32.3001 26.5H32.0001C32.0001 26.5 32.1001 24.7 33.0001 25.5C33.8001 26.4 32.3001 26.5 32.3001 26.5Z" fill="white"/>
<path fill-rule="evenodd" clip-rule="evenodd" d="M31.4001 26.5C31.1001 26.5 30.1001 26.2 30.8001 25.5C31.2001 25.1 31.4001 25.3 31.6001 25.6C31.7001 25.4 31.7001 25.3 31.8001 25.1C31.5001 24.6 31.1001 24.3 30.3001 25C28.9001 26.4 30.7001 26.8 31.3001 26.9C31.3001 26.8 31.4001 26.7 31.4001 26.5Z" fill="white"/>
</svg>
