<svg width="72" height="64" viewBox="0 0 72 64" fill="none" xmlns="http://www.w3.org/2000/svg">
<path fill-rule="evenodd" clip-rule="evenodd" d="M55.1001 50.7L55.0001 50.5C54.7001 50.1 46.6001 40.5 46.6001 36C46.6001 31.4 50.4001 27.7 55.1001 27.7C59.8001 27.7 63.6001 31.4 63.6001 36C63.6001 40.5 55.6001 50.1 55.2001 50.5L55.1001 50.7ZM55.1001 28C50.6001 28 47.0001 31.6 47.0001 36C47.0001 40.1 54.0001 48.8 55.1001 50.1C56.2001 48.8 63.2001 40 63.2001 36C63.2001 31.6 59.5001 28 55.1001 28Z" fill="#ABE4FF"/>
<path fill-rule="evenodd" clip-rule="evenodd" d="M55.1002 40.2C52.6002 40.2 50.7002 38.2 50.7002 35.8C50.7002 33.4 52.7002 31.4 55.1002 31.4C57.5002 31.4 59.5002 33.4 59.5002 35.8C59.5002 38.2 57.5002 40.2 55.1002 40.2ZM55.1002 31.7C52.8002 31.7 51.0002 33.5 51.0002 35.8C51.0002 38.1 52.8002 39.9 55.1002 39.9C57.4002 39.9 59.2002 38.1 59.2002 35.8C59.2002 33.5 57.3002 31.7 55.1002 31.7Z" fill="#ABE4FF"/>
<path fill-rule="evenodd" clip-rule="evenodd" d="M15.0998 20.6L14.9998 20.5C14.7998 20.2 9.7998 14.2 9.7998 11.4C9.7998 8.5 12.1998 6.2 15.0998 6.2C17.9998 6.2 20.3998 8.5 20.3998 11.4C20.3998 14.2 15.3998 20.2 15.1998 20.5L15.0998 20.6ZM15.0998 6.4C12.2998 6.4 9.9998 8.6 9.9998 11.4C9.9998 13.9 14.3998 19.4 15.0998 20.2C15.7998 19.4 20.1998 13.9 20.1998 11.4C20.1998 8.6 17.8998 6.4 15.0998 6.4Z" fill="#ABE4FF"/>
<path fill-rule="evenodd" clip-rule="evenodd" d="M15.0998 14C13.5998 14 12.2998 12.8 12.2998 11.2C12.2998 9.69999 13.4998 8.39999 15.0998 8.39999C16.5998 8.39999 17.8998 9.59999 17.8998 11.2C17.8998 12.8 16.6998 14 15.0998 14ZM15.0998 8.69999C13.6998 8.69999 12.4998 9.79999 12.4998 11.3C12.4998 12.7 13.5998 13.9 15.0998 13.9C16.4998 13.9 17.6998 12.8 17.6998 11.3C17.6998 9.79999 16.4998 8.69999 15.0998 8.69999Z" fill="#ABE4FF"/>
<path fill-rule="evenodd" clip-rule="evenodd" d="M3.6 28.1C3.4 27.9 0 23.8 0 21.9C0 20 1.6 18.4 3.6 18.4C5.6 18.4 7.2 20 7.2 21.9C7.2 23.8 3.8 27.9 3.6 28.1ZM3.6 18.5C1.7 18.5 0.2 20 0.2 21.9C0.2 23.6 3.2 27.3 3.6 27.9C4.1 27.3 7 23.7 7 21.9C7 20 5.5 18.5 3.6 18.5Z" fill="#ABE4FF"/>
<path fill-rule="evenodd" clip-rule="evenodd" d="M3.6002 23.7C2.6002 23.7 1.7002 22.9 1.7002 21.8C1.7002 20.7 2.5002 19.9 3.6002 19.9C4.6002 19.9 5.5002 20.7 5.5002 21.8C5.5002 22.9 4.6002 23.7 3.6002 23.7ZM3.6002 20.1C2.6002 20.1 1.9002 20.9 1.9002 21.8C1.9002 22.7 2.7002 23.5 3.6002 23.5C4.5002 23.5 5.3002 22.7 5.3002 21.8C5.3002 20.9 4.5002 20.1 3.6002 20.1Z" fill="#ABE4FF"/>
<path fill-rule="evenodd" clip-rule="evenodd" d="M19.6999 56.5C16.7999 56.5 14.3999 54.1 14.3999 51.2V21.4C14.3999 18.5 16.7999 16.1 19.6999 16.1H49.4999C52.3999 16.1 54.7999 18.5 54.7999 21.4V51.2C54.7999 54.1 52.3999 56.5 49.4999 56.5H19.6999Z" fill="#005780"/>
<path fill-rule="evenodd" clip-rule="evenodd" d="M52.3998 51.2C52.3998 52.8 51.0998 54.1 49.4998 54.1H19.6998C18.0998 54.1 16.7998 52.8 16.7998 51.2V21.4C16.7998 19.8 18.0998 18.5 19.6998 18.5H49.4998C51.0998 18.5 52.3998 19.8 52.3998 21.4V51.2Z" fill="#ABE4FF"/>
<mask id="mask0" mask-type="alpha" maskUnits="userSpaceOnUse" x="16" y="18" width="37" height="37">
<path fill-rule="evenodd" clip-rule="evenodd" d="M52.3998 51.2C52.3998 52.8 51.0998 54.1 49.4998 54.1H19.6998C18.0998 54.1 16.7998 52.8 16.7998 51.2V21.4C16.7998 19.8 18.0998 18.5 19.6998 18.5H49.4998C51.0998 18.5 52.3998 19.8 52.3998 21.4V51.2Z" fill="white"/>
</mask>
<g mask="url(#mask0)">
<path fill-rule="evenodd" clip-rule="evenodd" d="M-6.90039 86.5C-7.30039 86.5 -7.70039 86.3 -8.00039 86C-8.50039 85.4 -8.50039 84.5 -7.90039 83.9L-5.00039 81.2C-5.30039 81.2 -5.60039 81.1 -5.90039 81C-6.60039 80.6 -6.80039 79.6 -6.30039 79L0.999611 67.9L-6.10039 60.2L-10.1004 63.9L-17.0004 70.3C-17.6004 70.8 -18.5004 70.8 -19.1004 70.2C-19.6004 69.6 -19.6004 68.7 -19.0004 68.1L-12.9004 62.5L-17.5004 55.1L-21.5004 56.5C-21.8004 56.9 -22.3004 57.2 -22.8004 57.2C-23.0004 57.2 -23.1004 57.2 -23.3004 57.1L-30.9004 59.8C-31.0004 59.8 -31.1004 59.9 -31.2004 59.9C-31.4004 59.9 -31.5004 59.9 -31.7004 59.9C-31.9004 59.9 -32.1004 59.8 -32.3004 59.6C-32.5004 59.5 -32.6004 59.3 -32.7004 59.1C-32.8004 59 -32.8004 58.8 -32.9004 58.6C-32.9004 58.5 -32.9004 58.4 -32.9004 58.3L-32.3004 43.5L-31.7004 29C-31.7004 28.6 -31.5004 28.2 -31.2004 28L-21.5004 19.1L-26.2004 13.9C-26.7004 13.3 -26.7004 12.4 -26.1004 11.8C-25.5004 11.3 -24.6004 11.3 -24.0004 11.9L-18.3004 18.1L-14.1004 22.7L-0.300392 4.1L-11.8004 -1.8C-12.5004 -2.2 -12.8004 -3.1 -12.4004 -3.8C-12.0004 -4.5 -11.1004 -4.8 -10.4004 -4.4L1.59961 1.7L6.09961 -4.4L-3.80039 -9.1C-4.50039 -9.4 -4.80039 -10.3 -4.50039 -11.1C-4.20039 -11.8 -3.30039 -12.1 -2.50039 -11.8L8.99961 -6.3C8.99961 -6.3 8.99961 -6.3 9.09961 -6.3L12.9996 -4.4L14.0996 -6.7L2.99961 -13.3C2.29961 -13.7 2.09961 -14.6 2.49961 -15.3C2.89961 -16 3.79961 -16.2 4.49961 -15.8L15.2996 -9.3L20.0996 -19.6L22.3996 -24.5L23.6996 -27.2C23.9996 -27.9 24.8996 -28.2 25.6996 -27.9C26.3996 -27.6 26.6996 -26.7 26.3996 -25.9L25.3996 -23.8L32.7996 -8.9L34.8996 -10.3L37.1996 -15.5C37.4996 -16.2 38.3996 -16.6 39.0996 -16.2C39.7996 -15.9 40.1996 -15 39.7996 -14.3L37.2996 -8.7C37.1996 -8.4 36.9996 -8.2 36.7996 -8.1L33.9996 -6.2L36.2996 -1.6L45.8996 -6.2L46.0996 -10.3C46.0996 -11.1 46.7996 -11.7 47.5996 -11.7C48.3996 -11.7 48.9996 -11 48.9996 -10.2L48.7996 -5.3C48.7996 -5.3 48.7996 -5.3 48.7996 -5.2L48.2996 6.4C48.2996 6.4 48.2996 6.4 48.2996 6.5L47.7996 19.4C47.7996 19.8 47.5996 20.2 47.2996 20.4L43.3996 24L39.1996 27.8L39.6996 29.5L55.4996 12.7L55.6996 -5.5C55.6996 -6.3 56.3996 -7 57.1996 -7C57.9996 -7 58.6996 -6.3 58.6996 -5.5L58.4996 13.3C58.4996 13.7 58.3996 14 58.0996 14.3L56.3996 16L62.6996 22.6L63.3996 5.7C63.3996 4.9 64.0996 4.3 64.8996 4.3C65.6996 4.3 66.2996 5 66.2996 5.8L65.4996 26.2C65.4996 26.6 65.2996 26.9 65.0996 27.2C65.0996 27.2 65.0996 27.2 64.9996 27.3L43.0996 47.4C42.7996 47.6 42.4996 47.7 42.1996 47.8L38.3996 47.9L30.9996 58.4L30.5996 71.2L38.6996 80C39.1996 80.6 39.1996 81.5 38.5996 82.1C37.9996 82.6 37.0996 82.6 36.4996 82L27.9996 72.8L23.5996 68.1L19.1996 63.3L-5.80039 86.3C-6.10039 86.3 -6.50039 86.5 -6.90039 86.5ZM4.09961 68.7L-3.00039 79.5L17.1996 60.9L15.0996 58.6L4.09961 68.7ZM26.1996 66.4L27.6996 68L27.8996 59.7L26.4996 60L26.1996 66.4ZM-3.80039 58.2L2.99961 65.6L12.9996 56.4L9.39961 52.5C8.39961 53.1 7.19961 53.4 5.99961 53.3C4.79961 53.3 3.59961 52.9 2.69961 52.2L-3.80039 58.2ZM20.7996 60.5L23.3996 63.4L23.5996 59.3L21.2996 56.8L20.7996 60.5ZM-14.6004 54.2L-10.7004 60.5L-4.50039 54.8L-7.40039 51.6L-14.6004 54.2ZM15.9996 55.3L18.1996 57.7L19.5996 48.5L16.1996 48.6L15.9996 55.3ZM21.8996 53.1L25.6996 57.2L28.5996 56.6L34.6996 48L22.6996 48.4L21.8996 53.1ZM-29.3004 45.1L-29.8004 56.3L-24.1004 54.3L-23.7004 45.3L-29.3004 45.1ZM-20.7004 45.5L-21.0004 53.3L-17.2004 52C-17.2004 52 -17.2004 52 -17.1004 52L-8.20039 48.9V46L-20.7004 45.5ZM-5.50039 49.4L-2.30039 52.9L0.699608 50.2C-0.500393 48.1 -0.400391 45.4 0.999607 43.4L-3.90039 38.1L-5.60039 39.6L-5.50039 49.4ZM11.5996 50.6L13.1996 52.3L13.3996 47.2L13.5996 42.3L11.8996 43.9C13.0996 45.9 12.9996 48.5 11.5996 50.6ZM4.89961 50.2C5.29961 50.4 5.69961 50.4 6.09961 50.5C6.49961 50.5 6.89961 50.5 7.29961 50.3L6.09961 49L4.89961 50.2ZM8.39961 47L9.59961 48.3C9.89961 47.5 9.89961 46.7 9.69961 45.9L8.39961 47ZM3.09961 45.6C2.79961 46.4 2.69961 47.2 2.99961 48L4.29961 46.8L3.09961 45.6ZM16.5996 39.4L16.2996 45.7L19.9996 45.6L21.2996 37.1L20.2996 36L16.5996 39.4ZM24.2996 37.8L23.0996 45.5L29.7996 45.3L29.2996 36.5L24.2996 37.8ZM32.0996 35.6L32.6996 45.1L37.4996 44.9L40.2996 44.8L37.9996 34L32.0996 35.6ZM5.19961 43.6L6.39961 44.9L7.69961 43.7C6.89961 43.4 5.99961 43.4 5.19961 43.6ZM40.6996 32.6L42.9996 43.4L49.3996 37.5L42.9996 30.2L40.6996 32.6ZM-20.6004 42.6L-8.50039 43.1V39.9L-20.3004 34.4L-20.6004 42.6ZM-29.2004 42.2L-23.6004 42.4L-23.2004 32.1C-23.2004 32 -23.2004 31.9 -23.2004 31.8C-23.2004 31.7 -23.1004 31.6 -23.1004 31.5C-23.1004 31.4 -23.0004 31.3 -23.0004 31.2C-22.9004 31.1 -22.9004 31 -22.8004 31L-16.2004 24.9L-19.6004 21.2L-28.8004 29.7L-29.2004 42.2ZM6.29961 40.5C7.59961 40.5 8.79961 40.9 9.89961 41.6L13.0996 38.6L5.49961 30.4L-1.30039 36.6L2.99961 41.3C4.09961 40.8 5.19961 40.5 6.29961 40.5ZM-19.0004 31.7L-7.30039 37.2L-5.90039 35.9L-6.80039 34.9L-14.0004 27.1L-19.0004 31.7ZM6.69961 27.3L15.2996 36.6L19.4996 32.7C19.5996 32.6 19.7996 32.5 19.9996 32.4L27.4996 29.5L26.3996 17.8L16.5996 12.8C16.3996 12.8 16.1996 12.7 16.0996 12.6C15.9996 12.5 15.7996 12.4 15.6996 12.3L13.6996 11.3L5.09961 25.6L6.69961 27.3ZM44.8996 28.1L51.4996 35.5L54.4996 32.8L47.6996 25.3L44.8996 28.1ZM22.9996 34.5L23.3996 35L30.0996 33.2C30.0996 33.2 30.0996 33.2 30.1996 33.2L37.2996 31.3L36.6996 29.3L29.6996 32C29.6996 32 29.6996 32 29.5996 32L22.9996 34.5ZM-3.60039 34L-3.20039 34.5L3.59961 28.3L3.19961 27.8L-3.60039 34ZM-12.0004 24.9L-5.60039 31.8L2.09961 24.7L11.0996 9.9L2.39961 5.5L-12.0004 24.9ZM49.5996 23.2L56.5996 30.9L61.7996 26.1L54.2996 18.2L49.5996 23.2ZM29.2996 17.7L30.2996 28.5L36.6996 26L40.4996 22.5L35.7996 14.1L33.3996 15.4L29.2996 17.7ZM38.3996 12.7L42.7996 20.5L44.8996 18.6L45.2996 8.9L38.3996 12.7ZM18.7996 10.6L27.6996 15.2L30.6996 13.5L26.0996 5.2L22.6996 3.6L18.7996 10.6ZM29.1996 4.8L33.2996 12.1L38.4996 9.2L34.8996 2.1L29.1996 4.8ZM10.8996 6.6L16.1996 9.3L20.0996 2.4L14.1996 -0.4L10.8996 6.6ZM37.5996 0.799999L41.0996 7.8L45.4996 5.4L45.8996 -3L37.5996 0.799999ZM4.09961 3.1L8.29961 5.2L11.4996 -1.7L8.59961 -3.1L4.09961 3.1ZM24.1996 1.1L27.1996 2.5L33.5996 -0.600002L31.4996 -4.8L25.3996 -1L24.1996 1.1ZM15.4996 -3.1L21.5996 -0.200001L22.3996 -1.6L16.4996 -5.1L15.4996 -3.1ZM22.7996 -18.8L25.2996 -4.4L30.0996 -7.3L23.4996 -20.5L22.7996 -18.8ZM17.6996 -7.8L22.3996 -5L20.7996 -14.2L17.6996 -7.8Z" fill="#41B9F0"/>
<path fill-rule="evenodd" clip-rule="evenodd" d="M-6.90049 85.7C-7.10049 85.7 -7.30049 85.6 -7.40049 85.5C-7.70049 85.2 -7.70049 84.7 -7.40049 84.5L18.0995 61L14.9995 57.6L3.39951 68.2L-4.50049 80.1C-4.70049 80.4 -5.20049 80.5 -5.50049 80.3C-5.80049 80.1 -5.90049 79.6 -5.70049 79.3L1.89951 67.8L-5.90049 59.3C-5.90049 59.3 -6.00049 59.2 -6.00049 59.1L-10.5005 63.3L-17.4005 69.7C-17.7005 70 -18.2005 70 -18.4005 69.7C-18.7005 69.4 -18.7005 68.9 -18.4005 68.7L-11.9005 62.7L-17.1005 54.3L-21.9005 56C-22.0005 56.3 -22.3005 56.6 -22.6005 56.6C-22.8005 56.6 -22.9005 56.5 -23.0005 56.4L-31.0005 59.2H-31.1005C-31.2005 59.2 -31.3005 59.2 -31.4005 59.2C-31.5005 59.2 -31.6005 59.1 -31.7005 59.1C-31.8005 59 -31.9005 59 -31.9005 58.9C-31.9005 58.8 -32.0005 58.7 -32.0005 58.7C-32.0005 58.6 -32.0005 58.6 -32.0005 58.5L-31.4005 43.7L-30.8005 29.2C-30.8005 29 -30.7005 28.8 -30.6005 28.7L-20.4005 19.3L-25.6005 13.6C-25.9005 13.3 -25.9005 12.8 -25.6005 12.6C-25.3005 12.3 -24.8005 12.3 -24.6005 12.6L-18.9005 18.8L-14.1005 24L0.699512 3.99999L-11.6005 -2.30001C-12.0005 -2.50001 -12.1005 -2.90001 -11.9005 -3.30001C-11.7005 -3.70001 -11.3005 -3.80001 -10.9005 -3.60001L1.59951 2.79999L6.99951 -4.50001L-3.70049 -9.60001C-4.10049 -9.80001 -4.20049 -10.2 -4.00049 -10.6C-3.80049 -11 -3.40049 -11.1 -3.00049 -10.9L8.49951 -5.40001L13.0995 -3.20001L14.7995 -6.80001L3.19951 -13.8C2.89951 -14 2.69951 -14.5 2.89951 -14.8C3.09951 -15.1 3.59951 -15.3 3.89951 -15.1L15.3995 -8.20001L20.5995 -19.3L22.8995 -24.2L24.1995 -26.9C24.3995 -27.3 24.7995 -27.4 25.1995 -27.3C25.5995 -27.1 25.6995 -26.7 25.5995 -26.3L24.4995 -23.9L32.4995 -7.90001L35.4995 -9.90001L37.8995 -15.3C38.0995 -15.7 38.4995 -15.8 38.8995 -15.7C39.2995 -15.5 39.3995 -15.1 39.2995 -14.7L36.7995 -9.10001C36.6995 -9.00001 36.6995 -8.90001 36.4995 -8.80001L33.1995 -6.60001L36.0995 -0.800007L46.7995 -5.90001L46.9995 -10.4C46.9995 -10.8 47.3995 -11.1 47.7995 -11.1C48.1995 -11.1 48.4995 -10.7 48.4995 -10.3L48.2995 -5.40001L47.7995 6.29999L47.2995 19.2C47.2995 19.4 47.1995 19.6 47.0995 19.7L43.1995 23.3L38.6995 27.5L39.7995 30.8L56.6995 12.9L56.8995 -5.60001C56.8995 -6.00001 57.1995 -6.30001 57.5995 -6.30001C57.9995 -6.30001 58.2995 -6.00001 58.2995 -5.60001L58.0995 13.2C58.0995 13.4 57.9995 13.6 57.8995 13.7L55.3995 16L63.2995 24.3L64.0995 5.69999C64.0995 5.29999 64.4995 4.99999 64.8995 4.99999C65.2995 4.99999 65.5995 5.39999 65.5995 5.79999L64.7995 26.2C64.7995 26.4 64.6995 26.5 64.5995 26.6L42.6995 46.7C42.5995 46.8 42.3995 46.9 42.1995 46.9L37.9995 47.1L30.1995 58.1L29.7995 71.4L38.0995 80.4C38.3995 80.7 38.3995 81.2 38.0995 81.4C37.7995 81.7 37.2995 81.7 37.0995 81.4L28.5995 72.2L24.1995 67.5L19.2995 62.1L-6.20049 85.6C-6.50049 85.7 -6.70049 85.7 -6.90049 85.7ZM25.3995 66.6L28.2995 69.8L28.5995 58.7L25.7995 59.3L25.3995 66.6ZM-4.90049 58.2C-4.80049 58.2 -4.80049 58.3 -4.80049 58.3L2.89951 66.7L13.9995 56.5L9.49951 51.6C8.49951 52.3 7.29951 52.7 5.99951 52.6C4.69951 52.5 3.49951 52.1 2.59951 51.3L-4.90049 58.2ZM19.9995 60.8L23.9995 65.2L24.3995 59.1L20.7995 55.2L19.9995 60.8ZM-15.7005 53.8L-10.8005 61.7L-3.40049 54.9L-7.10049 50.8L-15.7005 53.8ZM15.1995 55.6L18.6995 59.4L20.4995 47.8L15.4995 48L15.1995 55.6ZM21.0995 53.3L25.3995 58L28.9995 57.2L36.0995 47.2L21.9995 47.7L21.0995 53.3ZM-30.0005 44.4L-30.5005 57.4L-23.3005 54.9L-22.9005 44.7L-30.0005 44.4ZM-21.4005 44.7L-21.8005 54.4L-17.0005 52.7L-7.60049 49.4V45.3L-21.4005 44.7ZM10.5995 50.6L13.7995 54.1L14.0995 47.2L14.3995 40.5L10.8995 43.7C12.3995 45.8 12.2995 48.6 10.5995 50.6ZM-6.20049 49.7L-2.30049 53.9L1.69951 50.3C0.199512 48.2 0.299511 45.3 1.99951 43.4L-3.70049 37.2L-6.20049 39.5V49.7ZM3.69951 50.3C4.39951 50.8 5.19951 51.1 6.09951 51.2C6.99951 51.2 7.79951 51 8.59951 50.5L6.29951 48L3.69951 50.3ZM7.29951 47L9.59951 49.5C10.6995 48.1 10.7995 46.1 9.79951 44.7L7.29951 47ZM2.89951 44.4C1.79951 45.8 1.69951 47.8 2.69951 49.2L5.19951 46.9L2.89951 44.4ZM15.8995 39.1L15.5995 46.5L20.6995 46.3L22.1995 36.8L20.3995 34.9L15.8995 39.1ZM23.5995 37.2L22.1995 46.3L30.4995 46L29.8995 35.5L23.5995 37.2ZM3.99951 43.4L6.29951 45.9L8.79951 43.6C7.39951 42.5 5.49951 42.4 3.99951 43.4ZM31.2995 35.1L31.8995 45.9L37.3995 45.7L41.0995 45.6L38.4995 33.2L31.2995 35.1ZM39.8995 32.4L42.4995 44.8L50.2995 37.6L42.8995 29.2L39.8995 32.4ZM-21.4005 43.3L-7.70049 43.9V39.5L-20.9005 33.3L-21.4005 43.3ZM-29.9005 42.9L-22.8005 43.2L-22.3005 32.1C-22.3005 32 -22.3005 32 -22.3005 31.9V31.8C-22.3005 31.8 -22.3005 31.7 -22.2005 31.7L-22.1005 31.6L-14.9005 25L-19.3005 20.2L-29.3005 29.4L-29.9005 42.9ZM6.29951 41.3C7.59951 41.3 8.89951 41.7 9.99951 42.6L14.1995 38.7L5.59951 29.4L-2.20049 36.6L3.09951 42.3C3.99951 41.6 5.09951 41.3 6.29951 41.3ZM-20.3005 31.9L-7.10049 38.1L-4.80049 35.9L-6.20049 34.4L-13.9005 26L-20.3005 31.9ZM6.19951 27.8L15.2995 37.7L19.9995 33.3C20.0995 33.2 20.1995 33.2 20.1995 33.2L28.2995 30.1L27.0995 17.4L16.7995 12.1C16.6995 12.1 16.4995 12.1 16.3995 12C16.2995 11.9 16.1995 11.9 16.1995 11.8L13.3995 10.4L4.19951 25.7L6.19951 27.8ZM43.9995 28.1L51.4995 36.6L55.4995 32.9L47.5995 24.2L43.9995 28.1ZM21.6995 34.2L23.1995 35.8L30.3995 33.9L38.1995 31.8L37.0995 28.3L29.3995 31.3L21.6995 34.2ZM-3.30049 35.5L4.59951 28.3L3.19951 26.8L-4.60049 34L-3.30049 35.5ZM-13.0005 25L-5.70049 32.9L2.59951 25.3L11.9995 9.69999L2.09951 4.59999L-13.0005 25ZM48.5995 23.2L56.4995 31.9L62.7995 26.1L54.1995 17.1L48.5995 23.2ZM28.5995 17.3L29.6995 29.5L37.1995 26.6L41.4995 22.6L36.0995 13.1L33.0995 14.8L28.5995 17.3ZM37.3995 12.4L42.5995 21.6L45.5995 18.8L46.0995 7.49999L37.3995 12.4ZM17.7995 10.9L27.7995 16L31.7995 13.8L26.6995 4.69999L22.4995 2.69999L17.7995 10.9ZM28.1995 4.49999L32.9995 13.1L39.3995 9.49999L35.1995 1.09999L28.1995 4.49999ZM9.99951 6.89999L16.4995 10.2L21.0995 1.99999L13.7995 -1.50001L9.99951 6.89999ZM36.5995 0.499992L40.6995 8.8L46.0995 5.8L46.4995 -4.30001L36.5995 0.499992ZM2.99951 3.39999L8.59951 6.29999L12.4995 -2.00001L8.39951 -3.90001L2.99951 3.39999ZM23.1995 1.39999L27.1995 3.29999L34.5995 -0.200006L31.7995 -5.80001L24.8995 -1.60001L23.1995 1.39999ZM14.4995 -2.70001L21.8995 0.799994L23.3995 -1.80001L16.1995 -6.10001L14.4995 -2.70001ZM22.0995 -18.9L24.8995 -3.20001L31.1995 -7.10001L23.6995 -22.2L22.0995 -18.9ZM16.6995 -7.50001L23.2995 -3.50001L20.9995 -16.6L16.6995 -7.50001Z" fill="white"/>
</g>
<path fill-rule="evenodd" clip-rule="evenodd" d="M4.1002 42.8H16.8002C17.3002 42.8 17.7002 42.4 17.7002 41.9V36.2C17.7002 35.7 17.3002 35.3 16.8002 35.3H4.1002C3.6002 35.3 3.2002 35.7 3.2002 36.2V41.9C3.2002 42.4 3.6002 42.8 4.1002 42.8Z" fill="#35809B"/>
<path fill-rule="evenodd" clip-rule="evenodd" d="M4.1002 42.4H16.8002C17.3002 42.4 17.7002 42 17.7002 41.5V35.8C17.7002 35.3 17.3002 34.9 16.8002 34.9H4.1002C3.6002 34.9 3.2002 35.3 3.2002 35.8V41.5C3.2002 42 3.6002 42.4 4.1002 42.4Z" fill="#05428E"/>
<path fill-rule="evenodd" clip-rule="evenodd" d="M4.40039 39.2C4.67653 39.2 4.90039 38.9761 4.90039 38.7C4.90039 38.4239 4.67653 38.2 4.40039 38.2C4.12425 38.2 3.90039 38.4239 3.90039 38.7C3.90039 38.9761 4.12425 39.2 4.40039 39.2Z" fill="#069ADA"/>
<rect x="16.9004" y="37.9" width="1" height="1.4" fill="#0779BF"/>
<path fill-rule="evenodd" clip-rule="evenodd" d="M3.2002 41.5C3.2002 42 3.6002 42.4 4.1002 42.4H16.8002C17.3002 42.4 17.7002 42 17.7002 41.5V38.6H3.2002V41.5Z" fill="#4A9AFF"/>
<rect x="5.30029" y="35.5" width="10.5" height="6.2" fill="#7ED3F7"/>
<g opacity="0.5">
<rect x="5.30029" y="38.7" width="10.5" height="3.1" fill="#069ADA"/>
</g>
<path fill-rule="evenodd" clip-rule="evenodd" d="M14.5001 38.3C14.1001 38.3 13.7001 38.1 13.5001 37.8C12.7001 36.9 10.1001 33.7 10.1001 31.7C10.1001 29.3 12.1001 27.4 14.5001 27.4C16.9001 27.4 18.9001 29.3 18.9001 31.7C18.9001 33.7 16.3001 36.9 15.6001 37.8C15.3001 38.1 14.9001 38.3 14.5001 38.3Z" fill="#ABD9F1"/>
<path fill-rule="evenodd" clip-rule="evenodd" d="M14.5 37.9C14.2 37.9 14 37.8 13.8 37.6C13.3 37 10.5 33.6 10.5 31.7C10.5 29.6 12.3 27.8 14.4 27.8C16.6 27.8 18.3 29.5 18.3 31.7C18.3 33.6 15.6 36.9 15 37.6C15.1 37.8 14.8 37.9 14.5 37.9Z" fill="white"/>
<path fill-rule="evenodd" clip-rule="evenodd" d="M17.6001 31.7C17.6001 33.3 14.6001 37 14.6001 37C14.6001 37 11.6001 33.4 11.6001 31.7C11.6001 30.1 13.0001 28.7 14.6001 28.7C16.2001 28.7 17.6001 30.1 17.6001 31.7Z" fill="#F25A58"/>
<path fill-rule="evenodd" clip-rule="evenodd" d="M14.4999 33.3C15.3836 33.3 16.0999 32.5836 16.0999 31.7C16.0999 30.8163 15.3836 30.1 14.4999 30.1C13.6162 30.1 12.8999 30.8163 12.8999 31.7C12.8999 32.5836 13.6162 33.3 14.4999 33.3Z" fill="white"/>
<g opacity="0.28">
<path fill-rule="evenodd" clip-rule="evenodd" d="M68.9 2.89999H35.9C34.6 2.89999 33.5 3.99999 33.5 5.29999V22.1C33.5 23.4 34.6 24.5 35.9 24.5H48L47.9 29.1L56.6 24.5H68.9C70.2 24.5 71.3 23.4 71.3 22.1V5.29999C71.3 3.99999 70.2 2.89999 68.9 2.89999Z" fill="#4BA3CC"/>
</g>
<path fill-rule="evenodd" clip-rule="evenodd" d="M64.4 0.300003H31.4C30.1 0.300003 29 1.4 29 2.7V19.5C29 20.8 30.1 21.9 31.4 21.9H43.5L47.9 29.2L52.1 21.9H64.4C65.7 21.9 66.8 20.8 66.8 19.5V2.7C66.8 1.4 65.7 0.300003 64.4 0.300003Z" fill="#F25A58"/>
<path fill-rule="evenodd" clip-rule="evenodd" d="M45.3002 20.7C44.9002 20.1 44.2002 19.7 43.5002 19.7H31.4002C31.3002 19.7 31.2002 19.6 31.2002 19.5V2.7C31.2002 2.6 31.3002 2.5 31.4002 2.5H64.4002C64.5002 2.5 64.6002 2.6 64.6002 2.7V19.5C64.6002 19.6 64.5002 19.7 64.4002 19.7H52.1002C51.3002 19.7 50.6002 20.1 50.2002 20.8L47.8002 24.9L45.3002 20.7Z" fill="white"/>
<g opacity="0.2">
<path fill-rule="evenodd" clip-rule="evenodd" d="M47.8999 29.1L52.0999 21.8H64.3999C65.6999 21.8 66.7999 20.7 66.7999 19.4V2.6C66.7999 1.3 65.6999 0.199997 64.3999 0.199997H54.6999L43.8999 22.5L47.8999 29.1Z" fill="#ABE4FF"/>
</g>
<path fill-rule="evenodd" clip-rule="evenodd" d="M61 14.8H46.7C46.6 14.8 46.5 14.7 46.5 14.6C46.5 14.5 46.6 14.4 46.7 14.4H61C61.1 14.4 61.2 14.5 61.2 14.6C61.2 14.7 61.1 14.8 61 14.8Z" fill="#AEA3C2"/>
<path fill-rule="evenodd" clip-rule="evenodd" d="M61 12.2H46.7C46.6 12.2 46.5 12.1 46.5 12C46.5 11.9 46.6 11.8 46.7 11.8H61C61.1 11.8 61.2 11.9 61.2 12C61.2 12.1 61.1 12.2 61 12.2Z" fill="#AEA3C2"/>
<path fill-rule="evenodd" clip-rule="evenodd" d="M35.0001 11.3C34.9001 11.3 34.9001 11.3 34.8001 11.2C34.7001 11.1 34.7001 10.9 34.8001 10.9L38.9001 7.4C39.0001 7.3 39.1001 7.3 39.2001 7.4L40.8001 8.7V8.2C40.8001 8.1 40.9001 8 41.0001 8H41.9001C42.0001 8 42.1001 8.1 42.1001 8.2V9.7C42.1001 9.7 42.1001 9.7 42.1001 9.8L43.2001 10.9C43.3001 11 43.3001 11.2 43.2001 11.2C43.1001 11.3 42.9001 11.3 42.9001 11.2L41.7001 9.9C41.6001 9.8 41.6001 9.8 41.6001 9.7C41.6001 9.6 41.6001 9.6 41.7001 9.6V8.5H41.3001V9.2C41.3001 9.3 41.3001 9.4 41.2001 9.4C41.1001 9.4 41.0001 9.5 41.0001 9.4H40.9001C40.9001 9.4 40.9001 9.4 40.8001 9.4L39.0001 8L35.1001 11.4C35.1001 11.3 35.1001 11.3 35.0001 11.3Z" fill="#EE4014"/>
<path fill-rule="evenodd" clip-rule="evenodd" d="M42 15.2H40.2C40.1 15.2 40 15.1 40 15V13H38.2V15C38.2 15.1 38.1 15.2 38 15.2H36.2C36.1 15.2 36 15.1 36 15V11.7C36 11.6 36.1 11.5 36.2 11.5C36.3 11.5 36.4 11.6 36.4 11.7V14.7H37.7V12.7C37.7 12.6 37.8 12.5 37.9 12.5H40.2C40.3 12.5 40.4 12.6 40.4 12.7V14.7H41.7V11.7C41.7 11.6 41.8 11.5 41.9 11.5C42 11.5 42.1 11.6 42.1 11.7V15C42.2 15.1 42.1 15.2 42 15.2Z" fill="#EE4014"/>
<path fill-rule="evenodd" clip-rule="evenodd" d="M59.8999 8.1L59.1999 8.6C59.0999 8.7 59.0999 8.6 59.0999 8.5L59.2999 7.7L58.5999 7.2C58.4999 7.1 58.4999 7.1 58.5999 7.1H59.3999L59.6999 6.4C59.6999 6.3 59.7999 6.3 59.7999 6.4L60.0999 7.1H60.8999C60.9999 7.1 60.9999 7.2 60.8999 7.2L60.1999 7.7L60.3999 8.5C60.3999 8.6 60.3999 8.6 60.2999 8.6C60.4999 8.6 59.8999 8.1 59.8999 8.1Z" fill="#FF9305"/>
<path fill-rule="evenodd" clip-rule="evenodd" d="M56.6997 8.1L55.9997 8.6C55.8997 8.7 55.8997 8.6 55.8997 8.5L56.0997 7.7L55.3997 7.2C55.2997 7.1 55.2997 7.1 55.3997 7.1H56.1997L56.4997 6.4C56.4997 6.3 56.5997 6.3 56.5997 6.4L56.8997 7.1H57.6997C57.7997 7.1 57.7997 7.2 57.6997 7.2L56.9997 7.7L57.1997 8.5C57.1997 8.6 57.1997 8.6 57.0997 8.6C57.3997 8.6 56.6997 8.1 56.6997 8.1Z" fill="#FF9305"/>
<path fill-rule="evenodd" clip-rule="evenodd" d="M53.5996 8.1L52.8996 8.6C52.7996 8.7 52.7996 8.6 52.7996 8.5L52.9996 7.7L52.2996 7.2C52.1996 7.1 52.1996 7.1 52.2996 7.1H53.0996L53.3996 6.4C53.3996 6.3 53.4996 6.3 53.4996 6.4L53.7996 7.1H54.5996C54.6996 7.1 54.6996 7.2 54.5996 7.2L53.8996 7.7L54.0996 8.5C54.0996 8.6 54.0996 8.6 53.9996 8.6C54.2996 8.6 53.5996 8.1 53.5996 8.1Z" fill="#FF9305"/>
<path fill-rule="evenodd" clip-rule="evenodd" d="M50.5 8.1C50.5 8.1 50.4 8.1 50.5 8.1L49.8 8.6C49.7 8.7 49.7 8.6 49.7 8.5L49.9 7.7L49.2 7.2C49.1 7.1 49.1 7.1 49.2 7.1H50L50.3 6.4C50.3 6.3 50.4 6.3 50.4 6.4L50.7 7.1H51.5C51.6 7.1 51.6 7.2 51.5 7.2L50.8 7.7L51 8.5C51 8.6 51 8.6 50.9 8.6C51.1 8.6 50.5 8.1 50.5 8.1Z" fill="#FF9305"/>
<path fill-rule="evenodd" clip-rule="evenodd" d="M47.2998 8.1L46.5998 8.6C46.4998 8.7 46.4998 8.6 46.4998 8.5L46.6998 7.7L45.9998 7.2C45.8998 7.1 45.8998 7.1 45.9998 7.1H46.7998L47.0998 6.4C47.0998 6.3 47.1998 6.3 47.1998 6.4L47.4998 7.1H48.2998C48.3998 7.1 48.3998 7.2 48.2998 7.2L47.5998 7.7L47.7998 8.5C47.7998 8.6 47.7998 8.6 47.6998 8.6C47.9998 8.6 47.2998 8.1 47.2998 8.1Z" fill="#FF9305"/>
<path fill-rule="evenodd" clip-rule="evenodd" d="M34.6002 51L34.2002 50.7L34.9002 49.7L35.3002 50L34.6002 51ZM36.1002 48.8L35.7002 48.5L36.4002 47.5L36.8002 47.8L36.1002 48.8ZM37.5002 46.6V46.5L37.2002 46.3L37.3002 46.2C37.3002 46.1 37.4002 46.1 37.5002 46.1H38.6002V46.6H37.5002ZM40.1002 46.6V46.1H41.3002V46.6H40.1002ZM41.7002 45.6L41.5002 44.4L42.0002 44.3L42.2002 45.5L41.7002 45.6ZM41.2002 43L41.0002 41.8L41.5002 41.7L41.7002 42.9L41.2002 43ZM40.6002 40.4L40.4002 39.2L40.9002 39.1L41.1002 40.3L40.6002 40.4ZM40.1002 37.8L39.9002 36.6L40.4002 36.5L40.6002 37.7L40.1002 37.8ZM39.5002 35.2L39.3002 34L39.8002 33.9L40.0002 35.1L39.5002 35.2ZM39.0002 32.6L38.9002 32.3C38.9002 32.2 38.9002 32.1 39.0002 32.1L39.6002 31.5L40.0002 31.8L39.5002 32.3V32.5L39.0002 32.6ZM45.0002 30.7L44.2002 29.8L44.6002 29.5L45.4002 30.4L45.0002 30.7ZM40.9002 30.7L40.5002 30.4L41.3002 29.5L41.7002 29.8L40.9002 30.7ZM43.2002 28.7L43.0002 28.4L42.8002 28.6L42.4002 28.3L42.8002 27.9C42.8002 27.9 42.9002 27.8 43.0002 27.8C43.1002 27.8 43.1002 27.8 43.2002 27.9L43.6002 28.4L43.2002 28.7Z" fill="#FF5C75"/>
<path fill-rule="evenodd" clip-rule="evenodd" d="M33.4001 63.2C33.1001 63.2 32.9001 63.1 32.6001 63L28.9001 60.9C28.5001 60.7 28.1001 60.1 28.1001 59.6V55.3C28.1001 54.8 28.4001 54.2 28.9001 54L32.6001 51.9C33.0001 51.7 33.7001 51.7 34.1001 51.9L37.8001 54C38.2001 54.2 38.6001 54.8 38.6001 55.3V59.6C38.6001 60.1 38.3001 60.7 37.8001 60.9L34.1001 63C34.0001 63.1 33.7001 63.2 33.4001 63.2ZM33.4001 52.5C33.3001 52.5 33.2001 52.5 33.1001 52.6L29.4001 54.7C29.3001 54.8 29.1001 55 29.1001 55.2V59.5C29.1001 59.7 29.3001 59.9 29.4001 60L33.1001 62.1C33.2001 62.2 33.6001 62.2 33.7001 62.1L37.4001 60C37.5001 59.9 37.7001 59.7 37.7001 59.5V55.2C37.7001 55 37.5001 54.8 37.4001 54.7L33.7001 52.6C33.6001 52.6 33.5001 52.5 33.4001 52.5Z" fill="#F25A58"/>
<path fill-rule="evenodd" clip-rule="evenodd" d="M28.6001 55.3C28.6001 55 28.8001 54.6 29.1001 54.4L32.8001 52.3C33.1001 52.1 33.6001 52.1 33.9001 52.3L37.6001 54.4C37.9001 54.6 38.1001 55 38.1001 55.3V59.6C38.1001 59.9 37.9001 60.3 37.6001 60.5L33.9001 62.6C33.6001 62.8 33.1001 62.8 32.8001 62.6L29.1001 60.5C28.8001 60.3 28.6001 59.9 28.6001 59.6V55.3Z" fill="#DBF5FF"/>
<mask id="mask1" mask-type="alpha" maskUnits="userSpaceOnUse" x="28" y="52" width="11" height="11">
<path fill-rule="evenodd" clip-rule="evenodd" d="M28.6001 55.3C28.6001 55 28.8001 54.6 29.1001 54.4L32.8001 52.3C33.1001 52.1 33.6001 52.1 33.9001 52.3L37.6001 54.4C37.9001 54.6 38.1001 55 38.1001 55.3V59.6C38.1001 59.9 37.9001 60.3 37.6001 60.5L33.9001 62.6C33.6001 62.8 33.1001 62.8 32.8001 62.6L29.1001 60.5C28.8001 60.3 28.6001 59.9 28.6001 59.6V55.3Z" fill="white"/>
</mask>
<g mask="url(#mask1)">
<path fill-rule="evenodd" clip-rule="evenodd" d="M34.0999 58.4H33.3999V54.3L34.5999 55.1C34.5999 55.1 34.5999 55.1 34.5999 55.2L34.0999 58.4Z" fill="#421B1B"/>
<path fill-rule="evenodd" clip-rule="evenodd" d="M34.1999 57.7V58.3L35.1999 59L35.7999 59.2L36.0999 60.2L36.2999 61.6L33.3999 63V58L34.1999 57.7Z" fill="#D6AF7E"/>
<path fill-rule="evenodd" clip-rule="evenodd" d="M33.3999 57.2V58.8L33.9999 58.3L34.0999 57.9L34.2999 57.2H33.3999Z" fill="#E0A763"/>
<path fill-rule="evenodd" clip-rule="evenodd" d="M33.3999 57.7V57V54.3L34.1999 54.4L34.5999 55.1L34.4999 56.4L34.2999 57.2L33.7999 57.6L33.3999 57.7Z" fill="#F2C48C"/>
<path fill-rule="evenodd" clip-rule="evenodd" d="M33.6001 55.9L34.2001 55.8L34.1001 54.9L34.5001 55.2L34.7001 55.9L34.6001 56.4V56.5L34.5001 57.1L33.9001 57.7L34.2001 57.1L34.4001 56.7L34.6001 56.2V56H34.4001H33.8001L33.6001 55.9Z" fill="#F2B76F"/>
<path fill-rule="evenodd" clip-rule="evenodd" d="M33.6997 56L33.9997 55.9L34.1997 56V56.1H33.8997H33.6997V56Z" fill="#71ACBD"/>
<path fill-rule="evenodd" clip-rule="evenodd" d="M33.7998 56H33.9998V56.1H33.8998H33.7998V56Z" fill="#008BB2"/>
<rect x="33.8999" y="56" width="1" height="1" fill="#24658C"/>
<path fill-rule="evenodd" clip-rule="evenodd" d="M33.3999 55.9V56.8L33.4999 56.7V56L33.3999 55.9Z" fill="#F8D6BC"/>
<path fill-rule="evenodd" clip-rule="evenodd" d="M33.3999 56.7H33.4999L33.5999 56.8H33.3999V56.7Z" fill="#F2C084"/>
<path fill-rule="evenodd" clip-rule="evenodd" d="M33.5999 57L33.7999 57.1H33.4999H33.3999V57H33.5999Z" fill="#D89344"/>
<path fill-rule="evenodd" clip-rule="evenodd" d="M33.3999 57.1V57.2H33.5999L33.7999 57.1H33.4999H33.3999Z" fill="#FFB273"/>
<path fill-rule="evenodd" clip-rule="evenodd" d="M33.3999 57.3H33.5999V57.2L33.4999 57.3H33.3999Z" fill="#CFB39D"/>
<path fill-rule="evenodd" clip-rule="evenodd" d="M34.8001 55.7L34.7001 56.4V56.5H34.6001V55.9C34.6001 55.8 34.8001 55.7 34.8001 55.7Z" fill="#F2B76F"/>
<path fill-rule="evenodd" clip-rule="evenodd" d="M33.3999 58L33.8999 57.9L34.2999 58.3L35.2999 58.8L34.2999 59.5L33.3999 59.4V58Z" fill="#E6B173"/>
<path fill-rule="evenodd" clip-rule="evenodd" d="M34.2999 58.3L33.7999 58.7L33.3999 58.8V63H36.7999L36.5999 59.9L36.3999 59.2L35.2999 58.8L34.2999 58.3Z" fill="#B0E0FF"/>
<path fill-rule="evenodd" clip-rule="evenodd" d="M34.7999 58.4L34.1999 59.5L33.3999 60.3V63H36.7999L36.5999 59.9L36.3999 59.2L35.3999 58.7L34.7999 58.4Z" fill="#005F9E"/>
<path fill-rule="evenodd" clip-rule="evenodd" d="M33.6001 55.7H34.0001L34.3001 55.8H33.8001H33.6001V55.7Z" fill="#5C4D4D"/>
<path fill-rule="evenodd" clip-rule="evenodd" d="M33.3999 54.8L33.9999 54.7L34.3999 55.2V55.9L34.5999 55.8L34.6999 54.9L34.1999 54.2H33.3999V54.8Z" fill="#42210B"/>
<path fill-rule="evenodd" clip-rule="evenodd" d="M33.3999 58.5L33.7999 59.3L34.4999 58.4L34.2999 58.1L33.3999 58.5Z" fill="#BDE5FF"/>
<path fill-rule="evenodd" clip-rule="evenodd" d="M33.3999 58.5V58.8L33.7999 59.3L33.3999 58.5Z" fill="#65B1E3"/>
<path fill-rule="evenodd" clip-rule="evenodd" d="M32.7002 58.4H33.4002V54.3L32.2002 55.1C32.2002 55.1 32.2002 55.1 32.2002 55.2L32.7002 58.4Z" fill="#421B1B"/>
<path fill-rule="evenodd" clip-rule="evenodd" d="M32.6 57.7V58.3L31.6 59L31 59.2L30.7 60.2L30.5 61.6L33.4 63V58L32.6 57.7Z" fill="#D6AF7E"/>
<path fill-rule="evenodd" clip-rule="evenodd" d="M33.4 57.2V58.8L32.8 58.3L32.7 57.9L32.5 57.2H33.4Z" fill="#E0B076"/>
<path fill-rule="evenodd" clip-rule="evenodd" d="M33.4002 57.7V57V54.3L32.6002 54.4L32.2002 55.1L32.3002 56.4L32.5002 57.2L33.0002 57.6L33.4002 57.7Z" fill="#F2CDA1"/>
<path fill-rule="evenodd" clip-rule="evenodd" d="M33.2001 55.9L32.6001 55.8L32.7001 54.9L32.3001 55.2L32.1001 55.9L32.2001 56.4V56.5L32.3001 57.1L32.9001 57.7L32.6001 57.1L32.4001 56.7L32.2001 56.2V56H32.4001H33.0001L33.2001 55.9Z" fill="#F2C084"/>
<path fill-rule="evenodd" clip-rule="evenodd" d="M33.1001 56L32.8001 55.9L32.6001 56V56.1H32.9001H33.1001V56Z" fill="#71ACBD"/>
<path fill-rule="evenodd" clip-rule="evenodd" d="M32.9998 56H32.7998V56.1H32.8998H32.9998V56Z" fill="#008BB2"/>
<rect x="32.8999" y="56" width="1" height="1" fill="#24658C"/>
<path fill-rule="evenodd" clip-rule="evenodd" d="M33.3998 55.9V56.8L33.2998 56.7V56L33.3998 55.9Z" fill="#F8D6BC"/>
<path fill-rule="evenodd" clip-rule="evenodd" d="M33.4002 56.7H33.3002L33.2002 56.8H33.4002V56.7Z" fill="#F2C084"/>
<path fill-rule="evenodd" clip-rule="evenodd" d="M33.2 57L33 57.1H33.2H33.4V57H33.2Z" fill="#D89344"/>
<path fill-rule="evenodd" clip-rule="evenodd" d="M33.4 57.1V57.2H33.2L33 57.1H33.3H33.4Z" fill="#FFB273"/>
<path fill-rule="evenodd" clip-rule="evenodd" d="M33.4002 57.3H33.2002V57.2L33.3002 57.3H33.4002Z" fill="#CFB39D"/>
<path fill-rule="evenodd" clip-rule="evenodd" d="M32 55.7L32.1 56.4V56.5H32.2V55.9C32.2 55.8 32 55.7 32 55.7Z" fill="#F2C084"/>
<path fill-rule="evenodd" clip-rule="evenodd" d="M33.4 58L32.9 57.9L32.5 58.3L31.5 58.8L32.5 59.5L33.4 59.4V58Z" fill="#E6BA87"/>
<path fill-rule="evenodd" clip-rule="evenodd" d="M32.5 58.3L33 58.7L33.4 58.8V63H30L30.2 59.9L30.4 59.2L31.4 58.8L32.5 58.3Z" fill="#D9F0FF"/>
<path fill-rule="evenodd" clip-rule="evenodd" d="M32 58.4L32.6 59.5L33.4 60.3V63H30L30.2 59.9L30.4 59.2L31.4 58.7L32 58.4Z" fill="#0071BC"/>
<path fill-rule="evenodd" clip-rule="evenodd" d="M33.2 55.7H32.8L32.5 55.8H32.9H33.2V55.7Z" fill="#5C4D4D"/>
<path fill-rule="evenodd" clip-rule="evenodd" d="M33.4001 54.8L32.8001 54.7L32.4001 55.2V55.9L32.2001 55.8L32.1001 54.9L32.6001 54.2H33.4001V54.8Z" fill="#42210B"/>
<path fill-rule="evenodd" clip-rule="evenodd" d="M33.3998 58.5L32.9998 59.3L32.2998 58.4L32.4998 58.1L33.3998 58.5Z" fill="#E8F6FF"/>
<path fill-rule="evenodd" clip-rule="evenodd" d="M33.4 58.5V58.8L33 59.3L33.4 58.5Z" fill="#65B1E3"/>
<g opacity="0.2">
<path fill-rule="evenodd" clip-rule="evenodd" d="M32.9999 54.3H34.0999L34.4999 54.9L34.3999 55.2L34.0999 54.6H33.3999L32.8999 54.4L32.9999 54.3Z" fill="#DBFAFF"/>
</g>
<g opacity="0.28">
<path fill-rule="evenodd" clip-rule="evenodd" d="M33.4999 60.2L33.3999 60.3V58.7H33.4999V60.2Z" fill="#65B1E3"/>
</g>
</g>
<path fill-rule="evenodd" clip-rule="evenodd" d="M61.6 58.3H57.7C57.6 58.3 57.5 58.3 57.5 58.2V55.8C57.5 55.8 57.5 55.7 57.6 55.7C58.1 55.7 58.4 55.5 58.6 55.4C58.7 55.3 58.8 55.3 58.9 55.3H59L59.1 55C59.1 54.9 59.2 54.8 59.3 54.8H60.6C60.7 54.8 60.8 54.9 60.8 55L60.9 55.3H61.8C61.9 55.3 62 55.4 62 55.5V58.2C61.8 58.3 61.7 58.3 61.6 58.3ZM57.7 55.7V58.1C57.7 58.1 57.7 58.1 57.8 58.1H61.7H61.8V55.4C61.8 55.4 61.8 55.3 61.7 55.3H60.7H60.6L60.5 54.9L60.4 54.8H59.1C59.1 54.8 59 54.8 59 54.9L58.9 55.3C58.9 55.3 58.9 55.3 58.8 55.3H58.7C58.7 55.3 58.6 55.3 58.5 55.4C58.4 55.6 58.1 55.7 57.7 55.7Z" fill="#4BA3CC"/>
<path fill-rule="evenodd" clip-rule="evenodd" d="M57.9999 55.4H57.4999C57.4999 55.4 57.3999 55.4 57.3999 55.3C57.3999 55.2 57.3999 55.2 57.4999 55.2H57.9999C57.9999 55.2 57.9999 55.3 57.9999 55.4C57.9999 55.4 57.9999 55.3 57.9999 55.4Z" fill="#4BA3CC"/>
<path fill-rule="evenodd" clip-rule="evenodd" d="M59.7998 57.8C59.1998 57.8 58.7998 57.3 58.7998 56.8C58.7998 56.3 59.2998 55.8 59.7998 55.8C60.3998 55.8 60.7998 56.3 60.7998 56.8C60.7998 57.3 60.3998 57.8 59.7998 57.8ZM59.7998 55.8C59.2998 55.8 58.8998 56.2 58.8998 56.7C58.8998 57.2 59.2998 57.6 59.7998 57.6C60.2998 57.6 60.6998 57.2 60.6998 56.7C60.6998 56.2 60.2998 55.8 59.7998 55.8Z" fill="#4BA3CC"/>
<path fill-rule="evenodd" clip-rule="evenodd" d="M10.9999 53.2C10.6999 53.2 10.3999 52.9 10.3999 52.6C10.3999 52.3 10.6999 52 10.9999 52C11.2999 52 11.5999 52.3 11.5999 52.6C11.5999 52.9 11.2999 53.2 10.9999 53.2ZM10.9999 52.2C10.7999 52.2 10.5999 52.4 10.5999 52.6C10.5999 52.8 10.7999 53 10.9999 53C11.1999 53 11.3999 52.8 11.3999 52.6C11.3999 52.4 11.1999 52.2 10.9999 52.2Z" fill="#ABE4FF"/>
<path fill-rule="evenodd" clip-rule="evenodd" d="M8.4999 53.2C8.1999 53.2 7.8999 52.9 7.8999 52.6C7.8999 52.3 8.1999 52 8.4999 52C8.7999 52 9.0999 52.3 9.0999 52.6C9.1999 52.9 8.8999 53.2 8.4999 53.2ZM8.4999 52.2C8.2999 52.2 8.0999 52.4 8.0999 52.6C8.0999 52.8 8.2999 53 8.4999 53C8.6999 53 8.8999 52.8 8.8999 52.6C8.8999 52.4 8.6999 52.2 8.4999 52.2Z" fill="#ABE4FF"/>
<path fill-rule="evenodd" clip-rule="evenodd" d="M7.7 52.7H7.6C7.5 52.7 7.5 52.6 7.5 52.6V49.9C7.5 49.8 7.6 49.8 7.6 49.8H10C10.1 49.8 10.1 49.9 10.1 49.9V51.5C10.1 51.6 10 51.6 10 51.6C9.9 51.6 9.9 51.5 9.9 51.5V50H7.7V52.4C7.8 52.4 7.8 52.5 7.8 52.5C7.8 52.7 7.8 52.7 7.7 52.7Z" fill="#ABE4FF"/>
<path fill-rule="evenodd" clip-rule="evenodd" d="M11.8999 52.7H11.7999C11.6999 52.7 11.6999 52.6 11.6999 52.6C11.6999 52.5 11.7999 52.5 11.7999 52.5V51.3L11.3999 50.3H10.5999V51.4L11.3999 51.6C11.4999 51.6 11.4999 51.7 11.4999 51.7C11.4999 51.8 11.3999 51.8 11.3999 51.8L10.4999 51.6C10.3999 51.6 10.3999 51.5 10.3999 51.5V50.2C10.3999 50.1 10.4999 50.1 10.4999 50.1H11.4999C11.4999 50.1 11.5999 50.1 11.5999 50.2L12.0999 51.3V52.7C12.0999 52.7 11.9999 52.7 11.8999 52.7Z" fill="#ABE4FF"/>
<path fill-rule="evenodd" clip-rule="evenodd" d="M10.0998 52.7H9.3998C9.2998 52.7 9.2998 52.6 9.2998 52.6C9.2998 52.5 9.3998 52.5 9.3998 52.5H10.0998C10.1998 52.5 10.1998 52.6 10.1998 52.6C10.1998 52.7 10.1998 52.7 10.0998 52.7Z" fill="#ABE4FF"/>
<path fill-rule="evenodd" clip-rule="evenodd" d="M10.0998 52H9.3998C9.2998 52 9.2998 51.9 9.2998 51.9C9.2998 51.8 9.3998 51.8 9.3998 51.8H10.0998C10.1998 51.8 10.1998 51.9 10.1998 51.9C10.1998 51.9 10.1998 52 10.0998 52Z" fill="#ABE4FF"/>
<path fill-rule="evenodd" clip-rule="evenodd" d="M48.1 52.1C47.8 52.1 47.5 51.8 47.5 51.5C47.5 51.2 47.8 50.9 48.1 50.9C48.4 50.9 48.7 51.2 48.7 51.5C48.7 51.8 48.4 52.1 48.1 52.1ZM48.1 51.1C47.9 51.1 47.7 51.3 47.7 51.5C47.7 51.7 47.9 51.9 48.1 51.9C48.3 51.9 48.5 51.7 48.5 51.5C48.4 51.3 48.3 51.1 48.1 51.1Z" fill="white"/>
<path fill-rule="evenodd" clip-rule="evenodd" d="M45.3998 52.1C45.0998 52.1 44.7998 51.8 44.7998 51.5C44.7998 51.2 45.0998 50.9 45.3998 50.9C45.6998 50.9 45.9998 51.2 45.9998 51.5C45.9998 51.8 45.7998 52.1 45.3998 52.1ZM45.3998 51.1C45.1998 51.1 44.9998 51.3 44.9998 51.5C44.9998 51.7 45.1998 51.9 45.3998 51.9C45.5998 51.9 45.7998 51.7 45.7998 51.5C45.7998 51.3 45.5998 51.1 45.3998 51.1Z" fill="white"/>
<path fill-rule="evenodd" clip-rule="evenodd" d="M49.0998 51.6H48.9998C48.8998 51.6 48.8998 51.5 48.8998 51.5C48.8998 51.4 48.9998 51.4 48.9998 51.4V50.3L48.5998 49H44.6998V51.4C44.7998 51.4 44.7998 51.5 44.7998 51.5C44.7998 51.6 44.6998 51.6 44.6998 51.6H44.3998C44.2998 51.6 44.2998 51.5 44.2998 51.5V48.8C44.2998 48.7 44.3998 48.7 44.3998 48.7H48.4998C48.5998 48.7 48.5998 48.7 48.5998 48.8L49.0998 50.2V51.4C49.1998 51.6 49.0998 51.6 49.0998 51.6Z" fill="white"/>
<path fill-rule="evenodd" clip-rule="evenodd" d="M47.1996 51.6H46.1996C46.0996 51.6 46.0996 51.5 46.0996 51.5C46.0996 51.4 46.1996 51.4 46.1996 51.4H47.1996C47.2996 51.4 47.2996 51.5 47.2996 51.5C47.3996 51.6 47.2996 51.6 47.1996 51.6Z" fill="white"/>
<path fill-rule="evenodd" clip-rule="evenodd" d="M48.3999 50.4H44.9999C44.8999 50.4 44.8999 50.3 44.8999 50.3C44.8999 50.2 44.9999 50.2 44.9999 50.2H48.3999C48.4999 50.2 48.4999 50.3 48.4999 50.3C48.5999 50.4 48.4999 50.4 48.3999 50.4Z" fill="white"/>
<path fill-rule="evenodd" clip-rule="evenodd" d="M43.2001 63.8H41.7001C41.7001 63.8 41.6001 63.8 41.6001 63.7V63.4C41.6001 63.3 41.6001 63.2 41.6001 63.1L42.2001 59.9C42.2001 59.8 42.3001 59.7 42.4001 59.7H42.5001V59.3C42.5001 59.2 42.6001 59.1 42.7001 59.1H43.0001C43.1001 59.1 43.2001 59.2 43.2001 59.3V59.7C43.3001 59.7 43.4001 59.8 43.4001 59.9L43.6001 61.7C43.6001 61.8 43.6001 61.9 43.5001 62L43.3001 62.2C43.3001 62.2 43.2001 62.3 43.2001 62.4V63.8C43.2001 63.8 43.3001 63.8 43.2001 63.8ZM41.8001 63.7H43.2001V62.5C43.2001 62.4 43.3001 62.3 43.3001 62.2L43.5001 62C43.5001 62 43.6001 61.9 43.6001 61.8L43.4001 60C43.4001 59.9 43.3001 59.9 43.3001 59.9H43.2001C43.2001 59.9 43.1001 59.9 43.1001 59.8V59.3C43.1001 59.2 43.1001 59.2 43.0001 59.2H42.7001C42.7001 59.2 42.6001 59.2 42.6001 59.3V59.8C42.6001 59.8 42.6001 59.9 42.5001 59.9H42.4001C42.3001 59.9 42.3001 59.9 42.3001 60L41.7001 63.2C41.7001 63.3 41.7001 63.4 41.7001 63.5V63.7H41.8001Z" fill="#F27877"/>
<path fill-rule="evenodd" clip-rule="evenodd" d="M46.1001 63.8H44.6001C44.6001 63.8 44.5001 63.8 44.5001 63.7V62.4C44.5001 62.3 44.5001 62.2 44.4001 62.2L44.2001 62C44.1001 61.9 44.1001 61.8 44.1001 61.7L44.3001 59.9C44.3001 59.8 44.4001 59.7 44.5001 59.7V59.3C44.5001 59.2 44.6001 59.1 44.7001 59.1H45.0001C45.1001 59.1 45.2001 59.2 45.2001 59.3V59.7H45.3001C45.4001 59.7 45.5001 59.8 45.5001 59.9L46.1001 63.1C46.1001 63.2 46.1001 63.3 46.1001 63.4V63.8ZM44.6001 63.7H46.0001V63.5C46.0001 63.4 46.0001 63.3 46.0001 63.2L45.4001 60C45.4001 59.9 45.3001 59.9 45.3001 59.9H45.2001C45.2001 59.9 45.1001 59.9 45.1001 59.8V59.3C45.1001 59.2 45.1001 59.2 45.0001 59.2H44.7001C44.7001 59.2 44.6001 59.2 44.6001 59.3V59.8C44.6001 59.8 44.6001 59.9 44.5001 59.9H44.4001C44.3001 59.9 44.3001 59.9 44.3001 60L44.1001 61.8C44.1001 61.9 44.1001 62 44.2001 62L44.4001 62.2C44.5001 62.3 44.5001 62.4 44.5001 62.5V63.7H44.6001Z" fill="#F27877"/>
<path fill-rule="evenodd" clip-rule="evenodd" d="M43.9003 62C43.8003 62 43.8003 62 43.9003 62L43.8003 60.7C43.8003 60.7 43.8003 60.6 43.9003 60.6C44.0003 60.6 44.0003 60.6 44.0003 60.7L43.9003 62Z" fill="#F27877"/>
<path fill-rule="evenodd" clip-rule="evenodd" d="M67.5002 32.4C65.7002 32.4 64.2002 30.9 64.2002 29.1C64.2002 27.3 65.7002 25.8 67.5002 25.8C69.3002 25.8 70.8002 27.3 70.8002 29.1C70.8002 30.9 69.3002 32.4 67.5002 32.4ZM67.5002 26C65.8002 26 64.4002 27.4 64.4002 29.1C64.4002 30.8 65.8002 32.2 67.5002 32.2C69.2002 32.2 70.6002 30.8 70.6002 29.1C70.6002 27.4 69.2002 26 67.5002 26Z" fill="#ABE4FF"/>
<path fill-rule="evenodd" clip-rule="evenodd" d="M67.5002 27.8C66.6002 27.8 65.8002 27.5 65.2002 26.9V26.8H65.3002C65.9002 27.4 66.7002 27.7 67.5002 27.7C68.3002 27.7 69.1002 27.4 69.7002 26.8H69.8002V26.9C69.2002 27.5 68.3002 27.8 67.5002 27.8Z" fill="#ABE4FF"/>
<path fill-rule="evenodd" clip-rule="evenodd" d="M69.7002 31.5C69.1002 30.9 68.3002 30.6 67.5002 30.6C66.7002 30.6 65.9002 30.9 65.3002 31.5H65.2002V31.4C65.8002 30.8 66.6002 30.5 67.5002 30.5C68.4002 30.5 69.2002 30.8 69.8002 31.4C69.8002 31.4 69.8002 31.5 69.7002 31.5C69.7002 31.5 69.8002 31.5 69.7002 31.5Z" fill="#ABE4FF"/>
<path fill-rule="evenodd" clip-rule="evenodd" d="M70.5003 29.2H64.4003C64.4003 29.2 64.3003 29.2 64.3003 29.1C64.3003 29.1 64.3003 29 64.4003 29H70.5003C70.6003 29 70.6003 29.1 70.5003 29.2C70.6003 29.2 70.6003 29.2 70.5003 29.2Z" fill="#ABE4FF"/>
<path fill-rule="evenodd" clip-rule="evenodd" d="M67.5004 32.2C67.4004 32.2 67.4004 32.2 67.5004 32.2L67.4004 26.1C67.4004 26.1 67.4004 26 67.5004 26C67.5004 26 67.6004 26 67.6004 26.1L67.5004 32.2C67.5004 32.2 67.6004 32.2 67.5004 32.2Z" fill="#ABE4FF"/>
<path fill-rule="evenodd" clip-rule="evenodd" d="M20.4004 27.9C20.1004 27.9 19.9004 27.7 19.9004 27.4C19.9004 27.1 20.1004 26.9 20.4004 26.9C20.7004 26.9 20.9004 27.1 20.9004 27.4C20.8004 27.7 20.6004 27.9 20.4004 27.9ZM20.4004 27.2C20.3004 27.2 20.2004 27.3 20.2004 27.4C20.2004 27.5 20.3004 27.6 20.4004 27.6C20.5004 27.6 20.6004 27.5 20.6004 27.4C20.6004 27.3 20.5004 27.2 20.4004 27.2Z" fill="white"/>
<path fill-rule="evenodd" clip-rule="evenodd" d="M23.5 27.9C23.2 27.9 23 27.7 23 27.4C23 27.1 23.2 26.9 23.5 26.9C23.8 26.9 24 27.1 24 27.4C24 27.7 23.8 27.9 23.5 27.9ZM23.5 27.2C23.4 27.2 23.3 27.3 23.3 27.4C23.3 27.5 23.4 27.6 23.5 27.6C23.6 27.6 23.7 27.5 23.7 27.4C23.8 27.3 23.6 27.2 23.5 27.2Z" fill="white"/>
<path fill-rule="evenodd" clip-rule="evenodd" d="M23.0003 27.5H20.9003C20.8003 27.5 20.8003 27.4 20.8003 27.4C20.8003 27.3 20.9003 27.3 20.9003 27.3H23.0003C23.1003 27.3 23.1003 27.4 23.1003 27.4C23.2003 27.4 23.1003 27.5 23.0003 27.5Z" fill="white"/>
<path fill-rule="evenodd" clip-rule="evenodd" d="M20.5004 27.1C20.4004 27.1 20.4004 27 20.4004 27V24.1C20.4004 24 20.5004 24 20.5004 24C20.6004 24 20.6004 24.1 20.6004 24.1V27C20.6004 27.1 20.5004 27.1 20.5004 27.1Z" fill="white"/>
<path fill-rule="evenodd" clip-rule="evenodd" d="M20.5004 26.4C20.4004 26.4 20.4004 26.4 20.4004 26.3C20.4004 26.2 20.4004 26.2 20.5004 26.2L23.8004 25.5V24.4H20.5004C20.4004 24.4 20.4004 24.3 20.4004 24.3C20.4004 24.2 20.5004 24.2 20.5004 24.2H23.9004C24.0004 24.2 24.0004 24.3 24.0004 24.3V25.6C24.0004 25.7 24.0004 25.7 23.9004 25.7L20.5004 26.4Z" fill="white"/>
<path fill-rule="evenodd" clip-rule="evenodd" d="M20.5002 24.3C20.5002 24.3 20.4002 24.3 20.4002 24.2L20.0002 23.3H19.3002C19.2002 23.3 19.2002 23.2 19.2002 23.2C19.2002 23.1 19.3002 23.1 19.3002 23.1H20.1002C20.1002 23.1 20.2002 23.1 20.2002 23.2L20.6002 24.2C20.6002 24.2 20.6002 24.3 20.5002 24.3Z" fill="white"/>
<path fill-rule="evenodd" clip-rule="evenodd" d="M9.8998 38.7L7.7998 36.5V40.8L9.8998 38.7Z" fill="white"/>
<path fill-rule="evenodd" clip-rule="evenodd" d="M27.6999 35.2H21.3999C21.1999 35.2 20.8999 35.4 20.8999 35.7V38.9C20.8999 39.1 21.0999 39.3 21.3999 39.3H23.6999L24.4999 40.7L25.2999 39.3H27.5999C27.7999 39.3 27.9999 39.1 27.9999 38.9V35.7C28.1999 35.4 27.9999 35.2 27.6999 35.2Z" fill="#58A5F2"/>
<path fill-rule="evenodd" clip-rule="evenodd" d="M24.0999 39.1C23.9999 39 23.8999 38.9 23.6999 38.9H21.3999V35.7H27.6999V38.9H25.3999C25.2999 38.9 25.0999 39 24.9999 39.1L24.4999 39.9L24.0999 39.1Z" fill="white"/>
<path fill-rule="evenodd" clip-rule="evenodd" d="M55.0999 43.3H48.7999C48.5999 43.3 48.3999 43.5 48.3999 43.8V47C48.3999 47.2 48.5999 47.5 48.7999 47.5H51.0999L51.8999 48.9L52.6999 47.5H54.9999C55.1999 47.5 55.4999 47.3 55.4999 47V43.8C55.5999 43.5 55.3999 43.3 55.0999 43.3Z" fill="#58A5F2"/>
<path fill-rule="evenodd" clip-rule="evenodd" d="M51.4998 47.2C51.3998 47.1 51.2998 47 51.0998 47H48.7998V43.8H55.0998V47H52.7998C52.6998 47 52.4998 47.1 52.3998 47.2L51.8998 48L51.4998 47.2Z" fill="white"/>
<path fill-rule="evenodd" clip-rule="evenodd" d="M52 46L51.3 46.5C51.2 46.6 51.2 46.5 51.2 46.4L51.4 45.6L50.7 45.1C50.6 45 50.6 45 50.7 45H51.5L51.8 44.3C51.8 44.2 51.9 44.2 51.9 44.3L52.2 45H53C53.1 45 53.1 45.1 53 45.1L52.3 45.6L52.5 46.4C52.5 46.5 52.5 46.5 52.4 46.5C52.7 46.5 52 46 52 46Z" fill="#F25A58"/>
<path fill-rule="evenodd" clip-rule="evenodd" d="M24.6 37.7L24.1 38.1C24 38.1 24 38.1 24 38L24.2 37.4L23.7 37C23.6 37 23.6 36.9 23.7 36.9H24.3L24.5 36.4C24.5 36.3 24.6 36.3 24.6 36.4L24.8 36.9H25.4C25.5 36.9 25.5 36.9 25.4 37L24.9 37.4L25.1 38C25.1 38.1 25.1 38.1 25 38.1C25.1 38 24.6 37.7 24.6 37.7Z" fill="#F25A58"/>
</svg>
